M48
;DRILL file {Pcbnew (2013-05-31 BZR 4019)-stable} date 6/10/2014 4:10:57 PM
;FORMAT={-:-/ absolute / inch / decimal}
FMAT,2
INCH,TZ
T1C0.020
T2C0.025
T3C0.028
T4C0.031
T5C0.032
T6C0.035
T7C0.035
T8C0.038
T9C0.042
T10C0.050
T11C0.052
T12C0.055
%
G90
G05
M72
T1
X9.6998Y-2.5248
X9.6998Y-2.5752
X9.6998Y-2.9998
X9.6998Y-3.0502
X9.7502Y-2.5248
X9.7502Y-2.5752
X9.7502Y-2.9998
X9.7502Y-3.0502
X10.1909Y-3.8508
X10.1909Y-3.9012
X10.2413Y-3.8508
X10.2413Y-3.9012
T2
X9.0535Y-4.5854
X9.114Y-4.058
X9.128Y-4.186
X9.17Y-4.058
X9.18Y-4.56
X9.2Y-4.47
X9.242Y-3.324
X9.256Y-4.182
X9.268Y-4.058
X9.324Y-4.058
X9.35Y-3.432
X9.38Y-4.08
X9.39Y-3.88
X9.39Y-4.03
X9.405Y-3.23
X9.4125Y-2.806
X9.425Y-2.55
X9.45Y-3.265
X9.4635Y-2.8565
X9.472Y-2.7
X9.49Y-2.56
X9.498Y-2.46
X9.5085Y-2.9005
X9.518Y-2.702
X9.55Y-2.86
X9.565Y-3.08
X9.57Y-3.31
X9.57Y-3.35
X9.57Y-3.39
X9.58Y-2.55
X9.59Y-3.01
X9.59Y-3.75
X9.59Y-3.84
X9.5925Y-2.5025
X9.6Y-4.
X9.602Y-3.512
X9.6535Y-4.5453
X9.666Y-3.512
X9.676Y-2.44
X9.68Y-2.77
X9.688Y-2.69
X9.695Y-3.145
X9.71Y-3.74
X9.71Y-3.8
X9.738Y-2.718
X9.738Y-2.866
X9.74Y-3.21
X9.7425Y-2.395
X9.745Y-2.91
X9.7528Y-4.6268
X9.7598Y-2.4272
X9.77Y-2.66
X9.776Y-2.842
X9.7795Y-2.3878
X9.7882Y-3.8661
X9.7943Y-3.1398
X9.7975Y-2.31
X9.8Y-2.945
X9.81Y-2.63
X9.8356Y-3.127
X9.85Y-3.04
X9.8504Y-2.874
X9.8525Y-2.945
X9.8525Y-2.9925
X9.855Y-2.505
X9.8882Y-3.974
X9.9Y-2.505
X9.9291Y-2.874
X9.94Y-2.68
X9.94Y-3.956
X9.942Y-3.912
X9.95Y-3.11
X9.9518Y-4.4055
X9.9518Y-4.5463
X9.9537Y-2.6024
X9.9559Y-4.1157
X9.9625Y-2.9875
X9.9656Y-2.5049
X9.996Y-2.748
X9.996Y-2.792
X10.01Y-2.99
X10.0187Y-4.0935
X10.042Y-4.132
X10.06Y-3.35
X10.06Y-3.698
X10.06Y-3.77
X10.08Y-3.39
X10.09Y-3.908
X10.11Y-3.79
X10.15Y-3.61
X10.1875Y-4.091
X10.2283Y-4.0167
X10.2738Y-4.3762
X10.276Y-4.276
X10.276Y-4.328
X10.28Y-3.5
X10.28Y-3.544
X10.287Y-3.4299
X10.2957Y-4.1398
X10.32Y-4.302
X10.38Y-4.302
X10.3874Y-3.8303
X10.3913Y-3.6547
X10.3913Y-3.7094
X10.422Y-3.05
X10.43Y-2.58
X10.43Y-3.56
X10.435Y-3.9425
X10.4362Y-3.8748
X10.44Y-4.302
X10.472Y-3.05
X10.498Y-4.302
X10.502Y-3.4319
X10.5268Y-3.9764
X10.5307Y-3.8382
X10.535Y-3.8875
X10.548Y-3.156
X10.55Y-3.252
X10.612Y-3.236
X10.626Y-3.064
X10.626Y-3.124
X10.636Y-2.808
X10.725Y-3.045
X10.7275Y-3.985
X10.7275Y-4.0725
X10.7275Y-4.125
X10.73Y-4.03
X10.75Y-3.212
X10.752Y-3.262
X10.77Y-3.045
X10.77Y-3.355
X10.77Y-3.4
X10.7906Y-3.5898
X10.7906Y-3.6386
X10.812Y-3.256
X10.86Y-3.206
X10.892Y-2.638
X10.894Y-2.798
X10.9437Y-3.5902
X10.955Y-4.715
X10.9843Y-3.5469
X11.014Y-2.984
X11.02Y-4.515
X11.045Y-4.48
X11.092Y-2.988
X11.095Y-4.47
X11.14Y-4.48
X11.16Y-2.93
X11.196Y-3.192
X11.248Y-3.192
X11.415Y-3.2
X11.462Y-3.202
X11.52Y-3.202
T3
X11.434Y-2.8919
X11.434Y-2.9706
X11.434Y-3.0494
X11.434Y-3.1281
T4
X9.465Y-3.396
X9.515Y-3.346
X9.515Y-3.446
T5
X8.575Y-2.8819
X8.575Y-2.9606
X8.575Y-3.0394
X8.575Y-3.1181
X8.8194Y-4.3025
X8.8981Y-4.3025
X8.9769Y-4.3025
X9.0556Y-4.3025
X11.4425Y-2.5926
X11.4425Y-2.6714
X11.4425Y-2.7501
T6
X8.3189Y-2.7
X8.32Y-2.5
X8.325Y-3.3325
X8.3289Y-3.55
X8.6Y-2.7
X8.6011Y-2.5
X8.6061Y-3.3325
X8.61Y-3.55
X8.77Y-2.97
X8.77Y-3.07
X8.775Y-2.425
X8.775Y-2.825
X8.775Y-3.225
X8.775Y-3.625
X9.195Y-4.235
X9.195Y-4.635
X9.315Y-4.235
X9.315Y-4.635
X10.0429Y-3.136
X10.0439Y-2.9
X10.05Y-2.45
X10.05Y-2.675
X10.324Y-3.136
X10.325Y-2.9
X10.3311Y-2.45
X10.3311Y-2.675
X10.6Y-3.625
X10.6Y-4.025
X10.6778Y-2.3751
X10.6778Y-2.4539
X10.6778Y-2.6114
X10.6778Y-2.6901
X10.6778Y-2.7689
X10.705Y-4.24
X10.705Y-4.64
X10.7412Y-3.908
X10.7762Y-2.3751
X10.7762Y-2.4539
X10.7762Y-2.5326
X10.7762Y-2.6114
X10.7762Y-2.6901
X10.7762Y-2.7689
X10.844Y-3.908
X10.944Y-3.908
X11.044Y-3.908
X11.11Y-2.35
X11.11Y-2.6075
X11.11Y-2.86
X11.144Y-3.908
X11.244Y-3.908
X11.31Y-2.35
X11.31Y-2.6075
X11.31Y-2.86
X11.344Y-3.908
X11.444Y-3.908
X11.544Y-3.908
T7
X10.6778Y-2.5326
T8
X8.49Y-4.3049
X8.49Y-4.4033
X8.49Y-4.5017
X9.Y-3.93
X9.Y-4.03
X9.8606Y-2.3031
X9.9606Y-2.3031
X10.0606Y-2.3031
X10.675Y-2.99
X10.775Y-2.99
X11.28Y-4.57
X11.28Y-4.67
T9
X9.51Y-3.65
X9.61Y-3.65
X9.71Y-3.65
T10
X11.185Y-4.57
X11.185Y-4.67
T11
X10.9047Y-4.315
X11.4953Y-4.315
T12
X8.31Y-2.865
X8.31Y-2.965
X8.31Y-3.065
X8.31Y-3.165
X8.3275Y-4.3
X8.3275Y-4.4
X8.3275Y-4.5
X11.5475Y-2.572
X11.5475Y-2.672
X11.5475Y-2.772
T0
M30
