G04 (created by PCBNEW (2013-05-31 BZR 4019)-stable) date 3/12/2014 4:46:27 PM*
%MOIN*%
G04 Gerber Fmt 3.4, Leading zero omitted, Abs format*
%FSLAX34Y34*%
G01*
G70*
G90*
G04 APERTURE LIST*
%ADD10C,0.00590551*%
%ADD11C,0.003*%
%ADD12C,0.011811*%
%ADD13C,0.00393701*%
%ADD14C,0.006*%
%ADD15C,0.007*%
%ADD16C,0.015*%
%ADD17C,0.012*%
%ADD18C,0.01125*%
%ADD19C,0.008*%
%ADD20C,0.0075*%
%ADD21C,0.0107*%
G04 APERTURE END LIST*
G54D10*
G54D11*
X6501Y-12780D02*
X6501Y-12647D01*
X6501Y-12685D02*
X6510Y-12666D01*
X6520Y-12657D01*
X6539Y-12647D01*
X6558Y-12647D01*
X6701Y-12771D02*
X6682Y-12780D01*
X6644Y-12780D01*
X6624Y-12771D01*
X6615Y-12752D01*
X6615Y-12676D01*
X6624Y-12657D01*
X6644Y-12647D01*
X6682Y-12647D01*
X6701Y-12657D01*
X6710Y-12676D01*
X6710Y-12695D01*
X6615Y-12714D01*
X6786Y-12771D02*
X6805Y-12780D01*
X6844Y-12780D01*
X6863Y-12771D01*
X6872Y-12752D01*
X6872Y-12742D01*
X6863Y-12723D01*
X6844Y-12714D01*
X6815Y-12714D01*
X6796Y-12704D01*
X6786Y-12685D01*
X6786Y-12676D01*
X6796Y-12657D01*
X6815Y-12647D01*
X6844Y-12647D01*
X6863Y-12657D01*
X6958Y-12780D02*
X6958Y-12647D01*
X6958Y-12580D02*
X6948Y-12590D01*
X6958Y-12600D01*
X6967Y-12590D01*
X6958Y-12580D01*
X6958Y-12600D01*
X7044Y-12771D02*
X7063Y-12780D01*
X7101Y-12780D01*
X7120Y-12771D01*
X7129Y-12752D01*
X7129Y-12742D01*
X7120Y-12723D01*
X7101Y-12714D01*
X7072Y-12714D01*
X7053Y-12704D01*
X7044Y-12685D01*
X7044Y-12676D01*
X7053Y-12657D01*
X7072Y-12647D01*
X7101Y-12647D01*
X7120Y-12657D01*
X7186Y-12647D02*
X7263Y-12647D01*
X7215Y-12580D02*
X7215Y-12752D01*
X7224Y-12771D01*
X7244Y-12780D01*
X7263Y-12780D01*
X7358Y-12780D02*
X7339Y-12771D01*
X7329Y-12761D01*
X7320Y-12742D01*
X7320Y-12685D01*
X7329Y-12666D01*
X7339Y-12657D01*
X7358Y-12647D01*
X7386Y-12647D01*
X7405Y-12657D01*
X7415Y-12666D01*
X7424Y-12685D01*
X7424Y-12742D01*
X7415Y-12761D01*
X7405Y-12771D01*
X7386Y-12780D01*
X7358Y-12780D01*
X7510Y-12780D02*
X7510Y-12647D01*
X7510Y-12685D02*
X7520Y-12666D01*
X7529Y-12657D01*
X7548Y-12647D01*
X7567Y-12647D01*
X7767Y-12647D02*
X7815Y-12780D01*
X7863Y-12647D01*
X8025Y-12780D02*
X8025Y-12676D01*
X8015Y-12657D01*
X7996Y-12647D01*
X7958Y-12647D01*
X7939Y-12657D01*
X8025Y-12771D02*
X8005Y-12780D01*
X7958Y-12780D01*
X7939Y-12771D01*
X7929Y-12752D01*
X7929Y-12733D01*
X7939Y-12714D01*
X7958Y-12704D01*
X8005Y-12704D01*
X8025Y-12695D01*
X8148Y-12780D02*
X8129Y-12771D01*
X8120Y-12752D01*
X8120Y-12580D01*
X8310Y-12647D02*
X8310Y-12780D01*
X8224Y-12647D02*
X8224Y-12752D01*
X8234Y-12771D01*
X8253Y-12780D01*
X8282Y-12780D01*
X8301Y-12771D01*
X8310Y-12761D01*
X8482Y-12771D02*
X8463Y-12780D01*
X8424Y-12780D01*
X8405Y-12771D01*
X8396Y-12752D01*
X8396Y-12676D01*
X8405Y-12657D01*
X8424Y-12647D01*
X8463Y-12647D01*
X8482Y-12657D01*
X8491Y-12676D01*
X8491Y-12695D01*
X8396Y-12714D01*
X8567Y-12771D02*
X8586Y-12780D01*
X8625Y-12780D01*
X8644Y-12771D01*
X8653Y-12752D01*
X8653Y-12742D01*
X8644Y-12723D01*
X8625Y-12714D01*
X8596Y-12714D01*
X8577Y-12704D01*
X8567Y-12685D01*
X8567Y-12676D01*
X8577Y-12657D01*
X8596Y-12647D01*
X8625Y-12647D01*
X8644Y-12657D01*
X8863Y-12647D02*
X8939Y-12647D01*
X8891Y-12780D02*
X8891Y-12609D01*
X8901Y-12590D01*
X8920Y-12580D01*
X8939Y-12580D01*
X9034Y-12780D02*
X9015Y-12771D01*
X9005Y-12761D01*
X8996Y-12742D01*
X8996Y-12685D01*
X9005Y-12666D01*
X9015Y-12657D01*
X9034Y-12647D01*
X9063Y-12647D01*
X9082Y-12657D01*
X9091Y-12666D01*
X9101Y-12685D01*
X9101Y-12742D01*
X9091Y-12761D01*
X9082Y-12771D01*
X9063Y-12780D01*
X9034Y-12780D01*
X9186Y-12780D02*
X9186Y-12647D01*
X9186Y-12685D02*
X9196Y-12666D01*
X9205Y-12657D01*
X9225Y-12647D01*
X9244Y-12647D01*
X9567Y-12780D02*
X9453Y-12780D01*
X9510Y-12780D02*
X9510Y-12580D01*
X9491Y-12609D01*
X9472Y-12628D01*
X9453Y-12638D01*
X9748Y-12580D02*
X9653Y-12580D01*
X9644Y-12676D01*
X9653Y-12666D01*
X9672Y-12657D01*
X9720Y-12657D01*
X9739Y-12666D01*
X9748Y-12676D01*
X9758Y-12695D01*
X9758Y-12742D01*
X9748Y-12761D01*
X9739Y-12771D01*
X9720Y-12780D01*
X9672Y-12780D01*
X9653Y-12771D01*
X9644Y-12761D01*
X9844Y-12761D02*
X9853Y-12771D01*
X9844Y-12780D01*
X9834Y-12771D01*
X9844Y-12761D01*
X9844Y-12780D01*
X9948Y-12780D02*
X9986Y-12780D01*
X10005Y-12771D01*
X10015Y-12761D01*
X10034Y-12733D01*
X10044Y-12695D01*
X10044Y-12619D01*
X10034Y-12600D01*
X10025Y-12590D01*
X10005Y-12580D01*
X9967Y-12580D01*
X9948Y-12590D01*
X9939Y-12600D01*
X9929Y-12619D01*
X9929Y-12666D01*
X9939Y-12685D01*
X9948Y-12695D01*
X9967Y-12704D01*
X10005Y-12704D01*
X10025Y-12695D01*
X10034Y-12685D01*
X10044Y-12666D01*
X10110Y-12647D02*
X10158Y-12780D01*
X10205Y-12647D01*
X10434Y-12780D02*
X10434Y-12647D01*
X10434Y-12666D02*
X10444Y-12657D01*
X10463Y-12647D01*
X10491Y-12647D01*
X10510Y-12657D01*
X10520Y-12676D01*
X10520Y-12780D01*
X10520Y-12676D02*
X10529Y-12657D01*
X10548Y-12647D01*
X10577Y-12647D01*
X10596Y-12657D01*
X10605Y-12676D01*
X10605Y-12780D01*
X10786Y-12780D02*
X10786Y-12676D01*
X10777Y-12657D01*
X10758Y-12647D01*
X10720Y-12647D01*
X10701Y-12657D01*
X10786Y-12771D02*
X10767Y-12780D01*
X10720Y-12780D01*
X10701Y-12771D01*
X10691Y-12752D01*
X10691Y-12733D01*
X10701Y-12714D01*
X10720Y-12704D01*
X10767Y-12704D01*
X10786Y-12695D01*
X10863Y-12780D02*
X10967Y-12647D01*
X10863Y-12647D02*
X10967Y-12780D01*
X8234Y-12890D02*
X8367Y-12890D01*
X8282Y-13090D01*
X8425Y-12957D02*
X8472Y-13090D01*
X8520Y-12957D01*
X8748Y-13090D02*
X8748Y-12957D01*
X8748Y-12976D02*
X8758Y-12967D01*
X8777Y-12957D01*
X8805Y-12957D01*
X8825Y-12967D01*
X8834Y-12986D01*
X8834Y-13090D01*
X8834Y-12986D02*
X8844Y-12967D01*
X8863Y-12957D01*
X8891Y-12957D01*
X8910Y-12967D01*
X8920Y-12986D01*
X8920Y-13090D01*
X9015Y-13090D02*
X9015Y-12957D01*
X9015Y-12890D02*
X9005Y-12900D01*
X9015Y-12910D01*
X9025Y-12900D01*
X9015Y-12890D01*
X9015Y-12910D01*
X9110Y-12957D02*
X9110Y-13090D01*
X9110Y-12976D02*
X9120Y-12967D01*
X9139Y-12957D01*
X9167Y-12957D01*
X9186Y-12967D01*
X9196Y-12986D01*
X9196Y-13090D01*
G54D12*
X12239Y-18751D02*
X11648Y-18751D01*
X11929Y-18751D02*
X11929Y-18413D01*
X12239Y-18413D02*
X11648Y-18413D01*
X12210Y-17907D02*
X12239Y-17963D01*
X12239Y-18076D01*
X12210Y-18132D01*
X12154Y-18160D01*
X11929Y-18160D01*
X11873Y-18132D01*
X11845Y-18076D01*
X11845Y-17963D01*
X11873Y-17907D01*
X11929Y-17879D01*
X11985Y-17879D01*
X12042Y-18160D01*
X12239Y-17541D02*
X12210Y-17598D01*
X12154Y-17626D01*
X11648Y-17626D01*
X12239Y-17316D02*
X11845Y-17316D01*
X11648Y-17316D02*
X11676Y-17345D01*
X11704Y-17316D01*
X11676Y-17288D01*
X11648Y-17316D01*
X11704Y-17316D01*
X11845Y-16782D02*
X12239Y-16782D01*
X11845Y-17035D02*
X12154Y-17035D01*
X12210Y-17007D01*
X12239Y-16951D01*
X12239Y-16866D01*
X12210Y-16810D01*
X12182Y-16782D01*
X12239Y-16501D02*
X11845Y-16501D01*
X11901Y-16501D02*
X11873Y-16473D01*
X11845Y-16417D01*
X11845Y-16332D01*
X11873Y-16276D01*
X11929Y-16248D01*
X12239Y-16248D01*
X11929Y-16248D02*
X11873Y-16220D01*
X11845Y-16163D01*
X11845Y-16079D01*
X11873Y-16023D01*
X11929Y-15995D01*
X12239Y-15995D01*
X12239Y-15264D02*
X11648Y-15264D01*
X12239Y-14982D02*
X11648Y-14982D01*
X12239Y-14645D01*
X11648Y-14645D01*
X12239Y-14364D02*
X11648Y-14364D01*
X11648Y-14223D01*
X11676Y-14139D01*
X11732Y-14082D01*
X11789Y-14054D01*
X11901Y-14026D01*
X11985Y-14026D01*
X12098Y-14054D01*
X12154Y-14082D01*
X12210Y-14139D01*
X12239Y-14223D01*
X12239Y-14364D01*
X11648Y-13211D02*
X11648Y-13154D01*
X11676Y-13098D01*
X11704Y-13070D01*
X11760Y-13042D01*
X11873Y-13014D01*
X12014Y-13014D01*
X12126Y-13042D01*
X12182Y-13070D01*
X12210Y-13098D01*
X12239Y-13154D01*
X12239Y-13211D01*
X12210Y-13267D01*
X12182Y-13295D01*
X12126Y-13323D01*
X12014Y-13351D01*
X11873Y-13351D01*
X11760Y-13323D01*
X11704Y-13295D01*
X11676Y-13267D01*
X11648Y-13211D01*
X12014Y-12761D02*
X12014Y-12311D01*
X11648Y-11748D02*
X11648Y-12030D01*
X11929Y-12058D01*
X11901Y-12030D01*
X11873Y-11973D01*
X11873Y-11833D01*
X11901Y-11776D01*
X11929Y-11748D01*
X11985Y-11720D01*
X12126Y-11720D01*
X12182Y-11748D01*
X12210Y-11776D01*
X12239Y-11833D01*
X12239Y-11973D01*
X12210Y-12030D01*
X12182Y-12058D01*
X13989Y-18059D02*
X13398Y-18059D01*
X13679Y-18059D02*
X13679Y-17721D01*
X13989Y-17721D02*
X13398Y-17721D01*
X13989Y-17440D02*
X13398Y-17440D01*
X23339Y-17964D02*
X23339Y-18245D01*
X22748Y-18245D01*
X22748Y-17654D02*
X22748Y-17542D01*
X22776Y-17485D01*
X22832Y-17429D01*
X22945Y-17401D01*
X23142Y-17401D01*
X23254Y-17429D01*
X23310Y-17485D01*
X23339Y-17542D01*
X23339Y-17654D01*
X23310Y-17710D01*
X23254Y-17767D01*
X23142Y-17795D01*
X22945Y-17795D01*
X22832Y-17767D01*
X22776Y-17710D01*
X22748Y-17654D01*
X22748Y-17204D02*
X23339Y-17064D01*
X22917Y-16951D01*
X23339Y-16839D01*
X22748Y-16698D01*
G54D13*
X24000Y-10750D02*
X6250Y-10750D01*
X24000Y-10750D02*
X24000Y-21750D01*
X6250Y-21750D02*
X24000Y-21750D01*
X6250Y-10750D02*
X6250Y-21750D01*
G54D14*
X7842Y-20455D02*
X7842Y-20822D01*
X7701Y-20246D02*
X7561Y-20639D01*
X7926Y-20639D01*
X8095Y-20272D02*
X8489Y-20272D01*
X8235Y-20822D01*
X8714Y-20822D02*
X8714Y-20272D01*
X8770Y-20613D02*
X8938Y-20822D01*
X8938Y-20455D02*
X8714Y-20665D01*
G54D15*
X7899Y-12282D02*
X7562Y-12282D01*
X7731Y-12282D02*
X7731Y-11707D01*
X7674Y-11789D01*
X7618Y-11844D01*
X7562Y-11872D01*
X8265Y-11707D02*
X8321Y-11707D01*
X8378Y-11735D01*
X8406Y-11762D01*
X8434Y-11817D01*
X8462Y-11926D01*
X8462Y-12063D01*
X8434Y-12173D01*
X8406Y-12227D01*
X8378Y-12255D01*
X8321Y-12282D01*
X8265Y-12282D01*
X8209Y-12255D01*
X8181Y-12227D01*
X8153Y-12173D01*
X8124Y-12063D01*
X8124Y-11926D01*
X8153Y-11817D01*
X8181Y-11762D01*
X8209Y-11735D01*
X8265Y-11707D01*
X8715Y-12282D02*
X8715Y-11707D01*
X8771Y-12063D02*
X8940Y-12282D01*
X8940Y-11899D02*
X8715Y-12118D01*
X7562Y-13512D02*
X7590Y-13485D01*
X7646Y-13457D01*
X7787Y-13457D01*
X7843Y-13485D01*
X7871Y-13512D01*
X7899Y-13567D01*
X7899Y-13622D01*
X7871Y-13704D01*
X7534Y-14032D01*
X7899Y-14032D01*
X8153Y-13977D02*
X8181Y-14005D01*
X8153Y-14032D01*
X8124Y-14005D01*
X8153Y-13977D01*
X8153Y-14032D01*
X8406Y-13512D02*
X8434Y-13485D01*
X8490Y-13457D01*
X8631Y-13457D01*
X8687Y-13485D01*
X8715Y-13512D01*
X8743Y-13567D01*
X8743Y-13622D01*
X8715Y-13704D01*
X8378Y-14032D01*
X8743Y-14032D01*
X8996Y-14032D02*
X8996Y-13457D01*
X9052Y-13813D02*
X9221Y-14032D01*
X9221Y-13649D02*
X8996Y-13868D01*
X7843Y-15399D02*
X7843Y-15782D01*
X7703Y-15180D02*
X7562Y-15591D01*
X7928Y-15591D01*
X8153Y-15727D02*
X8181Y-15755D01*
X8153Y-15782D01*
X8124Y-15755D01*
X8153Y-15727D01*
X8153Y-15782D01*
X8406Y-15262D02*
X8434Y-15235D01*
X8490Y-15207D01*
X8631Y-15207D01*
X8687Y-15235D01*
X8715Y-15262D01*
X8743Y-15317D01*
X8743Y-15372D01*
X8715Y-15454D01*
X8378Y-15782D01*
X8743Y-15782D01*
X8968Y-15262D02*
X8996Y-15235D01*
X9052Y-15207D01*
X9193Y-15207D01*
X9249Y-15235D01*
X9277Y-15262D01*
X9306Y-15317D01*
X9306Y-15372D01*
X9277Y-15454D01*
X8940Y-15782D01*
X9306Y-15782D01*
X9559Y-15782D02*
X9559Y-15207D01*
X9615Y-15563D02*
X9784Y-15782D01*
X9784Y-15399D02*
X9559Y-15618D01*
X7843Y-17149D02*
X7843Y-17532D01*
X7703Y-16930D02*
X7562Y-17341D01*
X7928Y-17341D01*
X8153Y-17477D02*
X8181Y-17505D01*
X8153Y-17532D01*
X8124Y-17505D01*
X8153Y-17477D01*
X8153Y-17532D01*
X8406Y-17012D02*
X8434Y-16985D01*
X8490Y-16957D01*
X8631Y-16957D01*
X8687Y-16985D01*
X8715Y-17012D01*
X8743Y-17067D01*
X8743Y-17122D01*
X8715Y-17204D01*
X8378Y-17532D01*
X8743Y-17532D01*
X8968Y-17012D02*
X8996Y-16985D01*
X9052Y-16957D01*
X9193Y-16957D01*
X9249Y-16985D01*
X9277Y-17012D01*
X9306Y-17067D01*
X9306Y-17122D01*
X9277Y-17204D01*
X8940Y-17532D01*
X9306Y-17532D01*
X9559Y-17532D02*
X9559Y-16957D01*
X9615Y-17313D02*
X9784Y-17532D01*
X9784Y-17149D02*
X9559Y-17368D01*
X7843Y-18899D02*
X7843Y-19282D01*
X7703Y-18680D02*
X7562Y-19091D01*
X7928Y-19091D01*
X8096Y-18707D02*
X8490Y-18707D01*
X8237Y-19282D01*
X8715Y-19282D02*
X8715Y-18707D01*
X8771Y-19063D02*
X8940Y-19282D01*
X8940Y-18899D02*
X8715Y-19118D01*
G54D16*
X22500Y-14000D02*
X22000Y-14000D01*
X22000Y-14000D02*
X22000Y-13000D01*
X22000Y-13000D02*
X22500Y-13000D01*
X22500Y-14500D02*
X12500Y-14500D01*
X12500Y-14500D02*
X12500Y-12500D01*
X12500Y-12500D02*
X22500Y-12500D01*
X22500Y-12500D02*
X22500Y-14500D01*
G54D10*
X13150Y-20000D02*
X13150Y-20800D01*
X13150Y-20800D02*
X13550Y-21200D01*
X13550Y-21200D02*
X14350Y-21400D01*
X14350Y-21400D02*
X14550Y-21400D01*
X14550Y-21400D02*
X15350Y-21200D01*
X15350Y-21200D02*
X15750Y-20800D01*
X15750Y-20800D02*
X15750Y-20000D01*
X15750Y-20000D02*
X13150Y-20000D01*
X23492Y-16456D02*
X23492Y-18484D01*
X12488Y-16476D02*
X23492Y-16456D01*
X12488Y-18011D02*
X12862Y-18385D01*
X12862Y-18385D02*
X12980Y-18503D01*
X12980Y-18503D02*
X23511Y-18503D01*
X12468Y-17992D02*
X12468Y-16476D01*
G54D16*
X12500Y-17000D02*
X13000Y-17000D01*
X13000Y-18000D02*
X12500Y-18000D01*
G54D17*
X7000Y-13750D02*
X7400Y-13750D01*
X7400Y-13750D02*
X7400Y-13350D01*
X7400Y-13350D02*
X10600Y-13350D01*
X10600Y-13350D02*
X10600Y-14150D01*
X10600Y-14150D02*
X7400Y-14150D01*
X7400Y-14150D02*
X7400Y-13750D01*
X7400Y-13550D02*
X7600Y-13350D01*
X11000Y-13750D02*
X10600Y-13750D01*
X11000Y-17250D02*
X10600Y-17250D01*
X10600Y-17250D02*
X10600Y-17650D01*
X10600Y-17650D02*
X7400Y-17650D01*
X7400Y-17650D02*
X7400Y-16850D01*
X7400Y-16850D02*
X10600Y-16850D01*
X10600Y-16850D02*
X10600Y-17250D01*
X10600Y-17450D02*
X10400Y-17650D01*
X7000Y-17250D02*
X7400Y-17250D01*
X11000Y-20550D02*
X10600Y-20550D01*
X10600Y-20550D02*
X10600Y-20950D01*
X10600Y-20950D02*
X7400Y-20950D01*
X7400Y-20950D02*
X7400Y-20150D01*
X7400Y-20150D02*
X10600Y-20150D01*
X10600Y-20150D02*
X10600Y-20550D01*
X10600Y-20750D02*
X10400Y-20950D01*
X7000Y-20550D02*
X7400Y-20550D01*
X7000Y-15500D02*
X7400Y-15500D01*
X7400Y-15500D02*
X7400Y-15100D01*
X7400Y-15100D02*
X10600Y-15100D01*
X10600Y-15100D02*
X10600Y-15900D01*
X10600Y-15900D02*
X7400Y-15900D01*
X7400Y-15900D02*
X7400Y-15500D01*
X7400Y-15300D02*
X7600Y-15100D01*
X11000Y-15500D02*
X10600Y-15500D01*
X11000Y-12000D02*
X10600Y-12000D01*
X10600Y-12000D02*
X10600Y-12400D01*
X10600Y-12400D02*
X7400Y-12400D01*
X7400Y-12400D02*
X7400Y-11600D01*
X7400Y-11600D02*
X10600Y-11600D01*
X10600Y-11600D02*
X10600Y-12000D01*
X10600Y-12200D02*
X10400Y-12400D01*
X7000Y-12000D02*
X7400Y-12000D01*
X7000Y-19000D02*
X7400Y-19000D01*
X7400Y-19000D02*
X7400Y-18600D01*
X7400Y-18600D02*
X10600Y-18600D01*
X10600Y-18600D02*
X10600Y-19400D01*
X10600Y-19400D02*
X7400Y-19400D01*
X7400Y-19400D02*
X7400Y-19000D01*
X7400Y-18800D02*
X7600Y-18600D01*
X11000Y-19000D02*
X10600Y-19000D01*
X18000Y-20000D02*
X18000Y-20000D01*
X18000Y-21000D02*
X18000Y-20000D01*
X18000Y-20000D02*
X18000Y-20000D01*
X18000Y-20000D02*
X22000Y-20000D01*
X22000Y-20000D02*
X22000Y-21000D01*
X22000Y-21000D02*
X18000Y-21000D01*
X19000Y-21000D02*
X19000Y-20000D01*
X15850Y-21000D02*
X15850Y-20000D01*
X15850Y-20000D02*
X17850Y-20000D01*
X17850Y-20000D02*
X17850Y-21000D01*
X17850Y-21000D02*
X15850Y-21000D01*
G54D18*
X20157Y-13583D02*
X20157Y-14150D01*
X20178Y-14216D01*
X20200Y-14250D01*
X20242Y-14283D01*
X20328Y-14283D01*
X20371Y-14250D01*
X20392Y-14216D01*
X20414Y-14150D01*
X20414Y-13583D01*
X20864Y-14283D02*
X20607Y-14283D01*
X20735Y-14283D02*
X20735Y-13583D01*
X20692Y-13683D01*
X20650Y-13750D01*
X20607Y-13783D01*
G54D17*
G54D19*
X13100Y-20488D02*
X13080Y-20526D01*
X13042Y-20564D01*
X12985Y-20621D01*
X12966Y-20659D01*
X12966Y-20697D01*
X13061Y-20678D02*
X13042Y-20716D01*
X13004Y-20754D01*
X12928Y-20773D01*
X12795Y-20773D01*
X12719Y-20754D01*
X12680Y-20716D01*
X12661Y-20678D01*
X12661Y-20602D01*
X12680Y-20564D01*
X12719Y-20526D01*
X12795Y-20507D01*
X12928Y-20507D01*
X13004Y-20526D01*
X13042Y-20564D01*
X13061Y-20602D01*
X13061Y-20678D01*
X13061Y-20126D02*
X13061Y-20354D01*
X13061Y-20240D02*
X12661Y-20240D01*
X12719Y-20278D01*
X12757Y-20316D01*
X12776Y-20354D01*
G54D18*
X15650Y-17416D02*
X15714Y-17450D01*
X15735Y-17483D01*
X15757Y-17550D01*
X15757Y-17650D01*
X15735Y-17716D01*
X15714Y-17750D01*
X15671Y-17783D01*
X15500Y-17783D01*
X15500Y-17083D01*
X15650Y-17083D01*
X15692Y-17116D01*
X15714Y-17150D01*
X15735Y-17216D01*
X15735Y-17283D01*
X15714Y-17350D01*
X15692Y-17383D01*
X15650Y-17416D01*
X15500Y-17416D01*
X15928Y-17583D02*
X16142Y-17583D01*
X15885Y-17783D02*
X16035Y-17083D01*
X16185Y-17783D01*
X16592Y-17783D02*
X16442Y-17450D01*
X16335Y-17783D02*
X16335Y-17083D01*
X16507Y-17083D01*
X16550Y-17116D01*
X16571Y-17150D01*
X16592Y-17216D01*
X16592Y-17316D01*
X16571Y-17383D01*
X16550Y-17416D01*
X16507Y-17450D01*
X16335Y-17450D01*
X17021Y-17783D02*
X16764Y-17783D01*
X16892Y-17783D02*
X16892Y-17083D01*
X16850Y-17183D01*
X16807Y-17250D01*
X16764Y-17283D01*
G54D17*
G54D10*
X15268Y-18198D02*
X15568Y-18198D01*
X15418Y-18348D02*
X15418Y-18048D01*
X16243Y-17954D02*
X16055Y-17954D01*
X16037Y-18142D01*
X16055Y-18123D01*
X16093Y-18104D01*
X16187Y-18104D01*
X16224Y-18123D01*
X16243Y-18142D01*
X16262Y-18179D01*
X16262Y-18273D01*
X16243Y-18310D01*
X16224Y-18329D01*
X16187Y-18348D01*
X16093Y-18348D01*
X16055Y-18329D01*
X16037Y-18310D01*
X16374Y-17954D02*
X16505Y-18348D01*
X16637Y-17954D01*
X17068Y-18198D02*
X17368Y-18198D01*
X17218Y-18348D02*
X17218Y-18048D01*
X18043Y-17954D02*
X17855Y-17954D01*
X17836Y-18142D01*
X17855Y-18123D01*
X17893Y-18104D01*
X17986Y-18104D01*
X18024Y-18123D01*
X18043Y-18142D01*
X18061Y-18179D01*
X18061Y-18273D01*
X18043Y-18310D01*
X18024Y-18329D01*
X17986Y-18348D01*
X17893Y-18348D01*
X17855Y-18329D01*
X17836Y-18310D01*
X18174Y-17954D02*
X18305Y-18348D01*
X18436Y-17954D01*
X18868Y-18198D02*
X19167Y-18198D01*
X19017Y-18348D02*
X19017Y-18048D01*
X19842Y-17954D02*
X19655Y-17954D01*
X19636Y-18142D01*
X19655Y-18123D01*
X19692Y-18104D01*
X19786Y-18104D01*
X19824Y-18123D01*
X19842Y-18142D01*
X19861Y-18179D01*
X19861Y-18273D01*
X19842Y-18310D01*
X19824Y-18329D01*
X19786Y-18348D01*
X19692Y-18348D01*
X19655Y-18329D01*
X19636Y-18310D01*
X19974Y-17954D02*
X20105Y-18348D01*
X20236Y-17954D01*
X20667Y-18198D02*
X20967Y-18198D01*
X20817Y-18348D02*
X20817Y-18048D01*
G54D19*
X9916Y-13972D02*
X9750Y-13710D01*
X9630Y-13972D02*
X9630Y-13422D01*
X9821Y-13422D01*
X9869Y-13448D01*
X9892Y-13475D01*
X9916Y-13527D01*
X9916Y-13605D01*
X9892Y-13658D01*
X9869Y-13684D01*
X9821Y-13710D01*
X9630Y-13710D01*
X10345Y-13605D02*
X10345Y-13972D01*
X10226Y-13396D02*
X10107Y-13789D01*
X10416Y-13789D01*
X10166Y-17472D02*
X10000Y-17210D01*
X9880Y-17472D02*
X9880Y-16922D01*
X10071Y-16922D01*
X10119Y-16948D01*
X10142Y-16975D01*
X10166Y-17027D01*
X10166Y-17105D01*
X10142Y-17158D01*
X10119Y-17184D01*
X10071Y-17210D01*
X9880Y-17210D01*
X10333Y-16922D02*
X10642Y-16922D01*
X10476Y-17132D01*
X10547Y-17132D01*
X10595Y-17158D01*
X10619Y-17184D01*
X10642Y-17236D01*
X10642Y-17367D01*
X10619Y-17420D01*
X10595Y-17446D01*
X10547Y-17472D01*
X10404Y-17472D01*
X10357Y-17446D01*
X10333Y-17420D01*
X9966Y-20822D02*
X9800Y-20560D01*
X9680Y-20822D02*
X9680Y-20272D01*
X9871Y-20272D01*
X9919Y-20298D01*
X9942Y-20325D01*
X9966Y-20377D01*
X9966Y-20455D01*
X9942Y-20508D01*
X9919Y-20534D01*
X9871Y-20560D01*
X9680Y-20560D01*
X10419Y-20272D02*
X10180Y-20272D01*
X10157Y-20534D01*
X10180Y-20508D01*
X10228Y-20482D01*
X10347Y-20482D01*
X10395Y-20508D01*
X10419Y-20534D01*
X10442Y-20586D01*
X10442Y-20717D01*
X10419Y-20770D01*
X10395Y-20796D01*
X10347Y-20822D01*
X10228Y-20822D01*
X10180Y-20796D01*
X10157Y-20770D01*
G54D20*
X10200Y-15722D02*
X10100Y-15460D01*
X10028Y-15722D02*
X10028Y-15172D01*
X10142Y-15172D01*
X10171Y-15198D01*
X10185Y-15225D01*
X10200Y-15277D01*
X10200Y-15355D01*
X10185Y-15408D01*
X10171Y-15434D01*
X10142Y-15460D01*
X10028Y-15460D01*
X10457Y-15172D02*
X10400Y-15172D01*
X10371Y-15198D01*
X10357Y-15225D01*
X10328Y-15303D01*
X10314Y-15408D01*
X10314Y-15617D01*
X10328Y-15670D01*
X10342Y-15696D01*
X10371Y-15722D01*
X10428Y-15722D01*
X10457Y-15696D01*
X10471Y-15670D01*
X10485Y-15617D01*
X10485Y-15486D01*
X10471Y-15434D01*
X10457Y-15408D01*
X10428Y-15382D01*
X10371Y-15382D01*
X10342Y-15408D01*
X10328Y-15434D01*
X10314Y-15486D01*
G54D19*
X9916Y-12222D02*
X9750Y-11960D01*
X9630Y-12222D02*
X9630Y-11672D01*
X9821Y-11672D01*
X9869Y-11698D01*
X9892Y-11725D01*
X9916Y-11777D01*
X9916Y-11855D01*
X9892Y-11908D01*
X9869Y-11934D01*
X9821Y-11960D01*
X9630Y-11960D01*
X10392Y-12222D02*
X10107Y-12222D01*
X10250Y-12222D02*
X10250Y-11672D01*
X10202Y-11751D01*
X10154Y-11803D01*
X10107Y-11829D01*
X9916Y-19222D02*
X9750Y-18960D01*
X9630Y-19222D02*
X9630Y-18672D01*
X9821Y-18672D01*
X9869Y-18698D01*
X9892Y-18725D01*
X9916Y-18777D01*
X9916Y-18855D01*
X9892Y-18908D01*
X9869Y-18934D01*
X9821Y-18960D01*
X9630Y-18960D01*
X10107Y-18725D02*
X10130Y-18698D01*
X10178Y-18672D01*
X10297Y-18672D01*
X10345Y-18698D01*
X10369Y-18725D01*
X10392Y-18777D01*
X10392Y-18829D01*
X10369Y-18908D01*
X10083Y-19222D01*
X10392Y-19222D01*
G54D21*
X22234Y-20051D02*
X22234Y-19368D01*
X22397Y-19368D01*
X22437Y-19400D01*
X22458Y-19433D01*
X22478Y-19498D01*
X22478Y-19596D01*
X22458Y-19661D01*
X22437Y-19693D01*
X22397Y-19726D01*
X22234Y-19726D01*
X22886Y-20051D02*
X22641Y-20051D01*
X22764Y-20051D02*
X22764Y-19368D01*
X22723Y-19466D01*
X22682Y-19531D01*
X22641Y-19563D01*
G54D11*
X15792Y-21307D02*
X16021Y-21307D01*
X15907Y-21421D02*
X15907Y-21192D01*
X16307Y-21121D02*
X16164Y-21121D01*
X16150Y-21264D01*
X16164Y-21250D01*
X16192Y-21235D01*
X16264Y-21235D01*
X16292Y-21250D01*
X16307Y-21264D01*
X16321Y-21292D01*
X16321Y-21364D01*
X16307Y-21392D01*
X16292Y-21407D01*
X16264Y-21421D01*
X16192Y-21421D01*
X16164Y-21407D01*
X16150Y-21392D01*
X16407Y-21121D02*
X16507Y-21421D01*
X16607Y-21121D01*
X17092Y-21135D02*
X17064Y-21121D01*
X17021Y-21121D01*
X16978Y-21135D01*
X16950Y-21164D01*
X16935Y-21192D01*
X16921Y-21250D01*
X16921Y-21292D01*
X16935Y-21350D01*
X16950Y-21378D01*
X16978Y-21407D01*
X17021Y-21421D01*
X17050Y-21421D01*
X17092Y-21407D01*
X17107Y-21392D01*
X17107Y-21292D01*
X17050Y-21292D01*
X17235Y-21421D02*
X17235Y-21121D01*
X17407Y-21421D01*
X17407Y-21121D01*
X17550Y-21421D02*
X17550Y-21121D01*
X17621Y-21121D01*
X17664Y-21135D01*
X17692Y-21164D01*
X17707Y-21192D01*
X17721Y-21250D01*
X17721Y-21292D01*
X17707Y-21350D01*
X17692Y-21378D01*
X17664Y-21407D01*
X17621Y-21421D01*
X17550Y-21421D01*
M02*
