M48
;DRILL file {Pcbnew (2013-05-31 BZR 4019)-stable} date 3/12/2014 4:46:29 PM
;FORMAT={-:-/ absolute / inch / decimal}
FMAT,2
INCH,TZ
T1C0.025
T2C0.032
%
G90
G05
M72
T1
X0.9Y-1.825
X1.Y-1.4
X1.175Y-1.95
X1.225Y-1.25
X1.25Y-1.925
X1.325Y-1.3
X1.375Y-1.25
X1.5Y-1.25
X1.6Y-1.425
X2.225Y-1.325
T2
X0.7Y-1.2
X0.7Y-1.375
X0.7Y-1.55
X0.7Y-1.725
X0.7Y-1.9
X0.7Y-2.055
X1.1Y-1.2
X1.1Y-1.375
X1.1Y-1.55
X1.1Y-1.725
X1.1Y-1.9
X1.1Y-2.055
X1.35Y-1.19
X1.35Y-1.52
X1.35Y-1.6
X1.35Y-1.9
X1.365Y-2.05
X1.445Y-2.05
X1.45Y-1.19
X1.45Y-1.52
X1.45Y-1.6
X1.45Y-1.9
X1.525Y-2.05
X1.55Y-1.19
X1.55Y-1.52
X1.55Y-1.6
X1.55Y-1.9
X1.635Y-2.05
X1.65Y-1.19
X1.65Y-1.52
X1.65Y-1.6
X1.65Y-1.9
X1.735Y-2.05
X1.75Y-1.19
X1.75Y-1.52
X1.75Y-1.6
X1.75Y-1.9
X1.85Y-1.19
X1.85Y-1.52
X1.85Y-1.6
X1.85Y-1.9
X1.85Y-2.05
X1.95Y-1.19
X1.95Y-1.52
X1.95Y-1.6
X1.95Y-1.9
X1.95Y-2.05
X2.05Y-1.19
X2.05Y-1.52
X2.05Y-1.6
X2.05Y-1.9
X2.05Y-2.05
X2.15Y-1.19
X2.15Y-1.52
X2.15Y-1.6
X2.15Y-1.9
X2.15Y-2.05
X2.25Y-1.6
X2.25Y-1.9
T0
M30
