G04 (created by PCBNEW (2013-05-31 BZR 4019)-stable) date 3/12/2014 4:46:27 PM*
%MOIN*%
G04 Gerber Fmt 3.4, Leading zero omitted, Abs format*
%FSLAX34Y34*%
G01*
G70*
G90*
G04 APERTURE LIST*
%ADD10C,0.00590551*%
%ADD11C,0.00393701*%
%ADD12R,0.055X0.055*%
%ADD13C,0.055*%
%ADD14C,0.06*%
%ADD15C,0.035*%
G04 APERTURE END LIST*
G54D10*
G54D11*
X24000Y-10750D02*
X6250Y-10750D01*
X24000Y-10750D02*
X24000Y-21750D01*
X6250Y-21750D02*
X24000Y-21750D01*
X6250Y-10750D02*
X6250Y-21750D01*
G54D12*
X21500Y-11900D03*
G54D13*
X20500Y-11900D03*
X19500Y-11900D03*
X18500Y-11900D03*
X17500Y-11900D03*
X16500Y-11900D03*
X15500Y-11900D03*
X14500Y-11900D03*
X13500Y-11900D03*
X13500Y-15200D03*
X14500Y-15200D03*
X15500Y-15200D03*
X16500Y-15200D03*
X17500Y-15200D03*
X18500Y-15200D03*
X19500Y-15200D03*
X20500Y-15200D03*
X21500Y-15200D03*
G54D12*
X13650Y-20500D03*
G54D13*
X14450Y-20500D03*
X15250Y-20500D03*
G54D12*
X13500Y-19000D03*
G54D13*
X14500Y-19000D03*
X15500Y-19000D03*
X16500Y-19000D03*
X17500Y-19000D03*
X18500Y-19000D03*
X19500Y-19000D03*
X20500Y-19000D03*
X21500Y-19000D03*
X22500Y-19000D03*
X22500Y-16000D03*
X21500Y-16000D03*
X20500Y-16000D03*
X19500Y-16000D03*
X18500Y-16000D03*
X17500Y-16000D03*
X16500Y-16000D03*
X15500Y-16000D03*
X14500Y-16000D03*
X13500Y-16000D03*
G54D14*
X7000Y-13750D03*
X11000Y-13750D03*
X11000Y-17250D03*
X7000Y-17250D03*
X11000Y-20550D03*
X7000Y-20550D03*
X7000Y-15500D03*
X11000Y-15500D03*
X11000Y-12000D03*
X7000Y-12000D03*
X7000Y-19000D03*
X11000Y-19000D03*
G54D12*
X18500Y-20500D03*
G54D13*
X19500Y-20500D03*
X20500Y-20500D03*
X21500Y-20500D03*
G54D12*
X16350Y-20500D03*
G54D13*
X17350Y-20500D03*
G54D15*
X9000Y-18250D03*
X10000Y-14000D03*
X13250Y-13000D03*
X15000Y-12500D03*
X13750Y-12500D03*
X12250Y-12500D03*
X12500Y-19250D03*
X22250Y-13250D03*
X16000Y-14250D03*
X11750Y-19500D03*
M02*
