G04 (created by PCBNEW (2013-05-31 BZR 4019)-stable) date 4/29/2014 5:18:13 PM*
%MOIN*%
G04 Gerber Fmt 3.4, Leading zero omitted, Abs format*
%FSLAX34Y34*%
G01*
G70*
G90*
G04 APERTURE LIST*
%ADD10C,0.00393701*%
%ADD11C,0.0866142*%
%ADD12C,0.11811*%
%ADD13R,0.115748X0.115748*%
%ADD14C,0.115748*%
%ADD15R,0.070748X0.070748*%
%ADD16C,0.070748*%
%ADD17C,0.265748*%
%ADD18C,0.220472*%
%ADD19C,0.075748*%
%ADD20C,0.050748*%
G04 APERTURE END LIST*
G54D10*
G54D11*
X77800Y-24047D03*
X77800Y-29952D03*
G54D12*
X77800Y-27000D03*
G54D13*
X80400Y-30800D03*
G54D14*
X80400Y-29500D03*
G54D13*
X80400Y-33800D03*
G54D14*
X80400Y-35100D03*
G54D15*
X19750Y-33750D03*
G54D16*
X19750Y-32750D03*
X19750Y-31750D03*
X19750Y-30750D03*
X19750Y-29750D03*
X19750Y-28750D03*
X19750Y-27750D03*
X19750Y-26750D03*
X19750Y-25750D03*
X19750Y-24750D03*
G54D17*
X49250Y-41000D03*
G54D18*
X53226Y-43755D03*
X45273Y-43755D03*
X49250Y-36275D03*
G54D17*
X36000Y-41000D03*
G54D18*
X39976Y-43755D03*
X32023Y-43755D03*
X36000Y-36275D03*
G54D17*
X22750Y-41000D03*
G54D18*
X26726Y-43755D03*
X18773Y-43755D03*
X22750Y-36275D03*
G54D17*
X29250Y-29500D03*
G54D18*
X25273Y-26744D03*
X33226Y-26744D03*
X29250Y-34224D03*
G54D17*
X42500Y-29500D03*
G54D18*
X38523Y-26744D03*
X46476Y-26744D03*
X42500Y-34224D03*
G54D17*
X55750Y-29500D03*
G54D18*
X51773Y-26744D03*
X59726Y-26744D03*
X55750Y-34224D03*
G54D17*
X69000Y-29500D03*
G54D18*
X65023Y-26744D03*
X72976Y-26744D03*
X69000Y-34224D03*
G54D17*
X75750Y-41000D03*
G54D18*
X79726Y-43755D03*
X71773Y-43755D03*
X75750Y-36275D03*
G54D17*
X62500Y-41000D03*
G54D18*
X66476Y-43755D03*
X58523Y-43755D03*
X62500Y-36275D03*
G54D19*
X54000Y-46400D03*
X58000Y-46400D03*
X44600Y-46400D03*
X40600Y-46400D03*
X31250Y-46500D03*
X27250Y-46500D03*
X21750Y-33500D03*
X21750Y-29500D03*
X34000Y-23750D03*
X38000Y-23750D03*
X60400Y-23800D03*
X64400Y-23800D03*
X74800Y-33800D03*
X78800Y-33800D03*
X71000Y-46500D03*
X67000Y-46500D03*
X47200Y-24000D03*
X51200Y-24000D03*
G54D15*
X82200Y-30700D03*
G54D16*
X82200Y-29700D03*
G54D15*
X82200Y-33900D03*
G54D16*
X82200Y-34900D03*
G54D20*
X22000Y-39000D03*
X56800Y-40600D03*
X70250Y-32000D03*
X65000Y-31750D03*
X39400Y-31400D03*
X26600Y-30000D03*
X23600Y-29600D03*
X24000Y-32800D03*
X21800Y-34800D03*
X53000Y-40800D03*
X53750Y-38500D03*
X23200Y-28200D03*
X70000Y-39000D03*
X71250Y-38500D03*
M02*
