M48
;DRILL file {Pcbnew (2013-05-31 BZR 4019)-stable} date 4/29/2014 5:18:17 PM
;FORMAT={-:-/ absolute / inch / decimal}
FMAT,2
INCH,TZ
T1C0.025
T2C0.032
T3C0.051
T4C0.060
T5C0.102
T6C0.138
%
G90
G05
M72
T1
X2.18Y-3.48
X2.2Y-3.9
X2.32Y-2.82
X2.36Y-2.96
X2.4Y-3.28
X2.66Y-3.
X3.94Y-3.14
X5.3Y-4.08
X5.375Y-3.85
X5.68Y-4.06
X6.5Y-3.175
X7.Y-3.9
X7.025Y-3.2
X7.125Y-3.85
T2
X1.975Y-2.475
X1.975Y-2.575
X1.975Y-2.675
X1.975Y-2.775
X1.975Y-2.875
X1.975Y-2.975
X1.975Y-3.075
X1.975Y-3.175
X1.975Y-3.275
X1.975Y-3.375
X2.175Y-2.95
X2.175Y-3.35
X2.725Y-4.65
X3.125Y-4.65
X3.4Y-2.375
X3.8Y-2.375
X4.06Y-4.64
X4.46Y-4.64
X4.72Y-2.4
X5.12Y-2.4
X5.4Y-4.64
X5.8Y-4.64
X6.04Y-2.38
X6.44Y-2.38
X6.7Y-4.65
X7.1Y-4.65
X7.48Y-3.38
X7.88Y-3.38
X8.22Y-2.97
X8.22Y-3.07
X8.22Y-3.39
X8.22Y-3.49
T3
X7.78Y-2.4047
X7.78Y-2.9953
T4
X8.04Y-2.95
X8.04Y-3.08
X8.04Y-3.38
X8.04Y-3.51
T5
X1.8774Y-4.3756
X2.275Y-3.6276
X2.5274Y-2.6744
X2.6726Y-4.3756
X2.925Y-3.4224
X3.2024Y-4.3756
X3.3226Y-2.6744
X3.6Y-3.6276
X3.8524Y-2.6744
X3.9976Y-4.3756
X4.25Y-3.4224
X4.5274Y-4.3756
X4.6476Y-2.6744
X4.925Y-3.6276
X5.1774Y-2.6744
X5.3226Y-4.3756
X5.575Y-3.4224
X5.8524Y-4.3756
X5.9726Y-2.6744
X6.25Y-3.6276
X6.5024Y-2.6744
X6.6476Y-4.3756
X6.9Y-3.4224
X7.1774Y-4.3756
X7.2976Y-2.6744
X7.575Y-3.6276
X7.9726Y-4.3756
T6
X2.275Y-4.1
X2.925Y-2.95
X3.6Y-4.1
X4.25Y-2.95
X4.925Y-4.1
X5.575Y-2.95
X6.25Y-4.1
X6.9Y-2.95
X7.575Y-4.1
T0
M30
