G04 (created by PCBNEW (2013-05-31 BZR 4019)-stable) date 6/10/2014 4:10:54 PM*
%MOIN*%
G04 Gerber Fmt 3.4, Leading zero omitted, Abs format*
%FSLAX34Y34*%
G01*
G70*
G90*
G04 APERTURE LIST*
%ADD10C,0.00590551*%
%ADD11C,0.0748031*%
%ADD12C,0.0001*%
%ADD13R,0.055X0.055*%
%ADD14C,0.055*%
%ADD15R,0.085X0.085*%
%ADD16C,0.09*%
%ADD17R,0.125984X0.212598*%
%ADD18R,0.0374016X0.0137795*%
%ADD19R,0.0362205X0.0362205*%
%ADD20R,0.0137795X0.0374016*%
%ADD21R,0.065X0.065*%
%ADD22R,0.08X0.08*%
%ADD23C,0.08*%
%ADD24C,0.065*%
%ADD25C,0.06*%
%ADD26R,0.07X0.2*%
%ADD27C,0.0708661*%
%ADD28C,0.102362*%
%ADD29R,0.0295276X0.00984252*%
%ADD30R,0.00984252X0.0295276*%
%ADD31R,0.0334646X0.0334646*%
%ADD32C,0.0591*%
%ADD33R,0.0393701X0.023622*%
%ADD34R,0.023622X0.0393701*%
%ADD35O,0.0590551X0.0393701*%
%ADD36O,0.0393701X0.0590551*%
%ADD37R,0.114173X0.212598*%
%ADD38R,0.03X0.02*%
%ADD39R,0.0394X0.0315*%
%ADD40R,0.1063X0.0709*%
%ADD41R,0.08X0.06*%
%ADD42R,0.06X0.08*%
%ADD43R,0.025X0.045*%
%ADD44R,0.045X0.025*%
%ADD45R,0.063X0.125*%
%ADD46R,0.181102X0.19685*%
%ADD47R,0.0393701X0.0393701*%
%ADD48R,0.05X0.0240157*%
%ADD49O,0.0393701X0.0393701*%
%ADD50C,0.0787*%
%ADD51C,0.0511811*%
%ADD52C,0.085*%
%ADD53C,0.075*%
%ADD54C,0.0393701*%
%ADD55C,0.23622*%
%ADD56C,0.0551181*%
%ADD57C,0.035*%
%ADD58C,0.01*%
G04 APERTURE END LIST*
G54D10*
G54D11*
X84980Y-22990D02*
X88530Y-22990D01*
G54D12*
X82000Y-47850D02*
X82000Y-22250D01*
G54D11*
X82641Y-46598D02*
X84403Y-46598D01*
X82655Y-47154D02*
X84423Y-47154D01*
G54D12*
X116250Y-47850D02*
X116250Y-47500D01*
X82000Y-47850D02*
X116250Y-47850D01*
X116250Y-22250D02*
X116250Y-47500D01*
X83250Y-22250D02*
X116250Y-22250D01*
X82000Y-22250D02*
X83250Y-22250D01*
G54D11*
X94760Y-23260D02*
X95260Y-23260D01*
G54D13*
X115440Y-39080D03*
G54D14*
X114440Y-39080D03*
X113440Y-39080D03*
X112440Y-39080D03*
X111440Y-39080D03*
X110440Y-39080D03*
X109440Y-39080D03*
X108440Y-39080D03*
X107412Y-39080D03*
G54D15*
X83275Y-43000D03*
G54D16*
X83275Y-44000D03*
X83275Y-45000D03*
G54D17*
X93389Y-25500D03*
X89570Y-25500D03*
X93389Y-30750D03*
X89570Y-30750D03*
G54D18*
X97974Y-25627D03*
G54D19*
X97501Y-25751D03*
X96998Y-25751D03*
X96998Y-25248D03*
X97501Y-25248D03*
G54D18*
X97974Y-25883D03*
X97978Y-25372D03*
X97974Y-25116D03*
G54D20*
X97633Y-24775D03*
X97377Y-24775D03*
X97122Y-24775D03*
X96866Y-24775D03*
X96866Y-26224D03*
X97122Y-26224D03*
X97377Y-26224D03*
X97633Y-26224D03*
G54D18*
X96525Y-25116D03*
X96525Y-25372D03*
X96525Y-25627D03*
X96525Y-25883D03*
G54D21*
X106750Y-29900D03*
G54D14*
X107750Y-29900D03*
G54D13*
X87700Y-29700D03*
G54D14*
X87700Y-30700D03*
G54D22*
X115475Y-27720D03*
G54D23*
X115475Y-26720D03*
X115475Y-25720D03*
G54D21*
X100606Y-23031D03*
G54D24*
X99606Y-23031D03*
X98606Y-23031D03*
G54D21*
X84900Y-43048D03*
G54D24*
X84900Y-44032D03*
X84900Y-45017D03*
G54D25*
X107050Y-46400D03*
X107050Y-42400D03*
G54D26*
X110825Y-46350D03*
X108225Y-46350D03*
G54D18*
X97974Y-30377D03*
G54D19*
X97501Y-30501D03*
G54D18*
X97974Y-30633D03*
X97978Y-30122D03*
X97974Y-29866D03*
G54D20*
X97633Y-29525D03*
X97377Y-29525D03*
X97122Y-29525D03*
X96866Y-29525D03*
X96866Y-30974D03*
X97122Y-30974D03*
X97377Y-30974D03*
X97633Y-30974D03*
G54D18*
X96525Y-29866D03*
X96525Y-30122D03*
X96525Y-30377D03*
X96525Y-30633D03*
G54D19*
X96998Y-30501D03*
X97501Y-29998D03*
X96998Y-29998D03*
G54D27*
X114952Y-43150D03*
X109047Y-43150D03*
G54D28*
X112000Y-43150D03*
G54D29*
X102854Y-38464D03*
X102854Y-38661D03*
X102856Y-38858D03*
X102854Y-39055D03*
G54D30*
X102456Y-38070D03*
X102259Y-38070D03*
X102062Y-38070D03*
X101866Y-38070D03*
G54D29*
X101472Y-38464D03*
X101472Y-38661D03*
X101472Y-38858D03*
X101472Y-39055D03*
G54D30*
X101866Y-39448D03*
X102062Y-39448D03*
X102259Y-39448D03*
X102456Y-39448D03*
G54D31*
X102413Y-39011D03*
X101909Y-39011D03*
X102413Y-38507D03*
X101909Y-38507D03*
G54D32*
X113100Y-28600D03*
X111100Y-28600D03*
X113100Y-23500D03*
X111100Y-23500D03*
G54D33*
X108656Y-33031D03*
X108656Y-33346D03*
X108656Y-33661D03*
X108656Y-33976D03*
X108656Y-34291D03*
X108656Y-34606D03*
X108656Y-34921D03*
X108656Y-35236D03*
X108656Y-35551D03*
X108656Y-35866D03*
X108656Y-36181D03*
X108656Y-36496D03*
X108656Y-36811D03*
G54D34*
X109050Y-37204D03*
X109365Y-37204D03*
X109680Y-37204D03*
X109995Y-37204D03*
X110310Y-37204D03*
X110625Y-37204D03*
X110940Y-37204D03*
X111255Y-37204D03*
X111570Y-37204D03*
X111885Y-37204D03*
X112200Y-37204D03*
X112514Y-37204D03*
X112829Y-37204D03*
X113144Y-37204D03*
X113459Y-37204D03*
X113774Y-37204D03*
X114089Y-37204D03*
X115349Y-32637D03*
X115034Y-32637D03*
X114719Y-32637D03*
X114404Y-32637D03*
X114089Y-32637D03*
X113774Y-32637D03*
X113459Y-32637D03*
X113144Y-32637D03*
X112829Y-32637D03*
X112514Y-32637D03*
X112200Y-32637D03*
X111885Y-32637D03*
X111570Y-32637D03*
X111255Y-32637D03*
X110940Y-32637D03*
X110625Y-32637D03*
X110310Y-32637D03*
X109995Y-32637D03*
X109680Y-32637D03*
X109365Y-32637D03*
X109050Y-32637D03*
G54D35*
X85750Y-29606D03*
X85750Y-30393D03*
X85750Y-31181D03*
X85750Y-28818D03*
G54D24*
X112800Y-45700D03*
G54D21*
X112800Y-46700D03*
X90000Y-40300D03*
G54D24*
X90000Y-39300D03*
G54D36*
X88981Y-43025D03*
X89768Y-43025D03*
X90556Y-43025D03*
X88193Y-43025D03*
G54D24*
X95100Y-36500D03*
G54D21*
X96100Y-36500D03*
G54D24*
X97100Y-36500D03*
G54D37*
X98641Y-44763D03*
X94822Y-44763D03*
G54D17*
X93389Y-36000D03*
X89570Y-36000D03*
X87369Y-39680D03*
X83550Y-39680D03*
G54D38*
X106750Y-31375D03*
X106750Y-30625D03*
X105750Y-31375D03*
X106750Y-31000D03*
X105750Y-30625D03*
G54D39*
X101563Y-40525D03*
X100697Y-40900D03*
X100697Y-40150D03*
G54D40*
X94911Y-39564D03*
X94911Y-41454D03*
G54D41*
X91411Y-39859D03*
X91411Y-41159D03*
G54D42*
X96150Y-27750D03*
X94850Y-27750D03*
X97650Y-34400D03*
X96350Y-34400D03*
X95150Y-38000D03*
X96450Y-38000D03*
X98050Y-27700D03*
X99350Y-27700D03*
G54D41*
X92911Y-39859D03*
X92911Y-41159D03*
G54D42*
X97650Y-33300D03*
X96350Y-33300D03*
G54D41*
X106750Y-33650D03*
X106750Y-32350D03*
X105911Y-44909D03*
X105911Y-43609D03*
X103411Y-44909D03*
X103411Y-43609D03*
X104661Y-44909D03*
X104661Y-43609D03*
G54D43*
X105020Y-25210D03*
X104420Y-25210D03*
X96600Y-23550D03*
X97200Y-23550D03*
X102802Y-36763D03*
X103402Y-36763D03*
G54D44*
X99911Y-39809D03*
X99911Y-39209D03*
X107500Y-31550D03*
X107500Y-30950D03*
X104500Y-31550D03*
X104500Y-30950D03*
X105688Y-34248D03*
X105688Y-33648D03*
G54D43*
X110000Y-23900D03*
X109400Y-23900D03*
X110000Y-27650D03*
X109400Y-27650D03*
X110000Y-25150D03*
X109400Y-25150D03*
G54D44*
X111409Y-30385D03*
X111409Y-30985D03*
X110621Y-30385D03*
X110621Y-30985D03*
X109834Y-30385D03*
X109834Y-30985D03*
X109046Y-30385D03*
X109046Y-30985D03*
G54D43*
X105020Y-27710D03*
X104420Y-27710D03*
X105020Y-26460D03*
X104420Y-26460D03*
X105020Y-23960D03*
X104420Y-23960D03*
X110000Y-26400D03*
X109400Y-26400D03*
X100211Y-33009D03*
X99611Y-33009D03*
G54D44*
X107300Y-35200D03*
X107300Y-34600D03*
G54D43*
X108300Y-40200D03*
X107700Y-40200D03*
X100211Y-35009D03*
X99611Y-35009D03*
G54D44*
X100200Y-38700D03*
X100200Y-38100D03*
X99500Y-38700D03*
X99500Y-38100D03*
G54D43*
X102361Y-40759D03*
X102961Y-40759D03*
X108300Y-40950D03*
X107700Y-40950D03*
X101700Y-34000D03*
X102300Y-34000D03*
G54D44*
X104911Y-39309D03*
X104911Y-38709D03*
G54D43*
X101700Y-35000D03*
X102300Y-35000D03*
X101700Y-32900D03*
X102300Y-32900D03*
X99611Y-34009D03*
X100211Y-34009D03*
X103611Y-33009D03*
X104211Y-33009D03*
X103700Y-35000D03*
X104300Y-35000D03*
G54D44*
X99100Y-24000D03*
X99100Y-24600D03*
X98900Y-30900D03*
X98900Y-31500D03*
G54D43*
X103611Y-34009D03*
X104211Y-34009D03*
X96450Y-31750D03*
X97050Y-31750D03*
G54D45*
X113155Y-40650D03*
X110645Y-40650D03*
G54D25*
X93150Y-42350D03*
X93150Y-46350D03*
X106000Y-40250D03*
X106000Y-36250D03*
X91950Y-46350D03*
X91950Y-42350D03*
G54D46*
X101574Y-45509D03*
G54D47*
X102039Y-46001D03*
X102039Y-45509D03*
X102039Y-45017D03*
G54D48*
X100088Y-46261D03*
X100088Y-44757D03*
X100088Y-45259D03*
X100088Y-45759D03*
G54D46*
X100748Y-43009D03*
G54D47*
X100283Y-42517D03*
X100283Y-43009D03*
X100283Y-43501D03*
G54D48*
X102234Y-42257D03*
X102234Y-43761D03*
X102234Y-43259D03*
X102234Y-42759D03*
G54D49*
X95492Y-23250D03*
G54D35*
X114425Y-26713D03*
X114425Y-25926D03*
X114425Y-27501D03*
G54D50*
X87750Y-36250D03*
X87750Y-32250D03*
X87750Y-28250D03*
X87750Y-24250D03*
G54D51*
X106777Y-23751D03*
X106777Y-24538D03*
X106777Y-25326D03*
X106777Y-26113D03*
X106777Y-26901D03*
X106777Y-27688D03*
X107762Y-27688D03*
X107762Y-26901D03*
X107762Y-26113D03*
X107762Y-25326D03*
X107762Y-24538D03*
X107762Y-23751D03*
G54D50*
X100500Y-26750D03*
X103311Y-26750D03*
X100500Y-24500D03*
X103311Y-24500D03*
X103240Y-31360D03*
X100428Y-31360D03*
X103250Y-29000D03*
X100438Y-29000D03*
X86100Y-35500D03*
X83288Y-35500D03*
X83250Y-33325D03*
X86061Y-33325D03*
X83200Y-25000D03*
X86011Y-25000D03*
X86000Y-27000D03*
X83188Y-27000D03*
G54D32*
X113100Y-26075D03*
X111100Y-26075D03*
G54D43*
X105100Y-30000D03*
X104500Y-30000D03*
G54D15*
X83100Y-28650D03*
G54D52*
X83100Y-29650D03*
X83100Y-30650D03*
X83100Y-31650D03*
G54D53*
X111850Y-45700D03*
G54D22*
X111850Y-46700D03*
G54D54*
X91400Y-28150D03*
G54D55*
X91400Y-28150D03*
G54D54*
X112700Y-35425D03*
G54D55*
X112700Y-35425D03*
G54D54*
X85450Y-40975D03*
G54D55*
X85450Y-40975D03*
G54D35*
X114340Y-30493D03*
X114340Y-29706D03*
X114340Y-28918D03*
X114340Y-31281D03*
G54D56*
X95150Y-34460D03*
X94650Y-33960D03*
X95150Y-33460D03*
G54D57*
X96660Y-35120D03*
X96020Y-35120D03*
X95700Y-33900D03*
X110950Y-44700D03*
X110450Y-44800D03*
X111400Y-44800D03*
X110200Y-45150D03*
X107275Y-39850D03*
X107300Y-40300D03*
X107275Y-40725D03*
X107275Y-41250D03*
X100600Y-33500D03*
X100800Y-33900D03*
X97100Y-38000D03*
X97100Y-37400D03*
X95900Y-38400D03*
X95900Y-37500D03*
X100900Y-39080D03*
X107700Y-33550D03*
X107700Y-34000D03*
X97598Y-24271D03*
X97425Y-23950D03*
X97795Y-23877D03*
X97450Y-29100D03*
X97400Y-32100D03*
X96950Y-31450D03*
X107250Y-30450D03*
X107700Y-30450D03*
X106120Y-32360D03*
X106260Y-31240D03*
X106260Y-30640D03*
X94635Y-28565D03*
X94125Y-28060D03*
X99400Y-39560D03*
X99420Y-39120D03*
X102760Y-42760D03*
X102738Y-43761D03*
X102760Y-43280D03*
X103200Y-43020D03*
X103800Y-43020D03*
X104400Y-43020D03*
X104980Y-43020D03*
X92560Y-41820D03*
X91280Y-41860D03*
X93240Y-40580D03*
X92680Y-40580D03*
X91700Y-40580D03*
X91140Y-40580D03*
X95180Y-27020D03*
X94720Y-27000D03*
X115200Y-32020D03*
X114620Y-32020D03*
X112480Y-31920D03*
X111960Y-31920D03*
X108120Y-32560D03*
X108600Y-32060D03*
X107500Y-32120D03*
X107520Y-32620D03*
X95700Y-33500D03*
X95700Y-33100D03*
X96880Y-26900D03*
X104220Y-30500D03*
X104720Y-30500D03*
X114150Y-32000D03*
X96535Y-45452D03*
X97527Y-46267D03*
X99559Y-41157D03*
X102956Y-41397D03*
X104350Y-39425D03*
X104362Y-38748D03*
X97975Y-23100D03*
X99400Y-26800D03*
X103913Y-37094D03*
X103913Y-36547D03*
X105307Y-38381D03*
X97942Y-31397D03*
X98356Y-31269D03*
X101100Y-37900D03*
X100600Y-37700D03*
X99960Y-27480D03*
X99960Y-27920D03*
X102800Y-35440D03*
X97700Y-26600D03*
X99000Y-25050D03*
X98550Y-25050D03*
X98525Y-29450D03*
X98000Y-29450D03*
X98100Y-26300D03*
X105350Y-38875D03*
X102800Y-35000D03*
X104300Y-35600D03*
X99500Y-31100D03*
X99291Y-28740D03*
X98503Y-28740D03*
X109437Y-35901D03*
X107905Y-35897D03*
X111600Y-29300D03*
X110920Y-29880D03*
X99625Y-29875D03*
X98525Y-29925D03*
X100100Y-29900D03*
X98500Y-30400D03*
X105019Y-34318D03*
X102870Y-34299D03*
X94900Y-25600D03*
X95800Y-25500D03*
X94500Y-32650D03*
X95900Y-30100D03*
X94050Y-32300D03*
X95650Y-30800D03*
X97380Y-27180D03*
X97380Y-28660D03*
X96000Y-40000D03*
X93800Y-40800D03*
X100600Y-36980D03*
X101500Y-36100D03*
X90535Y-45854D03*
X103874Y-38303D03*
X105267Y-39763D03*
X109550Y-47150D03*
X94250Y-25500D03*
X95925Y-25025D03*
X104300Y-25800D03*
X106360Y-28080D03*
X110140Y-29840D03*
X107905Y-36385D03*
X109842Y-35468D03*
X94980Y-24600D03*
X92420Y-33240D03*
X93500Y-34320D03*
X96760Y-24400D03*
X97760Y-28420D03*
X99655Y-25049D03*
X99537Y-26023D03*
X108920Y-26380D03*
X108940Y-27980D03*
X100420Y-41320D03*
X101875Y-40910D03*
X102283Y-40167D03*
X100187Y-40935D03*
X99517Y-44055D03*
X99517Y-45462D03*
X97881Y-38661D03*
X98881Y-39740D03*
X91800Y-45600D03*
X93900Y-38800D03*
X93900Y-40300D03*
X92000Y-44700D03*
X95085Y-29005D03*
X95500Y-28600D03*
X96800Y-27700D03*
X105500Y-32520D03*
X105480Y-31560D03*
G54D10*
G36*
X102525Y-39125D02*
X102075Y-39125D01*
X101800Y-39125D01*
X101800Y-38400D01*
X102525Y-38400D01*
X102525Y-39125D01*
X102525Y-39125D01*
G37*
G54D58*
X102525Y-39125D02*
X102075Y-39125D01*
X101800Y-39125D01*
X101800Y-38400D01*
X102525Y-38400D01*
X102525Y-39125D01*
G54D10*
G36*
X97625Y-30625D02*
X97175Y-30625D01*
X96875Y-30625D01*
X96875Y-29875D01*
X97625Y-29875D01*
X97625Y-30625D01*
X97625Y-30625D01*
G37*
G54D58*
X97625Y-30625D02*
X97175Y-30625D01*
X96875Y-30625D01*
X96875Y-29875D01*
X97625Y-29875D01*
X97625Y-30625D01*
G54D10*
G36*
X97625Y-25875D02*
X96875Y-25875D01*
X96875Y-25125D01*
X97625Y-25125D01*
X97625Y-25875D01*
X97625Y-25875D01*
G37*
G54D58*
X97625Y-25875D02*
X96875Y-25875D01*
X96875Y-25125D01*
X97625Y-25125D01*
X97625Y-25875D01*
M02*
