G04 (created by PCBNEW (2013-05-31 BZR 4019)-stable) date 6/10/2014 4:10:54 PM*
%MOIN*%
G04 Gerber Fmt 3.4, Leading zero omitted, Abs format*
%FSLAX34Y34*%
G01*
G70*
G90*
G04 APERTURE LIST*
%ADD10C,0.00590551*%
%ADD11C,0.005*%
%ADD12C,0.0001*%
%ADD13R,0.055X0.055*%
%ADD14C,0.055*%
%ADD15R,0.085X0.085*%
%ADD16C,0.09*%
%ADD17R,0.125984X0.212598*%
%ADD18R,0.0374016X0.0137795*%
%ADD19R,0.0362205X0.0362205*%
%ADD20R,0.0137795X0.0374016*%
%ADD21R,0.065X0.065*%
%ADD22R,0.08X0.08*%
%ADD23C,0.08*%
%ADD24C,0.065*%
%ADD25C,0.06*%
%ADD26R,0.07X0.2*%
%ADD27C,0.0708661*%
%ADD28R,0.0295276X0.00984252*%
%ADD29R,0.00984252X0.0295276*%
%ADD30R,0.0334646X0.0334646*%
%ADD31C,0.0591*%
%ADD32R,0.0393701X0.023622*%
%ADD33R,0.023622X0.0393701*%
%ADD34O,0.0590551X0.0393701*%
%ADD35R,0.0590551X0.0393701*%
%ADD36O,0.0393701X0.0590551*%
%ADD37R,0.114173X0.212598*%
%ADD38R,0.03X0.02*%
%ADD39R,0.0394X0.0315*%
%ADD40R,0.1063X0.0709*%
%ADD41R,0.08X0.06*%
%ADD42R,0.06X0.08*%
%ADD43R,0.025X0.045*%
%ADD44R,0.045X0.025*%
%ADD45R,0.063X0.125*%
%ADD46R,0.181102X0.19685*%
%ADD47R,0.0393701X0.0393701*%
%ADD48R,0.05X0.0240157*%
%ADD49O,0.0393701X0.0393701*%
%ADD50C,0.0787*%
%ADD51C,0.0511811*%
%ADD52C,0.085*%
%ADD53C,0.075*%
%ADD54C,0.0393701*%
%ADD55C,0.0551181*%
%ADD56C,0.035*%
%ADD57C,0.0295276*%
%ADD58C,0.01*%
%ADD59C,0.019685*%
%ADD60C,0.0787402*%
%ADD61C,0.0393701*%
%ADD62C,0.0590551*%
G04 APERTURE END LIST*
G54D10*
G54D11*
X85105Y-23000D02*
X85177Y-23024D01*
X85200Y-23048D01*
X85224Y-23095D01*
X85224Y-23167D01*
X85200Y-23214D01*
X85177Y-23238D01*
X85129Y-23262D01*
X84939Y-23262D01*
X84939Y-22762D01*
X85105Y-22762D01*
X85153Y-22786D01*
X85177Y-22810D01*
X85200Y-22857D01*
X85200Y-22905D01*
X85177Y-22952D01*
X85153Y-22976D01*
X85105Y-23000D01*
X84939Y-23000D01*
X85677Y-23262D02*
X85439Y-23262D01*
X85439Y-22762D01*
X85843Y-22762D02*
X85843Y-23167D01*
X85867Y-23214D01*
X85891Y-23238D01*
X85939Y-23262D01*
X86034Y-23262D01*
X86081Y-23238D01*
X86105Y-23214D01*
X86129Y-23167D01*
X86129Y-22762D01*
X86367Y-23000D02*
X86534Y-23000D01*
X86605Y-23262D02*
X86367Y-23262D01*
X86367Y-22762D01*
X86605Y-22762D01*
X86796Y-23238D02*
X86867Y-23262D01*
X86986Y-23262D01*
X87034Y-23238D01*
X87058Y-23214D01*
X87081Y-23167D01*
X87081Y-23119D01*
X87058Y-23071D01*
X87034Y-23048D01*
X86986Y-23024D01*
X86891Y-23000D01*
X86843Y-22976D01*
X86820Y-22952D01*
X86796Y-22905D01*
X86796Y-22857D01*
X86820Y-22810D01*
X86843Y-22786D01*
X86891Y-22762D01*
X87010Y-22762D01*
X87081Y-22786D01*
X87296Y-23262D02*
X87296Y-22762D01*
X87296Y-23000D02*
X87581Y-23000D01*
X87581Y-23262D02*
X87581Y-22762D01*
X87820Y-23262D02*
X87820Y-22762D01*
X88224Y-23000D02*
X88058Y-23000D01*
X88058Y-23262D02*
X88058Y-22762D01*
X88296Y-22762D01*
X88415Y-22762D02*
X88700Y-22762D01*
X88558Y-23262D02*
X88558Y-22762D01*
G54D12*
X82000Y-47850D02*
X82000Y-22250D01*
G54D10*
X82529Y-46781D02*
X82529Y-46381D01*
X82529Y-46572D02*
X82758Y-46572D01*
X82758Y-46781D02*
X82758Y-46381D01*
X82948Y-46572D02*
X83081Y-46572D01*
X83139Y-46781D02*
X82948Y-46781D01*
X82948Y-46381D01*
X83139Y-46381D01*
X83500Y-46781D02*
X83310Y-46781D01*
X83310Y-46381D01*
X83634Y-46781D02*
X83634Y-46381D01*
X83824Y-46381D02*
X83824Y-46705D01*
X83843Y-46743D01*
X83862Y-46762D01*
X83900Y-46781D01*
X83977Y-46781D01*
X84015Y-46762D01*
X84034Y-46743D01*
X84053Y-46705D01*
X84053Y-46381D01*
X84243Y-46781D02*
X84243Y-46381D01*
X84377Y-46667D01*
X84510Y-46381D01*
X84510Y-46781D01*
X82948Y-47134D02*
X83043Y-47400D01*
X83139Y-47134D01*
X83500Y-47400D02*
X83272Y-47400D01*
X83386Y-47400D02*
X83386Y-47000D01*
X83348Y-47058D01*
X83310Y-47096D01*
X83272Y-47115D01*
X83672Y-47362D02*
X83691Y-47381D01*
X83672Y-47400D01*
X83653Y-47381D01*
X83672Y-47362D01*
X83672Y-47400D01*
X84034Y-47000D02*
X83958Y-47000D01*
X83920Y-47020D01*
X83900Y-47039D01*
X83862Y-47096D01*
X83843Y-47172D01*
X83843Y-47324D01*
X83862Y-47362D01*
X83881Y-47381D01*
X83920Y-47400D01*
X83996Y-47400D01*
X84034Y-47381D01*
X84053Y-47362D01*
X84072Y-47324D01*
X84072Y-47229D01*
X84053Y-47191D01*
X84034Y-47172D01*
X83996Y-47153D01*
X83920Y-47153D01*
X83881Y-47172D01*
X83862Y-47191D01*
X83843Y-47229D01*
G54D12*
X116250Y-47850D02*
X116250Y-47500D01*
X82000Y-47850D02*
X116250Y-47850D01*
X116250Y-22250D02*
X116250Y-47500D01*
X83250Y-22250D02*
X116250Y-22250D01*
X82000Y-22250D02*
X83250Y-22250D01*
G54D13*
X115440Y-39080D03*
G54D14*
X114440Y-39080D03*
X113440Y-39080D03*
X112440Y-39080D03*
X111440Y-39080D03*
X110440Y-39080D03*
X109440Y-39080D03*
X108440Y-39080D03*
X107412Y-39080D03*
G54D15*
X83275Y-43000D03*
G54D16*
X83275Y-44000D03*
X83275Y-45000D03*
G54D17*
X93389Y-25500D03*
X89570Y-25500D03*
X93389Y-30750D03*
X89570Y-30750D03*
G54D18*
X97974Y-25627D03*
G54D19*
X97501Y-25751D03*
X96998Y-25751D03*
X96998Y-25248D03*
X97501Y-25248D03*
G54D18*
X97974Y-25883D03*
X97978Y-25372D03*
X97974Y-25116D03*
G54D20*
X97633Y-24775D03*
X97377Y-24775D03*
X97122Y-24775D03*
X96866Y-24775D03*
X96866Y-26224D03*
X97122Y-26224D03*
X97377Y-26224D03*
X97633Y-26224D03*
G54D18*
X96525Y-25116D03*
X96525Y-25372D03*
X96525Y-25627D03*
X96525Y-25883D03*
G54D21*
X106750Y-29900D03*
G54D14*
X107750Y-29900D03*
G54D13*
X87700Y-29700D03*
G54D14*
X87700Y-30700D03*
G54D22*
X115475Y-27720D03*
G54D23*
X115475Y-26720D03*
X115475Y-25720D03*
G54D21*
X100606Y-23031D03*
G54D24*
X99606Y-23031D03*
X98606Y-23031D03*
G54D21*
X84900Y-43048D03*
G54D24*
X84900Y-44032D03*
X84900Y-45017D03*
G54D25*
X107050Y-46400D03*
X107050Y-42400D03*
G54D26*
X110825Y-46350D03*
X108225Y-46350D03*
G54D18*
X97974Y-30377D03*
G54D19*
X97501Y-30501D03*
G54D18*
X97974Y-30633D03*
X97978Y-30122D03*
X97974Y-29866D03*
G54D20*
X97633Y-29525D03*
X97377Y-29525D03*
X97122Y-29525D03*
X96866Y-29525D03*
X96866Y-30974D03*
X97122Y-30974D03*
X97377Y-30974D03*
X97633Y-30974D03*
G54D18*
X96525Y-29866D03*
X96525Y-30122D03*
X96525Y-30377D03*
X96525Y-30633D03*
G54D19*
X96998Y-30501D03*
X97501Y-29998D03*
X96998Y-29998D03*
G54D27*
X114952Y-43150D03*
X109047Y-43150D03*
G54D28*
X102854Y-38464D03*
X102854Y-38661D03*
X102856Y-38858D03*
X102854Y-39055D03*
G54D29*
X102456Y-38070D03*
X102259Y-38070D03*
X102062Y-38070D03*
X101866Y-38070D03*
G54D28*
X101472Y-38464D03*
X101472Y-38661D03*
X101472Y-38858D03*
X101472Y-39055D03*
G54D29*
X101866Y-39448D03*
X102062Y-39448D03*
X102259Y-39448D03*
X102456Y-39448D03*
G54D30*
X102413Y-39011D03*
X101909Y-39011D03*
X102413Y-38507D03*
X101909Y-38507D03*
G54D31*
X113100Y-28600D03*
X111100Y-28600D03*
X113100Y-23500D03*
X111100Y-23500D03*
G54D32*
X108656Y-33031D03*
X108656Y-33346D03*
X108656Y-33661D03*
X108656Y-33976D03*
X108656Y-34291D03*
X108656Y-34606D03*
X108656Y-34921D03*
X108656Y-35236D03*
X108656Y-35551D03*
X108656Y-35866D03*
X108656Y-36181D03*
X108656Y-36496D03*
X108656Y-36811D03*
G54D33*
X109050Y-37204D03*
X109365Y-37204D03*
X109680Y-37204D03*
X109995Y-37204D03*
X110310Y-37204D03*
X110625Y-37204D03*
X110940Y-37204D03*
X111255Y-37204D03*
X111570Y-37204D03*
X111885Y-37204D03*
X112200Y-37204D03*
X112514Y-37204D03*
X112829Y-37204D03*
X113144Y-37204D03*
X113459Y-37204D03*
X113774Y-37204D03*
X114089Y-37204D03*
X115349Y-32637D03*
X115034Y-32637D03*
X114719Y-32637D03*
X114404Y-32637D03*
X114089Y-32637D03*
X113774Y-32637D03*
X113459Y-32637D03*
X113144Y-32637D03*
X112829Y-32637D03*
X112514Y-32637D03*
X112200Y-32637D03*
X111885Y-32637D03*
X111570Y-32637D03*
X111255Y-32637D03*
X110940Y-32637D03*
X110625Y-32637D03*
X110310Y-32637D03*
X109995Y-32637D03*
X109680Y-32637D03*
X109365Y-32637D03*
X109050Y-32637D03*
G54D34*
X85750Y-29606D03*
X85750Y-30393D03*
X85750Y-31181D03*
X85750Y-28818D03*
G54D24*
X112800Y-45700D03*
G54D21*
X112800Y-46700D03*
G54D35*
X96803Y-27700D03*
X97393Y-27700D03*
G54D21*
X90000Y-40300D03*
G54D24*
X90000Y-39300D03*
G54D36*
X88981Y-43025D03*
X89768Y-43025D03*
X90556Y-43025D03*
X88193Y-43025D03*
G54D24*
X95100Y-36500D03*
G54D21*
X96100Y-36500D03*
G54D24*
X97100Y-36500D03*
G54D37*
X98641Y-44763D03*
X94822Y-44763D03*
G54D17*
X93389Y-36000D03*
X89570Y-36000D03*
X87369Y-39680D03*
X83550Y-39680D03*
G54D38*
X106750Y-31375D03*
X106750Y-30625D03*
X105750Y-31375D03*
X106750Y-31000D03*
X105750Y-30625D03*
G54D39*
X101563Y-40525D03*
X100697Y-40900D03*
X100697Y-40150D03*
G54D40*
X94911Y-39564D03*
X94911Y-41454D03*
G54D41*
X91411Y-39859D03*
X91411Y-41159D03*
G54D42*
X96150Y-27750D03*
X94850Y-27750D03*
X97650Y-34400D03*
X96350Y-34400D03*
X95150Y-38000D03*
X96450Y-38000D03*
X98050Y-27700D03*
X99350Y-27700D03*
G54D41*
X92911Y-39859D03*
X92911Y-41159D03*
G54D42*
X97650Y-33300D03*
X96350Y-33300D03*
G54D41*
X106750Y-33650D03*
X106750Y-32350D03*
X105911Y-44909D03*
X105911Y-43609D03*
X103411Y-44909D03*
X103411Y-43609D03*
X104661Y-44909D03*
X104661Y-43609D03*
G54D43*
X105020Y-25210D03*
X104420Y-25210D03*
X96600Y-23550D03*
X97200Y-23550D03*
X102802Y-36763D03*
X103402Y-36763D03*
G54D44*
X99911Y-39809D03*
X99911Y-39209D03*
X107500Y-31550D03*
X107500Y-30950D03*
X104500Y-31550D03*
X104500Y-30950D03*
X105688Y-34248D03*
X105688Y-33648D03*
G54D43*
X110000Y-23900D03*
X109400Y-23900D03*
X110000Y-27650D03*
X109400Y-27650D03*
X110000Y-25150D03*
X109400Y-25150D03*
G54D44*
X111409Y-30385D03*
X111409Y-30985D03*
X110621Y-30385D03*
X110621Y-30985D03*
X109834Y-30385D03*
X109834Y-30985D03*
X109046Y-30385D03*
X109046Y-30985D03*
G54D43*
X105020Y-27710D03*
X104420Y-27710D03*
X105020Y-26460D03*
X104420Y-26460D03*
X105020Y-23960D03*
X104420Y-23960D03*
X110000Y-26400D03*
X109400Y-26400D03*
X100211Y-33009D03*
X99611Y-33009D03*
G54D44*
X107300Y-35200D03*
X107300Y-34600D03*
G54D43*
X108300Y-40200D03*
X107700Y-40200D03*
X100211Y-35009D03*
X99611Y-35009D03*
G54D44*
X100200Y-38700D03*
X100200Y-38100D03*
X99500Y-38700D03*
X99500Y-38100D03*
G54D43*
X102361Y-40759D03*
X102961Y-40759D03*
X108300Y-40950D03*
X107700Y-40950D03*
X101700Y-34000D03*
X102300Y-34000D03*
G54D44*
X104911Y-39309D03*
X104911Y-38709D03*
G54D43*
X101700Y-35000D03*
X102300Y-35000D03*
X101700Y-32900D03*
X102300Y-32900D03*
X99611Y-34009D03*
X100211Y-34009D03*
X103611Y-33009D03*
X104211Y-33009D03*
X103700Y-35000D03*
X104300Y-35000D03*
G54D44*
X99100Y-24000D03*
X99100Y-24600D03*
X98900Y-30900D03*
X98900Y-31500D03*
G54D43*
X103611Y-34009D03*
X104211Y-34009D03*
X96450Y-31750D03*
X97050Y-31750D03*
G54D45*
X113155Y-40650D03*
X110645Y-40650D03*
G54D25*
X93150Y-42350D03*
X93150Y-46350D03*
X106000Y-40250D03*
X106000Y-36250D03*
X91950Y-46350D03*
X91950Y-42350D03*
G54D46*
X101574Y-45509D03*
G54D47*
X102039Y-46001D03*
X102039Y-45509D03*
X102039Y-45017D03*
G54D48*
X100088Y-46261D03*
X100088Y-44757D03*
X100088Y-45259D03*
X100088Y-45759D03*
G54D46*
X100748Y-43009D03*
G54D47*
X100283Y-42517D03*
X100283Y-43009D03*
X100283Y-43501D03*
G54D48*
X102234Y-42257D03*
X102234Y-43761D03*
X102234Y-43259D03*
X102234Y-42759D03*
G54D49*
X94507Y-23250D03*
G54D36*
X95000Y-23250D03*
G54D49*
X95492Y-23250D03*
G54D34*
X114425Y-26713D03*
X114425Y-25926D03*
X114425Y-27501D03*
G54D50*
X87750Y-36250D03*
X87750Y-32250D03*
X87750Y-28250D03*
X87750Y-24250D03*
G54D51*
X106777Y-23751D03*
X106777Y-24538D03*
X106777Y-25326D03*
X106777Y-26113D03*
X106777Y-26901D03*
X106777Y-27688D03*
X107762Y-27688D03*
X107762Y-26901D03*
X107762Y-26113D03*
X107762Y-25326D03*
X107762Y-24538D03*
X107762Y-23751D03*
G54D50*
X100500Y-26750D03*
X103311Y-26750D03*
X100500Y-24500D03*
X103311Y-24500D03*
X103240Y-31360D03*
X100428Y-31360D03*
X103250Y-29000D03*
X100438Y-29000D03*
X86100Y-35500D03*
X83288Y-35500D03*
X83250Y-33325D03*
X86061Y-33325D03*
X83200Y-25000D03*
X86011Y-25000D03*
X86000Y-27000D03*
X83188Y-27000D03*
G54D31*
X113100Y-26075D03*
X111100Y-26075D03*
G54D43*
X105100Y-30000D03*
X104500Y-30000D03*
G54D15*
X83100Y-28650D03*
G54D52*
X83100Y-29650D03*
X83100Y-30650D03*
X83100Y-31650D03*
G54D53*
X111850Y-45700D03*
G54D22*
X111850Y-46700D03*
G54D54*
X91400Y-28150D03*
X112700Y-35425D03*
X85450Y-40975D03*
G54D34*
X114340Y-30493D03*
X114340Y-29706D03*
X114340Y-28918D03*
X114340Y-31281D03*
G54D55*
X95150Y-34460D03*
X94650Y-33960D03*
X95150Y-33460D03*
G54D56*
X96660Y-35120D03*
X96020Y-35120D03*
X95700Y-33900D03*
X110950Y-44700D03*
X110450Y-44800D03*
X111400Y-44800D03*
X110200Y-45150D03*
X107275Y-39850D03*
X107300Y-40300D03*
X107275Y-40725D03*
X107275Y-41250D03*
X100600Y-33500D03*
X100800Y-33900D03*
X97100Y-38000D03*
X97100Y-37400D03*
X95900Y-38400D03*
X95900Y-37500D03*
X100900Y-39080D03*
X107700Y-33550D03*
X107700Y-34000D03*
X97598Y-24271D03*
X97425Y-23950D03*
X97795Y-23877D03*
X97450Y-29100D03*
X97400Y-32100D03*
X96950Y-31450D03*
X107250Y-30450D03*
X107700Y-30450D03*
X106120Y-32360D03*
X106260Y-31240D03*
X106260Y-30640D03*
X94635Y-28565D03*
X94125Y-28060D03*
X99400Y-39560D03*
X99420Y-39120D03*
X102760Y-42760D03*
X102738Y-43761D03*
X102760Y-43280D03*
X103200Y-43020D03*
X103800Y-43020D03*
X104400Y-43020D03*
X104980Y-43020D03*
X92560Y-41820D03*
X91280Y-41860D03*
X93240Y-40580D03*
X92680Y-40580D03*
X91700Y-40580D03*
X91140Y-40580D03*
X95180Y-27020D03*
X94720Y-27000D03*
X115200Y-32020D03*
X114620Y-32020D03*
X112480Y-31920D03*
X111960Y-31920D03*
X108120Y-32560D03*
X108600Y-32060D03*
X107500Y-32120D03*
X107520Y-32620D03*
X95700Y-33500D03*
X95700Y-33100D03*
X96880Y-26900D03*
X104220Y-30500D03*
X104720Y-30500D03*
X114150Y-32000D03*
X96535Y-45452D03*
X97527Y-46267D03*
X99559Y-41157D03*
X102956Y-41397D03*
X104350Y-39425D03*
X104362Y-38748D03*
X97975Y-23100D03*
X99400Y-26800D03*
X103913Y-37094D03*
X103913Y-36547D03*
X105307Y-38381D03*
X97942Y-31397D03*
X98356Y-31269D03*
X101100Y-37900D03*
X100600Y-37700D03*
X99960Y-27480D03*
X99960Y-27920D03*
X102800Y-35440D03*
X97700Y-26600D03*
X99000Y-25050D03*
X98550Y-25050D03*
X98525Y-29450D03*
X98000Y-29450D03*
X98100Y-26300D03*
X105350Y-38875D03*
X102800Y-35000D03*
X104300Y-35600D03*
X99500Y-31100D03*
X99291Y-28740D03*
X98503Y-28740D03*
X109437Y-35901D03*
X107905Y-35897D03*
X111600Y-29300D03*
X110920Y-29880D03*
X99625Y-29875D03*
X98525Y-29925D03*
X100100Y-29900D03*
X98500Y-30400D03*
X105019Y-34318D03*
X102870Y-34299D03*
X94900Y-25600D03*
X95800Y-25500D03*
X94500Y-32650D03*
X95900Y-30100D03*
X94050Y-32300D03*
X95650Y-30800D03*
X97380Y-27180D03*
X97380Y-28660D03*
X96000Y-40000D03*
X93800Y-40800D03*
X100600Y-36980D03*
X101500Y-36100D03*
X90535Y-45854D03*
X103874Y-38303D03*
X105267Y-39763D03*
X109550Y-47150D03*
X94250Y-25500D03*
X95925Y-25025D03*
X104300Y-25800D03*
X106360Y-28080D03*
X110140Y-29840D03*
X107905Y-36385D03*
X109842Y-35468D03*
X94980Y-24600D03*
X92420Y-33240D03*
X93500Y-34320D03*
X96760Y-24400D03*
X97760Y-28420D03*
X99655Y-25049D03*
X99537Y-26023D03*
X108920Y-26380D03*
X108940Y-27980D03*
X100420Y-41320D03*
X101875Y-40910D03*
X102283Y-40167D03*
X100187Y-40935D03*
X99517Y-44055D03*
X99517Y-45462D03*
X97881Y-38661D03*
X98881Y-39740D03*
X91800Y-45600D03*
X93900Y-38800D03*
X93900Y-40300D03*
X92000Y-44700D03*
X95085Y-29005D03*
X95500Y-28600D03*
X96800Y-27700D03*
X105500Y-32520D03*
X105480Y-31560D03*
G54D57*
X96350Y-34400D02*
X96350Y-33300D01*
G54D58*
X96350Y-34400D02*
X96350Y-34790D01*
X96440Y-34490D02*
X96350Y-34400D01*
X96440Y-34900D02*
X96440Y-34490D01*
X96660Y-35120D02*
X96440Y-34900D01*
X96350Y-34790D02*
X96020Y-35120D01*
X96200Y-33400D02*
X95700Y-33900D01*
X96350Y-33400D02*
X96200Y-33400D01*
G54D59*
X110950Y-46350D02*
X110950Y-44700D01*
X110450Y-44800D02*
X110450Y-44925D01*
X110450Y-44925D02*
X110950Y-45425D01*
X110950Y-45425D02*
X110950Y-46350D01*
X111400Y-44800D02*
X111400Y-44950D01*
X111400Y-44950D02*
X110950Y-45400D01*
X110950Y-45400D02*
X110950Y-46350D01*
X110350Y-45300D02*
X110500Y-45450D01*
X110200Y-45150D02*
X110350Y-45300D01*
X110950Y-45850D02*
X110950Y-46350D01*
X110550Y-45450D02*
X110950Y-45850D01*
X110500Y-45450D02*
X110550Y-45450D01*
X110950Y-46350D02*
X110950Y-45925D01*
X110950Y-46350D02*
X110950Y-46075D01*
X110875Y-46350D02*
X110950Y-46350D01*
G54D60*
X111825Y-46700D02*
X111300Y-46700D01*
X111300Y-46700D02*
X110950Y-46350D01*
G54D59*
X107700Y-40200D02*
X107400Y-40200D01*
X107625Y-40200D02*
X107700Y-40200D01*
X107275Y-39850D02*
X107625Y-40200D01*
X107400Y-40200D02*
X107300Y-40300D01*
X107700Y-40950D02*
X107575Y-40950D01*
X107500Y-40950D02*
X107700Y-40950D01*
X107275Y-40725D02*
X107500Y-40950D01*
X107575Y-40950D02*
X107275Y-41250D01*
G54D60*
X112800Y-46700D02*
X111825Y-46700D01*
X111825Y-46700D02*
X111900Y-46700D01*
G54D59*
X110950Y-46350D02*
X110950Y-45450D01*
X110950Y-45400D02*
X110950Y-46350D01*
G54D58*
X100211Y-34009D02*
X100690Y-34009D01*
X100211Y-33888D02*
X100211Y-34009D01*
X100600Y-33500D02*
X100211Y-33888D01*
X100690Y-34009D02*
X100800Y-33900D01*
X96450Y-38000D02*
X96500Y-38000D01*
X97100Y-38000D02*
X96450Y-38000D01*
X96500Y-38000D02*
X97100Y-37400D01*
X96450Y-38000D02*
X96400Y-38000D01*
X96300Y-38000D02*
X96450Y-38000D01*
X95900Y-38400D02*
X96300Y-38000D01*
X96400Y-38000D02*
X95900Y-37500D01*
X115034Y-32637D02*
X115034Y-32134D01*
X114920Y-32020D02*
X114620Y-32020D01*
X115034Y-32134D02*
X114920Y-32020D01*
X114404Y-32637D02*
X114404Y-32254D01*
G54D59*
X100900Y-39080D02*
X100770Y-39080D01*
G54D58*
X101121Y-38858D02*
X100900Y-39080D01*
X101472Y-38858D02*
X101121Y-38858D01*
G54D59*
X100640Y-39209D02*
X99911Y-39209D01*
X100770Y-39080D02*
X100640Y-39209D01*
G54D58*
X107437Y-34262D02*
X107700Y-34000D01*
X107437Y-34609D02*
X107437Y-34262D01*
X107700Y-34000D02*
X107700Y-33550D01*
X115200Y-32020D02*
X115180Y-32020D01*
X115034Y-32165D02*
X115034Y-32637D01*
X115180Y-32020D02*
X115034Y-32165D01*
X114600Y-32000D02*
X114600Y-32050D01*
X114404Y-32245D02*
X114404Y-32637D01*
X114600Y-32050D02*
X114404Y-32245D01*
X107437Y-34609D02*
X108653Y-34609D01*
X108653Y-34609D02*
X108656Y-34606D01*
X97377Y-24492D02*
X97598Y-24271D01*
X97377Y-24775D02*
X97377Y-24492D01*
G54D59*
X97200Y-23400D02*
X97317Y-23400D01*
X97381Y-23581D02*
X97200Y-23400D01*
X97444Y-23930D02*
X97381Y-23581D01*
X97425Y-23950D02*
X97444Y-23930D01*
X97317Y-23400D02*
X97795Y-23877D01*
G54D58*
X97377Y-29525D02*
X97377Y-29172D01*
X97377Y-29172D02*
X97450Y-29100D01*
X97050Y-31750D02*
X97050Y-31550D01*
X97400Y-32100D02*
X97050Y-31750D01*
X97050Y-31550D02*
X96950Y-31450D01*
X107500Y-30950D02*
X107500Y-30650D01*
X107500Y-30700D02*
X107500Y-30950D01*
X107250Y-30450D02*
X107500Y-30700D01*
X107500Y-30650D02*
X107700Y-30450D01*
X106750Y-32350D02*
X106130Y-32350D01*
X106130Y-32350D02*
X106120Y-32360D01*
X106750Y-31000D02*
X106620Y-31000D01*
X106260Y-31240D02*
X106500Y-31000D01*
X106620Y-31000D02*
X106260Y-30640D01*
X94850Y-27750D02*
X94435Y-27750D01*
X94850Y-28350D02*
X94850Y-27750D01*
X94635Y-28565D02*
X94850Y-28350D01*
X94435Y-27750D02*
X94125Y-28060D01*
X99911Y-39209D02*
X99509Y-39209D01*
X99750Y-39209D02*
X99911Y-39209D01*
X99400Y-39560D02*
X99750Y-39209D01*
X99509Y-39209D02*
X99420Y-39120D01*
X102234Y-42759D02*
X102759Y-42759D01*
X102759Y-42759D02*
X102760Y-42760D01*
X102234Y-43259D02*
X102739Y-43259D01*
X102760Y-43280D02*
X102739Y-43259D01*
X102234Y-43761D02*
X102738Y-43761D01*
X102738Y-43761D02*
X102740Y-43760D01*
X103411Y-43609D02*
X103411Y-43408D01*
X103411Y-43231D02*
X103411Y-43609D01*
X103200Y-43020D02*
X103411Y-43231D01*
X103411Y-43408D02*
X103800Y-43020D01*
X104661Y-43609D02*
X104661Y-43338D01*
X104661Y-43281D02*
X104661Y-43609D01*
X104400Y-43020D02*
X104661Y-43281D01*
X104661Y-43338D02*
X104980Y-43020D01*
X92911Y-41159D02*
X92911Y-41468D01*
X92911Y-41468D02*
X92560Y-41820D01*
X91411Y-41159D02*
X91411Y-41728D01*
X91411Y-41728D02*
X91280Y-41860D01*
X92911Y-41159D02*
X92911Y-40811D01*
X92911Y-40908D02*
X92911Y-41159D01*
X93240Y-40580D02*
X92911Y-40908D01*
X92911Y-40811D02*
X92680Y-40580D01*
X91411Y-41159D02*
X91411Y-40851D01*
X91411Y-40868D02*
X91411Y-41159D01*
X91700Y-40580D02*
X91411Y-40868D01*
X91411Y-40851D02*
X91140Y-40580D01*
X94850Y-27750D02*
X94850Y-27130D01*
X94850Y-27350D02*
X94850Y-27750D01*
X95180Y-27020D02*
X94850Y-27350D01*
X94850Y-27130D02*
X94720Y-27000D01*
X114719Y-32637D02*
X114719Y-32119D01*
X114719Y-32119D02*
X114600Y-32000D01*
X114600Y-32000D02*
X114620Y-32020D01*
X115349Y-32637D02*
X115349Y-32169D01*
X115349Y-32169D02*
X115200Y-32020D01*
X112200Y-32637D02*
X112200Y-32160D01*
X112200Y-32200D02*
X112200Y-32637D01*
X112480Y-31920D02*
X112200Y-32200D01*
X112200Y-32160D02*
X111960Y-31920D01*
X108656Y-33031D02*
X108656Y-32116D01*
X108591Y-33031D02*
X108656Y-33031D01*
X108120Y-32560D02*
X108591Y-33031D01*
X108656Y-32116D02*
X108600Y-32060D01*
X104500Y-30950D02*
X104500Y-30720D01*
X104500Y-30780D02*
X104500Y-30950D01*
X106750Y-32350D02*
X107270Y-32350D01*
X107270Y-32350D02*
X107500Y-32120D01*
X107250Y-32350D02*
X106750Y-32350D01*
X107520Y-32620D02*
X107250Y-32350D01*
X96350Y-33400D02*
X96000Y-33400D01*
X95800Y-33400D02*
X96350Y-33400D01*
X95700Y-33500D02*
X95800Y-33400D01*
X96000Y-33400D02*
X95700Y-33100D01*
G54D59*
X104500Y-30950D02*
X106450Y-30950D01*
X106500Y-31000D02*
X106750Y-31000D01*
X106450Y-30950D02*
X106500Y-31000D01*
G54D58*
X107500Y-30950D02*
X106800Y-30950D01*
X106800Y-30950D02*
X106750Y-31000D01*
X101472Y-38858D02*
X101755Y-38858D01*
X101755Y-38858D02*
X101909Y-39011D01*
X108656Y-33031D02*
X112168Y-33031D01*
X112200Y-33000D02*
X112200Y-32637D01*
X112168Y-33031D02*
X112200Y-33000D01*
X97122Y-26224D02*
X97122Y-26657D01*
X97122Y-26657D02*
X96880Y-26900D01*
X97122Y-30974D02*
X97122Y-31677D01*
X97122Y-31677D02*
X97050Y-31750D01*
X104720Y-30500D02*
X104700Y-30500D01*
X104500Y-30300D02*
X104500Y-30000D01*
X104700Y-30500D02*
X104500Y-30300D01*
X104500Y-30000D02*
X104500Y-30220D01*
X104500Y-30220D02*
X104220Y-30500D01*
X104220Y-30500D02*
X104500Y-30780D01*
X104500Y-30720D02*
X104720Y-30500D01*
X114404Y-32254D02*
X114150Y-32000D01*
G54D60*
X83275Y-44000D02*
X84867Y-44000D01*
X84867Y-44000D02*
X84900Y-44032D01*
X84900Y-44032D02*
X88542Y-44032D01*
X88542Y-44032D02*
X88550Y-44025D01*
X88550Y-44025D02*
X88981Y-43593D01*
X88981Y-43593D02*
X88981Y-43025D01*
X90000Y-40300D02*
X90375Y-40300D01*
X90815Y-39859D02*
X91411Y-39859D01*
X90375Y-40300D02*
X90815Y-39859D01*
G54D58*
X91431Y-45181D02*
X91275Y-45025D01*
X107050Y-46400D02*
X103661Y-46397D01*
X94192Y-45996D02*
X93377Y-45181D01*
X95992Y-45996D02*
X94192Y-45996D01*
X96535Y-45452D02*
X95992Y-45996D01*
X98374Y-47114D02*
X97527Y-46267D01*
X102944Y-47114D02*
X98374Y-47114D01*
X103661Y-46397D02*
X102944Y-47114D01*
X93377Y-45181D02*
X91431Y-45181D01*
X90000Y-41250D02*
X90000Y-40300D01*
X91275Y-42525D02*
X90000Y-41250D01*
X91275Y-45025D02*
X91275Y-42525D01*
G54D60*
X88981Y-41318D02*
X90000Y-40300D01*
X88981Y-43025D02*
X88981Y-41318D01*
G54D58*
X99500Y-38100D02*
X98900Y-38700D01*
X94911Y-40311D02*
X95000Y-40400D01*
X95000Y-40400D02*
X97300Y-40400D01*
X94911Y-40311D02*
X94911Y-39564D01*
X97400Y-40400D02*
X97300Y-40400D01*
X98900Y-38900D02*
X97400Y-40400D01*
X98900Y-38800D02*
X98900Y-38900D01*
X98900Y-38700D02*
X98900Y-38800D01*
X99500Y-38100D02*
X99500Y-38200D01*
X100200Y-38400D02*
X101150Y-38400D01*
X101150Y-38400D02*
X101214Y-38464D01*
X101214Y-38464D02*
X101472Y-38464D01*
X99700Y-38400D02*
X100200Y-38400D01*
X99500Y-38200D02*
X99700Y-38400D01*
X101472Y-38464D02*
X101472Y-37370D01*
X101472Y-37370D02*
X100582Y-36480D01*
X100582Y-36480D02*
X100582Y-34625D01*
X100582Y-34625D02*
X101208Y-34000D01*
X101208Y-34000D02*
X101700Y-34000D01*
G54D61*
X91090Y-39859D02*
X91411Y-39859D01*
G54D60*
X92911Y-39859D02*
X91411Y-39859D01*
X94911Y-39564D02*
X93206Y-39564D01*
X93206Y-39564D02*
X92911Y-39859D01*
G54D58*
X101700Y-34000D02*
X101700Y-33700D01*
X101700Y-33200D02*
X101700Y-32900D01*
X101800Y-33300D02*
X101700Y-33200D01*
X101800Y-33600D02*
X101800Y-33300D01*
X101700Y-33700D02*
X101800Y-33600D01*
X99500Y-38100D02*
X99600Y-38100D01*
X99300Y-38100D02*
X99500Y-38100D01*
G54D62*
X92911Y-39859D02*
X93206Y-39564D01*
G54D59*
X94911Y-39564D02*
X93206Y-39564D01*
G54D57*
X83275Y-45000D02*
X84882Y-45000D01*
X84882Y-45000D02*
X84900Y-45017D01*
X85649Y-45027D02*
X84910Y-45027D01*
X84910Y-45027D02*
X84900Y-45017D01*
X85649Y-45027D02*
X87700Y-47078D01*
X87700Y-47078D02*
X96118Y-47078D01*
G54D58*
X96118Y-47078D02*
X97811Y-45385D01*
X97811Y-45385D02*
X97811Y-42905D01*
X97811Y-42905D02*
X99559Y-41157D01*
X102956Y-41397D02*
X104350Y-40003D01*
X104350Y-40003D02*
X104350Y-39425D01*
X104362Y-38748D02*
X104309Y-38694D01*
X104309Y-38694D02*
X104285Y-38694D01*
G54D57*
X85647Y-45025D02*
X85649Y-45027D01*
G54D58*
X103003Y-38858D02*
X104122Y-38858D01*
X105098Y-34896D02*
X104211Y-34009D01*
X105098Y-35389D02*
X105098Y-34896D01*
X105358Y-35649D02*
X105098Y-35389D01*
X105358Y-37622D02*
X105358Y-35649D01*
X104122Y-38858D02*
X104285Y-38694D01*
X104285Y-38694D02*
X104332Y-38647D01*
X104332Y-38647D02*
X105358Y-37622D01*
X95492Y-23250D02*
X95575Y-23250D01*
X97850Y-22950D02*
X97975Y-23100D01*
X95850Y-22950D02*
X97850Y-22950D01*
X95575Y-23250D02*
X95850Y-22950D01*
X99350Y-27700D02*
X99350Y-26850D01*
X99350Y-26850D02*
X99400Y-26800D01*
X103402Y-36763D02*
X103696Y-36763D01*
X103582Y-36763D02*
X103402Y-36763D01*
X103913Y-37094D02*
X103582Y-36763D01*
X103696Y-36763D02*
X103913Y-36547D01*
X104911Y-38709D02*
X104979Y-38709D01*
X104979Y-38709D02*
X105307Y-38381D01*
X98900Y-31500D02*
X98586Y-31500D01*
X97633Y-31088D02*
X97633Y-30974D01*
X97942Y-31397D02*
X97633Y-31088D01*
X98586Y-31500D02*
X98356Y-31269D01*
X97377Y-26224D02*
X97377Y-25875D01*
X97377Y-25875D02*
X97501Y-25751D01*
X98900Y-31500D02*
X99100Y-31500D01*
X99100Y-31500D02*
X99500Y-31100D01*
X100200Y-38100D02*
X100500Y-37800D01*
X100900Y-38100D02*
X100200Y-38100D01*
X101100Y-37900D02*
X100900Y-38100D01*
X100500Y-37800D02*
X100600Y-37700D01*
X97377Y-30974D02*
X97377Y-30625D01*
X97377Y-30625D02*
X97501Y-30501D01*
X97633Y-26224D02*
X97377Y-26224D01*
X97633Y-30974D02*
X97377Y-30974D01*
X99350Y-27700D02*
X99740Y-27700D01*
X99740Y-27700D02*
X99960Y-27480D01*
X99960Y-27920D02*
X99740Y-27700D01*
X102300Y-35000D02*
X102360Y-35000D01*
X102360Y-35000D02*
X102800Y-35440D01*
X97633Y-26224D02*
X97633Y-26533D01*
X97633Y-26533D02*
X97700Y-26600D01*
X99100Y-24600D02*
X99100Y-24950D01*
X99100Y-24950D02*
X99000Y-25050D01*
X97974Y-25116D02*
X98483Y-25116D01*
X98483Y-25116D02*
X98550Y-25050D01*
X97974Y-29866D02*
X97974Y-29475D01*
X98265Y-29575D02*
X97974Y-29866D01*
X98400Y-29575D02*
X98265Y-29575D01*
X98525Y-29450D02*
X98400Y-29575D01*
X97974Y-29475D02*
X98000Y-29450D01*
X97633Y-26224D02*
X98024Y-26224D01*
X98024Y-26224D02*
X98100Y-26300D01*
X104911Y-38709D02*
X105129Y-38709D01*
X105129Y-38709D02*
X105350Y-38875D01*
X102800Y-35000D02*
X102300Y-35000D01*
X104300Y-35000D02*
X104300Y-35600D01*
X97974Y-25116D02*
X98033Y-25116D01*
X98550Y-24600D02*
X99100Y-24600D01*
X98033Y-25116D02*
X98550Y-24600D01*
X97633Y-29525D02*
X97633Y-29374D01*
X100275Y-23700D02*
X99606Y-23031D01*
X100787Y-23700D02*
X100275Y-23700D01*
X101338Y-24251D02*
X100787Y-23700D01*
X101338Y-27086D02*
X101338Y-24251D01*
X99685Y-28740D02*
X101338Y-27086D01*
X99606Y-28740D02*
X99685Y-28740D01*
X99291Y-28740D02*
X99606Y-28740D01*
X98267Y-28740D02*
X98503Y-28740D01*
X97633Y-29374D02*
X98267Y-28740D01*
X105020Y-27710D02*
X105190Y-27710D01*
X107606Y-26113D02*
X107220Y-26500D01*
X107606Y-26113D02*
X107762Y-26113D01*
X107220Y-26500D02*
X106400Y-26500D01*
X106400Y-26500D02*
X105470Y-27430D01*
X105190Y-27710D02*
X105470Y-27430D01*
G54D61*
X85750Y-30393D02*
X83356Y-30393D01*
X83356Y-30393D02*
X83100Y-30650D01*
X86100Y-35500D02*
X84800Y-34200D01*
X85606Y-30393D02*
X85750Y-30393D01*
X84800Y-31200D02*
X85606Y-30393D01*
X84800Y-34200D02*
X84800Y-31200D01*
X86100Y-35500D02*
X87000Y-35500D01*
X87000Y-35500D02*
X87750Y-36250D01*
X83550Y-39680D02*
X83550Y-38049D01*
X83550Y-38049D02*
X86100Y-35500D01*
G54D60*
X83550Y-39680D02*
X82920Y-39680D01*
X82920Y-39680D02*
X82900Y-39700D01*
G54D61*
X86061Y-33325D02*
X86675Y-33325D01*
X86675Y-33325D02*
X87750Y-32250D01*
X87750Y-32250D02*
X86818Y-32250D01*
X86818Y-32250D02*
X85750Y-31181D01*
X89570Y-36000D02*
X89570Y-34070D01*
X89570Y-34070D02*
X87750Y-32250D01*
G54D60*
X89570Y-36000D02*
X88950Y-36000D01*
X88950Y-36000D02*
X88900Y-35950D01*
G54D58*
X110940Y-32637D02*
X110940Y-31840D01*
X110940Y-31840D02*
X110700Y-31600D01*
X109834Y-30985D02*
X110085Y-30985D01*
X110085Y-30985D02*
X110700Y-31600D01*
X114440Y-39080D02*
X114440Y-38840D01*
X111255Y-37655D02*
X111255Y-37204D01*
X111600Y-38000D02*
X111255Y-37655D01*
X113600Y-38000D02*
X111600Y-38000D01*
X114440Y-38840D02*
X113600Y-38000D01*
X113440Y-39080D02*
X113440Y-39040D01*
X110940Y-37740D02*
X110940Y-37204D01*
X111400Y-38200D02*
X110940Y-37740D01*
X112600Y-38200D02*
X111400Y-38200D01*
X113440Y-39040D02*
X112600Y-38200D01*
X112440Y-39080D02*
X112440Y-39040D01*
X110625Y-37825D02*
X110625Y-37204D01*
X111200Y-38400D02*
X110625Y-37825D01*
X111800Y-38400D02*
X111200Y-38400D01*
X112440Y-39040D02*
X111800Y-38400D01*
X107412Y-39080D02*
X107412Y-36390D01*
X107412Y-36390D02*
X107905Y-35897D01*
X105688Y-34248D02*
X105740Y-34248D01*
X111885Y-36656D02*
X111885Y-37204D01*
X111129Y-35901D02*
X111885Y-36656D01*
X109437Y-35901D02*
X111129Y-35901D01*
X107389Y-35897D02*
X107905Y-35897D01*
X105740Y-34248D02*
X107389Y-35897D01*
X111570Y-32637D02*
X111570Y-31146D01*
X111570Y-31146D02*
X111409Y-30985D01*
G54D57*
X114425Y-26713D02*
X115468Y-26713D01*
X115468Y-26713D02*
X115475Y-26720D01*
X114425Y-26713D02*
X113738Y-26713D01*
X113738Y-26713D02*
X113100Y-26075D01*
G54D58*
X111200Y-31500D02*
X111200Y-32582D01*
X111200Y-32582D02*
X111255Y-32637D01*
X110621Y-30985D02*
X110685Y-30985D01*
X110685Y-30985D02*
X111200Y-31500D01*
X109046Y-30985D02*
X109046Y-31146D01*
X110625Y-32225D02*
X110625Y-32637D01*
X110300Y-31900D02*
X110625Y-32225D01*
X109800Y-31900D02*
X110300Y-31900D01*
X109046Y-31146D02*
X109800Y-31900D01*
X115440Y-39080D02*
X115440Y-38690D01*
X111570Y-37570D02*
X111570Y-37204D01*
X111750Y-37750D02*
X111570Y-37570D01*
X114500Y-37750D02*
X111750Y-37750D01*
X115440Y-38690D02*
X114500Y-37750D01*
X111600Y-29300D02*
X111600Y-29040D01*
X109400Y-24260D02*
X109400Y-23900D01*
X109640Y-24500D02*
X109400Y-24260D01*
X110720Y-24500D02*
X109640Y-24500D01*
X111760Y-25540D02*
X110720Y-24500D01*
X111760Y-28880D02*
X111760Y-25540D01*
X111600Y-29040D02*
X111760Y-28880D01*
X110621Y-30385D02*
X110621Y-30118D01*
X113978Y-29280D02*
X114340Y-28918D01*
X111620Y-29280D02*
X113978Y-29280D01*
X111600Y-29300D02*
X111620Y-29280D01*
X110860Y-29880D02*
X110920Y-29880D01*
X110621Y-30118D02*
X110860Y-29880D01*
X109400Y-23900D02*
X108401Y-23900D01*
X108401Y-23900D02*
X107762Y-24538D01*
X109400Y-23900D02*
X109320Y-23900D01*
G54D59*
X100500Y-26750D02*
X100500Y-26140D01*
X100500Y-26140D02*
X99987Y-25627D01*
G54D58*
X97974Y-25627D02*
X99987Y-25627D01*
G54D59*
X100500Y-24500D02*
X100500Y-24900D01*
X100100Y-25300D02*
X100100Y-25304D01*
X100500Y-24900D02*
X100100Y-25300D01*
G54D58*
X97978Y-25372D02*
X100032Y-25372D01*
X100032Y-25372D02*
X100100Y-25304D01*
G54D59*
X99600Y-29900D02*
X99600Y-29838D01*
X99600Y-29838D02*
X100438Y-29000D01*
G54D58*
X97978Y-30122D02*
X98352Y-30122D01*
X99625Y-29875D02*
X99600Y-29900D01*
X99600Y-29900D02*
X100500Y-29000D01*
X98525Y-29950D02*
X98525Y-29925D01*
X98352Y-30122D02*
X98525Y-29950D01*
G54D59*
X100428Y-31360D02*
X100428Y-30891D01*
X100428Y-30891D02*
X100438Y-30881D01*
X100438Y-31000D02*
X100438Y-30881D01*
X100438Y-30881D02*
X100438Y-30238D01*
X100438Y-30238D02*
X100100Y-29900D01*
G54D58*
X97974Y-30377D02*
X98477Y-30377D01*
X100100Y-29900D02*
X100438Y-30238D01*
X98477Y-30377D02*
X98500Y-30400D01*
G54D59*
X107050Y-42400D02*
X107050Y-42250D01*
X106000Y-41100D02*
X106000Y-40250D01*
X106000Y-41200D02*
X106000Y-41100D01*
X107050Y-42250D02*
X106000Y-41200D01*
X107050Y-42400D02*
X107050Y-42374D01*
G54D58*
X106000Y-40250D02*
X106025Y-40250D01*
X106025Y-40250D02*
X106791Y-39484D01*
X106791Y-39484D02*
X106791Y-36031D01*
X106791Y-36031D02*
X105078Y-34318D01*
X105078Y-34318D02*
X105019Y-34318D01*
X102870Y-34299D02*
X102570Y-34000D01*
X102570Y-34000D02*
X102300Y-34000D01*
X101866Y-38070D02*
X101866Y-37775D01*
X101161Y-35538D02*
X101700Y-35000D01*
X101161Y-36283D02*
X101161Y-35538D01*
X101685Y-36807D02*
X101161Y-36283D01*
X101685Y-37594D02*
X101685Y-36807D01*
X101866Y-37775D02*
X101685Y-37594D01*
X102300Y-34000D02*
X102300Y-33000D01*
X101700Y-35000D02*
X101700Y-34600D01*
X101700Y-34600D02*
X102300Y-34000D01*
X102961Y-40759D02*
X102961Y-40893D01*
X101563Y-41158D02*
X101563Y-40525D01*
X101815Y-41410D02*
X101563Y-41158D01*
X102445Y-41410D02*
X101815Y-41410D01*
X102961Y-40893D02*
X102445Y-41410D01*
X102456Y-39448D02*
X102456Y-39830D01*
X102961Y-40335D02*
X102961Y-40759D01*
X102456Y-39830D02*
X102961Y-40335D01*
G54D59*
X99911Y-39809D02*
X100690Y-39809D01*
X100690Y-39809D02*
X101100Y-39400D01*
X100697Y-40150D02*
X100697Y-39902D01*
X100697Y-39902D02*
X100604Y-39809D01*
X100604Y-39809D02*
X99911Y-39809D01*
G54D58*
X100697Y-39902D02*
X100604Y-39809D01*
X101472Y-39055D02*
X101366Y-39055D01*
X100611Y-39809D02*
X100604Y-39809D01*
X100604Y-39809D02*
X99911Y-39809D01*
X101366Y-39055D02*
X100611Y-39809D01*
X102854Y-38464D02*
X103129Y-38464D01*
X103700Y-35617D02*
X103700Y-35000D01*
X104122Y-36039D02*
X103700Y-35617D01*
X104637Y-36039D02*
X104122Y-36039D01*
X105039Y-36440D02*
X104637Y-36039D01*
X105039Y-37602D02*
X105039Y-36440D01*
X104003Y-38637D02*
X105039Y-37602D01*
X103303Y-38637D02*
X104003Y-38637D01*
X103129Y-38464D02*
X103303Y-38637D01*
X103700Y-35000D02*
X103700Y-34860D01*
X104211Y-33408D02*
X104211Y-33009D01*
X103920Y-33700D02*
X104211Y-33408D01*
X103920Y-34640D02*
X103920Y-33700D01*
X103700Y-34860D02*
X103920Y-34640D01*
G54D57*
X94900Y-25600D02*
X94500Y-26000D01*
X94500Y-26000D02*
X94500Y-26525D01*
X93325Y-30685D02*
X93389Y-30750D01*
X93325Y-27700D02*
X93325Y-30685D01*
X94500Y-26525D02*
X93325Y-27700D01*
G54D58*
X96525Y-25627D02*
X95927Y-25627D01*
X95927Y-25627D02*
X95800Y-25500D01*
G54D57*
X93389Y-33760D02*
X91975Y-35175D01*
X93389Y-33760D02*
X94500Y-32650D01*
G54D58*
X95900Y-30100D02*
X95922Y-30122D01*
X96525Y-30122D02*
X95922Y-30122D01*
G54D57*
X92450Y-36000D02*
X93389Y-36000D01*
X91975Y-35525D02*
X92450Y-36000D01*
X91975Y-35175D02*
X91975Y-35525D01*
G54D60*
X93389Y-36000D02*
X94050Y-36000D01*
X87369Y-39680D02*
X88270Y-39680D01*
G54D58*
X96525Y-30377D02*
X96072Y-30377D01*
G54D57*
X90850Y-37100D02*
X88270Y-39680D01*
X90850Y-35500D02*
X90850Y-37100D01*
X94050Y-32300D02*
X90850Y-35500D01*
G54D58*
X96072Y-30377D02*
X95650Y-30800D01*
X97122Y-29525D02*
X97122Y-28917D01*
X96500Y-26590D02*
X96866Y-26224D01*
X96500Y-27040D02*
X96500Y-26590D01*
X96720Y-27260D02*
X96500Y-27040D01*
X97300Y-27260D02*
X96720Y-27260D01*
X97380Y-27180D02*
X97300Y-27260D01*
X97122Y-28917D02*
X97380Y-28660D01*
G54D61*
X95150Y-38000D02*
X95150Y-37250D01*
X95150Y-37250D02*
X95100Y-37200D01*
G54D60*
X95100Y-36500D02*
X95100Y-37200D01*
X95100Y-37200D02*
X94700Y-37600D01*
X94200Y-37600D02*
X94700Y-37600D01*
X91715Y-37600D02*
X91605Y-37600D01*
X90615Y-38590D02*
X90615Y-38685D01*
X91605Y-37600D02*
X90615Y-38590D01*
X94200Y-37600D02*
X91715Y-37600D01*
X91715Y-37600D02*
X91700Y-37600D01*
G54D62*
X91700Y-37600D02*
X90615Y-38685D01*
X90615Y-38685D02*
X90000Y-39300D01*
X94200Y-37600D02*
X91700Y-37600D01*
G54D57*
X114425Y-25926D02*
X115268Y-25926D01*
X115268Y-25926D02*
X115475Y-25720D01*
X114425Y-25926D02*
X114425Y-25925D01*
X113100Y-24600D02*
X113100Y-23500D01*
X114425Y-25925D02*
X113100Y-24600D01*
G54D58*
X99611Y-33009D02*
X99611Y-33261D01*
X100211Y-34711D02*
X100211Y-35009D01*
X99900Y-34400D02*
X100211Y-34711D01*
X99900Y-33550D02*
X99900Y-34400D01*
X99611Y-33261D02*
X99900Y-33550D01*
G54D59*
X100600Y-36980D02*
X99611Y-35991D01*
X99611Y-35991D02*
X99611Y-35009D01*
X93150Y-42350D02*
X93350Y-42350D01*
X99920Y-36980D02*
X100600Y-36980D01*
X98500Y-38400D02*
X99920Y-36980D01*
X98500Y-38800D02*
X98500Y-38400D01*
X97300Y-40000D02*
X98500Y-38800D01*
X96000Y-40000D02*
X97300Y-40000D01*
X93800Y-41900D02*
X93800Y-40800D01*
X93350Y-42350D02*
X93800Y-41900D01*
X101500Y-36100D02*
X101500Y-36150D01*
X102000Y-36650D02*
X102000Y-37450D01*
X101500Y-36150D02*
X102000Y-36650D01*
G54D58*
X102062Y-37400D02*
X102062Y-36612D01*
X99611Y-35991D02*
X99611Y-35009D01*
X101550Y-36100D02*
X101500Y-36100D01*
X102062Y-36612D02*
X101550Y-36100D01*
X102062Y-38070D02*
X102062Y-37400D01*
X102062Y-37400D02*
X102062Y-37402D01*
X99611Y-35009D02*
X99611Y-34009D01*
X91950Y-42350D02*
X93150Y-42350D01*
X103250Y-29000D02*
X104920Y-29000D01*
X106231Y-27688D02*
X106777Y-27688D01*
X104920Y-29000D02*
X106231Y-27688D01*
G54D57*
X113155Y-42705D02*
X113155Y-40650D01*
X112800Y-45700D02*
X112800Y-45302D01*
G54D58*
X107762Y-23751D02*
X107762Y-23662D01*
X105740Y-23240D02*
X105020Y-23960D01*
X107340Y-23240D02*
X105740Y-23240D01*
X107762Y-23662D02*
X107340Y-23240D01*
G54D59*
X90556Y-45833D02*
X90556Y-43025D01*
X90535Y-45854D02*
X90556Y-45833D01*
X109800Y-46900D02*
X109550Y-47150D01*
X109800Y-46900D02*
X109800Y-45300D01*
X107900Y-42800D02*
X108200Y-42500D01*
X109800Y-44600D02*
X109800Y-43100D01*
X107900Y-42800D02*
X107400Y-43300D01*
X107400Y-43300D02*
X106618Y-43300D01*
X106618Y-43300D02*
X106366Y-43047D01*
G54D58*
X102456Y-38070D02*
X102438Y-38070D01*
X103641Y-38070D02*
X102438Y-38070D01*
X103874Y-38303D02*
X103641Y-38070D01*
G54D59*
X105267Y-41007D02*
X105267Y-39763D01*
X106366Y-42106D02*
X105267Y-41007D01*
X106366Y-43047D02*
X106366Y-42106D01*
X109800Y-45300D02*
X109800Y-44600D01*
X109800Y-42800D02*
X109800Y-43100D01*
X109500Y-42500D02*
X109800Y-42800D01*
X108200Y-42500D02*
X109500Y-42500D01*
X110000Y-27650D02*
X110000Y-26400D01*
X111100Y-28600D02*
X110950Y-28600D01*
X110950Y-28600D02*
X110296Y-27946D01*
X110296Y-27946D02*
X110000Y-27650D01*
G54D58*
X110296Y-27946D02*
X110000Y-27650D01*
G54D57*
X114425Y-27501D02*
X115256Y-27501D01*
X115256Y-27501D02*
X115475Y-27720D01*
X113100Y-28600D02*
X113100Y-28380D01*
X113978Y-27501D02*
X114425Y-27501D01*
X113100Y-28380D02*
X113978Y-27501D01*
G54D59*
X113118Y-28581D02*
X113100Y-28600D01*
X113118Y-28581D02*
X113100Y-28600D01*
X111100Y-23500D02*
X110875Y-23500D01*
X110475Y-23900D02*
X110000Y-23900D01*
X110875Y-23500D02*
X110475Y-23900D01*
G54D60*
X93389Y-25500D02*
X93650Y-25500D01*
X94000Y-25150D02*
X93389Y-25500D01*
X93650Y-25500D02*
X94000Y-25150D01*
G54D57*
X94250Y-25500D02*
X93389Y-25500D01*
G54D58*
X96525Y-25372D02*
X96272Y-25372D01*
X96272Y-25372D02*
X95925Y-25025D01*
X104420Y-27710D02*
X104420Y-27900D01*
X107338Y-27688D02*
X106945Y-27295D01*
X106945Y-27295D02*
X106195Y-27295D01*
X106195Y-27295D02*
X105545Y-27945D01*
X107338Y-27688D02*
X107762Y-27688D01*
X105330Y-28160D02*
X105545Y-27945D01*
X104680Y-28160D02*
X105330Y-28160D01*
X104420Y-27900D02*
X104680Y-28160D01*
G54D59*
X104420Y-26460D02*
X104360Y-26460D01*
X103311Y-25411D02*
X103311Y-24500D01*
X104360Y-26460D02*
X103311Y-25411D01*
G54D58*
X104420Y-27710D02*
X104420Y-26460D01*
X104420Y-25210D02*
X104420Y-25320D01*
X107080Y-25720D02*
X105230Y-25720D01*
X107473Y-25326D02*
X107080Y-25720D01*
X107473Y-25326D02*
X107762Y-25326D01*
X104820Y-25720D02*
X105230Y-25720D01*
X104420Y-25320D02*
X104820Y-25720D01*
G54D59*
X104420Y-25210D02*
X104420Y-25680D01*
X104420Y-25680D02*
X104300Y-25800D01*
G54D58*
X104420Y-23960D02*
X104420Y-25210D01*
X103240Y-31360D02*
X103240Y-30060D01*
X104800Y-29380D02*
X105060Y-29380D01*
X106360Y-28080D02*
X105060Y-29380D01*
X103920Y-29380D02*
X104800Y-29380D01*
X103240Y-30060D02*
X103920Y-29380D01*
X103240Y-31360D02*
X103240Y-30940D01*
X103240Y-30940D02*
X103250Y-30930D01*
X103250Y-31000D02*
X103250Y-30930D01*
G54D59*
X111100Y-26075D02*
X111100Y-25825D01*
X110425Y-25150D02*
X110000Y-25150D01*
X111100Y-25825D02*
X110425Y-25150D01*
G54D58*
X109834Y-30385D02*
X109834Y-30145D01*
X109834Y-30145D02*
X110140Y-29840D01*
X109834Y-30385D02*
X109834Y-29114D01*
X109400Y-28680D02*
X109400Y-27650D01*
X109834Y-29114D02*
X109400Y-28680D01*
X109400Y-27650D02*
X108510Y-27650D01*
X107021Y-26901D02*
X106777Y-26901D01*
X107420Y-27300D02*
X107021Y-26901D01*
X108160Y-27300D02*
X107420Y-27300D01*
X108510Y-27650D02*
X108160Y-27300D01*
X110440Y-39080D02*
X110440Y-38640D01*
X109680Y-37880D02*
X109680Y-37204D01*
X110440Y-38640D02*
X109680Y-37880D01*
X108440Y-39080D02*
X108440Y-38240D01*
X109842Y-35468D02*
X109822Y-35448D01*
X109822Y-35448D02*
X109822Y-33905D01*
X109822Y-33905D02*
X109263Y-33346D01*
X109263Y-33346D02*
X108656Y-33346D01*
X107905Y-37705D02*
X107905Y-36385D01*
X108440Y-38240D02*
X107905Y-37705D01*
X97122Y-24775D02*
X97122Y-24297D01*
X95000Y-23400D02*
X95000Y-23250D01*
X95300Y-23700D02*
X95000Y-23400D01*
X95650Y-23700D02*
X95300Y-23700D01*
X96196Y-23153D02*
X95650Y-23700D01*
X96828Y-23153D02*
X96196Y-23153D01*
X96900Y-23225D02*
X96828Y-23153D01*
X96900Y-24075D02*
X96900Y-23225D01*
X97122Y-24297D02*
X96900Y-24075D01*
X95150Y-34460D02*
X93640Y-34460D01*
X94980Y-24600D02*
X94460Y-24080D01*
X94460Y-24080D02*
X92600Y-24080D01*
X92600Y-24080D02*
X92240Y-24440D01*
X92240Y-24440D02*
X92240Y-26780D01*
X92240Y-26780D02*
X92820Y-27360D01*
X92820Y-27360D02*
X92820Y-29120D01*
X92820Y-29120D02*
X92420Y-29520D01*
X92420Y-29520D02*
X92420Y-33240D01*
X93640Y-34460D02*
X93500Y-34320D01*
X96866Y-29525D02*
X96866Y-28573D01*
X96866Y-24506D02*
X96866Y-24775D01*
X96760Y-24400D02*
X96866Y-24506D01*
X97560Y-28220D02*
X97760Y-28420D01*
X97220Y-28220D02*
X97560Y-28220D01*
X96866Y-28573D02*
X97220Y-28220D01*
G54D59*
X97744Y-24775D02*
X97985Y-24535D01*
G54D58*
X94507Y-23250D02*
X94507Y-23067D01*
X98324Y-22750D02*
X98606Y-23031D01*
X94825Y-22750D02*
X98324Y-22750D01*
X94507Y-23067D02*
X94825Y-22750D01*
G54D59*
X99100Y-24000D02*
X98606Y-24000D01*
X97974Y-25883D02*
X99397Y-25883D01*
X99521Y-24000D02*
X99100Y-24000D01*
X99655Y-24133D02*
X99521Y-24000D01*
X99655Y-25049D02*
X99655Y-24133D01*
X99397Y-25883D02*
X99537Y-26023D01*
X98606Y-23031D02*
X98606Y-24000D01*
X98606Y-24000D02*
X98520Y-24000D01*
X97985Y-24535D02*
X98520Y-24000D01*
G54D58*
X97633Y-24775D02*
X97744Y-24775D01*
G54D59*
X98900Y-30900D02*
X98260Y-30900D01*
G54D58*
X97993Y-30633D02*
X97974Y-30633D01*
X98260Y-30900D02*
X97993Y-30633D01*
G54D59*
X98050Y-27700D02*
X98050Y-27590D01*
X98050Y-27590D02*
X98575Y-27065D01*
X98575Y-27065D02*
X98575Y-26175D01*
X98575Y-26175D02*
X98283Y-25883D01*
X98050Y-27700D02*
X98125Y-27700D01*
X98125Y-27700D02*
X98680Y-27145D01*
X98680Y-27145D02*
X98680Y-26960D01*
X98900Y-30900D02*
X98900Y-28550D01*
X98900Y-28550D02*
X98050Y-27700D01*
G54D58*
X98050Y-27590D02*
X98680Y-26960D01*
G54D59*
X98343Y-25883D02*
X98283Y-25883D01*
X98283Y-25883D02*
X97974Y-25883D01*
X98680Y-26960D02*
X98680Y-26220D01*
X98680Y-26220D02*
X98343Y-25883D01*
G54D61*
X97393Y-27700D02*
X98050Y-27700D01*
G54D58*
X114340Y-30493D02*
X112806Y-30493D01*
X109361Y-30700D02*
X109046Y-30385D01*
X112600Y-30700D02*
X109361Y-30700D01*
X112806Y-30493D02*
X112600Y-30700D01*
X109046Y-30385D02*
X109046Y-28086D01*
X109400Y-25340D02*
X109400Y-25150D01*
X108920Y-25820D02*
X109400Y-25340D01*
X108920Y-26380D02*
X108920Y-25820D01*
X109046Y-28086D02*
X108940Y-27980D01*
X106777Y-24538D02*
X106778Y-24538D01*
X109190Y-24940D02*
X109400Y-25150D01*
X107180Y-24940D02*
X109190Y-24940D01*
X106778Y-24538D02*
X107180Y-24940D01*
X105055Y-24915D02*
X105055Y-25175D01*
X105055Y-25175D02*
X105020Y-25210D01*
X106777Y-23751D02*
X106218Y-23751D01*
X106218Y-23751D02*
X105055Y-24915D01*
X105055Y-24915D02*
X105040Y-24930D01*
X111409Y-30385D02*
X112414Y-30385D01*
X113093Y-29706D02*
X114340Y-29706D01*
X112414Y-30385D02*
X113093Y-29706D01*
X111409Y-30385D02*
X111409Y-29849D01*
X109400Y-26700D02*
X109400Y-26400D01*
X109700Y-27000D02*
X109400Y-26700D01*
X109700Y-28140D02*
X109700Y-27000D01*
X111409Y-29849D02*
X109700Y-28140D01*
X107762Y-26901D02*
X108898Y-26901D01*
X108898Y-26901D02*
X109400Y-26400D01*
G54D60*
X108225Y-46350D02*
X108225Y-45250D01*
X108225Y-45250D02*
X107362Y-44387D01*
X109047Y-43150D02*
X108600Y-43150D01*
X108600Y-43150D02*
X108250Y-43500D01*
X108225Y-46350D02*
X108225Y-44322D01*
X108500Y-44047D02*
X109047Y-43500D01*
X108225Y-44322D02*
X108500Y-44047D01*
X109050Y-43502D02*
X109047Y-43500D01*
G54D57*
X109050Y-43502D02*
X109047Y-43500D01*
G54D60*
X109047Y-43500D02*
X108250Y-43500D01*
X108250Y-43500D02*
X107362Y-44387D01*
X107362Y-44387D02*
X106840Y-44909D01*
X106840Y-44909D02*
X105911Y-44909D01*
X103411Y-44909D02*
X102147Y-44909D01*
X102147Y-44909D02*
X101547Y-45509D01*
X104661Y-44909D02*
X103411Y-44909D01*
X105911Y-44909D02*
X104661Y-44909D01*
G54D62*
X102147Y-44909D02*
X101547Y-45509D01*
G54D60*
X98641Y-44763D02*
X99636Y-44763D01*
X99650Y-44750D02*
X99650Y-44763D01*
X99636Y-44763D02*
X99650Y-44750D01*
G54D61*
X99650Y-44763D02*
X100082Y-44763D01*
X100150Y-43635D02*
X100775Y-43009D01*
X100150Y-44696D02*
X100150Y-43635D01*
X100082Y-44763D02*
X100150Y-44696D01*
G54D58*
X102361Y-40759D02*
X102295Y-40759D01*
X102062Y-39836D02*
X102062Y-39448D01*
X101929Y-39970D02*
X102062Y-39836D01*
X101929Y-40393D02*
X101929Y-39970D01*
X102295Y-40759D02*
X101929Y-40393D01*
G54D57*
X100088Y-45259D02*
X100088Y-44757D01*
G54D59*
X100775Y-41675D02*
X100775Y-43009D01*
X100420Y-41320D02*
X100775Y-41675D01*
G54D58*
X102361Y-40759D02*
X102025Y-40759D01*
X102025Y-40759D02*
X101875Y-40910D01*
G54D60*
X98803Y-44757D02*
X98801Y-44759D01*
G54D62*
X98803Y-44757D02*
X98801Y-44759D01*
G54D58*
X98803Y-44757D02*
X98801Y-44759D01*
X100088Y-46261D02*
X99755Y-46261D01*
X102259Y-40143D02*
X102259Y-39448D01*
X102283Y-40167D02*
X102259Y-40143D01*
X100187Y-41013D02*
X100187Y-40935D01*
X99517Y-41683D02*
X100187Y-41013D01*
X99517Y-44055D02*
X99517Y-41683D01*
X99517Y-46023D02*
X99517Y-45462D01*
X99755Y-46261D02*
X99517Y-46023D01*
X99027Y-34669D02*
X99027Y-35572D01*
X99027Y-35572D02*
X99031Y-35568D01*
G54D59*
X102802Y-36763D02*
X102330Y-37235D01*
X102330Y-37235D02*
X102330Y-37500D01*
G54D58*
X92098Y-46350D02*
X92767Y-45681D01*
X91950Y-46350D02*
X92098Y-46350D01*
X99031Y-37511D02*
X99031Y-35568D01*
X97881Y-38661D02*
X99031Y-37511D01*
X97614Y-41007D02*
X98881Y-39740D01*
X97614Y-44940D02*
X97614Y-41007D01*
X96354Y-46200D02*
X97614Y-44940D01*
X94118Y-46200D02*
X96354Y-46200D01*
X93598Y-45681D02*
X94118Y-46200D01*
X92767Y-45681D02*
X93598Y-45681D01*
X99031Y-35568D02*
X99031Y-35551D01*
X99847Y-32645D02*
X100211Y-33009D01*
X99338Y-32645D02*
X99847Y-32645D01*
X99027Y-32956D02*
X99338Y-32645D01*
X99027Y-34669D02*
X99027Y-32956D01*
X99019Y-34677D02*
X99027Y-34669D01*
X102259Y-38070D02*
X102259Y-37570D01*
X102330Y-37500D02*
X102330Y-37235D01*
X102259Y-37570D02*
X102330Y-37500D01*
X102802Y-36763D02*
X102802Y-36189D01*
X103346Y-34274D02*
X103611Y-34009D01*
X103346Y-35645D02*
X103346Y-34274D01*
X102802Y-36189D02*
X103346Y-35645D01*
X100211Y-33009D02*
X100240Y-33009D01*
X103101Y-32500D02*
X103611Y-33009D01*
X100750Y-32500D02*
X103101Y-32500D01*
X100240Y-33009D02*
X100750Y-32500D01*
X103611Y-34009D02*
X103611Y-33009D01*
X101866Y-39448D02*
X101801Y-39448D01*
X101151Y-41175D02*
X102234Y-42257D01*
X101151Y-40098D02*
X101151Y-41175D01*
X101801Y-39448D02*
X101151Y-40098D01*
X105020Y-26460D02*
X105800Y-26460D01*
X106146Y-26113D02*
X106777Y-26113D01*
X105800Y-26460D02*
X106146Y-26113D01*
X105086Y-26393D02*
X105020Y-26460D01*
G54D59*
X108300Y-40200D02*
X109500Y-40200D01*
X110470Y-40475D02*
X110645Y-40650D01*
X109775Y-40475D02*
X110470Y-40475D01*
X109500Y-40200D02*
X109775Y-40475D01*
X110645Y-40650D02*
X109800Y-40650D01*
X109500Y-40950D02*
X108300Y-40950D01*
X109800Y-40650D02*
X109500Y-40950D01*
X110445Y-40450D02*
X110645Y-40650D01*
X105911Y-43609D02*
X105911Y-42611D01*
X104911Y-41611D02*
X104911Y-39309D01*
X105911Y-42611D02*
X104911Y-41611D01*
G54D58*
X104911Y-39309D02*
X104892Y-39309D01*
X104892Y-39309D02*
X104637Y-39055D01*
X104637Y-39055D02*
X102854Y-39055D01*
X94650Y-33960D02*
X94650Y-33190D01*
X94650Y-33190D02*
X95340Y-32500D01*
G54D59*
X89762Y-46112D02*
X89762Y-43031D01*
X89762Y-43031D02*
X89768Y-43025D01*
X89748Y-46098D02*
X89762Y-46112D01*
X89762Y-46112D02*
X90050Y-46400D01*
X90050Y-46400D02*
X91000Y-46400D01*
X91000Y-46400D02*
X91800Y-45600D01*
X94200Y-40700D02*
X94200Y-40600D01*
X94200Y-40600D02*
X93900Y-40300D01*
X97100Y-36500D02*
X97500Y-36900D01*
X97500Y-38200D02*
X97500Y-36900D01*
X96900Y-38800D02*
X97500Y-38200D01*
X93900Y-38800D02*
X96900Y-38800D01*
X92000Y-44700D02*
X93900Y-42800D01*
X94200Y-42500D02*
X93900Y-42800D01*
X94200Y-40700D02*
X94200Y-42500D01*
G54D60*
X97100Y-36500D02*
X97100Y-36200D01*
X97650Y-35650D02*
X97650Y-34600D01*
X97100Y-36200D02*
X97650Y-35650D01*
G54D59*
X107750Y-29900D02*
X107900Y-29900D01*
X107900Y-31550D02*
X107500Y-31550D01*
X108150Y-31300D02*
X107900Y-31550D01*
X108150Y-30150D02*
X108150Y-31300D01*
X107900Y-29900D02*
X108150Y-30150D01*
X96600Y-23400D02*
X96062Y-23937D01*
X96062Y-24251D02*
X96055Y-24244D01*
X96062Y-23937D02*
X96062Y-24251D01*
G54D58*
X96525Y-25116D02*
X96525Y-24753D01*
G54D59*
X96377Y-24566D02*
X96055Y-24244D01*
X96377Y-24606D02*
X96377Y-24566D01*
G54D58*
X96525Y-24753D02*
X96377Y-24606D01*
X96525Y-29866D02*
X96525Y-29745D01*
G54D59*
X96520Y-29620D02*
X96200Y-29300D01*
X96520Y-29740D02*
X96520Y-29620D01*
G54D58*
X96525Y-29745D02*
X96520Y-29740D01*
X95500Y-28600D02*
X95490Y-28600D01*
X95490Y-28600D02*
X95085Y-29005D01*
G54D57*
X106750Y-31375D02*
X106925Y-31550D01*
X106925Y-31550D02*
X107500Y-31550D01*
X106750Y-31375D02*
X106425Y-31700D01*
X106425Y-31700D02*
X106200Y-31700D01*
X106200Y-31700D02*
X105900Y-32000D01*
X105900Y-32000D02*
X105200Y-32000D01*
G54D61*
X96450Y-31750D02*
X95650Y-31750D01*
X95750Y-29300D02*
X96200Y-29300D01*
X95175Y-29875D02*
X95750Y-29300D01*
X95175Y-31275D02*
X95175Y-29875D01*
X95650Y-31750D02*
X95175Y-31275D01*
G54D62*
X96200Y-32500D02*
X95340Y-32500D01*
X95340Y-32500D02*
X95275Y-32500D01*
X94500Y-29600D02*
X94563Y-29536D01*
X94563Y-29536D02*
X95500Y-28600D01*
X94500Y-31725D02*
X94500Y-29600D01*
X95275Y-32500D02*
X94500Y-31725D01*
G54D61*
X96150Y-27750D02*
X96150Y-27400D01*
X96050Y-26450D02*
X95400Y-25800D01*
X96050Y-27300D02*
X96050Y-26450D01*
X96150Y-27400D02*
X96050Y-27300D01*
X96150Y-27750D02*
X96150Y-28200D01*
X96150Y-28200D02*
X96275Y-28325D01*
X96275Y-28325D02*
X96275Y-29225D01*
X96275Y-29225D02*
X96200Y-29300D01*
G54D62*
X96200Y-32500D02*
X96900Y-32500D01*
X96900Y-32500D02*
X97650Y-33250D01*
X97650Y-33250D02*
X97650Y-33400D01*
G54D60*
X97650Y-34600D02*
X97650Y-33400D01*
G54D61*
X97650Y-33400D02*
X97650Y-33250D01*
X97650Y-33250D02*
X96900Y-32500D01*
X96800Y-27700D02*
X96803Y-27700D01*
X96900Y-32500D02*
X96200Y-32500D01*
G54D59*
X106200Y-31700D02*
X106425Y-31700D01*
X105900Y-32000D02*
X106200Y-31700D01*
X105200Y-32000D02*
X105900Y-32000D01*
X105100Y-32100D02*
X105200Y-32000D01*
G54D61*
X100500Y-32100D02*
X105100Y-32100D01*
X100300Y-32300D02*
X100500Y-32100D01*
X98600Y-32300D02*
X100300Y-32300D01*
X97650Y-33250D02*
X98600Y-32300D01*
X96150Y-27750D02*
X96753Y-27750D01*
X96753Y-27750D02*
X96803Y-27700D01*
G54D59*
X96150Y-26300D02*
X95900Y-26300D01*
X95900Y-26300D02*
X95400Y-25800D01*
X95400Y-24900D02*
X96055Y-24244D01*
X95400Y-25800D02*
X95400Y-24900D01*
X96450Y-31750D02*
X96450Y-30709D01*
X96450Y-30709D02*
X96525Y-30633D01*
X96150Y-27750D02*
X96150Y-26300D01*
X96150Y-26300D02*
X96150Y-26259D01*
X96150Y-26259D02*
X96525Y-25883D01*
G54D58*
X107500Y-31550D02*
X106925Y-31550D01*
G54D61*
X87750Y-28250D02*
X87750Y-29400D01*
X87750Y-29400D02*
X87700Y-29700D01*
X86000Y-27000D02*
X86000Y-27931D01*
X86000Y-27931D02*
X86318Y-28250D01*
X87750Y-28250D02*
X86318Y-28250D01*
X86318Y-28250D02*
X85750Y-28818D01*
X89570Y-30750D02*
X89570Y-30070D01*
X89570Y-30070D02*
X87750Y-28250D01*
X85750Y-29606D02*
X86281Y-29606D01*
X87400Y-30725D02*
X87700Y-30700D01*
X86281Y-29606D02*
X87400Y-30725D01*
X86061Y-25000D02*
X86000Y-25000D01*
X85606Y-29606D02*
X85750Y-29606D01*
X85000Y-29000D02*
X85606Y-29606D01*
X85000Y-26000D02*
X85000Y-29000D01*
X86000Y-25000D02*
X85000Y-26000D01*
X86061Y-25000D02*
X87000Y-25000D01*
X87000Y-25000D02*
X87750Y-24250D01*
X83100Y-29650D02*
X85706Y-29650D01*
X85706Y-29650D02*
X85750Y-29606D01*
X89570Y-25500D02*
X89000Y-25500D01*
X89000Y-25500D02*
X87750Y-24250D01*
G54D60*
X89570Y-25500D02*
X88750Y-25500D01*
G54D59*
X100200Y-38700D02*
X100800Y-38700D01*
G54D58*
X101472Y-38661D02*
X100800Y-38661D01*
G54D60*
X94822Y-44763D02*
X94822Y-41543D01*
X94822Y-41543D02*
X94911Y-41454D01*
G54D58*
X99500Y-38700D02*
X100200Y-38700D01*
X94911Y-41454D02*
X94911Y-40688D01*
X94911Y-40688D02*
X95000Y-40600D01*
X95000Y-40600D02*
X97500Y-40600D01*
X97500Y-40600D02*
X99400Y-38700D01*
X99400Y-38700D02*
X99500Y-38700D01*
G54D60*
X94911Y-44688D02*
X94982Y-44759D01*
G54D62*
X94911Y-44688D02*
X94982Y-44759D01*
G54D58*
X105100Y-30000D02*
X106650Y-30000D01*
X106650Y-30000D02*
X106750Y-29900D01*
G54D59*
X106750Y-30625D02*
X106750Y-29900D01*
G54D58*
X109440Y-39080D02*
X109440Y-38440D01*
X108656Y-37656D02*
X108656Y-36811D01*
X109440Y-38440D02*
X108656Y-37656D01*
G54D59*
X107300Y-35200D02*
X107025Y-35200D01*
X106750Y-34663D02*
X106750Y-33650D01*
X106750Y-34925D02*
X106750Y-34663D01*
X107025Y-35200D02*
X106750Y-34925D01*
X107437Y-35209D02*
X107737Y-35209D01*
G54D58*
X108078Y-35551D02*
X108656Y-35551D01*
X107737Y-35209D02*
X108078Y-35551D01*
G54D59*
X107437Y-35209D02*
X107296Y-35209D01*
G54D57*
X105688Y-33648D02*
X106748Y-33648D01*
X106748Y-33648D02*
X106750Y-33650D01*
X105750Y-31375D02*
X105665Y-31375D01*
X106630Y-33650D02*
X106750Y-33650D01*
X105500Y-32520D02*
X106630Y-33650D01*
X105665Y-31375D02*
X105480Y-31560D01*
G54D59*
X105750Y-31375D02*
X105125Y-31375D01*
X104950Y-31550D02*
X104500Y-31550D01*
X105125Y-31375D02*
X104950Y-31550D01*
G54D58*
X108656Y-35866D02*
X108656Y-35551D01*
X108656Y-36181D02*
X108656Y-35866D01*
X108656Y-36496D02*
X108656Y-36181D01*
X108656Y-36811D02*
X108656Y-36496D01*
G54D10*
G36*
X105150Y-44000D02*
X101930Y-44009D01*
X101930Y-42626D01*
X101934Y-42627D01*
X102033Y-42627D01*
X102533Y-42627D01*
X102625Y-42590D01*
X102675Y-42540D01*
X102934Y-42540D01*
X103334Y-42940D01*
X105150Y-42940D01*
X105150Y-44000D01*
X105150Y-44000D01*
G37*
G54D58*
X105150Y-44000D02*
X101930Y-44009D01*
X101930Y-42626D01*
X101934Y-42627D01*
X102033Y-42627D01*
X102533Y-42627D01*
X102625Y-42590D01*
X102675Y-42540D01*
X102934Y-42540D01*
X103334Y-42940D01*
X105150Y-42940D01*
X105150Y-44000D01*
G54D10*
G36*
X102650Y-45579D02*
X102450Y-45779D01*
X102450Y-46650D01*
X100750Y-46650D01*
X100750Y-44620D01*
X101020Y-44350D01*
X102650Y-44350D01*
X102650Y-45579D01*
X102650Y-45579D01*
G37*
G54D58*
X102650Y-45579D02*
X102450Y-45779D01*
X102450Y-46650D01*
X100750Y-46650D01*
X100750Y-44620D01*
X101020Y-44350D01*
X102650Y-44350D01*
X102650Y-45579D01*
G54D10*
G36*
X115129Y-43299D02*
X114464Y-43964D01*
X113850Y-44579D01*
X113850Y-45179D01*
X113079Y-45950D01*
X112825Y-45950D01*
X112500Y-45950D01*
X111795Y-45950D01*
X111675Y-45829D01*
X111675Y-45153D01*
X111675Y-45153D01*
X111721Y-45083D01*
X111722Y-45078D01*
X111760Y-45041D01*
X111781Y-44989D01*
X112535Y-44235D01*
X113050Y-43720D01*
X113050Y-41479D01*
X112900Y-41329D01*
X112900Y-41200D01*
X113329Y-41200D01*
X113600Y-41470D01*
X113600Y-42495D01*
X113914Y-42810D01*
X114004Y-42900D01*
X114904Y-42900D01*
X115100Y-43095D01*
X115100Y-43270D01*
X115129Y-43299D01*
X115129Y-43299D01*
G37*
G54D58*
X115129Y-43299D02*
X114464Y-43964D01*
X113850Y-44579D01*
X113850Y-45179D01*
X113079Y-45950D01*
X112825Y-45950D01*
X112500Y-45950D01*
X111795Y-45950D01*
X111675Y-45829D01*
X111675Y-45153D01*
X111675Y-45153D01*
X111721Y-45083D01*
X111722Y-45078D01*
X111760Y-45041D01*
X111781Y-44989D01*
X112535Y-44235D01*
X113050Y-43720D01*
X113050Y-41479D01*
X112900Y-41329D01*
X112900Y-41200D01*
X113329Y-41200D01*
X113600Y-41470D01*
X113600Y-42495D01*
X113914Y-42810D01*
X114004Y-42900D01*
X114904Y-42900D01*
X115100Y-43095D01*
X115100Y-43270D01*
X115129Y-43299D01*
G54D10*
G36*
X100959Y-43930D02*
X100609Y-44279D01*
X100527Y-44313D01*
X100457Y-44383D01*
X100423Y-44465D01*
X100290Y-44599D01*
X100290Y-45719D01*
X100340Y-45770D01*
X99890Y-45770D01*
X99890Y-45674D01*
X99942Y-45547D01*
X99942Y-45378D01*
X99890Y-45250D01*
X99890Y-44266D01*
X99942Y-44140D01*
X99942Y-43970D01*
X99925Y-43930D01*
X100959Y-43930D01*
X100959Y-43930D01*
G37*
G54D58*
X100959Y-43930D02*
X100609Y-44279D01*
X100527Y-44313D01*
X100457Y-44383D01*
X100423Y-44465D01*
X100290Y-44599D01*
X100290Y-45719D01*
X100340Y-45770D01*
X99890Y-45770D01*
X99890Y-45674D01*
X99942Y-45547D01*
X99942Y-45378D01*
X99890Y-45250D01*
X99890Y-44266D01*
X99942Y-44140D01*
X99942Y-43970D01*
X99925Y-43930D01*
X100959Y-43930D01*
M02*
