G04 (created by PCBNEW (2013-05-31 BZR 4019)-stable) date 6/10/2014 4:10:54 PM*
%MOIN*%
G04 Gerber Fmt 3.4, Leading zero omitted, Abs format*
%FSLAX34Y34*%
G01*
G70*
G90*
G04 APERTURE LIST*
%ADD10C,0.00590551*%
%ADD11C,0.0001*%
%ADD12R,0.055X0.055*%
%ADD13C,0.055*%
%ADD14R,0.1X0.1*%
%ADD15R,0.085X0.085*%
%ADD16C,0.09*%
%ADD17R,0.0362205X0.0362205*%
%ADD18R,0.065X0.065*%
%ADD19R,0.08X0.08*%
%ADD20C,0.08*%
%ADD21C,0.065*%
%ADD22C,0.06*%
%ADD23C,0.0708661*%
%ADD24R,0.0334646X0.0334646*%
%ADD25C,0.0591*%
%ADD26R,0.137795X0.0787402*%
%ADD27R,0.141732X0.0787402*%
%ADD28O,0.0590551X0.0393701*%
%ADD29O,0.0393701X0.0590551*%
%ADD30C,0.0787*%
%ADD31C,0.0511811*%
%ADD32C,0.085*%
%ADD33C,0.075*%
%ADD34C,0.0551181*%
%ADD35C,0.035*%
%ADD36C,0.019685*%
%ADD37C,0.01*%
%ADD38C,0.0393701*%
%ADD39C,0.0295276*%
%ADD40C,0.0590551*%
G04 APERTURE END LIST*
G54D10*
G54D11*
X82000Y-47850D02*
X82000Y-22250D01*
X116250Y-47850D02*
X116250Y-47500D01*
X82000Y-47850D02*
X116250Y-47850D01*
X116250Y-22250D02*
X116250Y-47500D01*
X83250Y-22250D02*
X116250Y-22250D01*
X82000Y-22250D02*
X83250Y-22250D01*
G54D12*
X115440Y-39080D03*
G54D13*
X114440Y-39080D03*
X113440Y-39080D03*
X112440Y-39080D03*
X111440Y-39080D03*
X110440Y-39080D03*
X109440Y-39080D03*
X108440Y-39080D03*
X107412Y-39080D03*
G54D14*
X101780Y-32180D03*
X101780Y-31180D03*
G54D15*
X83275Y-43000D03*
G54D16*
X83275Y-44000D03*
X83275Y-45000D03*
G54D17*
X97501Y-25751D03*
X96998Y-25751D03*
X96998Y-25248D03*
X97501Y-25248D03*
G54D18*
X106750Y-29900D03*
G54D13*
X107750Y-29900D03*
G54D12*
X87700Y-29700D03*
G54D13*
X87700Y-30700D03*
G54D19*
X115475Y-27720D03*
G54D20*
X115475Y-26720D03*
X115475Y-25720D03*
G54D18*
X100606Y-23031D03*
G54D21*
X99606Y-23031D03*
X98606Y-23031D03*
G54D18*
X84900Y-43048D03*
G54D21*
X84900Y-44032D03*
X84900Y-45017D03*
G54D22*
X107050Y-46400D03*
X107050Y-42400D03*
G54D17*
X97501Y-30501D03*
X96998Y-30501D03*
X97501Y-29998D03*
X96998Y-29998D03*
G54D23*
X114952Y-43150D03*
X109047Y-43150D03*
G54D24*
X102413Y-39011D03*
X101909Y-39011D03*
X102413Y-38507D03*
X101909Y-38507D03*
G54D25*
X113100Y-28600D03*
X111100Y-28600D03*
X113100Y-23500D03*
X111100Y-23500D03*
G54D26*
X102593Y-38300D03*
G54D27*
X102200Y-39087D03*
G54D28*
X85750Y-29606D03*
X85750Y-30393D03*
X85750Y-31181D03*
X85750Y-28818D03*
G54D21*
X112800Y-45700D03*
G54D18*
X112800Y-46700D03*
X90000Y-40300D03*
G54D21*
X90000Y-39300D03*
G54D29*
X88981Y-43025D03*
X89768Y-43025D03*
X90556Y-43025D03*
X88193Y-43025D03*
G54D21*
X95100Y-36500D03*
G54D18*
X96100Y-36500D03*
G54D21*
X97100Y-36500D03*
G54D22*
X93150Y-42350D03*
X93150Y-46350D03*
X106000Y-40250D03*
X106000Y-36250D03*
X91950Y-46350D03*
X91950Y-42350D03*
G54D28*
X114425Y-26713D03*
X114425Y-25926D03*
X114425Y-27501D03*
G54D30*
X87750Y-36250D03*
X87750Y-32250D03*
X87750Y-28250D03*
X87750Y-24250D03*
G54D31*
X106777Y-23751D03*
X106777Y-24538D03*
X106777Y-25326D03*
X106777Y-26113D03*
X106777Y-26901D03*
X106777Y-27688D03*
X107762Y-27688D03*
X107762Y-26901D03*
X107762Y-26113D03*
X107762Y-25326D03*
X107762Y-24538D03*
X107762Y-23751D03*
G54D30*
X100500Y-26750D03*
X103311Y-26750D03*
X100500Y-24500D03*
X103311Y-24500D03*
X103240Y-31360D03*
X100428Y-31360D03*
X103250Y-29000D03*
X100438Y-29000D03*
X86100Y-35500D03*
X83288Y-35500D03*
X83250Y-33325D03*
X86061Y-33325D03*
X83200Y-25000D03*
X86011Y-25000D03*
X86000Y-27000D03*
X83188Y-27000D03*
G54D25*
X113100Y-26075D03*
X111100Y-26075D03*
G54D15*
X83100Y-28650D03*
G54D32*
X83100Y-29650D03*
X83100Y-30650D03*
X83100Y-31650D03*
G54D33*
X111850Y-45700D03*
G54D19*
X111850Y-46700D03*
G54D28*
X114340Y-30493D03*
X114340Y-29706D03*
X114340Y-28918D03*
X114340Y-31281D03*
G54D34*
X95150Y-34460D03*
X94650Y-33960D03*
X95150Y-33460D03*
G54D35*
X96660Y-35120D03*
X96020Y-35120D03*
X95700Y-33900D03*
X110950Y-44700D03*
X110450Y-44800D03*
X111400Y-44800D03*
X110200Y-45150D03*
X107275Y-39850D03*
X107300Y-40300D03*
X107275Y-40725D03*
X107275Y-41250D03*
X100600Y-33500D03*
X100800Y-33900D03*
X97100Y-38000D03*
X97100Y-37400D03*
X95900Y-38400D03*
X95900Y-37500D03*
X100900Y-39080D03*
X107700Y-33550D03*
X107700Y-34000D03*
X97598Y-24271D03*
X97425Y-23950D03*
X97795Y-23877D03*
X97450Y-29100D03*
X97400Y-32100D03*
X96950Y-31450D03*
X107250Y-30450D03*
X107700Y-30450D03*
X106120Y-32360D03*
X106260Y-31240D03*
X106260Y-30640D03*
X94635Y-28565D03*
X94125Y-28060D03*
X99400Y-39560D03*
X99420Y-39120D03*
X102760Y-42760D03*
X102738Y-43761D03*
X102760Y-43280D03*
X103200Y-43020D03*
X103800Y-43020D03*
X104400Y-43020D03*
X104980Y-43020D03*
X92560Y-41820D03*
X91280Y-41860D03*
X93240Y-40580D03*
X92680Y-40580D03*
X91700Y-40580D03*
X91140Y-40580D03*
X95180Y-27020D03*
X94720Y-27000D03*
X115200Y-32020D03*
X114620Y-32020D03*
X112480Y-31920D03*
X111960Y-31920D03*
X108120Y-32560D03*
X108600Y-32060D03*
X107500Y-32120D03*
X107520Y-32620D03*
X95700Y-33500D03*
X95700Y-33100D03*
X96880Y-26900D03*
X104220Y-30500D03*
X104720Y-30500D03*
X114150Y-32000D03*
X96535Y-45452D03*
X97527Y-46267D03*
X99559Y-41157D03*
X102956Y-41397D03*
X104350Y-39425D03*
X104362Y-38748D03*
X97975Y-23100D03*
X99400Y-26800D03*
X103913Y-37094D03*
X103913Y-36547D03*
X105307Y-38381D03*
X97942Y-31397D03*
X98356Y-31269D03*
X101100Y-37900D03*
X100600Y-37700D03*
X99960Y-27480D03*
X99960Y-27920D03*
X102800Y-35440D03*
X97700Y-26600D03*
X99000Y-25050D03*
X98550Y-25050D03*
X98525Y-29450D03*
X98000Y-29450D03*
X98100Y-26300D03*
X105350Y-38875D03*
X102800Y-35000D03*
X104300Y-35600D03*
X99500Y-31100D03*
X99291Y-28740D03*
X98503Y-28740D03*
X109437Y-35901D03*
X107905Y-35897D03*
X111600Y-29300D03*
X110920Y-29880D03*
X99625Y-29875D03*
X98525Y-29925D03*
X100100Y-29900D03*
X98500Y-30400D03*
X105019Y-34318D03*
X102870Y-34299D03*
X94900Y-25600D03*
X95800Y-25500D03*
X94500Y-32650D03*
X95900Y-30100D03*
X94050Y-32300D03*
X95650Y-30800D03*
X97380Y-27180D03*
X97380Y-28660D03*
X96000Y-40000D03*
X93800Y-40800D03*
X100600Y-36980D03*
X101500Y-36100D03*
X90535Y-45854D03*
X103874Y-38303D03*
X105267Y-39763D03*
X109550Y-47150D03*
X94250Y-25500D03*
X95925Y-25025D03*
X104300Y-25800D03*
X106360Y-28080D03*
X110140Y-29840D03*
X107905Y-36385D03*
X109842Y-35468D03*
X94980Y-24600D03*
X92420Y-33240D03*
X93500Y-34320D03*
X96760Y-24400D03*
X97760Y-28420D03*
X99655Y-25049D03*
X99537Y-26023D03*
X108920Y-26380D03*
X108940Y-27980D03*
X100420Y-41320D03*
X101875Y-40910D03*
X102283Y-40167D03*
X100187Y-40935D03*
X99517Y-44055D03*
X99517Y-45462D03*
X97881Y-38661D03*
X98881Y-39740D03*
X91800Y-45600D03*
X93900Y-38800D03*
X93900Y-40300D03*
X92000Y-44700D03*
X95085Y-29005D03*
X95500Y-28600D03*
X96800Y-27700D03*
X105500Y-32520D03*
X105480Y-31560D03*
G54D36*
X111850Y-46700D02*
X111100Y-45950D01*
G54D37*
X96020Y-35120D02*
X96660Y-35120D01*
G54D36*
X112800Y-46700D02*
X112800Y-46575D01*
X112800Y-46575D02*
X113425Y-45950D01*
X110950Y-44800D02*
X110450Y-44800D01*
X110950Y-44800D02*
X111400Y-44800D01*
X107275Y-40275D02*
X107275Y-39850D01*
X107300Y-40300D02*
X107275Y-40275D01*
X107275Y-41250D02*
X107275Y-40725D01*
G54D37*
X100600Y-33700D02*
X100600Y-33500D01*
X100800Y-33900D02*
X100600Y-33700D01*
X97100Y-37400D02*
X97100Y-38000D01*
X95900Y-37500D02*
X95900Y-38400D01*
X97598Y-24271D02*
X97598Y-24074D01*
X97598Y-24074D02*
X97795Y-23877D01*
G54D36*
X97775Y-23897D02*
X97425Y-23950D01*
X97795Y-23877D02*
X97775Y-23897D01*
G54D37*
X97400Y-31900D02*
X97400Y-32100D01*
X96950Y-31450D02*
X97400Y-31900D01*
X107700Y-30450D02*
X107250Y-30450D01*
X106260Y-30640D02*
X106260Y-31240D01*
X94630Y-28565D02*
X94635Y-28565D01*
X94125Y-28060D02*
X94630Y-28565D01*
X99400Y-39140D02*
X99400Y-39560D01*
X99420Y-39120D02*
X99400Y-39140D01*
X102760Y-43740D02*
X102760Y-43280D01*
X102760Y-43740D02*
X102738Y-43761D01*
X103800Y-43020D02*
X103200Y-43020D01*
X104980Y-43020D02*
X104400Y-43020D01*
X91340Y-41920D02*
X91340Y-41940D01*
X91280Y-41860D02*
X91340Y-41920D01*
X92680Y-40580D02*
X93240Y-40580D01*
X91140Y-40580D02*
X91700Y-40580D01*
X94740Y-27020D02*
X95180Y-27020D01*
X94720Y-27000D02*
X94740Y-27020D01*
X115200Y-32020D02*
X114620Y-32020D01*
X111960Y-31920D02*
X112480Y-31920D01*
X108120Y-32540D02*
X108120Y-32560D01*
X108600Y-32060D02*
X108120Y-32540D01*
X107500Y-32120D02*
X107520Y-32140D01*
X107520Y-32140D02*
X107520Y-32620D01*
X95700Y-33100D02*
X95700Y-33500D01*
X104720Y-30500D02*
X104220Y-30500D01*
X96712Y-45452D02*
X96535Y-45452D01*
X97527Y-46267D02*
X96712Y-45452D01*
X99559Y-41157D02*
X100043Y-41641D01*
X100043Y-41641D02*
X100692Y-41641D01*
X100692Y-41641D02*
X100937Y-41397D01*
X100937Y-41397D02*
X102956Y-41397D01*
X104350Y-39425D02*
X104362Y-39413D01*
X104362Y-39413D02*
X104362Y-38748D01*
X98375Y-23500D02*
X98375Y-23650D01*
X97975Y-23100D02*
X98375Y-23500D01*
X103913Y-36547D02*
X103913Y-37094D01*
X98228Y-31397D02*
X97942Y-31397D01*
X98356Y-31269D02*
X98228Y-31397D01*
G54D36*
X97501Y-25751D02*
X97501Y-25651D01*
X97222Y-25472D02*
X96998Y-25248D01*
X97322Y-25472D02*
X97222Y-25472D01*
X97501Y-25651D02*
X97322Y-25472D01*
X97501Y-30501D02*
X96998Y-29998D01*
G54D37*
X100900Y-37900D02*
X101100Y-37900D01*
X100600Y-37700D02*
X100900Y-37900D01*
G54D38*
X96998Y-30501D02*
X96998Y-29998D01*
X96998Y-29998D02*
X97501Y-29998D01*
X97501Y-29998D02*
X97501Y-30501D01*
X97501Y-30501D02*
X96998Y-30501D01*
X96998Y-25248D02*
X96998Y-25751D01*
X96998Y-25248D02*
X97501Y-25248D01*
X96998Y-25751D02*
X97501Y-25751D01*
G54D36*
X97501Y-29998D02*
X96998Y-29998D01*
X97501Y-30501D02*
X97501Y-29998D01*
X96998Y-30501D02*
X97501Y-30501D01*
X97501Y-25751D02*
X97501Y-25248D01*
G54D37*
X99960Y-27480D02*
X99960Y-27920D01*
X102800Y-35440D02*
X102800Y-35460D01*
X98000Y-29450D02*
X98525Y-29450D01*
X104300Y-35600D02*
X103400Y-35600D01*
X103400Y-35600D02*
X102800Y-35000D01*
X104300Y-35600D02*
X105350Y-35600D01*
X105350Y-35600D02*
X106000Y-36250D01*
X98503Y-28740D02*
X99291Y-28740D01*
G54D38*
X83100Y-31650D02*
X83500Y-31650D01*
X84218Y-31181D02*
X85750Y-31181D01*
X83968Y-31181D02*
X84218Y-31181D01*
X83500Y-31650D02*
X83968Y-31181D01*
X83425Y-31650D02*
X83100Y-31650D01*
G54D37*
X107909Y-35901D02*
X109437Y-35901D01*
X107905Y-35897D02*
X107909Y-35901D01*
X111500Y-29300D02*
X111600Y-29300D01*
X110920Y-29880D02*
X111500Y-29300D01*
X99550Y-29875D02*
X99625Y-29875D01*
X99400Y-30025D02*
X99550Y-29875D01*
X98625Y-30025D02*
X99400Y-30025D01*
X98525Y-29925D02*
X98625Y-30025D01*
X99700Y-30300D02*
X100100Y-29900D01*
X98600Y-30300D02*
X99700Y-30300D01*
X98500Y-30400D02*
X98600Y-30300D01*
X105019Y-34318D02*
X105000Y-34299D01*
X105000Y-34299D02*
X102870Y-34299D01*
G54D36*
X95000Y-25500D02*
X94900Y-25600D01*
X95800Y-25500D02*
X95000Y-25500D01*
G54D39*
X94500Y-32650D02*
X96100Y-31050D01*
X96100Y-31050D02*
X96100Y-30300D01*
X96100Y-30300D02*
X95900Y-30100D01*
X94150Y-32300D02*
X94050Y-32300D01*
X95650Y-30800D02*
X94150Y-32300D01*
G54D37*
X97380Y-28320D02*
X97380Y-27180D01*
X97380Y-28660D02*
X97380Y-28320D01*
G54D36*
X95500Y-40500D02*
X96000Y-40000D01*
X94700Y-40500D02*
X95500Y-40500D01*
X94500Y-40700D02*
X94700Y-40500D01*
X93900Y-40700D02*
X94500Y-40700D01*
X93800Y-40800D02*
X93900Y-40700D01*
G54D37*
X101500Y-36100D02*
X100620Y-36980D01*
X100620Y-36980D02*
X100600Y-36980D01*
G54D36*
X90535Y-45850D02*
X90535Y-45854D01*
X90535Y-45850D02*
X90535Y-46555D01*
X91125Y-47145D02*
X107600Y-47145D01*
X90535Y-46555D02*
X91125Y-47145D01*
G54D37*
X104433Y-38303D02*
X103874Y-38303D01*
X104854Y-38724D02*
X104433Y-38303D01*
X104854Y-39350D02*
X104854Y-38724D01*
X105267Y-39763D02*
X104854Y-39350D01*
G54D36*
X109545Y-47145D02*
X107600Y-47145D01*
X109550Y-47150D02*
X109545Y-47145D01*
X107600Y-47145D02*
X107645Y-47145D01*
X94675Y-25075D02*
X94250Y-25500D01*
X95875Y-25075D02*
X94675Y-25075D01*
X95925Y-25025D02*
X95875Y-25075D01*
X103350Y-26750D02*
X103311Y-26750D01*
X104300Y-25800D02*
X103350Y-26750D01*
G54D37*
X106733Y-25326D02*
X106777Y-25326D01*
X106733Y-25326D02*
X106360Y-25700D01*
X106360Y-25700D02*
X106360Y-28080D01*
X112661Y-31281D02*
X114340Y-31281D01*
X112080Y-30700D02*
X112661Y-31281D01*
X111000Y-30700D02*
X112080Y-30700D01*
X110140Y-29840D02*
X111000Y-30700D01*
X107905Y-36385D02*
X108007Y-36283D01*
X108007Y-36283D02*
X109574Y-36283D01*
X109574Y-36283D02*
X109842Y-36015D01*
X109842Y-36015D02*
X109842Y-35468D01*
X96480Y-24680D02*
X95060Y-24680D01*
X95060Y-24680D02*
X94980Y-24600D01*
X92420Y-33240D02*
X93500Y-34320D01*
X96480Y-24680D02*
X96760Y-24400D01*
X96620Y-24540D02*
X96760Y-24400D01*
X96620Y-25960D02*
X96620Y-24540D01*
X97800Y-27140D02*
X96620Y-25960D01*
X97800Y-28380D02*
X97800Y-27140D01*
X97760Y-28420D02*
X97800Y-28380D01*
G54D36*
X99655Y-25905D02*
X99655Y-25049D01*
X99537Y-26023D02*
X99655Y-25905D01*
G54D37*
X108920Y-27960D02*
X108920Y-26380D01*
X108940Y-27980D02*
X108920Y-27960D01*
X101875Y-40910D02*
X100830Y-40910D01*
X100830Y-40910D02*
X100420Y-41320D01*
X102145Y-40167D02*
X102283Y-40167D01*
X101624Y-40688D02*
X102145Y-40167D01*
X100433Y-40688D02*
X101624Y-40688D01*
X100187Y-40935D02*
X100433Y-40688D01*
X99517Y-45462D02*
X99517Y-44055D01*
X97881Y-38740D02*
X97881Y-38661D01*
X98881Y-39740D02*
X97881Y-38740D01*
G54D36*
X91800Y-45600D02*
X92000Y-45400D01*
X92000Y-45400D02*
X92000Y-44700D01*
X93900Y-40300D02*
X93900Y-38800D01*
G54D40*
X95500Y-28600D02*
X95490Y-28600D01*
X95490Y-28600D02*
X95085Y-29005D01*
G54D37*
X95085Y-29005D02*
X95490Y-28600D01*
G54D40*
X96400Y-27700D02*
X96855Y-27700D01*
X95500Y-28600D02*
X96400Y-27700D01*
X96500Y-27700D02*
X96855Y-27700D01*
G54D38*
X96500Y-27700D02*
X96800Y-27700D01*
G54D40*
X96855Y-27700D02*
X96800Y-27700D01*
G54D38*
X85750Y-28818D02*
X85718Y-28818D01*
X85550Y-28650D02*
X83100Y-28650D01*
X85718Y-28818D02*
X85550Y-28650D01*
G54D39*
X105500Y-31580D02*
X105500Y-32520D01*
X105480Y-31560D02*
X105500Y-31580D01*
G54D10*
G36*
X106350Y-38679D02*
X106315Y-38714D01*
X105779Y-39250D01*
X105178Y-39250D01*
X105154Y-39226D01*
X105154Y-38724D01*
X105131Y-38609D01*
X105066Y-38512D01*
X105066Y-38512D01*
X104645Y-38091D01*
X104547Y-38025D01*
X104433Y-38003D01*
X104175Y-38003D01*
X104115Y-37943D01*
X103958Y-37878D01*
X103789Y-37878D01*
X103633Y-37942D01*
X103513Y-38062D01*
X103449Y-38218D01*
X103448Y-38387D01*
X103513Y-38543D01*
X103632Y-38663D01*
X103789Y-38728D01*
X103937Y-38728D01*
X103937Y-38832D01*
X104001Y-38988D01*
X104062Y-39049D01*
X104062Y-39112D01*
X103990Y-39184D01*
X103962Y-39250D01*
X103320Y-39250D01*
X103158Y-39087D01*
X103158Y-38644D01*
X103120Y-38552D01*
X103050Y-38481D01*
X102958Y-38443D01*
X102859Y-38443D01*
X102830Y-38443D01*
X102830Y-38291D01*
X102792Y-38199D01*
X102722Y-38128D01*
X102630Y-38090D01*
X102531Y-38090D01*
X102196Y-38090D01*
X102171Y-38100D01*
X102100Y-38029D01*
X102038Y-38090D01*
X102027Y-38090D01*
X101692Y-38090D01*
X101600Y-38128D01*
X101579Y-38150D01*
X100220Y-38150D01*
X100050Y-37979D01*
X100050Y-37520D01*
X100294Y-37275D01*
X100358Y-37340D01*
X100515Y-37404D01*
X100684Y-37405D01*
X100840Y-37340D01*
X100960Y-37221D01*
X101024Y-37064D01*
X101024Y-36999D01*
X101499Y-36524D01*
X101584Y-36525D01*
X101740Y-36460D01*
X101860Y-36341D01*
X101924Y-36184D01*
X101925Y-36015D01*
X101860Y-35859D01*
X101785Y-35784D01*
X101850Y-35720D01*
X101850Y-35120D01*
X102320Y-34650D01*
X102619Y-34650D01*
X102629Y-34659D01*
X102785Y-34724D01*
X102954Y-34724D01*
X103110Y-34659D01*
X103120Y-34650D01*
X104749Y-34650D01*
X104778Y-34678D01*
X104934Y-34743D01*
X104973Y-34743D01*
X105932Y-35702D01*
X105863Y-35706D01*
X105712Y-35768D01*
X105684Y-35864D01*
X106000Y-36179D01*
X106005Y-36173D01*
X106076Y-36244D01*
X106070Y-36250D01*
X106076Y-36255D01*
X106005Y-36326D01*
X106000Y-36320D01*
X105929Y-36391D01*
X105929Y-36250D01*
X105614Y-35934D01*
X105518Y-35962D01*
X105445Y-36168D01*
X105456Y-36386D01*
X105518Y-36537D01*
X105614Y-36565D01*
X105929Y-36250D01*
X105929Y-36391D01*
X105684Y-36635D01*
X105712Y-36731D01*
X105918Y-36804D01*
X106136Y-36793D01*
X106287Y-36731D01*
X106315Y-36635D01*
X106315Y-36635D01*
X106350Y-36670D01*
X106350Y-38679D01*
X106350Y-38679D01*
G37*
G54D37*
X106350Y-38679D02*
X106315Y-38714D01*
X105779Y-39250D01*
X105178Y-39250D01*
X105154Y-39226D01*
X105154Y-38724D01*
X105131Y-38609D01*
X105066Y-38512D01*
X105066Y-38512D01*
X104645Y-38091D01*
X104547Y-38025D01*
X104433Y-38003D01*
X104175Y-38003D01*
X104115Y-37943D01*
X103958Y-37878D01*
X103789Y-37878D01*
X103633Y-37942D01*
X103513Y-38062D01*
X103449Y-38218D01*
X103448Y-38387D01*
X103513Y-38543D01*
X103632Y-38663D01*
X103789Y-38728D01*
X103937Y-38728D01*
X103937Y-38832D01*
X104001Y-38988D01*
X104062Y-39049D01*
X104062Y-39112D01*
X103990Y-39184D01*
X103962Y-39250D01*
X103320Y-39250D01*
X103158Y-39087D01*
X103158Y-38644D01*
X103120Y-38552D01*
X103050Y-38481D01*
X102958Y-38443D01*
X102859Y-38443D01*
X102830Y-38443D01*
X102830Y-38291D01*
X102792Y-38199D01*
X102722Y-38128D01*
X102630Y-38090D01*
X102531Y-38090D01*
X102196Y-38090D01*
X102171Y-38100D01*
X102100Y-38029D01*
X102038Y-38090D01*
X102027Y-38090D01*
X101692Y-38090D01*
X101600Y-38128D01*
X101579Y-38150D01*
X100220Y-38150D01*
X100050Y-37979D01*
X100050Y-37520D01*
X100294Y-37275D01*
X100358Y-37340D01*
X100515Y-37404D01*
X100684Y-37405D01*
X100840Y-37340D01*
X100960Y-37221D01*
X101024Y-37064D01*
X101024Y-36999D01*
X101499Y-36524D01*
X101584Y-36525D01*
X101740Y-36460D01*
X101860Y-36341D01*
X101924Y-36184D01*
X101925Y-36015D01*
X101860Y-35859D01*
X101785Y-35784D01*
X101850Y-35720D01*
X101850Y-35120D01*
X102320Y-34650D01*
X102619Y-34650D01*
X102629Y-34659D01*
X102785Y-34724D01*
X102954Y-34724D01*
X103110Y-34659D01*
X103120Y-34650D01*
X104749Y-34650D01*
X104778Y-34678D01*
X104934Y-34743D01*
X104973Y-34743D01*
X105932Y-35702D01*
X105863Y-35706D01*
X105712Y-35768D01*
X105684Y-35864D01*
X106000Y-36179D01*
X106005Y-36173D01*
X106076Y-36244D01*
X106070Y-36250D01*
X106076Y-36255D01*
X106005Y-36326D01*
X106000Y-36320D01*
X105929Y-36391D01*
X105929Y-36250D01*
X105614Y-35934D01*
X105518Y-35962D01*
X105445Y-36168D01*
X105456Y-36386D01*
X105518Y-36537D01*
X105614Y-36565D01*
X105929Y-36250D01*
X105929Y-36391D01*
X105684Y-36635D01*
X105712Y-36731D01*
X105918Y-36804D01*
X106136Y-36793D01*
X106287Y-36731D01*
X106315Y-36635D01*
X106315Y-36635D01*
X106350Y-36670D01*
X106350Y-38679D01*
G54D10*
G36*
X115450Y-33679D02*
X115321Y-33808D01*
X114152Y-33808D01*
X113950Y-34010D01*
X113950Y-38891D01*
X113939Y-38915D01*
X113885Y-38783D01*
X113737Y-38635D01*
X113544Y-38555D01*
X113336Y-38554D01*
X113143Y-38634D01*
X112995Y-38782D01*
X112939Y-38915D01*
X112885Y-38783D01*
X112737Y-38635D01*
X112544Y-38555D01*
X112336Y-38554D01*
X112143Y-38634D01*
X111995Y-38782D01*
X111942Y-38908D01*
X111900Y-38807D01*
X111807Y-38782D01*
X111737Y-38853D01*
X111737Y-38712D01*
X111712Y-38619D01*
X111515Y-38550D01*
X111307Y-38561D01*
X111167Y-38619D01*
X111142Y-38712D01*
X111440Y-39009D01*
X111737Y-38712D01*
X111737Y-38853D01*
X111510Y-39080D01*
X111807Y-39377D01*
X111900Y-39352D01*
X111939Y-39242D01*
X111994Y-39377D01*
X112142Y-39524D01*
X112335Y-39604D01*
X112543Y-39605D01*
X112737Y-39525D01*
X112884Y-39377D01*
X112940Y-39244D01*
X112994Y-39377D01*
X113142Y-39524D01*
X113335Y-39604D01*
X113543Y-39605D01*
X113737Y-39525D01*
X113884Y-39377D01*
X113940Y-39244D01*
X113950Y-39268D01*
X113950Y-46879D01*
X113464Y-47364D01*
X113375Y-47454D01*
X113375Y-45586D01*
X113287Y-45374D01*
X113126Y-45212D01*
X112914Y-45125D01*
X112761Y-45124D01*
X112761Y-42999D01*
X112646Y-42719D01*
X112432Y-42504D01*
X112152Y-42388D01*
X111849Y-42388D01*
X111737Y-42434D01*
X111737Y-39447D01*
X111440Y-39150D01*
X111369Y-39221D01*
X111369Y-39080D01*
X111072Y-38782D01*
X110979Y-38807D01*
X110940Y-38917D01*
X110885Y-38783D01*
X110737Y-38635D01*
X110544Y-38555D01*
X110336Y-38554D01*
X110267Y-38583D01*
X110267Y-35384D01*
X110203Y-35228D01*
X110083Y-35108D01*
X109927Y-35043D01*
X109758Y-35043D01*
X109602Y-35107D01*
X109482Y-35227D01*
X109417Y-35383D01*
X109417Y-35476D01*
X109352Y-35476D01*
X109196Y-35541D01*
X109135Y-35601D01*
X108210Y-35601D01*
X108146Y-35537D01*
X107990Y-35472D01*
X107821Y-35472D01*
X107665Y-35537D01*
X107545Y-35656D01*
X107480Y-35812D01*
X107480Y-35981D01*
X107545Y-36138D01*
X107548Y-36141D01*
X107545Y-36144D01*
X107480Y-36300D01*
X107480Y-36469D01*
X107545Y-36626D01*
X107664Y-36745D01*
X107820Y-36810D01*
X107989Y-36810D01*
X108145Y-36746D01*
X108265Y-36626D01*
X108283Y-36583D01*
X109574Y-36583D01*
X109574Y-36583D01*
X109689Y-36560D01*
X109689Y-36560D01*
X109786Y-36495D01*
X110054Y-36227D01*
X110054Y-36227D01*
X110119Y-36130D01*
X110142Y-36015D01*
X110142Y-36015D01*
X110142Y-35769D01*
X110202Y-35709D01*
X110267Y-35553D01*
X110267Y-35384D01*
X110267Y-38583D01*
X110143Y-38634D01*
X109995Y-38782D01*
X109939Y-38915D01*
X109885Y-38783D01*
X109737Y-38635D01*
X109544Y-38555D01*
X109336Y-38554D01*
X109143Y-38634D01*
X108995Y-38782D01*
X108939Y-38915D01*
X108885Y-38783D01*
X108737Y-38635D01*
X108544Y-38555D01*
X108336Y-38554D01*
X108143Y-38634D01*
X107995Y-38782D01*
X107926Y-38948D01*
X107857Y-38783D01*
X107710Y-38635D01*
X107517Y-38555D01*
X107308Y-38554D01*
X107115Y-38634D01*
X106967Y-38782D01*
X106887Y-38975D01*
X106887Y-39183D01*
X106967Y-39377D01*
X107114Y-39524D01*
X107307Y-39604D01*
X107516Y-39605D01*
X107709Y-39525D01*
X107857Y-39377D01*
X107926Y-39211D01*
X107994Y-39377D01*
X108142Y-39524D01*
X108335Y-39604D01*
X108543Y-39605D01*
X108737Y-39525D01*
X108884Y-39377D01*
X108940Y-39244D01*
X108994Y-39377D01*
X109142Y-39524D01*
X109335Y-39604D01*
X109543Y-39605D01*
X109737Y-39525D01*
X109884Y-39377D01*
X109940Y-39244D01*
X109994Y-39377D01*
X110142Y-39524D01*
X110335Y-39604D01*
X110543Y-39605D01*
X110737Y-39525D01*
X110884Y-39377D01*
X110937Y-39251D01*
X110979Y-39352D01*
X111072Y-39377D01*
X111369Y-39080D01*
X111369Y-39221D01*
X111142Y-39447D01*
X111167Y-39540D01*
X111364Y-39609D01*
X111572Y-39598D01*
X111712Y-39540D01*
X111737Y-39447D01*
X111737Y-42434D01*
X111569Y-42503D01*
X111354Y-42717D01*
X111238Y-42997D01*
X111238Y-43300D01*
X111353Y-43580D01*
X111567Y-43795D01*
X111847Y-43911D01*
X112150Y-43911D01*
X112430Y-43796D01*
X112645Y-43582D01*
X112761Y-43302D01*
X112761Y-42999D01*
X112761Y-45124D01*
X112686Y-45124D01*
X112474Y-45212D01*
X112360Y-45326D01*
X112204Y-45170D01*
X111974Y-45075D01*
X111726Y-45074D01*
X111496Y-45169D01*
X111320Y-45345D01*
X111225Y-45575D01*
X111224Y-45823D01*
X111319Y-46053D01*
X111340Y-46074D01*
X111308Y-46088D01*
X111237Y-46158D01*
X111199Y-46250D01*
X111200Y-46587D01*
X111262Y-46650D01*
X111800Y-46650D01*
X111800Y-46642D01*
X111900Y-46642D01*
X111900Y-46650D01*
X112287Y-46650D01*
X112437Y-46650D01*
X112750Y-46650D01*
X112750Y-46642D01*
X112850Y-46642D01*
X112850Y-46650D01*
X113312Y-46650D01*
X113375Y-46587D01*
X113375Y-46325D01*
X113337Y-46233D01*
X113266Y-46163D01*
X113184Y-46128D01*
X113287Y-46026D01*
X113374Y-45814D01*
X113375Y-45586D01*
X113375Y-47454D01*
X113375Y-47454D01*
X113375Y-47074D01*
X113375Y-46812D01*
X113312Y-46750D01*
X112850Y-46750D01*
X112850Y-47212D01*
X112912Y-47275D01*
X113075Y-47275D01*
X113174Y-47274D01*
X113266Y-47236D01*
X113337Y-47166D01*
X113375Y-47074D01*
X113375Y-47454D01*
X113279Y-47550D01*
X112750Y-47550D01*
X112750Y-47212D01*
X112750Y-46750D01*
X112437Y-46750D01*
X112287Y-46750D01*
X111900Y-46750D01*
X111900Y-47287D01*
X111962Y-47350D01*
X112200Y-47350D01*
X112299Y-47349D01*
X112391Y-47311D01*
X112428Y-47274D01*
X112524Y-47275D01*
X112687Y-47275D01*
X112750Y-47212D01*
X112750Y-47550D01*
X111800Y-47550D01*
X111800Y-47287D01*
X111800Y-46750D01*
X111262Y-46750D01*
X111200Y-46812D01*
X111199Y-47149D01*
X111237Y-47241D01*
X111308Y-47311D01*
X111400Y-47349D01*
X111499Y-47350D01*
X111737Y-47350D01*
X111800Y-47287D01*
X111800Y-47550D01*
X110620Y-47550D01*
X110435Y-47364D01*
X110250Y-47179D01*
X110250Y-46979D01*
X110120Y-46850D01*
X109851Y-46850D01*
X109791Y-46789D01*
X109651Y-46732D01*
X109651Y-43030D01*
X109559Y-42808D01*
X109390Y-42637D01*
X109167Y-42545D01*
X108927Y-42545D01*
X108705Y-42637D01*
X108535Y-42807D01*
X108443Y-43029D01*
X108442Y-43269D01*
X108534Y-43491D01*
X108704Y-43662D01*
X108926Y-43754D01*
X109166Y-43754D01*
X109389Y-43662D01*
X109559Y-43492D01*
X109651Y-43270D01*
X109651Y-43030D01*
X109651Y-46732D01*
X109634Y-46725D01*
X109465Y-46724D01*
X109309Y-46789D01*
X109301Y-46797D01*
X107645Y-46797D01*
X107600Y-46797D01*
X107430Y-46797D01*
X107515Y-46711D01*
X107599Y-46509D01*
X107600Y-46291D01*
X107600Y-42291D01*
X107516Y-42088D01*
X107361Y-41934D01*
X107159Y-41850D01*
X106941Y-41849D01*
X106738Y-41933D01*
X106700Y-41972D01*
X106700Y-40320D01*
X106700Y-35929D01*
X105925Y-35154D01*
X105925Y-32435D01*
X105897Y-32369D01*
X105897Y-31662D01*
X105904Y-31644D01*
X105905Y-31475D01*
X105840Y-31319D01*
X105721Y-31199D01*
X105564Y-31135D01*
X105395Y-31134D01*
X105239Y-31199D01*
X105119Y-31318D01*
X105055Y-31475D01*
X105054Y-31644D01*
X105102Y-31758D01*
X105102Y-32369D01*
X105075Y-32435D01*
X105074Y-32604D01*
X105139Y-32760D01*
X105258Y-32880D01*
X105415Y-32944D01*
X105584Y-32945D01*
X105740Y-32880D01*
X105860Y-32761D01*
X105924Y-32604D01*
X105925Y-32435D01*
X105925Y-35154D01*
X105355Y-34584D01*
X105379Y-34559D01*
X105444Y-34403D01*
X105444Y-34234D01*
X105380Y-34078D01*
X105260Y-33958D01*
X105104Y-33893D01*
X104935Y-33893D01*
X104779Y-33958D01*
X104738Y-33999D01*
X103171Y-33999D01*
X103111Y-33939D01*
X102954Y-33874D01*
X102785Y-33874D01*
X102629Y-33938D01*
X102509Y-34058D01*
X102445Y-34214D01*
X102445Y-34300D01*
X102029Y-34300D01*
X101350Y-34979D01*
X101350Y-35702D01*
X101259Y-35739D01*
X101139Y-35858D01*
X101082Y-35996D01*
X100524Y-36554D01*
X100515Y-36554D01*
X100359Y-36619D01*
X100239Y-36738D01*
X100175Y-36895D01*
X100175Y-36904D01*
X100150Y-36929D01*
X100150Y-36979D01*
X99750Y-37379D01*
X99750Y-38120D01*
X100079Y-38450D01*
X101546Y-38450D01*
X101554Y-38457D01*
X101590Y-38457D01*
X101590Y-38557D01*
X101554Y-38557D01*
X101492Y-38620D01*
X101492Y-38724D01*
X101506Y-38759D01*
X101492Y-38794D01*
X101492Y-38899D01*
X101554Y-38961D01*
X101671Y-38961D01*
X101771Y-39061D01*
X101554Y-39061D01*
X101492Y-39124D01*
X101492Y-39228D01*
X101530Y-39320D01*
X101600Y-39390D01*
X101692Y-39429D01*
X101791Y-39429D01*
X101796Y-39429D01*
X101859Y-39366D01*
X101859Y-39150D01*
X101959Y-39250D01*
X101959Y-39366D01*
X102021Y-39429D01*
X102027Y-39429D01*
X102126Y-39429D01*
X102161Y-39414D01*
X102196Y-39429D01*
X102295Y-39429D01*
X102300Y-39429D01*
X102363Y-39366D01*
X102363Y-39330D01*
X102463Y-39330D01*
X102463Y-39366D01*
X102525Y-39429D01*
X102531Y-39429D01*
X102630Y-39429D01*
X102650Y-39420D01*
X102679Y-39450D01*
X102879Y-39450D01*
X103029Y-39600D01*
X103962Y-39600D01*
X103989Y-39665D01*
X104109Y-39785D01*
X104265Y-39850D01*
X104434Y-39850D01*
X104590Y-39785D01*
X104710Y-39666D01*
X104720Y-39641D01*
X104842Y-39763D01*
X104842Y-39847D01*
X104907Y-40004D01*
X105026Y-40123D01*
X105182Y-40188D01*
X105351Y-40188D01*
X105450Y-40148D01*
X105449Y-40358D01*
X105533Y-40561D01*
X105688Y-40715D01*
X105890Y-40799D01*
X106108Y-40800D01*
X106311Y-40716D01*
X106465Y-40561D01*
X106471Y-40549D01*
X106700Y-40320D01*
X106700Y-41972D01*
X106584Y-42088D01*
X106500Y-42290D01*
X106499Y-42508D01*
X106583Y-42711D01*
X106700Y-42827D01*
X106738Y-42865D01*
X106940Y-42949D01*
X107158Y-42950D01*
X107361Y-42866D01*
X107515Y-42711D01*
X107599Y-42509D01*
X107600Y-42291D01*
X107600Y-46291D01*
X107516Y-46088D01*
X107361Y-45934D01*
X107159Y-45850D01*
X106941Y-45849D01*
X106738Y-45933D01*
X106700Y-45972D01*
X106584Y-46088D01*
X106500Y-46290D01*
X106499Y-46508D01*
X106583Y-46711D01*
X106669Y-46797D01*
X103381Y-46797D01*
X103381Y-41313D01*
X103317Y-41157D01*
X103197Y-41037D01*
X103041Y-40972D01*
X102872Y-40972D01*
X102716Y-41037D01*
X102655Y-41097D01*
X102257Y-41097D01*
X102299Y-40994D01*
X102300Y-40825D01*
X102235Y-40669D01*
X102151Y-40585D01*
X102160Y-40576D01*
X102198Y-40592D01*
X102367Y-40592D01*
X102523Y-40527D01*
X102643Y-40408D01*
X102708Y-40252D01*
X102708Y-40083D01*
X102643Y-39926D01*
X102524Y-39807D01*
X102368Y-39742D01*
X102199Y-39742D01*
X102043Y-39806D01*
X101923Y-39926D01*
X101895Y-39993D01*
X101499Y-40388D01*
X100433Y-40388D01*
X100318Y-40411D01*
X100220Y-40476D01*
X100187Y-40510D01*
X100102Y-40509D01*
X99946Y-40574D01*
X99826Y-40693D01*
X99786Y-40791D01*
X99643Y-40732D01*
X99474Y-40732D01*
X99318Y-40796D01*
X99306Y-40808D01*
X99306Y-39655D01*
X99242Y-39499D01*
X99122Y-39380D01*
X98966Y-39315D01*
X98881Y-39315D01*
X98306Y-38740D01*
X98306Y-38577D01*
X98242Y-38420D01*
X98122Y-38301D01*
X97966Y-38236D01*
X97797Y-38236D01*
X97675Y-38287D01*
X97675Y-36386D01*
X97587Y-36174D01*
X97426Y-36012D01*
X97214Y-35925D01*
X96986Y-35924D01*
X96774Y-36012D01*
X96612Y-36173D01*
X96602Y-36198D01*
X96601Y-36197D01*
X96504Y-36166D01*
X96497Y-36173D01*
X96497Y-31050D01*
X96497Y-31050D01*
X96497Y-31050D01*
X96497Y-30300D01*
X96467Y-30147D01*
X96467Y-30147D01*
X96381Y-30018D01*
X96287Y-29925D01*
X96260Y-29859D01*
X96141Y-29739D01*
X95984Y-29675D01*
X95815Y-29674D01*
X95659Y-29739D01*
X95539Y-29858D01*
X95475Y-30015D01*
X95474Y-30184D01*
X95539Y-30340D01*
X95573Y-30374D01*
X95565Y-30374D01*
X95409Y-30439D01*
X95289Y-30558D01*
X95262Y-30625D01*
X94012Y-31874D01*
X93965Y-31874D01*
X93809Y-31939D01*
X93689Y-32058D01*
X93625Y-32215D01*
X93624Y-32384D01*
X93689Y-32540D01*
X93808Y-32660D01*
X93965Y-32724D01*
X94074Y-32725D01*
X94074Y-32734D01*
X94139Y-32890D01*
X94258Y-33010D01*
X94415Y-33074D01*
X94584Y-33075D01*
X94740Y-33010D01*
X94860Y-32891D01*
X94887Y-32824D01*
X96381Y-31331D01*
X96381Y-31331D01*
X96381Y-31331D01*
X96467Y-31202D01*
X96467Y-31202D01*
X96491Y-31080D01*
X96497Y-31050D01*
X96497Y-36173D01*
X96433Y-36237D01*
X96433Y-36095D01*
X96402Y-35998D01*
X96187Y-35920D01*
X95959Y-35930D01*
X95797Y-35998D01*
X95766Y-36095D01*
X96100Y-36429D01*
X96433Y-36095D01*
X96433Y-36237D01*
X96170Y-36500D01*
X96504Y-36833D01*
X96601Y-36802D01*
X96602Y-36801D01*
X96612Y-36825D01*
X96773Y-36987D01*
X96985Y-37074D01*
X97213Y-37075D01*
X97425Y-36987D01*
X97587Y-36826D01*
X97674Y-36614D01*
X97675Y-36386D01*
X97675Y-38287D01*
X97641Y-38300D01*
X97521Y-38420D01*
X97456Y-38576D01*
X97456Y-38745D01*
X97521Y-38901D01*
X97640Y-39021D01*
X97796Y-39086D01*
X97803Y-39086D01*
X98456Y-39739D01*
X98456Y-39824D01*
X98521Y-39980D01*
X98640Y-40100D01*
X98796Y-40165D01*
X98966Y-40165D01*
X99122Y-40100D01*
X99241Y-39981D01*
X99306Y-39825D01*
X99306Y-39655D01*
X99306Y-40808D01*
X99198Y-40916D01*
X99134Y-41072D01*
X99133Y-41241D01*
X99198Y-41397D01*
X99317Y-41517D01*
X99474Y-41582D01*
X99559Y-41582D01*
X99831Y-41853D01*
X99831Y-41853D01*
X99928Y-41918D01*
X100043Y-41941D01*
X100692Y-41941D01*
X100692Y-41941D01*
X100807Y-41918D01*
X100807Y-41918D01*
X100905Y-41853D01*
X101061Y-41697D01*
X102655Y-41697D01*
X102715Y-41757D01*
X102871Y-41822D01*
X103040Y-41822D01*
X103197Y-41758D01*
X103316Y-41638D01*
X103381Y-41482D01*
X103381Y-41313D01*
X103381Y-46797D01*
X99942Y-46797D01*
X99942Y-45378D01*
X99878Y-45222D01*
X99817Y-45161D01*
X99817Y-44356D01*
X99877Y-44296D01*
X99942Y-44140D01*
X99942Y-43970D01*
X99878Y-43814D01*
X99758Y-43695D01*
X99602Y-43630D01*
X99433Y-43630D01*
X99277Y-43694D01*
X99157Y-43814D01*
X99092Y-43970D01*
X99092Y-44139D01*
X99157Y-44295D01*
X99217Y-44356D01*
X99217Y-45161D01*
X99157Y-45221D01*
X99092Y-45377D01*
X99092Y-45546D01*
X99157Y-45703D01*
X99276Y-45822D01*
X99432Y-45887D01*
X99601Y-45887D01*
X99758Y-45823D01*
X99877Y-45703D01*
X99942Y-45547D01*
X99942Y-45378D01*
X99942Y-46797D01*
X97952Y-46797D01*
X97952Y-46183D01*
X97888Y-46027D01*
X97768Y-45907D01*
X97612Y-45842D01*
X97526Y-45842D01*
X96924Y-45240D01*
X96901Y-45224D01*
X96895Y-45212D01*
X96776Y-45092D01*
X96620Y-45027D01*
X96451Y-45027D01*
X96433Y-45035D01*
X96433Y-36904D01*
X96100Y-36570D01*
X96029Y-36641D01*
X96029Y-36500D01*
X95695Y-36166D01*
X95680Y-36171D01*
X95680Y-33535D01*
X95669Y-33327D01*
X95611Y-33186D01*
X95518Y-33162D01*
X95447Y-33233D01*
X95447Y-33091D01*
X95423Y-32998D01*
X95225Y-32929D01*
X95017Y-32940D01*
X94876Y-32998D01*
X94852Y-33091D01*
X95150Y-33389D01*
X95447Y-33091D01*
X95447Y-33233D01*
X95220Y-33460D01*
X95518Y-33757D01*
X95611Y-33733D01*
X95680Y-33535D01*
X95680Y-36171D01*
X95675Y-36172D01*
X95675Y-34355D01*
X95595Y-34162D01*
X95448Y-34014D01*
X95322Y-33962D01*
X95423Y-33921D01*
X95447Y-33828D01*
X95150Y-33530D01*
X95144Y-33536D01*
X95073Y-33465D01*
X95079Y-33460D01*
X94781Y-33162D01*
X94688Y-33186D01*
X94619Y-33384D01*
X94622Y-33434D01*
X94545Y-33434D01*
X94352Y-33514D01*
X94204Y-33661D01*
X94124Y-33854D01*
X94124Y-34064D01*
X94204Y-34257D01*
X94351Y-34405D01*
X94544Y-34485D01*
X94624Y-34485D01*
X94624Y-34564D01*
X94704Y-34757D01*
X94851Y-34905D01*
X95044Y-34985D01*
X95254Y-34985D01*
X95447Y-34905D01*
X95595Y-34758D01*
X95675Y-34565D01*
X95675Y-34355D01*
X95675Y-36172D01*
X95675Y-36173D01*
X95675Y-36125D01*
X95637Y-36033D01*
X95566Y-35963D01*
X95474Y-35925D01*
X95375Y-35924D01*
X94725Y-35924D01*
X94633Y-35962D01*
X94563Y-36033D01*
X94525Y-36125D01*
X94524Y-36224D01*
X94524Y-36874D01*
X94562Y-36966D01*
X94633Y-37036D01*
X94725Y-37074D01*
X94824Y-37075D01*
X95474Y-37075D01*
X95566Y-37037D01*
X95636Y-36966D01*
X95674Y-36874D01*
X95674Y-36826D01*
X95695Y-36833D01*
X96029Y-36500D01*
X96029Y-36641D01*
X95766Y-36904D01*
X95797Y-37001D01*
X96012Y-37079D01*
X96240Y-37069D01*
X96402Y-37001D01*
X96433Y-36904D01*
X96433Y-45035D01*
X96425Y-45038D01*
X96425Y-39915D01*
X96360Y-39759D01*
X96241Y-39639D01*
X96084Y-39575D01*
X95915Y-39574D01*
X95759Y-39639D01*
X95639Y-39758D01*
X95575Y-39915D01*
X95575Y-39932D01*
X95355Y-40151D01*
X94700Y-40151D01*
X94566Y-40178D01*
X94453Y-40253D01*
X94453Y-40253D01*
X94355Y-40351D01*
X94324Y-40351D01*
X94325Y-40215D01*
X94260Y-40059D01*
X94248Y-40047D01*
X94248Y-39052D01*
X94260Y-39041D01*
X94324Y-38884D01*
X94325Y-38715D01*
X94260Y-38559D01*
X94141Y-38439D01*
X93984Y-38375D01*
X93925Y-38375D01*
X93925Y-34235D01*
X93860Y-34079D01*
X93741Y-33959D01*
X93584Y-33895D01*
X93499Y-33894D01*
X92844Y-33240D01*
X92845Y-33155D01*
X92780Y-32999D01*
X92661Y-32879D01*
X92504Y-32815D01*
X92335Y-32814D01*
X92179Y-32879D01*
X92059Y-32998D01*
X91995Y-33155D01*
X91994Y-33324D01*
X92059Y-33480D01*
X92178Y-33600D01*
X92335Y-33664D01*
X92420Y-33665D01*
X93075Y-34319D01*
X93074Y-34404D01*
X93139Y-34560D01*
X93258Y-34680D01*
X93415Y-34744D01*
X93584Y-34745D01*
X93740Y-34680D01*
X93860Y-34561D01*
X93924Y-34404D01*
X93925Y-34235D01*
X93925Y-38375D01*
X93815Y-38374D01*
X93659Y-38439D01*
X93539Y-38558D01*
X93475Y-38715D01*
X93474Y-38884D01*
X93539Y-39040D01*
X93551Y-39052D01*
X93551Y-40047D01*
X93539Y-40058D01*
X93475Y-40215D01*
X93474Y-40384D01*
X93515Y-40483D01*
X93439Y-40558D01*
X93375Y-40715D01*
X93374Y-40884D01*
X93439Y-41040D01*
X93558Y-41160D01*
X93715Y-41224D01*
X93884Y-41225D01*
X94040Y-41160D01*
X94152Y-41048D01*
X94499Y-41048D01*
X94500Y-41048D01*
X94500Y-41048D01*
X94611Y-41026D01*
X94633Y-41021D01*
X94633Y-41021D01*
X94746Y-40946D01*
X94844Y-40848D01*
X95499Y-40848D01*
X95500Y-40848D01*
X95500Y-40848D01*
X95611Y-40826D01*
X95633Y-40821D01*
X95633Y-40821D01*
X95746Y-40746D01*
X96067Y-40425D01*
X96084Y-40425D01*
X96240Y-40360D01*
X96360Y-40241D01*
X96424Y-40084D01*
X96425Y-39915D01*
X96425Y-45038D01*
X96295Y-45092D01*
X96175Y-45211D01*
X96110Y-45367D01*
X96110Y-45536D01*
X96174Y-45693D01*
X96294Y-45812D01*
X96450Y-45877D01*
X96619Y-45877D01*
X96685Y-45850D01*
X97102Y-46266D01*
X97102Y-46351D01*
X97167Y-46508D01*
X97286Y-46627D01*
X97442Y-46692D01*
X97611Y-46692D01*
X97767Y-46628D01*
X97887Y-46508D01*
X97952Y-46352D01*
X97952Y-46183D01*
X97952Y-46797D01*
X93704Y-46797D01*
X93704Y-46431D01*
X93700Y-46338D01*
X93700Y-42241D01*
X93616Y-42038D01*
X93461Y-41884D01*
X93259Y-41800D01*
X93041Y-41799D01*
X92838Y-41883D01*
X92684Y-42038D01*
X92600Y-42240D01*
X92599Y-42458D01*
X92683Y-42661D01*
X92838Y-42815D01*
X93040Y-42899D01*
X93258Y-42900D01*
X93461Y-42816D01*
X93615Y-42661D01*
X93699Y-42459D01*
X93700Y-42241D01*
X93700Y-46338D01*
X93693Y-46213D01*
X93631Y-46062D01*
X93535Y-46034D01*
X93465Y-46105D01*
X93465Y-45964D01*
X93437Y-45868D01*
X93231Y-45795D01*
X93013Y-45806D01*
X92862Y-45868D01*
X92834Y-45964D01*
X93150Y-46279D01*
X93465Y-45964D01*
X93465Y-46105D01*
X93220Y-46350D01*
X93535Y-46665D01*
X93631Y-46637D01*
X93704Y-46431D01*
X93704Y-46797D01*
X93447Y-46797D01*
X93465Y-46735D01*
X93150Y-46420D01*
X93079Y-46491D01*
X93079Y-46350D01*
X92764Y-46034D01*
X92668Y-46062D01*
X92595Y-46268D01*
X92606Y-46486D01*
X92668Y-46637D01*
X92764Y-46665D01*
X93079Y-46350D01*
X93079Y-46491D01*
X92834Y-46735D01*
X92852Y-46797D01*
X92280Y-46797D01*
X92415Y-46661D01*
X92499Y-46459D01*
X92500Y-46241D01*
X92500Y-42241D01*
X92416Y-42038D01*
X92261Y-41884D01*
X92059Y-41800D01*
X91841Y-41799D01*
X91638Y-41883D01*
X91484Y-42038D01*
X91400Y-42240D01*
X91399Y-42458D01*
X91483Y-42661D01*
X91638Y-42815D01*
X91840Y-42899D01*
X92058Y-42900D01*
X92261Y-42816D01*
X92415Y-42661D01*
X92499Y-42459D01*
X92500Y-42241D01*
X92500Y-46241D01*
X92416Y-46038D01*
X92261Y-45884D01*
X92159Y-45841D01*
X92160Y-45841D01*
X92224Y-45684D01*
X92224Y-45667D01*
X92246Y-45646D01*
X92246Y-45646D01*
X92246Y-45646D01*
X92321Y-45533D01*
X92348Y-45400D01*
X92348Y-44952D01*
X92360Y-44941D01*
X92424Y-44784D01*
X92425Y-44615D01*
X92360Y-44459D01*
X92241Y-44339D01*
X92084Y-44275D01*
X91915Y-44274D01*
X91759Y-44339D01*
X91639Y-44458D01*
X91575Y-44615D01*
X91574Y-44784D01*
X91639Y-44940D01*
X91651Y-44952D01*
X91651Y-45201D01*
X91559Y-45239D01*
X91439Y-45358D01*
X91375Y-45515D01*
X91374Y-45684D01*
X91439Y-45840D01*
X91558Y-45960D01*
X91561Y-45961D01*
X91484Y-46038D01*
X91400Y-46240D01*
X91399Y-46458D01*
X91483Y-46661D01*
X91619Y-46797D01*
X91270Y-46797D01*
X91002Y-46529D01*
X91002Y-43134D01*
X91002Y-42915D01*
X90968Y-42744D01*
X90872Y-42599D01*
X90727Y-42503D01*
X90575Y-42472D01*
X90575Y-39186D01*
X90487Y-38974D01*
X90326Y-38812D01*
X90114Y-38725D01*
X89886Y-38724D01*
X89674Y-38812D01*
X89512Y-38973D01*
X89425Y-39185D01*
X89424Y-39413D01*
X89512Y-39625D01*
X89615Y-39728D01*
X89533Y-39762D01*
X89463Y-39833D01*
X89425Y-39925D01*
X89424Y-40024D01*
X89424Y-40674D01*
X89462Y-40766D01*
X89533Y-40836D01*
X89625Y-40874D01*
X89724Y-40875D01*
X90374Y-40875D01*
X90466Y-40837D01*
X90536Y-40766D01*
X90574Y-40674D01*
X90575Y-40575D01*
X90575Y-39925D01*
X90537Y-39833D01*
X90466Y-39763D01*
X90384Y-39728D01*
X90487Y-39626D01*
X90574Y-39414D01*
X90575Y-39186D01*
X90575Y-42472D01*
X90556Y-42469D01*
X90385Y-42503D01*
X90240Y-42599D01*
X90162Y-42716D01*
X90084Y-42599D01*
X89939Y-42503D01*
X89768Y-42469D01*
X89597Y-42503D01*
X89452Y-42599D01*
X89375Y-42716D01*
X89297Y-42599D01*
X89152Y-42503D01*
X88981Y-42469D01*
X88810Y-42503D01*
X88665Y-42599D01*
X88588Y-42714D01*
X88497Y-42591D01*
X88393Y-42529D01*
X88393Y-36122D01*
X88393Y-32122D01*
X88393Y-28122D01*
X88393Y-24122D01*
X88295Y-23885D01*
X88114Y-23704D01*
X87878Y-23606D01*
X87622Y-23606D01*
X87385Y-23704D01*
X87204Y-23885D01*
X87106Y-24121D01*
X87106Y-24377D01*
X87204Y-24614D01*
X87385Y-24795D01*
X87621Y-24893D01*
X87877Y-24893D01*
X88114Y-24795D01*
X88295Y-24614D01*
X88393Y-24378D01*
X88393Y-24122D01*
X88393Y-28122D01*
X88295Y-27885D01*
X88114Y-27704D01*
X87878Y-27606D01*
X87622Y-27606D01*
X87385Y-27704D01*
X87204Y-27885D01*
X87106Y-28121D01*
X87106Y-28377D01*
X87204Y-28614D01*
X87385Y-28795D01*
X87621Y-28893D01*
X87877Y-28893D01*
X88114Y-28795D01*
X88295Y-28614D01*
X88393Y-28378D01*
X88393Y-28122D01*
X88393Y-32122D01*
X88295Y-31885D01*
X88225Y-31815D01*
X88225Y-30596D01*
X88145Y-30403D01*
X87997Y-30255D01*
X87925Y-30225D01*
X88024Y-30225D01*
X88116Y-30187D01*
X88186Y-30116D01*
X88224Y-30024D01*
X88225Y-29925D01*
X88225Y-29375D01*
X88187Y-29283D01*
X88116Y-29213D01*
X88024Y-29175D01*
X87925Y-29174D01*
X87375Y-29174D01*
X87283Y-29212D01*
X87213Y-29283D01*
X87175Y-29375D01*
X87174Y-29474D01*
X87174Y-30024D01*
X87212Y-30116D01*
X87283Y-30186D01*
X87375Y-30224D01*
X87474Y-30225D01*
X87474Y-30225D01*
X87403Y-30254D01*
X87255Y-30402D01*
X87175Y-30595D01*
X87174Y-30803D01*
X87254Y-30997D01*
X87402Y-31144D01*
X87595Y-31224D01*
X87803Y-31225D01*
X87997Y-31145D01*
X88144Y-30997D01*
X88224Y-30804D01*
X88225Y-30596D01*
X88225Y-31815D01*
X88114Y-31704D01*
X87878Y-31606D01*
X87622Y-31606D01*
X87385Y-31704D01*
X87204Y-31885D01*
X87106Y-32121D01*
X87106Y-32377D01*
X87204Y-32614D01*
X87385Y-32795D01*
X87621Y-32893D01*
X87877Y-32893D01*
X88114Y-32795D01*
X88295Y-32614D01*
X88393Y-32378D01*
X88393Y-32122D01*
X88393Y-36122D01*
X88295Y-35885D01*
X88114Y-35704D01*
X87878Y-35606D01*
X87622Y-35606D01*
X87385Y-35704D01*
X87204Y-35885D01*
X87106Y-36121D01*
X87106Y-36377D01*
X87204Y-36614D01*
X87385Y-36795D01*
X87621Y-36893D01*
X87877Y-36893D01*
X88114Y-36795D01*
X88295Y-36614D01*
X88393Y-36378D01*
X88393Y-36122D01*
X88393Y-42529D01*
X88345Y-42500D01*
X88312Y-42495D01*
X88243Y-42545D01*
X88243Y-42975D01*
X88251Y-42975D01*
X88251Y-43075D01*
X88243Y-43075D01*
X88243Y-43504D01*
X88312Y-43554D01*
X88345Y-43549D01*
X88497Y-43458D01*
X88588Y-43335D01*
X88665Y-43450D01*
X88810Y-43546D01*
X88981Y-43580D01*
X89152Y-43546D01*
X89297Y-43450D01*
X89375Y-43333D01*
X89452Y-43450D01*
X89597Y-43546D01*
X89768Y-43580D01*
X89939Y-43546D01*
X90084Y-43450D01*
X90162Y-43333D01*
X90240Y-43450D01*
X90385Y-43546D01*
X90556Y-43580D01*
X90727Y-43546D01*
X90872Y-43450D01*
X90968Y-43305D01*
X91002Y-43134D01*
X91002Y-46529D01*
X90883Y-46410D01*
X90883Y-46107D01*
X90895Y-46095D01*
X90960Y-45939D01*
X90960Y-45770D01*
X90895Y-45613D01*
X90776Y-45494D01*
X90620Y-45429D01*
X90451Y-45429D01*
X90295Y-45493D01*
X90175Y-45613D01*
X90110Y-45769D01*
X90110Y-45938D01*
X90174Y-46094D01*
X90187Y-46106D01*
X90187Y-46555D01*
X90187Y-46555D01*
X90209Y-46666D01*
X90213Y-46688D01*
X90289Y-46801D01*
X90337Y-46850D01*
X88143Y-46850D01*
X88143Y-43504D01*
X88143Y-43075D01*
X88143Y-42975D01*
X88143Y-42545D01*
X88075Y-42495D01*
X88041Y-42500D01*
X87890Y-42591D01*
X87785Y-42732D01*
X87742Y-42904D01*
X87806Y-42975D01*
X88143Y-42975D01*
X88143Y-43075D01*
X87806Y-43075D01*
X87742Y-43145D01*
X87785Y-43317D01*
X87890Y-43458D01*
X88041Y-43549D01*
X88075Y-43554D01*
X88143Y-43504D01*
X88143Y-46850D01*
X86743Y-46850D01*
X86743Y-35372D01*
X86704Y-35278D01*
X86704Y-33197D01*
X86654Y-33076D01*
X86654Y-24872D01*
X86556Y-24635D01*
X86376Y-24454D01*
X86139Y-24356D01*
X85883Y-24356D01*
X85646Y-24454D01*
X85465Y-24635D01*
X85367Y-24871D01*
X85367Y-25127D01*
X85465Y-25364D01*
X85646Y-25545D01*
X85882Y-25643D01*
X86138Y-25643D01*
X86375Y-25545D01*
X86556Y-25364D01*
X86654Y-25128D01*
X86654Y-24872D01*
X86654Y-33076D01*
X86643Y-33049D01*
X86643Y-26872D01*
X86545Y-26635D01*
X86364Y-26454D01*
X86128Y-26356D01*
X85872Y-26356D01*
X85635Y-26454D01*
X85454Y-26635D01*
X85356Y-26871D01*
X85356Y-27127D01*
X85454Y-27364D01*
X85635Y-27545D01*
X85871Y-27643D01*
X86127Y-27643D01*
X86364Y-27545D01*
X86545Y-27364D01*
X86643Y-27128D01*
X86643Y-26872D01*
X86643Y-33049D01*
X86606Y-32960D01*
X86426Y-32779D01*
X86189Y-32681D01*
X85933Y-32681D01*
X85696Y-32779D01*
X85515Y-32960D01*
X85417Y-33196D01*
X85417Y-33452D01*
X85515Y-33689D01*
X85696Y-33870D01*
X85932Y-33968D01*
X86188Y-33968D01*
X86425Y-33870D01*
X86606Y-33689D01*
X86704Y-33453D01*
X86704Y-33197D01*
X86704Y-35278D01*
X86645Y-35135D01*
X86464Y-34954D01*
X86228Y-34856D01*
X85972Y-34856D01*
X85735Y-34954D01*
X85554Y-35135D01*
X85456Y-35371D01*
X85456Y-35627D01*
X85554Y-35864D01*
X85735Y-36045D01*
X85971Y-36143D01*
X86227Y-36143D01*
X86464Y-36045D01*
X86645Y-35864D01*
X86743Y-35628D01*
X86743Y-35372D01*
X86743Y-46850D01*
X86624Y-46850D01*
X86625Y-46526D01*
X86492Y-46205D01*
X86246Y-45958D01*
X85924Y-45825D01*
X85576Y-45824D01*
X85475Y-45866D01*
X85475Y-44903D01*
X85387Y-44691D01*
X85226Y-44529D01*
X85214Y-44525D01*
X85225Y-44520D01*
X85387Y-44359D01*
X85474Y-44147D01*
X85475Y-43919D01*
X85387Y-43707D01*
X85295Y-43615D01*
X85366Y-43585D01*
X85437Y-43515D01*
X85475Y-43423D01*
X85475Y-42674D01*
X85437Y-42582D01*
X85366Y-42511D01*
X85274Y-42473D01*
X85175Y-42473D01*
X85012Y-42473D01*
X84950Y-42536D01*
X84950Y-42998D01*
X85412Y-42998D01*
X85475Y-42936D01*
X85475Y-42674D01*
X85475Y-43423D01*
X85475Y-43161D01*
X85412Y-43098D01*
X84950Y-43098D01*
X84950Y-43106D01*
X84850Y-43106D01*
X84850Y-43098D01*
X84850Y-42998D01*
X84850Y-42536D01*
X84787Y-42473D01*
X84624Y-42473D01*
X84525Y-42473D01*
X84433Y-42511D01*
X84362Y-42582D01*
X84324Y-42674D01*
X84325Y-42936D01*
X84387Y-42998D01*
X84850Y-42998D01*
X84850Y-43098D01*
X84387Y-43098D01*
X84325Y-43161D01*
X84324Y-43423D01*
X84362Y-43515D01*
X84433Y-43585D01*
X84504Y-43615D01*
X84412Y-43706D01*
X84325Y-43917D01*
X84324Y-44146D01*
X84412Y-44358D01*
X84573Y-44520D01*
X84585Y-44524D01*
X84574Y-44529D01*
X84412Y-44690D01*
X84325Y-44902D01*
X84324Y-45130D01*
X84412Y-45342D01*
X84573Y-45504D01*
X84785Y-45592D01*
X85013Y-45592D01*
X85225Y-45504D01*
X85387Y-45343D01*
X85474Y-45132D01*
X85475Y-44903D01*
X85475Y-45866D01*
X85255Y-45957D01*
X85008Y-46203D01*
X84875Y-46525D01*
X84874Y-46850D01*
X83975Y-46850D01*
X83975Y-44861D01*
X83868Y-44604D01*
X83764Y-44499D01*
X83868Y-44397D01*
X83974Y-44139D01*
X83975Y-43861D01*
X83870Y-43608D01*
X83912Y-43566D01*
X83950Y-43474D01*
X83950Y-42525D01*
X83936Y-42493D01*
X83936Y-35604D01*
X83927Y-35348D01*
X83897Y-35277D01*
X83897Y-33429D01*
X83888Y-33173D01*
X83808Y-32980D01*
X83703Y-32942D01*
X83632Y-33012D01*
X83632Y-32871D01*
X83594Y-32766D01*
X83354Y-32677D01*
X83098Y-32686D01*
X82905Y-32766D01*
X82867Y-32871D01*
X83250Y-33254D01*
X83632Y-32871D01*
X83632Y-33012D01*
X83320Y-33325D01*
X83703Y-33707D01*
X83808Y-33669D01*
X83897Y-33429D01*
X83897Y-35277D01*
X83847Y-35155D01*
X83742Y-35117D01*
X83671Y-35187D01*
X83671Y-35046D01*
X83633Y-34941D01*
X83632Y-34941D01*
X83632Y-33778D01*
X83250Y-33395D01*
X83179Y-33466D01*
X83179Y-33325D01*
X82796Y-32942D01*
X82691Y-32980D01*
X82602Y-33220D01*
X82611Y-33476D01*
X82691Y-33669D01*
X82796Y-33707D01*
X83179Y-33325D01*
X83179Y-33466D01*
X82867Y-33778D01*
X82905Y-33883D01*
X83145Y-33972D01*
X83401Y-33963D01*
X83594Y-33883D01*
X83632Y-33778D01*
X83632Y-34941D01*
X83393Y-34852D01*
X83137Y-34861D01*
X82944Y-34941D01*
X82906Y-35046D01*
X83288Y-35429D01*
X83671Y-35046D01*
X83671Y-35187D01*
X83359Y-35500D01*
X83742Y-35882D01*
X83847Y-35844D01*
X83936Y-35604D01*
X83936Y-42493D01*
X83912Y-42433D01*
X83841Y-42363D01*
X83749Y-42325D01*
X83671Y-42324D01*
X83671Y-35953D01*
X83288Y-35570D01*
X83218Y-35641D01*
X83218Y-35500D01*
X82835Y-35117D01*
X82730Y-35155D01*
X82641Y-35395D01*
X82650Y-35651D01*
X82730Y-35844D01*
X82835Y-35882D01*
X83218Y-35500D01*
X83218Y-35641D01*
X82906Y-35953D01*
X82944Y-36058D01*
X83184Y-36147D01*
X83440Y-36138D01*
X83633Y-36058D01*
X83671Y-35953D01*
X83671Y-42324D01*
X83650Y-42324D01*
X83387Y-42325D01*
X83325Y-42387D01*
X83325Y-42950D01*
X83887Y-42950D01*
X83950Y-42887D01*
X83950Y-42525D01*
X83950Y-43474D01*
X83950Y-43112D01*
X83887Y-43050D01*
X83325Y-43050D01*
X83325Y-43057D01*
X83225Y-43057D01*
X83225Y-43050D01*
X83225Y-42950D01*
X83225Y-42387D01*
X83162Y-42325D01*
X82899Y-42324D01*
X82800Y-42325D01*
X82708Y-42363D01*
X82637Y-42433D01*
X82599Y-42525D01*
X82600Y-42887D01*
X82662Y-42950D01*
X83225Y-42950D01*
X83225Y-43050D01*
X82662Y-43050D01*
X82600Y-43112D01*
X82599Y-43474D01*
X82637Y-43566D01*
X82679Y-43608D01*
X82575Y-43860D01*
X82574Y-44138D01*
X82681Y-44396D01*
X82785Y-44500D01*
X82681Y-44602D01*
X82575Y-44860D01*
X82574Y-45138D01*
X82681Y-45396D01*
X82877Y-45593D01*
X83135Y-45699D01*
X83413Y-45700D01*
X83671Y-45593D01*
X83868Y-45397D01*
X83974Y-45139D01*
X83975Y-44861D01*
X83975Y-46850D01*
X82450Y-46850D01*
X82450Y-31844D01*
X82527Y-32031D01*
X82717Y-32221D01*
X82965Y-32324D01*
X83233Y-32325D01*
X83481Y-32222D01*
X83634Y-32070D01*
X83671Y-32062D01*
X83671Y-32062D01*
X83815Y-31965D01*
X84153Y-31627D01*
X84218Y-31627D01*
X85640Y-31627D01*
X85750Y-31627D01*
X85859Y-31627D01*
X86030Y-31593D01*
X86175Y-31497D01*
X86271Y-31352D01*
X86305Y-31181D01*
X86271Y-31010D01*
X86175Y-30865D01*
X86058Y-30787D01*
X86175Y-30709D01*
X86271Y-30564D01*
X86305Y-30393D01*
X86271Y-30222D01*
X86175Y-30077D01*
X86058Y-30000D01*
X86175Y-29922D01*
X86271Y-29777D01*
X86305Y-29606D01*
X86271Y-29435D01*
X86175Y-29290D01*
X86058Y-29212D01*
X86175Y-29134D01*
X86271Y-28989D01*
X86305Y-28818D01*
X86271Y-28647D01*
X86175Y-28502D01*
X86030Y-28406D01*
X85915Y-28383D01*
X85865Y-28334D01*
X85721Y-28237D01*
X85550Y-28203D01*
X83847Y-28203D01*
X83847Y-25104D01*
X83838Y-24848D01*
X83758Y-24655D01*
X83653Y-24617D01*
X83582Y-24687D01*
X83582Y-24546D01*
X83544Y-24441D01*
X83304Y-24352D01*
X83048Y-24361D01*
X82855Y-24441D01*
X82817Y-24546D01*
X83200Y-24929D01*
X83582Y-24546D01*
X83582Y-24687D01*
X83270Y-25000D01*
X83653Y-25382D01*
X83758Y-25344D01*
X83847Y-25104D01*
X83847Y-28203D01*
X83836Y-28203D01*
X83836Y-27104D01*
X83827Y-26848D01*
X83747Y-26655D01*
X83642Y-26617D01*
X83582Y-26676D01*
X83582Y-25453D01*
X83200Y-25070D01*
X83129Y-25141D01*
X83129Y-25000D01*
X82746Y-24617D01*
X82641Y-24655D01*
X82552Y-24895D01*
X82561Y-25151D01*
X82641Y-25344D01*
X82746Y-25382D01*
X83129Y-25000D01*
X83129Y-25141D01*
X82817Y-25453D01*
X82855Y-25558D01*
X83095Y-25647D01*
X83351Y-25638D01*
X83544Y-25558D01*
X83582Y-25453D01*
X83582Y-26676D01*
X83571Y-26687D01*
X83571Y-26546D01*
X83533Y-26441D01*
X83293Y-26352D01*
X83037Y-26361D01*
X82844Y-26441D01*
X82806Y-26546D01*
X83188Y-26929D01*
X83571Y-26546D01*
X83571Y-26687D01*
X83259Y-27000D01*
X83642Y-27382D01*
X83747Y-27344D01*
X83836Y-27104D01*
X83836Y-28203D01*
X83775Y-28203D01*
X83775Y-28175D01*
X83737Y-28083D01*
X83666Y-28013D01*
X83574Y-27975D01*
X83571Y-27975D01*
X83571Y-27453D01*
X83188Y-27070D01*
X83118Y-27141D01*
X83118Y-27000D01*
X82735Y-26617D01*
X82630Y-26655D01*
X82541Y-26895D01*
X82550Y-27151D01*
X82630Y-27344D01*
X82735Y-27382D01*
X83118Y-27000D01*
X83118Y-27141D01*
X82806Y-27453D01*
X82844Y-27558D01*
X83084Y-27647D01*
X83340Y-27638D01*
X83533Y-27558D01*
X83571Y-27453D01*
X83571Y-27975D01*
X83475Y-27974D01*
X82625Y-27974D01*
X82533Y-28012D01*
X82463Y-28083D01*
X82450Y-28114D01*
X82450Y-22850D01*
X82451Y-22850D01*
X82451Y-22746D01*
X83240Y-22746D01*
X83083Y-22903D01*
X82950Y-23225D01*
X82949Y-23573D01*
X83082Y-23895D01*
X83328Y-24141D01*
X83650Y-24274D01*
X83998Y-24275D01*
X84320Y-24142D01*
X84566Y-23896D01*
X84699Y-23574D01*
X84700Y-23226D01*
X84567Y-22905D01*
X84409Y-22746D01*
X97577Y-22746D01*
X97652Y-22821D01*
X97614Y-22858D01*
X97550Y-23015D01*
X97549Y-23184D01*
X97614Y-23340D01*
X97733Y-23460D01*
X97890Y-23524D01*
X97922Y-23524D01*
X97922Y-24093D01*
X97754Y-24261D01*
X97380Y-24261D01*
X97200Y-24441D01*
X97200Y-24801D01*
X96998Y-24801D01*
X96920Y-24816D01*
X96920Y-24793D01*
X97000Y-24760D01*
X97120Y-24641D01*
X97184Y-24484D01*
X97185Y-24315D01*
X97120Y-24159D01*
X97001Y-24039D01*
X96844Y-23975D01*
X96675Y-23974D01*
X96519Y-24039D01*
X96399Y-24158D01*
X96335Y-24315D01*
X96335Y-24380D01*
X95348Y-24380D01*
X95340Y-24359D01*
X95221Y-24239D01*
X95064Y-24175D01*
X94895Y-24174D01*
X94739Y-24239D01*
X94619Y-24358D01*
X94555Y-24515D01*
X94554Y-24684D01*
X94580Y-24745D01*
X94541Y-24753D01*
X94428Y-24828D01*
X94428Y-24828D01*
X94182Y-25074D01*
X94165Y-25074D01*
X94009Y-25139D01*
X93889Y-25258D01*
X93825Y-25415D01*
X93824Y-25584D01*
X93889Y-25740D01*
X94008Y-25860D01*
X94165Y-25924D01*
X94334Y-25925D01*
X94490Y-25860D01*
X94531Y-25819D01*
X94539Y-25840D01*
X94658Y-25960D01*
X94815Y-26024D01*
X94984Y-26025D01*
X95140Y-25960D01*
X95252Y-25848D01*
X95547Y-25848D01*
X95558Y-25860D01*
X95715Y-25924D01*
X95884Y-25925D01*
X96040Y-25860D01*
X96160Y-25741D01*
X96224Y-25584D01*
X96225Y-25415D01*
X96198Y-25352D01*
X96285Y-25266D01*
X96320Y-25181D01*
X96320Y-25960D01*
X96342Y-26074D01*
X96407Y-26172D01*
X97097Y-26861D01*
X97019Y-26938D01*
X96955Y-27095D01*
X96955Y-27174D01*
X96855Y-27154D01*
X96800Y-27154D01*
X96500Y-27154D01*
X96400Y-27154D01*
X96191Y-27196D01*
X96014Y-27314D01*
X95134Y-28194D01*
X95134Y-28194D01*
X95104Y-28214D01*
X94699Y-28619D01*
X94581Y-28796D01*
X94539Y-29005D01*
X94581Y-29213D01*
X94699Y-29390D01*
X94876Y-29508D01*
X95085Y-29550D01*
X95293Y-29508D01*
X95470Y-29390D01*
X95855Y-29005D01*
X95855Y-29005D01*
X95885Y-28985D01*
X96625Y-28245D01*
X96800Y-28245D01*
X96855Y-28245D01*
X97064Y-28203D01*
X97080Y-28193D01*
X97080Y-28320D01*
X97080Y-28358D01*
X97019Y-28418D01*
X96955Y-28575D01*
X96954Y-28744D01*
X97019Y-28900D01*
X97138Y-29020D01*
X97295Y-29084D01*
X97464Y-29085D01*
X97500Y-29070D01*
X97500Y-29329D01*
X97278Y-29551D01*
X96998Y-29551D01*
X96919Y-29566D01*
X96767Y-29566D01*
X96675Y-29604D01*
X96605Y-29675D01*
X96566Y-29766D01*
X96566Y-29866D01*
X96566Y-29919D01*
X96551Y-29998D01*
X96551Y-30501D01*
X96566Y-30580D01*
X96566Y-30732D01*
X96604Y-30824D01*
X96675Y-30894D01*
X96766Y-30933D01*
X96866Y-30933D01*
X96919Y-30933D01*
X96998Y-30948D01*
X97200Y-30948D01*
X97200Y-31520D01*
X97729Y-32050D01*
X99270Y-32050D01*
X99370Y-31950D01*
X100171Y-31950D01*
X100300Y-32003D01*
X100556Y-32003D01*
X100686Y-31950D01*
X102982Y-31950D01*
X103111Y-32003D01*
X103367Y-32003D01*
X103604Y-31905D01*
X103785Y-31724D01*
X103883Y-31488D01*
X103883Y-31232D01*
X103785Y-30995D01*
X103604Y-30814D01*
X103570Y-30800D01*
X104125Y-30245D01*
X105770Y-30245D01*
X105770Y-30246D01*
X106174Y-30246D01*
X106174Y-30274D01*
X106212Y-30366D01*
X106283Y-30436D01*
X106375Y-30474D01*
X106474Y-30475D01*
X107124Y-30475D01*
X107216Y-30437D01*
X107286Y-30366D01*
X107324Y-30274D01*
X107324Y-30246D01*
X107353Y-30246D01*
X107452Y-30344D01*
X107645Y-30424D01*
X107853Y-30425D01*
X108047Y-30345D01*
X108146Y-30246D01*
X108550Y-30246D01*
X108550Y-30750D01*
X110625Y-30750D01*
X110787Y-30912D01*
X110885Y-30977D01*
X111000Y-31000D01*
X111955Y-31000D01*
X112448Y-31493D01*
X112448Y-31493D01*
X112546Y-31558D01*
X112572Y-31563D01*
X112572Y-31563D01*
X112624Y-31615D01*
X112799Y-31790D01*
X115450Y-31790D01*
X115450Y-33679D01*
X115450Y-33679D01*
G37*
G54D37*
X115450Y-33679D02*
X115321Y-33808D01*
X114152Y-33808D01*
X113950Y-34010D01*
X113950Y-38891D01*
X113939Y-38915D01*
X113885Y-38783D01*
X113737Y-38635D01*
X113544Y-38555D01*
X113336Y-38554D01*
X113143Y-38634D01*
X112995Y-38782D01*
X112939Y-38915D01*
X112885Y-38783D01*
X112737Y-38635D01*
X112544Y-38555D01*
X112336Y-38554D01*
X112143Y-38634D01*
X111995Y-38782D01*
X111942Y-38908D01*
X111900Y-38807D01*
X111807Y-38782D01*
X111737Y-38853D01*
X111737Y-38712D01*
X111712Y-38619D01*
X111515Y-38550D01*
X111307Y-38561D01*
X111167Y-38619D01*
X111142Y-38712D01*
X111440Y-39009D01*
X111737Y-38712D01*
X111737Y-38853D01*
X111510Y-39080D01*
X111807Y-39377D01*
X111900Y-39352D01*
X111939Y-39242D01*
X111994Y-39377D01*
X112142Y-39524D01*
X112335Y-39604D01*
X112543Y-39605D01*
X112737Y-39525D01*
X112884Y-39377D01*
X112940Y-39244D01*
X112994Y-39377D01*
X113142Y-39524D01*
X113335Y-39604D01*
X113543Y-39605D01*
X113737Y-39525D01*
X113884Y-39377D01*
X113940Y-39244D01*
X113950Y-39268D01*
X113950Y-46879D01*
X113464Y-47364D01*
X113375Y-47454D01*
X113375Y-45586D01*
X113287Y-45374D01*
X113126Y-45212D01*
X112914Y-45125D01*
X112761Y-45124D01*
X112761Y-42999D01*
X112646Y-42719D01*
X112432Y-42504D01*
X112152Y-42388D01*
X111849Y-42388D01*
X111737Y-42434D01*
X111737Y-39447D01*
X111440Y-39150D01*
X111369Y-39221D01*
X111369Y-39080D01*
X111072Y-38782D01*
X110979Y-38807D01*
X110940Y-38917D01*
X110885Y-38783D01*
X110737Y-38635D01*
X110544Y-38555D01*
X110336Y-38554D01*
X110267Y-38583D01*
X110267Y-35384D01*
X110203Y-35228D01*
X110083Y-35108D01*
X109927Y-35043D01*
X109758Y-35043D01*
X109602Y-35107D01*
X109482Y-35227D01*
X109417Y-35383D01*
X109417Y-35476D01*
X109352Y-35476D01*
X109196Y-35541D01*
X109135Y-35601D01*
X108210Y-35601D01*
X108146Y-35537D01*
X107990Y-35472D01*
X107821Y-35472D01*
X107665Y-35537D01*
X107545Y-35656D01*
X107480Y-35812D01*
X107480Y-35981D01*
X107545Y-36138D01*
X107548Y-36141D01*
X107545Y-36144D01*
X107480Y-36300D01*
X107480Y-36469D01*
X107545Y-36626D01*
X107664Y-36745D01*
X107820Y-36810D01*
X107989Y-36810D01*
X108145Y-36746D01*
X108265Y-36626D01*
X108283Y-36583D01*
X109574Y-36583D01*
X109574Y-36583D01*
X109689Y-36560D01*
X109689Y-36560D01*
X109786Y-36495D01*
X110054Y-36227D01*
X110054Y-36227D01*
X110119Y-36130D01*
X110142Y-36015D01*
X110142Y-36015D01*
X110142Y-35769D01*
X110202Y-35709D01*
X110267Y-35553D01*
X110267Y-35384D01*
X110267Y-38583D01*
X110143Y-38634D01*
X109995Y-38782D01*
X109939Y-38915D01*
X109885Y-38783D01*
X109737Y-38635D01*
X109544Y-38555D01*
X109336Y-38554D01*
X109143Y-38634D01*
X108995Y-38782D01*
X108939Y-38915D01*
X108885Y-38783D01*
X108737Y-38635D01*
X108544Y-38555D01*
X108336Y-38554D01*
X108143Y-38634D01*
X107995Y-38782D01*
X107926Y-38948D01*
X107857Y-38783D01*
X107710Y-38635D01*
X107517Y-38555D01*
X107308Y-38554D01*
X107115Y-38634D01*
X106967Y-38782D01*
X106887Y-38975D01*
X106887Y-39183D01*
X106967Y-39377D01*
X107114Y-39524D01*
X107307Y-39604D01*
X107516Y-39605D01*
X107709Y-39525D01*
X107857Y-39377D01*
X107926Y-39211D01*
X107994Y-39377D01*
X108142Y-39524D01*
X108335Y-39604D01*
X108543Y-39605D01*
X108737Y-39525D01*
X108884Y-39377D01*
X108940Y-39244D01*
X108994Y-39377D01*
X109142Y-39524D01*
X109335Y-39604D01*
X109543Y-39605D01*
X109737Y-39525D01*
X109884Y-39377D01*
X109940Y-39244D01*
X109994Y-39377D01*
X110142Y-39524D01*
X110335Y-39604D01*
X110543Y-39605D01*
X110737Y-39525D01*
X110884Y-39377D01*
X110937Y-39251D01*
X110979Y-39352D01*
X111072Y-39377D01*
X111369Y-39080D01*
X111369Y-39221D01*
X111142Y-39447D01*
X111167Y-39540D01*
X111364Y-39609D01*
X111572Y-39598D01*
X111712Y-39540D01*
X111737Y-39447D01*
X111737Y-42434D01*
X111569Y-42503D01*
X111354Y-42717D01*
X111238Y-42997D01*
X111238Y-43300D01*
X111353Y-43580D01*
X111567Y-43795D01*
X111847Y-43911D01*
X112150Y-43911D01*
X112430Y-43796D01*
X112645Y-43582D01*
X112761Y-43302D01*
X112761Y-42999D01*
X112761Y-45124D01*
X112686Y-45124D01*
X112474Y-45212D01*
X112360Y-45326D01*
X112204Y-45170D01*
X111974Y-45075D01*
X111726Y-45074D01*
X111496Y-45169D01*
X111320Y-45345D01*
X111225Y-45575D01*
X111224Y-45823D01*
X111319Y-46053D01*
X111340Y-46074D01*
X111308Y-46088D01*
X111237Y-46158D01*
X111199Y-46250D01*
X111200Y-46587D01*
X111262Y-46650D01*
X111800Y-46650D01*
X111800Y-46642D01*
X111900Y-46642D01*
X111900Y-46650D01*
X112287Y-46650D01*
X112437Y-46650D01*
X112750Y-46650D01*
X112750Y-46642D01*
X112850Y-46642D01*
X112850Y-46650D01*
X113312Y-46650D01*
X113375Y-46587D01*
X113375Y-46325D01*
X113337Y-46233D01*
X113266Y-46163D01*
X113184Y-46128D01*
X113287Y-46026D01*
X113374Y-45814D01*
X113375Y-45586D01*
X113375Y-47454D01*
X113375Y-47454D01*
X113375Y-47074D01*
X113375Y-46812D01*
X113312Y-46750D01*
X112850Y-46750D01*
X112850Y-47212D01*
X112912Y-47275D01*
X113075Y-47275D01*
X113174Y-47274D01*
X113266Y-47236D01*
X113337Y-47166D01*
X113375Y-47074D01*
X113375Y-47454D01*
X113279Y-47550D01*
X112750Y-47550D01*
X112750Y-47212D01*
X112750Y-46750D01*
X112437Y-46750D01*
X112287Y-46750D01*
X111900Y-46750D01*
X111900Y-47287D01*
X111962Y-47350D01*
X112200Y-47350D01*
X112299Y-47349D01*
X112391Y-47311D01*
X112428Y-47274D01*
X112524Y-47275D01*
X112687Y-47275D01*
X112750Y-47212D01*
X112750Y-47550D01*
X111800Y-47550D01*
X111800Y-47287D01*
X111800Y-46750D01*
X111262Y-46750D01*
X111200Y-46812D01*
X111199Y-47149D01*
X111237Y-47241D01*
X111308Y-47311D01*
X111400Y-47349D01*
X111499Y-47350D01*
X111737Y-47350D01*
X111800Y-47287D01*
X111800Y-47550D01*
X110620Y-47550D01*
X110435Y-47364D01*
X110250Y-47179D01*
X110250Y-46979D01*
X110120Y-46850D01*
X109851Y-46850D01*
X109791Y-46789D01*
X109651Y-46732D01*
X109651Y-43030D01*
X109559Y-42808D01*
X109390Y-42637D01*
X109167Y-42545D01*
X108927Y-42545D01*
X108705Y-42637D01*
X108535Y-42807D01*
X108443Y-43029D01*
X108442Y-43269D01*
X108534Y-43491D01*
X108704Y-43662D01*
X108926Y-43754D01*
X109166Y-43754D01*
X109389Y-43662D01*
X109559Y-43492D01*
X109651Y-43270D01*
X109651Y-43030D01*
X109651Y-46732D01*
X109634Y-46725D01*
X109465Y-46724D01*
X109309Y-46789D01*
X109301Y-46797D01*
X107645Y-46797D01*
X107600Y-46797D01*
X107430Y-46797D01*
X107515Y-46711D01*
X107599Y-46509D01*
X107600Y-46291D01*
X107600Y-42291D01*
X107516Y-42088D01*
X107361Y-41934D01*
X107159Y-41850D01*
X106941Y-41849D01*
X106738Y-41933D01*
X106700Y-41972D01*
X106700Y-40320D01*
X106700Y-35929D01*
X105925Y-35154D01*
X105925Y-32435D01*
X105897Y-32369D01*
X105897Y-31662D01*
X105904Y-31644D01*
X105905Y-31475D01*
X105840Y-31319D01*
X105721Y-31199D01*
X105564Y-31135D01*
X105395Y-31134D01*
X105239Y-31199D01*
X105119Y-31318D01*
X105055Y-31475D01*
X105054Y-31644D01*
X105102Y-31758D01*
X105102Y-32369D01*
X105075Y-32435D01*
X105074Y-32604D01*
X105139Y-32760D01*
X105258Y-32880D01*
X105415Y-32944D01*
X105584Y-32945D01*
X105740Y-32880D01*
X105860Y-32761D01*
X105924Y-32604D01*
X105925Y-32435D01*
X105925Y-35154D01*
X105355Y-34584D01*
X105379Y-34559D01*
X105444Y-34403D01*
X105444Y-34234D01*
X105380Y-34078D01*
X105260Y-33958D01*
X105104Y-33893D01*
X104935Y-33893D01*
X104779Y-33958D01*
X104738Y-33999D01*
X103171Y-33999D01*
X103111Y-33939D01*
X102954Y-33874D01*
X102785Y-33874D01*
X102629Y-33938D01*
X102509Y-34058D01*
X102445Y-34214D01*
X102445Y-34300D01*
X102029Y-34300D01*
X101350Y-34979D01*
X101350Y-35702D01*
X101259Y-35739D01*
X101139Y-35858D01*
X101082Y-35996D01*
X100524Y-36554D01*
X100515Y-36554D01*
X100359Y-36619D01*
X100239Y-36738D01*
X100175Y-36895D01*
X100175Y-36904D01*
X100150Y-36929D01*
X100150Y-36979D01*
X99750Y-37379D01*
X99750Y-38120D01*
X100079Y-38450D01*
X101546Y-38450D01*
X101554Y-38457D01*
X101590Y-38457D01*
X101590Y-38557D01*
X101554Y-38557D01*
X101492Y-38620D01*
X101492Y-38724D01*
X101506Y-38759D01*
X101492Y-38794D01*
X101492Y-38899D01*
X101554Y-38961D01*
X101671Y-38961D01*
X101771Y-39061D01*
X101554Y-39061D01*
X101492Y-39124D01*
X101492Y-39228D01*
X101530Y-39320D01*
X101600Y-39390D01*
X101692Y-39429D01*
X101791Y-39429D01*
X101796Y-39429D01*
X101859Y-39366D01*
X101859Y-39150D01*
X101959Y-39250D01*
X101959Y-39366D01*
X102021Y-39429D01*
X102027Y-39429D01*
X102126Y-39429D01*
X102161Y-39414D01*
X102196Y-39429D01*
X102295Y-39429D01*
X102300Y-39429D01*
X102363Y-39366D01*
X102363Y-39330D01*
X102463Y-39330D01*
X102463Y-39366D01*
X102525Y-39429D01*
X102531Y-39429D01*
X102630Y-39429D01*
X102650Y-39420D01*
X102679Y-39450D01*
X102879Y-39450D01*
X103029Y-39600D01*
X103962Y-39600D01*
X103989Y-39665D01*
X104109Y-39785D01*
X104265Y-39850D01*
X104434Y-39850D01*
X104590Y-39785D01*
X104710Y-39666D01*
X104720Y-39641D01*
X104842Y-39763D01*
X104842Y-39847D01*
X104907Y-40004D01*
X105026Y-40123D01*
X105182Y-40188D01*
X105351Y-40188D01*
X105450Y-40148D01*
X105449Y-40358D01*
X105533Y-40561D01*
X105688Y-40715D01*
X105890Y-40799D01*
X106108Y-40800D01*
X106311Y-40716D01*
X106465Y-40561D01*
X106471Y-40549D01*
X106700Y-40320D01*
X106700Y-41972D01*
X106584Y-42088D01*
X106500Y-42290D01*
X106499Y-42508D01*
X106583Y-42711D01*
X106700Y-42827D01*
X106738Y-42865D01*
X106940Y-42949D01*
X107158Y-42950D01*
X107361Y-42866D01*
X107515Y-42711D01*
X107599Y-42509D01*
X107600Y-42291D01*
X107600Y-46291D01*
X107516Y-46088D01*
X107361Y-45934D01*
X107159Y-45850D01*
X106941Y-45849D01*
X106738Y-45933D01*
X106700Y-45972D01*
X106584Y-46088D01*
X106500Y-46290D01*
X106499Y-46508D01*
X106583Y-46711D01*
X106669Y-46797D01*
X103381Y-46797D01*
X103381Y-41313D01*
X103317Y-41157D01*
X103197Y-41037D01*
X103041Y-40972D01*
X102872Y-40972D01*
X102716Y-41037D01*
X102655Y-41097D01*
X102257Y-41097D01*
X102299Y-40994D01*
X102300Y-40825D01*
X102235Y-40669D01*
X102151Y-40585D01*
X102160Y-40576D01*
X102198Y-40592D01*
X102367Y-40592D01*
X102523Y-40527D01*
X102643Y-40408D01*
X102708Y-40252D01*
X102708Y-40083D01*
X102643Y-39926D01*
X102524Y-39807D01*
X102368Y-39742D01*
X102199Y-39742D01*
X102043Y-39806D01*
X101923Y-39926D01*
X101895Y-39993D01*
X101499Y-40388D01*
X100433Y-40388D01*
X100318Y-40411D01*
X100220Y-40476D01*
X100187Y-40510D01*
X100102Y-40509D01*
X99946Y-40574D01*
X99826Y-40693D01*
X99786Y-40791D01*
X99643Y-40732D01*
X99474Y-40732D01*
X99318Y-40796D01*
X99306Y-40808D01*
X99306Y-39655D01*
X99242Y-39499D01*
X99122Y-39380D01*
X98966Y-39315D01*
X98881Y-39315D01*
X98306Y-38740D01*
X98306Y-38577D01*
X98242Y-38420D01*
X98122Y-38301D01*
X97966Y-38236D01*
X97797Y-38236D01*
X97675Y-38287D01*
X97675Y-36386D01*
X97587Y-36174D01*
X97426Y-36012D01*
X97214Y-35925D01*
X96986Y-35924D01*
X96774Y-36012D01*
X96612Y-36173D01*
X96602Y-36198D01*
X96601Y-36197D01*
X96504Y-36166D01*
X96497Y-36173D01*
X96497Y-31050D01*
X96497Y-31050D01*
X96497Y-31050D01*
X96497Y-30300D01*
X96467Y-30147D01*
X96467Y-30147D01*
X96381Y-30018D01*
X96287Y-29925D01*
X96260Y-29859D01*
X96141Y-29739D01*
X95984Y-29675D01*
X95815Y-29674D01*
X95659Y-29739D01*
X95539Y-29858D01*
X95475Y-30015D01*
X95474Y-30184D01*
X95539Y-30340D01*
X95573Y-30374D01*
X95565Y-30374D01*
X95409Y-30439D01*
X95289Y-30558D01*
X95262Y-30625D01*
X94012Y-31874D01*
X93965Y-31874D01*
X93809Y-31939D01*
X93689Y-32058D01*
X93625Y-32215D01*
X93624Y-32384D01*
X93689Y-32540D01*
X93808Y-32660D01*
X93965Y-32724D01*
X94074Y-32725D01*
X94074Y-32734D01*
X94139Y-32890D01*
X94258Y-33010D01*
X94415Y-33074D01*
X94584Y-33075D01*
X94740Y-33010D01*
X94860Y-32891D01*
X94887Y-32824D01*
X96381Y-31331D01*
X96381Y-31331D01*
X96381Y-31331D01*
X96467Y-31202D01*
X96467Y-31202D01*
X96491Y-31080D01*
X96497Y-31050D01*
X96497Y-36173D01*
X96433Y-36237D01*
X96433Y-36095D01*
X96402Y-35998D01*
X96187Y-35920D01*
X95959Y-35930D01*
X95797Y-35998D01*
X95766Y-36095D01*
X96100Y-36429D01*
X96433Y-36095D01*
X96433Y-36237D01*
X96170Y-36500D01*
X96504Y-36833D01*
X96601Y-36802D01*
X96602Y-36801D01*
X96612Y-36825D01*
X96773Y-36987D01*
X96985Y-37074D01*
X97213Y-37075D01*
X97425Y-36987D01*
X97587Y-36826D01*
X97674Y-36614D01*
X97675Y-36386D01*
X97675Y-38287D01*
X97641Y-38300D01*
X97521Y-38420D01*
X97456Y-38576D01*
X97456Y-38745D01*
X97521Y-38901D01*
X97640Y-39021D01*
X97796Y-39086D01*
X97803Y-39086D01*
X98456Y-39739D01*
X98456Y-39824D01*
X98521Y-39980D01*
X98640Y-40100D01*
X98796Y-40165D01*
X98966Y-40165D01*
X99122Y-40100D01*
X99241Y-39981D01*
X99306Y-39825D01*
X99306Y-39655D01*
X99306Y-40808D01*
X99198Y-40916D01*
X99134Y-41072D01*
X99133Y-41241D01*
X99198Y-41397D01*
X99317Y-41517D01*
X99474Y-41582D01*
X99559Y-41582D01*
X99831Y-41853D01*
X99831Y-41853D01*
X99928Y-41918D01*
X100043Y-41941D01*
X100692Y-41941D01*
X100692Y-41941D01*
X100807Y-41918D01*
X100807Y-41918D01*
X100905Y-41853D01*
X101061Y-41697D01*
X102655Y-41697D01*
X102715Y-41757D01*
X102871Y-41822D01*
X103040Y-41822D01*
X103197Y-41758D01*
X103316Y-41638D01*
X103381Y-41482D01*
X103381Y-41313D01*
X103381Y-46797D01*
X99942Y-46797D01*
X99942Y-45378D01*
X99878Y-45222D01*
X99817Y-45161D01*
X99817Y-44356D01*
X99877Y-44296D01*
X99942Y-44140D01*
X99942Y-43970D01*
X99878Y-43814D01*
X99758Y-43695D01*
X99602Y-43630D01*
X99433Y-43630D01*
X99277Y-43694D01*
X99157Y-43814D01*
X99092Y-43970D01*
X99092Y-44139D01*
X99157Y-44295D01*
X99217Y-44356D01*
X99217Y-45161D01*
X99157Y-45221D01*
X99092Y-45377D01*
X99092Y-45546D01*
X99157Y-45703D01*
X99276Y-45822D01*
X99432Y-45887D01*
X99601Y-45887D01*
X99758Y-45823D01*
X99877Y-45703D01*
X99942Y-45547D01*
X99942Y-45378D01*
X99942Y-46797D01*
X97952Y-46797D01*
X97952Y-46183D01*
X97888Y-46027D01*
X97768Y-45907D01*
X97612Y-45842D01*
X97526Y-45842D01*
X96924Y-45240D01*
X96901Y-45224D01*
X96895Y-45212D01*
X96776Y-45092D01*
X96620Y-45027D01*
X96451Y-45027D01*
X96433Y-45035D01*
X96433Y-36904D01*
X96100Y-36570D01*
X96029Y-36641D01*
X96029Y-36500D01*
X95695Y-36166D01*
X95680Y-36171D01*
X95680Y-33535D01*
X95669Y-33327D01*
X95611Y-33186D01*
X95518Y-33162D01*
X95447Y-33233D01*
X95447Y-33091D01*
X95423Y-32998D01*
X95225Y-32929D01*
X95017Y-32940D01*
X94876Y-32998D01*
X94852Y-33091D01*
X95150Y-33389D01*
X95447Y-33091D01*
X95447Y-33233D01*
X95220Y-33460D01*
X95518Y-33757D01*
X95611Y-33733D01*
X95680Y-33535D01*
X95680Y-36171D01*
X95675Y-36172D01*
X95675Y-34355D01*
X95595Y-34162D01*
X95448Y-34014D01*
X95322Y-33962D01*
X95423Y-33921D01*
X95447Y-33828D01*
X95150Y-33530D01*
X95144Y-33536D01*
X95073Y-33465D01*
X95079Y-33460D01*
X94781Y-33162D01*
X94688Y-33186D01*
X94619Y-33384D01*
X94622Y-33434D01*
X94545Y-33434D01*
X94352Y-33514D01*
X94204Y-33661D01*
X94124Y-33854D01*
X94124Y-34064D01*
X94204Y-34257D01*
X94351Y-34405D01*
X94544Y-34485D01*
X94624Y-34485D01*
X94624Y-34564D01*
X94704Y-34757D01*
X94851Y-34905D01*
X95044Y-34985D01*
X95254Y-34985D01*
X95447Y-34905D01*
X95595Y-34758D01*
X95675Y-34565D01*
X95675Y-34355D01*
X95675Y-36172D01*
X95675Y-36173D01*
X95675Y-36125D01*
X95637Y-36033D01*
X95566Y-35963D01*
X95474Y-35925D01*
X95375Y-35924D01*
X94725Y-35924D01*
X94633Y-35962D01*
X94563Y-36033D01*
X94525Y-36125D01*
X94524Y-36224D01*
X94524Y-36874D01*
X94562Y-36966D01*
X94633Y-37036D01*
X94725Y-37074D01*
X94824Y-37075D01*
X95474Y-37075D01*
X95566Y-37037D01*
X95636Y-36966D01*
X95674Y-36874D01*
X95674Y-36826D01*
X95695Y-36833D01*
X96029Y-36500D01*
X96029Y-36641D01*
X95766Y-36904D01*
X95797Y-37001D01*
X96012Y-37079D01*
X96240Y-37069D01*
X96402Y-37001D01*
X96433Y-36904D01*
X96433Y-45035D01*
X96425Y-45038D01*
X96425Y-39915D01*
X96360Y-39759D01*
X96241Y-39639D01*
X96084Y-39575D01*
X95915Y-39574D01*
X95759Y-39639D01*
X95639Y-39758D01*
X95575Y-39915D01*
X95575Y-39932D01*
X95355Y-40151D01*
X94700Y-40151D01*
X94566Y-40178D01*
X94453Y-40253D01*
X94453Y-40253D01*
X94355Y-40351D01*
X94324Y-40351D01*
X94325Y-40215D01*
X94260Y-40059D01*
X94248Y-40047D01*
X94248Y-39052D01*
X94260Y-39041D01*
X94324Y-38884D01*
X94325Y-38715D01*
X94260Y-38559D01*
X94141Y-38439D01*
X93984Y-38375D01*
X93925Y-38375D01*
X93925Y-34235D01*
X93860Y-34079D01*
X93741Y-33959D01*
X93584Y-33895D01*
X93499Y-33894D01*
X92844Y-33240D01*
X92845Y-33155D01*
X92780Y-32999D01*
X92661Y-32879D01*
X92504Y-32815D01*
X92335Y-32814D01*
X92179Y-32879D01*
X92059Y-32998D01*
X91995Y-33155D01*
X91994Y-33324D01*
X92059Y-33480D01*
X92178Y-33600D01*
X92335Y-33664D01*
X92420Y-33665D01*
X93075Y-34319D01*
X93074Y-34404D01*
X93139Y-34560D01*
X93258Y-34680D01*
X93415Y-34744D01*
X93584Y-34745D01*
X93740Y-34680D01*
X93860Y-34561D01*
X93924Y-34404D01*
X93925Y-34235D01*
X93925Y-38375D01*
X93815Y-38374D01*
X93659Y-38439D01*
X93539Y-38558D01*
X93475Y-38715D01*
X93474Y-38884D01*
X93539Y-39040D01*
X93551Y-39052D01*
X93551Y-40047D01*
X93539Y-40058D01*
X93475Y-40215D01*
X93474Y-40384D01*
X93515Y-40483D01*
X93439Y-40558D01*
X93375Y-40715D01*
X93374Y-40884D01*
X93439Y-41040D01*
X93558Y-41160D01*
X93715Y-41224D01*
X93884Y-41225D01*
X94040Y-41160D01*
X94152Y-41048D01*
X94499Y-41048D01*
X94500Y-41048D01*
X94500Y-41048D01*
X94611Y-41026D01*
X94633Y-41021D01*
X94633Y-41021D01*
X94746Y-40946D01*
X94844Y-40848D01*
X95499Y-40848D01*
X95500Y-40848D01*
X95500Y-40848D01*
X95611Y-40826D01*
X95633Y-40821D01*
X95633Y-40821D01*
X95746Y-40746D01*
X96067Y-40425D01*
X96084Y-40425D01*
X96240Y-40360D01*
X96360Y-40241D01*
X96424Y-40084D01*
X96425Y-39915D01*
X96425Y-45038D01*
X96295Y-45092D01*
X96175Y-45211D01*
X96110Y-45367D01*
X96110Y-45536D01*
X96174Y-45693D01*
X96294Y-45812D01*
X96450Y-45877D01*
X96619Y-45877D01*
X96685Y-45850D01*
X97102Y-46266D01*
X97102Y-46351D01*
X97167Y-46508D01*
X97286Y-46627D01*
X97442Y-46692D01*
X97611Y-46692D01*
X97767Y-46628D01*
X97887Y-46508D01*
X97952Y-46352D01*
X97952Y-46183D01*
X97952Y-46797D01*
X93704Y-46797D01*
X93704Y-46431D01*
X93700Y-46338D01*
X93700Y-42241D01*
X93616Y-42038D01*
X93461Y-41884D01*
X93259Y-41800D01*
X93041Y-41799D01*
X92838Y-41883D01*
X92684Y-42038D01*
X92600Y-42240D01*
X92599Y-42458D01*
X92683Y-42661D01*
X92838Y-42815D01*
X93040Y-42899D01*
X93258Y-42900D01*
X93461Y-42816D01*
X93615Y-42661D01*
X93699Y-42459D01*
X93700Y-42241D01*
X93700Y-46338D01*
X93693Y-46213D01*
X93631Y-46062D01*
X93535Y-46034D01*
X93465Y-46105D01*
X93465Y-45964D01*
X93437Y-45868D01*
X93231Y-45795D01*
X93013Y-45806D01*
X92862Y-45868D01*
X92834Y-45964D01*
X93150Y-46279D01*
X93465Y-45964D01*
X93465Y-46105D01*
X93220Y-46350D01*
X93535Y-46665D01*
X93631Y-46637D01*
X93704Y-46431D01*
X93704Y-46797D01*
X93447Y-46797D01*
X93465Y-46735D01*
X93150Y-46420D01*
X93079Y-46491D01*
X93079Y-46350D01*
X92764Y-46034D01*
X92668Y-46062D01*
X92595Y-46268D01*
X92606Y-46486D01*
X92668Y-46637D01*
X92764Y-46665D01*
X93079Y-46350D01*
X93079Y-46491D01*
X92834Y-46735D01*
X92852Y-46797D01*
X92280Y-46797D01*
X92415Y-46661D01*
X92499Y-46459D01*
X92500Y-46241D01*
X92500Y-42241D01*
X92416Y-42038D01*
X92261Y-41884D01*
X92059Y-41800D01*
X91841Y-41799D01*
X91638Y-41883D01*
X91484Y-42038D01*
X91400Y-42240D01*
X91399Y-42458D01*
X91483Y-42661D01*
X91638Y-42815D01*
X91840Y-42899D01*
X92058Y-42900D01*
X92261Y-42816D01*
X92415Y-42661D01*
X92499Y-42459D01*
X92500Y-42241D01*
X92500Y-46241D01*
X92416Y-46038D01*
X92261Y-45884D01*
X92159Y-45841D01*
X92160Y-45841D01*
X92224Y-45684D01*
X92224Y-45667D01*
X92246Y-45646D01*
X92246Y-45646D01*
X92246Y-45646D01*
X92321Y-45533D01*
X92348Y-45400D01*
X92348Y-44952D01*
X92360Y-44941D01*
X92424Y-44784D01*
X92425Y-44615D01*
X92360Y-44459D01*
X92241Y-44339D01*
X92084Y-44275D01*
X91915Y-44274D01*
X91759Y-44339D01*
X91639Y-44458D01*
X91575Y-44615D01*
X91574Y-44784D01*
X91639Y-44940D01*
X91651Y-44952D01*
X91651Y-45201D01*
X91559Y-45239D01*
X91439Y-45358D01*
X91375Y-45515D01*
X91374Y-45684D01*
X91439Y-45840D01*
X91558Y-45960D01*
X91561Y-45961D01*
X91484Y-46038D01*
X91400Y-46240D01*
X91399Y-46458D01*
X91483Y-46661D01*
X91619Y-46797D01*
X91270Y-46797D01*
X91002Y-46529D01*
X91002Y-43134D01*
X91002Y-42915D01*
X90968Y-42744D01*
X90872Y-42599D01*
X90727Y-42503D01*
X90575Y-42472D01*
X90575Y-39186D01*
X90487Y-38974D01*
X90326Y-38812D01*
X90114Y-38725D01*
X89886Y-38724D01*
X89674Y-38812D01*
X89512Y-38973D01*
X89425Y-39185D01*
X89424Y-39413D01*
X89512Y-39625D01*
X89615Y-39728D01*
X89533Y-39762D01*
X89463Y-39833D01*
X89425Y-39925D01*
X89424Y-40024D01*
X89424Y-40674D01*
X89462Y-40766D01*
X89533Y-40836D01*
X89625Y-40874D01*
X89724Y-40875D01*
X90374Y-40875D01*
X90466Y-40837D01*
X90536Y-40766D01*
X90574Y-40674D01*
X90575Y-40575D01*
X90575Y-39925D01*
X90537Y-39833D01*
X90466Y-39763D01*
X90384Y-39728D01*
X90487Y-39626D01*
X90574Y-39414D01*
X90575Y-39186D01*
X90575Y-42472D01*
X90556Y-42469D01*
X90385Y-42503D01*
X90240Y-42599D01*
X90162Y-42716D01*
X90084Y-42599D01*
X89939Y-42503D01*
X89768Y-42469D01*
X89597Y-42503D01*
X89452Y-42599D01*
X89375Y-42716D01*
X89297Y-42599D01*
X89152Y-42503D01*
X88981Y-42469D01*
X88810Y-42503D01*
X88665Y-42599D01*
X88588Y-42714D01*
X88497Y-42591D01*
X88393Y-42529D01*
X88393Y-36122D01*
X88393Y-32122D01*
X88393Y-28122D01*
X88393Y-24122D01*
X88295Y-23885D01*
X88114Y-23704D01*
X87878Y-23606D01*
X87622Y-23606D01*
X87385Y-23704D01*
X87204Y-23885D01*
X87106Y-24121D01*
X87106Y-24377D01*
X87204Y-24614D01*
X87385Y-24795D01*
X87621Y-24893D01*
X87877Y-24893D01*
X88114Y-24795D01*
X88295Y-24614D01*
X88393Y-24378D01*
X88393Y-24122D01*
X88393Y-28122D01*
X88295Y-27885D01*
X88114Y-27704D01*
X87878Y-27606D01*
X87622Y-27606D01*
X87385Y-27704D01*
X87204Y-27885D01*
X87106Y-28121D01*
X87106Y-28377D01*
X87204Y-28614D01*
X87385Y-28795D01*
X87621Y-28893D01*
X87877Y-28893D01*
X88114Y-28795D01*
X88295Y-28614D01*
X88393Y-28378D01*
X88393Y-28122D01*
X88393Y-32122D01*
X88295Y-31885D01*
X88225Y-31815D01*
X88225Y-30596D01*
X88145Y-30403D01*
X87997Y-30255D01*
X87925Y-30225D01*
X88024Y-30225D01*
X88116Y-30187D01*
X88186Y-30116D01*
X88224Y-30024D01*
X88225Y-29925D01*
X88225Y-29375D01*
X88187Y-29283D01*
X88116Y-29213D01*
X88024Y-29175D01*
X87925Y-29174D01*
X87375Y-29174D01*
X87283Y-29212D01*
X87213Y-29283D01*
X87175Y-29375D01*
X87174Y-29474D01*
X87174Y-30024D01*
X87212Y-30116D01*
X87283Y-30186D01*
X87375Y-30224D01*
X87474Y-30225D01*
X87474Y-30225D01*
X87403Y-30254D01*
X87255Y-30402D01*
X87175Y-30595D01*
X87174Y-30803D01*
X87254Y-30997D01*
X87402Y-31144D01*
X87595Y-31224D01*
X87803Y-31225D01*
X87997Y-31145D01*
X88144Y-30997D01*
X88224Y-30804D01*
X88225Y-30596D01*
X88225Y-31815D01*
X88114Y-31704D01*
X87878Y-31606D01*
X87622Y-31606D01*
X87385Y-31704D01*
X87204Y-31885D01*
X87106Y-32121D01*
X87106Y-32377D01*
X87204Y-32614D01*
X87385Y-32795D01*
X87621Y-32893D01*
X87877Y-32893D01*
X88114Y-32795D01*
X88295Y-32614D01*
X88393Y-32378D01*
X88393Y-32122D01*
X88393Y-36122D01*
X88295Y-35885D01*
X88114Y-35704D01*
X87878Y-35606D01*
X87622Y-35606D01*
X87385Y-35704D01*
X87204Y-35885D01*
X87106Y-36121D01*
X87106Y-36377D01*
X87204Y-36614D01*
X87385Y-36795D01*
X87621Y-36893D01*
X87877Y-36893D01*
X88114Y-36795D01*
X88295Y-36614D01*
X88393Y-36378D01*
X88393Y-36122D01*
X88393Y-42529D01*
X88345Y-42500D01*
X88312Y-42495D01*
X88243Y-42545D01*
X88243Y-42975D01*
X88251Y-42975D01*
X88251Y-43075D01*
X88243Y-43075D01*
X88243Y-43504D01*
X88312Y-43554D01*
X88345Y-43549D01*
X88497Y-43458D01*
X88588Y-43335D01*
X88665Y-43450D01*
X88810Y-43546D01*
X88981Y-43580D01*
X89152Y-43546D01*
X89297Y-43450D01*
X89375Y-43333D01*
X89452Y-43450D01*
X89597Y-43546D01*
X89768Y-43580D01*
X89939Y-43546D01*
X90084Y-43450D01*
X90162Y-43333D01*
X90240Y-43450D01*
X90385Y-43546D01*
X90556Y-43580D01*
X90727Y-43546D01*
X90872Y-43450D01*
X90968Y-43305D01*
X91002Y-43134D01*
X91002Y-46529D01*
X90883Y-46410D01*
X90883Y-46107D01*
X90895Y-46095D01*
X90960Y-45939D01*
X90960Y-45770D01*
X90895Y-45613D01*
X90776Y-45494D01*
X90620Y-45429D01*
X90451Y-45429D01*
X90295Y-45493D01*
X90175Y-45613D01*
X90110Y-45769D01*
X90110Y-45938D01*
X90174Y-46094D01*
X90187Y-46106D01*
X90187Y-46555D01*
X90187Y-46555D01*
X90209Y-46666D01*
X90213Y-46688D01*
X90289Y-46801D01*
X90337Y-46850D01*
X88143Y-46850D01*
X88143Y-43504D01*
X88143Y-43075D01*
X88143Y-42975D01*
X88143Y-42545D01*
X88075Y-42495D01*
X88041Y-42500D01*
X87890Y-42591D01*
X87785Y-42732D01*
X87742Y-42904D01*
X87806Y-42975D01*
X88143Y-42975D01*
X88143Y-43075D01*
X87806Y-43075D01*
X87742Y-43145D01*
X87785Y-43317D01*
X87890Y-43458D01*
X88041Y-43549D01*
X88075Y-43554D01*
X88143Y-43504D01*
X88143Y-46850D01*
X86743Y-46850D01*
X86743Y-35372D01*
X86704Y-35278D01*
X86704Y-33197D01*
X86654Y-33076D01*
X86654Y-24872D01*
X86556Y-24635D01*
X86376Y-24454D01*
X86139Y-24356D01*
X85883Y-24356D01*
X85646Y-24454D01*
X85465Y-24635D01*
X85367Y-24871D01*
X85367Y-25127D01*
X85465Y-25364D01*
X85646Y-25545D01*
X85882Y-25643D01*
X86138Y-25643D01*
X86375Y-25545D01*
X86556Y-25364D01*
X86654Y-25128D01*
X86654Y-24872D01*
X86654Y-33076D01*
X86643Y-33049D01*
X86643Y-26872D01*
X86545Y-26635D01*
X86364Y-26454D01*
X86128Y-26356D01*
X85872Y-26356D01*
X85635Y-26454D01*
X85454Y-26635D01*
X85356Y-26871D01*
X85356Y-27127D01*
X85454Y-27364D01*
X85635Y-27545D01*
X85871Y-27643D01*
X86127Y-27643D01*
X86364Y-27545D01*
X86545Y-27364D01*
X86643Y-27128D01*
X86643Y-26872D01*
X86643Y-33049D01*
X86606Y-32960D01*
X86426Y-32779D01*
X86189Y-32681D01*
X85933Y-32681D01*
X85696Y-32779D01*
X85515Y-32960D01*
X85417Y-33196D01*
X85417Y-33452D01*
X85515Y-33689D01*
X85696Y-33870D01*
X85932Y-33968D01*
X86188Y-33968D01*
X86425Y-33870D01*
X86606Y-33689D01*
X86704Y-33453D01*
X86704Y-33197D01*
X86704Y-35278D01*
X86645Y-35135D01*
X86464Y-34954D01*
X86228Y-34856D01*
X85972Y-34856D01*
X85735Y-34954D01*
X85554Y-35135D01*
X85456Y-35371D01*
X85456Y-35627D01*
X85554Y-35864D01*
X85735Y-36045D01*
X85971Y-36143D01*
X86227Y-36143D01*
X86464Y-36045D01*
X86645Y-35864D01*
X86743Y-35628D01*
X86743Y-35372D01*
X86743Y-46850D01*
X86624Y-46850D01*
X86625Y-46526D01*
X86492Y-46205D01*
X86246Y-45958D01*
X85924Y-45825D01*
X85576Y-45824D01*
X85475Y-45866D01*
X85475Y-44903D01*
X85387Y-44691D01*
X85226Y-44529D01*
X85214Y-44525D01*
X85225Y-44520D01*
X85387Y-44359D01*
X85474Y-44147D01*
X85475Y-43919D01*
X85387Y-43707D01*
X85295Y-43615D01*
X85366Y-43585D01*
X85437Y-43515D01*
X85475Y-43423D01*
X85475Y-42674D01*
X85437Y-42582D01*
X85366Y-42511D01*
X85274Y-42473D01*
X85175Y-42473D01*
X85012Y-42473D01*
X84950Y-42536D01*
X84950Y-42998D01*
X85412Y-42998D01*
X85475Y-42936D01*
X85475Y-42674D01*
X85475Y-43423D01*
X85475Y-43161D01*
X85412Y-43098D01*
X84950Y-43098D01*
X84950Y-43106D01*
X84850Y-43106D01*
X84850Y-43098D01*
X84850Y-42998D01*
X84850Y-42536D01*
X84787Y-42473D01*
X84624Y-42473D01*
X84525Y-42473D01*
X84433Y-42511D01*
X84362Y-42582D01*
X84324Y-42674D01*
X84325Y-42936D01*
X84387Y-42998D01*
X84850Y-42998D01*
X84850Y-43098D01*
X84387Y-43098D01*
X84325Y-43161D01*
X84324Y-43423D01*
X84362Y-43515D01*
X84433Y-43585D01*
X84504Y-43615D01*
X84412Y-43706D01*
X84325Y-43917D01*
X84324Y-44146D01*
X84412Y-44358D01*
X84573Y-44520D01*
X84585Y-44524D01*
X84574Y-44529D01*
X84412Y-44690D01*
X84325Y-44902D01*
X84324Y-45130D01*
X84412Y-45342D01*
X84573Y-45504D01*
X84785Y-45592D01*
X85013Y-45592D01*
X85225Y-45504D01*
X85387Y-45343D01*
X85474Y-45132D01*
X85475Y-44903D01*
X85475Y-45866D01*
X85255Y-45957D01*
X85008Y-46203D01*
X84875Y-46525D01*
X84874Y-46850D01*
X83975Y-46850D01*
X83975Y-44861D01*
X83868Y-44604D01*
X83764Y-44499D01*
X83868Y-44397D01*
X83974Y-44139D01*
X83975Y-43861D01*
X83870Y-43608D01*
X83912Y-43566D01*
X83950Y-43474D01*
X83950Y-42525D01*
X83936Y-42493D01*
X83936Y-35604D01*
X83927Y-35348D01*
X83897Y-35277D01*
X83897Y-33429D01*
X83888Y-33173D01*
X83808Y-32980D01*
X83703Y-32942D01*
X83632Y-33012D01*
X83632Y-32871D01*
X83594Y-32766D01*
X83354Y-32677D01*
X83098Y-32686D01*
X82905Y-32766D01*
X82867Y-32871D01*
X83250Y-33254D01*
X83632Y-32871D01*
X83632Y-33012D01*
X83320Y-33325D01*
X83703Y-33707D01*
X83808Y-33669D01*
X83897Y-33429D01*
X83897Y-35277D01*
X83847Y-35155D01*
X83742Y-35117D01*
X83671Y-35187D01*
X83671Y-35046D01*
X83633Y-34941D01*
X83632Y-34941D01*
X83632Y-33778D01*
X83250Y-33395D01*
X83179Y-33466D01*
X83179Y-33325D01*
X82796Y-32942D01*
X82691Y-32980D01*
X82602Y-33220D01*
X82611Y-33476D01*
X82691Y-33669D01*
X82796Y-33707D01*
X83179Y-33325D01*
X83179Y-33466D01*
X82867Y-33778D01*
X82905Y-33883D01*
X83145Y-33972D01*
X83401Y-33963D01*
X83594Y-33883D01*
X83632Y-33778D01*
X83632Y-34941D01*
X83393Y-34852D01*
X83137Y-34861D01*
X82944Y-34941D01*
X82906Y-35046D01*
X83288Y-35429D01*
X83671Y-35046D01*
X83671Y-35187D01*
X83359Y-35500D01*
X83742Y-35882D01*
X83847Y-35844D01*
X83936Y-35604D01*
X83936Y-42493D01*
X83912Y-42433D01*
X83841Y-42363D01*
X83749Y-42325D01*
X83671Y-42324D01*
X83671Y-35953D01*
X83288Y-35570D01*
X83218Y-35641D01*
X83218Y-35500D01*
X82835Y-35117D01*
X82730Y-35155D01*
X82641Y-35395D01*
X82650Y-35651D01*
X82730Y-35844D01*
X82835Y-35882D01*
X83218Y-35500D01*
X83218Y-35641D01*
X82906Y-35953D01*
X82944Y-36058D01*
X83184Y-36147D01*
X83440Y-36138D01*
X83633Y-36058D01*
X83671Y-35953D01*
X83671Y-42324D01*
X83650Y-42324D01*
X83387Y-42325D01*
X83325Y-42387D01*
X83325Y-42950D01*
X83887Y-42950D01*
X83950Y-42887D01*
X83950Y-42525D01*
X83950Y-43474D01*
X83950Y-43112D01*
X83887Y-43050D01*
X83325Y-43050D01*
X83325Y-43057D01*
X83225Y-43057D01*
X83225Y-43050D01*
X83225Y-42950D01*
X83225Y-42387D01*
X83162Y-42325D01*
X82899Y-42324D01*
X82800Y-42325D01*
X82708Y-42363D01*
X82637Y-42433D01*
X82599Y-42525D01*
X82600Y-42887D01*
X82662Y-42950D01*
X83225Y-42950D01*
X83225Y-43050D01*
X82662Y-43050D01*
X82600Y-43112D01*
X82599Y-43474D01*
X82637Y-43566D01*
X82679Y-43608D01*
X82575Y-43860D01*
X82574Y-44138D01*
X82681Y-44396D01*
X82785Y-44500D01*
X82681Y-44602D01*
X82575Y-44860D01*
X82574Y-45138D01*
X82681Y-45396D01*
X82877Y-45593D01*
X83135Y-45699D01*
X83413Y-45700D01*
X83671Y-45593D01*
X83868Y-45397D01*
X83974Y-45139D01*
X83975Y-44861D01*
X83975Y-46850D01*
X82450Y-46850D01*
X82450Y-31844D01*
X82527Y-32031D01*
X82717Y-32221D01*
X82965Y-32324D01*
X83233Y-32325D01*
X83481Y-32222D01*
X83634Y-32070D01*
X83671Y-32062D01*
X83671Y-32062D01*
X83815Y-31965D01*
X84153Y-31627D01*
X84218Y-31627D01*
X85640Y-31627D01*
X85750Y-31627D01*
X85859Y-31627D01*
X86030Y-31593D01*
X86175Y-31497D01*
X86271Y-31352D01*
X86305Y-31181D01*
X86271Y-31010D01*
X86175Y-30865D01*
X86058Y-30787D01*
X86175Y-30709D01*
X86271Y-30564D01*
X86305Y-30393D01*
X86271Y-30222D01*
X86175Y-30077D01*
X86058Y-30000D01*
X86175Y-29922D01*
X86271Y-29777D01*
X86305Y-29606D01*
X86271Y-29435D01*
X86175Y-29290D01*
X86058Y-29212D01*
X86175Y-29134D01*
X86271Y-28989D01*
X86305Y-28818D01*
X86271Y-28647D01*
X86175Y-28502D01*
X86030Y-28406D01*
X85915Y-28383D01*
X85865Y-28334D01*
X85721Y-28237D01*
X85550Y-28203D01*
X83847Y-28203D01*
X83847Y-25104D01*
X83838Y-24848D01*
X83758Y-24655D01*
X83653Y-24617D01*
X83582Y-24687D01*
X83582Y-24546D01*
X83544Y-24441D01*
X83304Y-24352D01*
X83048Y-24361D01*
X82855Y-24441D01*
X82817Y-24546D01*
X83200Y-24929D01*
X83582Y-24546D01*
X83582Y-24687D01*
X83270Y-25000D01*
X83653Y-25382D01*
X83758Y-25344D01*
X83847Y-25104D01*
X83847Y-28203D01*
X83836Y-28203D01*
X83836Y-27104D01*
X83827Y-26848D01*
X83747Y-26655D01*
X83642Y-26617D01*
X83582Y-26676D01*
X83582Y-25453D01*
X83200Y-25070D01*
X83129Y-25141D01*
X83129Y-25000D01*
X82746Y-24617D01*
X82641Y-24655D01*
X82552Y-24895D01*
X82561Y-25151D01*
X82641Y-25344D01*
X82746Y-25382D01*
X83129Y-25000D01*
X83129Y-25141D01*
X82817Y-25453D01*
X82855Y-25558D01*
X83095Y-25647D01*
X83351Y-25638D01*
X83544Y-25558D01*
X83582Y-25453D01*
X83582Y-26676D01*
X83571Y-26687D01*
X83571Y-26546D01*
X83533Y-26441D01*
X83293Y-26352D01*
X83037Y-26361D01*
X82844Y-26441D01*
X82806Y-26546D01*
X83188Y-26929D01*
X83571Y-26546D01*
X83571Y-26687D01*
X83259Y-27000D01*
X83642Y-27382D01*
X83747Y-27344D01*
X83836Y-27104D01*
X83836Y-28203D01*
X83775Y-28203D01*
X83775Y-28175D01*
X83737Y-28083D01*
X83666Y-28013D01*
X83574Y-27975D01*
X83571Y-27975D01*
X83571Y-27453D01*
X83188Y-27070D01*
X83118Y-27141D01*
X83118Y-27000D01*
X82735Y-26617D01*
X82630Y-26655D01*
X82541Y-26895D01*
X82550Y-27151D01*
X82630Y-27344D01*
X82735Y-27382D01*
X83118Y-27000D01*
X83118Y-27141D01*
X82806Y-27453D01*
X82844Y-27558D01*
X83084Y-27647D01*
X83340Y-27638D01*
X83533Y-27558D01*
X83571Y-27453D01*
X83571Y-27975D01*
X83475Y-27974D01*
X82625Y-27974D01*
X82533Y-28012D01*
X82463Y-28083D01*
X82450Y-28114D01*
X82450Y-22850D01*
X82451Y-22850D01*
X82451Y-22746D01*
X83240Y-22746D01*
X83083Y-22903D01*
X82950Y-23225D01*
X82949Y-23573D01*
X83082Y-23895D01*
X83328Y-24141D01*
X83650Y-24274D01*
X83998Y-24275D01*
X84320Y-24142D01*
X84566Y-23896D01*
X84699Y-23574D01*
X84700Y-23226D01*
X84567Y-22905D01*
X84409Y-22746D01*
X97577Y-22746D01*
X97652Y-22821D01*
X97614Y-22858D01*
X97550Y-23015D01*
X97549Y-23184D01*
X97614Y-23340D01*
X97733Y-23460D01*
X97890Y-23524D01*
X97922Y-23524D01*
X97922Y-24093D01*
X97754Y-24261D01*
X97380Y-24261D01*
X97200Y-24441D01*
X97200Y-24801D01*
X96998Y-24801D01*
X96920Y-24816D01*
X96920Y-24793D01*
X97000Y-24760D01*
X97120Y-24641D01*
X97184Y-24484D01*
X97185Y-24315D01*
X97120Y-24159D01*
X97001Y-24039D01*
X96844Y-23975D01*
X96675Y-23974D01*
X96519Y-24039D01*
X96399Y-24158D01*
X96335Y-24315D01*
X96335Y-24380D01*
X95348Y-24380D01*
X95340Y-24359D01*
X95221Y-24239D01*
X95064Y-24175D01*
X94895Y-24174D01*
X94739Y-24239D01*
X94619Y-24358D01*
X94555Y-24515D01*
X94554Y-24684D01*
X94580Y-24745D01*
X94541Y-24753D01*
X94428Y-24828D01*
X94428Y-24828D01*
X94182Y-25074D01*
X94165Y-25074D01*
X94009Y-25139D01*
X93889Y-25258D01*
X93825Y-25415D01*
X93824Y-25584D01*
X93889Y-25740D01*
X94008Y-25860D01*
X94165Y-25924D01*
X94334Y-25925D01*
X94490Y-25860D01*
X94531Y-25819D01*
X94539Y-25840D01*
X94658Y-25960D01*
X94815Y-26024D01*
X94984Y-26025D01*
X95140Y-25960D01*
X95252Y-25848D01*
X95547Y-25848D01*
X95558Y-25860D01*
X95715Y-25924D01*
X95884Y-25925D01*
X96040Y-25860D01*
X96160Y-25741D01*
X96224Y-25584D01*
X96225Y-25415D01*
X96198Y-25352D01*
X96285Y-25266D01*
X96320Y-25181D01*
X96320Y-25960D01*
X96342Y-26074D01*
X96407Y-26172D01*
X97097Y-26861D01*
X97019Y-26938D01*
X96955Y-27095D01*
X96955Y-27174D01*
X96855Y-27154D01*
X96800Y-27154D01*
X96500Y-27154D01*
X96400Y-27154D01*
X96191Y-27196D01*
X96014Y-27314D01*
X95134Y-28194D01*
X95134Y-28194D01*
X95104Y-28214D01*
X94699Y-28619D01*
X94581Y-28796D01*
X94539Y-29005D01*
X94581Y-29213D01*
X94699Y-29390D01*
X94876Y-29508D01*
X95085Y-29550D01*
X95293Y-29508D01*
X95470Y-29390D01*
X95855Y-29005D01*
X95855Y-29005D01*
X95885Y-28985D01*
X96625Y-28245D01*
X96800Y-28245D01*
X96855Y-28245D01*
X97064Y-28203D01*
X97080Y-28193D01*
X97080Y-28320D01*
X97080Y-28358D01*
X97019Y-28418D01*
X96955Y-28575D01*
X96954Y-28744D01*
X97019Y-28900D01*
X97138Y-29020D01*
X97295Y-29084D01*
X97464Y-29085D01*
X97500Y-29070D01*
X97500Y-29329D01*
X97278Y-29551D01*
X96998Y-29551D01*
X96919Y-29566D01*
X96767Y-29566D01*
X96675Y-29604D01*
X96605Y-29675D01*
X96566Y-29766D01*
X96566Y-29866D01*
X96566Y-29919D01*
X96551Y-29998D01*
X96551Y-30501D01*
X96566Y-30580D01*
X96566Y-30732D01*
X96604Y-30824D01*
X96675Y-30894D01*
X96766Y-30933D01*
X96866Y-30933D01*
X96919Y-30933D01*
X96998Y-30948D01*
X97200Y-30948D01*
X97200Y-31520D01*
X97729Y-32050D01*
X99270Y-32050D01*
X99370Y-31950D01*
X100171Y-31950D01*
X100300Y-32003D01*
X100556Y-32003D01*
X100686Y-31950D01*
X102982Y-31950D01*
X103111Y-32003D01*
X103367Y-32003D01*
X103604Y-31905D01*
X103785Y-31724D01*
X103883Y-31488D01*
X103883Y-31232D01*
X103785Y-30995D01*
X103604Y-30814D01*
X103570Y-30800D01*
X104125Y-30245D01*
X105770Y-30245D01*
X105770Y-30246D01*
X106174Y-30246D01*
X106174Y-30274D01*
X106212Y-30366D01*
X106283Y-30436D01*
X106375Y-30474D01*
X106474Y-30475D01*
X107124Y-30475D01*
X107216Y-30437D01*
X107286Y-30366D01*
X107324Y-30274D01*
X107324Y-30246D01*
X107353Y-30246D01*
X107452Y-30344D01*
X107645Y-30424D01*
X107853Y-30425D01*
X108047Y-30345D01*
X108146Y-30246D01*
X108550Y-30246D01*
X108550Y-30750D01*
X110625Y-30750D01*
X110787Y-30912D01*
X110885Y-30977D01*
X111000Y-31000D01*
X111955Y-31000D01*
X112448Y-31493D01*
X112448Y-31493D01*
X112546Y-31558D01*
X112572Y-31563D01*
X112572Y-31563D01*
X112624Y-31615D01*
X112799Y-31790D01*
X115450Y-31790D01*
X115450Y-33679D01*
G54D10*
G36*
X115450Y-31450D02*
X114862Y-31450D01*
X114895Y-31281D01*
X114861Y-31110D01*
X114765Y-30965D01*
X114648Y-30887D01*
X114765Y-30809D01*
X114861Y-30664D01*
X114895Y-30493D01*
X114861Y-30322D01*
X114765Y-30177D01*
X114648Y-30100D01*
X114765Y-30022D01*
X114861Y-29877D01*
X114895Y-29706D01*
X114861Y-29535D01*
X114765Y-29390D01*
X114648Y-29312D01*
X114765Y-29234D01*
X114861Y-29089D01*
X114895Y-28918D01*
X114861Y-28747D01*
X114765Y-28602D01*
X114620Y-28506D01*
X114449Y-28472D01*
X114230Y-28472D01*
X114059Y-28506D01*
X113914Y-28602D01*
X113818Y-28747D01*
X113784Y-28918D01*
X113818Y-29089D01*
X113914Y-29234D01*
X114031Y-29312D01*
X113914Y-29390D01*
X113818Y-29535D01*
X113784Y-29706D01*
X113818Y-29877D01*
X113914Y-30022D01*
X114031Y-30099D01*
X113914Y-30177D01*
X113818Y-30322D01*
X113784Y-30493D01*
X113818Y-30664D01*
X113914Y-30809D01*
X114031Y-30887D01*
X113914Y-30965D01*
X113904Y-30981D01*
X113645Y-30981D01*
X113645Y-28491D01*
X113645Y-25966D01*
X113645Y-23391D01*
X113562Y-23191D01*
X113409Y-23037D01*
X113208Y-22954D01*
X112991Y-22954D01*
X112791Y-23037D01*
X112637Y-23190D01*
X112554Y-23391D01*
X112554Y-23608D01*
X112637Y-23808D01*
X112790Y-23962D01*
X112991Y-24045D01*
X113208Y-24045D01*
X113408Y-23962D01*
X113562Y-23809D01*
X113645Y-23608D01*
X113645Y-23391D01*
X113645Y-25966D01*
X113562Y-25766D01*
X113409Y-25612D01*
X113208Y-25529D01*
X112991Y-25529D01*
X112791Y-25612D01*
X112637Y-25765D01*
X112554Y-25966D01*
X112554Y-26183D01*
X112637Y-26383D01*
X112790Y-26537D01*
X112991Y-26620D01*
X113208Y-26620D01*
X113408Y-26537D01*
X113562Y-26384D01*
X113645Y-26183D01*
X113645Y-25966D01*
X113645Y-28491D01*
X113562Y-28291D01*
X113409Y-28137D01*
X113208Y-28054D01*
X112991Y-28054D01*
X112791Y-28137D01*
X112637Y-28290D01*
X112554Y-28491D01*
X112554Y-28708D01*
X112637Y-28908D01*
X112790Y-29062D01*
X112991Y-29145D01*
X113208Y-29145D01*
X113408Y-29062D01*
X113562Y-28909D01*
X113645Y-28708D01*
X113645Y-28491D01*
X113645Y-30981D01*
X112785Y-30981D01*
X112292Y-30487D01*
X112194Y-30422D01*
X112080Y-30400D01*
X111470Y-30400D01*
X111235Y-30165D01*
X111280Y-30121D01*
X111344Y-29964D01*
X111345Y-29879D01*
X111503Y-29720D01*
X111515Y-29724D01*
X111684Y-29725D01*
X111840Y-29660D01*
X111960Y-29541D01*
X112024Y-29384D01*
X112025Y-29215D01*
X111960Y-29059D01*
X111841Y-28939D01*
X111684Y-28875D01*
X111576Y-28874D01*
X111645Y-28708D01*
X111645Y-28491D01*
X111645Y-25966D01*
X111645Y-23391D01*
X111562Y-23191D01*
X111409Y-23037D01*
X111208Y-22954D01*
X110991Y-22954D01*
X110791Y-23037D01*
X110637Y-23190D01*
X110554Y-23391D01*
X110554Y-23608D01*
X110637Y-23808D01*
X110790Y-23962D01*
X110991Y-24045D01*
X111208Y-24045D01*
X111408Y-23962D01*
X111562Y-23809D01*
X111645Y-23608D01*
X111645Y-23391D01*
X111645Y-25966D01*
X111562Y-25766D01*
X111409Y-25612D01*
X111208Y-25529D01*
X110991Y-25529D01*
X110791Y-25612D01*
X110637Y-25765D01*
X110554Y-25966D01*
X110554Y-26183D01*
X110637Y-26383D01*
X110790Y-26537D01*
X110991Y-26620D01*
X111208Y-26620D01*
X111408Y-26537D01*
X111562Y-26384D01*
X111645Y-26183D01*
X111645Y-25966D01*
X111645Y-28491D01*
X111562Y-28291D01*
X111409Y-28137D01*
X111208Y-28054D01*
X110991Y-28054D01*
X110791Y-28137D01*
X110637Y-28290D01*
X110554Y-28491D01*
X110554Y-28708D01*
X110637Y-28908D01*
X110790Y-29062D01*
X110991Y-29145D01*
X111203Y-29145D01*
X111185Y-29190D01*
X110920Y-29455D01*
X110835Y-29454D01*
X110679Y-29519D01*
X110559Y-29638D01*
X110538Y-29691D01*
X110500Y-29599D01*
X110381Y-29479D01*
X110224Y-29415D01*
X110055Y-29414D01*
X109899Y-29479D01*
X109779Y-29598D01*
X109715Y-29755D01*
X109714Y-29924D01*
X109779Y-30080D01*
X109848Y-30150D01*
X109365Y-30150D01*
X109365Y-27895D01*
X109300Y-27739D01*
X109220Y-27658D01*
X109220Y-26681D01*
X109280Y-26621D01*
X109344Y-26464D01*
X109345Y-26295D01*
X109280Y-26139D01*
X109161Y-26019D01*
X109004Y-25955D01*
X108835Y-25954D01*
X108679Y-26019D01*
X108559Y-26138D01*
X108495Y-26295D01*
X108494Y-26464D01*
X108559Y-26620D01*
X108620Y-26681D01*
X108620Y-27698D01*
X108579Y-27738D01*
X108515Y-27895D01*
X108514Y-28064D01*
X108579Y-28220D01*
X108698Y-28340D01*
X108855Y-28404D01*
X109024Y-28405D01*
X109180Y-28340D01*
X109300Y-28221D01*
X109364Y-28064D01*
X109365Y-27895D01*
X109365Y-30150D01*
X109050Y-30150D01*
X109050Y-29250D01*
X108600Y-29250D01*
X108500Y-29150D01*
X108268Y-29150D01*
X108268Y-27588D01*
X108191Y-27402D01*
X108083Y-27294D01*
X108190Y-27188D01*
X108267Y-27002D01*
X108268Y-26800D01*
X108191Y-26614D01*
X108083Y-26507D01*
X108190Y-26400D01*
X108267Y-26214D01*
X108268Y-26013D01*
X108191Y-25827D01*
X108083Y-25719D01*
X108190Y-25613D01*
X108267Y-25427D01*
X108268Y-25226D01*
X108191Y-25040D01*
X108083Y-24932D01*
X108190Y-24825D01*
X108267Y-24639D01*
X108268Y-24438D01*
X108191Y-24252D01*
X108083Y-24145D01*
X108190Y-24038D01*
X108267Y-23852D01*
X108268Y-23651D01*
X108191Y-23465D01*
X108049Y-23322D01*
X107863Y-23245D01*
X107661Y-23245D01*
X107475Y-23322D01*
X107333Y-23464D01*
X107269Y-23617D01*
X107207Y-23465D01*
X107064Y-23322D01*
X106878Y-23245D01*
X106677Y-23245D01*
X106491Y-23322D01*
X106349Y-23464D01*
X106272Y-23650D01*
X106271Y-23851D01*
X106348Y-24037D01*
X106456Y-24145D01*
X106349Y-24251D01*
X106272Y-24437D01*
X106271Y-24639D01*
X106348Y-24825D01*
X106456Y-24932D01*
X106349Y-25039D01*
X106272Y-25225D01*
X106271Y-25363D01*
X106147Y-25487D01*
X106082Y-25585D01*
X106060Y-25700D01*
X106060Y-27778D01*
X105999Y-27838D01*
X105935Y-27995D01*
X105934Y-28164D01*
X105999Y-28320D01*
X106118Y-28440D01*
X106275Y-28504D01*
X106444Y-28505D01*
X106600Y-28440D01*
X106720Y-28321D01*
X106772Y-28194D01*
X106878Y-28194D01*
X107064Y-28117D01*
X107206Y-27975D01*
X107270Y-27822D01*
X107332Y-27974D01*
X107475Y-28117D01*
X107661Y-28194D01*
X107862Y-28194D01*
X108048Y-28117D01*
X108190Y-27975D01*
X108267Y-27789D01*
X108268Y-27588D01*
X108268Y-29150D01*
X105979Y-29150D01*
X105529Y-29600D01*
X104725Y-29600D01*
X104725Y-25715D01*
X104660Y-25559D01*
X104541Y-25439D01*
X104384Y-25375D01*
X104215Y-25374D01*
X104059Y-25439D01*
X103954Y-25544D01*
X103954Y-24372D01*
X103856Y-24135D01*
X103676Y-23954D01*
X103439Y-23856D01*
X103183Y-23856D01*
X102946Y-23954D01*
X102765Y-24135D01*
X102667Y-24371D01*
X102667Y-24627D01*
X102765Y-24864D01*
X102946Y-25045D01*
X103182Y-25143D01*
X103438Y-25143D01*
X103675Y-25045D01*
X103856Y-24864D01*
X103954Y-24628D01*
X103954Y-24372D01*
X103954Y-25544D01*
X103939Y-25558D01*
X103875Y-25715D01*
X103875Y-25732D01*
X103482Y-26124D01*
X103439Y-26106D01*
X103183Y-26106D01*
X102946Y-26204D01*
X102765Y-26385D01*
X102667Y-26621D01*
X102667Y-26877D01*
X102765Y-27114D01*
X102946Y-27295D01*
X103182Y-27393D01*
X103438Y-27393D01*
X103675Y-27295D01*
X103856Y-27114D01*
X103954Y-26878D01*
X103954Y-26638D01*
X104367Y-26225D01*
X104384Y-26225D01*
X104540Y-26160D01*
X104660Y-26041D01*
X104724Y-25884D01*
X104725Y-25715D01*
X104725Y-29600D01*
X104029Y-29600D01*
X103893Y-29735D01*
X103893Y-28872D01*
X103795Y-28635D01*
X103614Y-28454D01*
X103378Y-28356D01*
X103122Y-28356D01*
X102885Y-28454D01*
X102704Y-28635D01*
X102606Y-28871D01*
X102606Y-29127D01*
X102704Y-29364D01*
X102885Y-29545D01*
X103121Y-29643D01*
X103377Y-29643D01*
X103614Y-29545D01*
X103795Y-29364D01*
X103893Y-29128D01*
X103893Y-28872D01*
X103893Y-29735D01*
X103849Y-29779D01*
X103764Y-29864D01*
X102850Y-30779D01*
X102850Y-30840D01*
X102694Y-30995D01*
X102596Y-31231D01*
X102596Y-31350D01*
X101181Y-31350D01*
X101181Y-23306D01*
X101181Y-23143D01*
X101118Y-23081D01*
X100656Y-23081D01*
X100656Y-23543D01*
X100718Y-23606D01*
X100980Y-23606D01*
X101072Y-23568D01*
X101143Y-23498D01*
X101181Y-23406D01*
X101181Y-23306D01*
X101181Y-31350D01*
X101143Y-31350D01*
X101143Y-26622D01*
X101143Y-24372D01*
X101045Y-24135D01*
X100864Y-23954D01*
X100628Y-23856D01*
X100372Y-23856D01*
X100135Y-23954D01*
X99954Y-24135D01*
X99856Y-24371D01*
X99856Y-24627D01*
X99878Y-24681D01*
X99740Y-24624D01*
X99571Y-24624D01*
X99415Y-24688D01*
X99295Y-24808D01*
X99230Y-24964D01*
X99230Y-25133D01*
X99295Y-25289D01*
X99307Y-25301D01*
X99307Y-25658D01*
X99296Y-25663D01*
X99177Y-25782D01*
X99112Y-25938D01*
X99112Y-26107D01*
X99176Y-26264D01*
X99296Y-26383D01*
X99452Y-26448D01*
X99621Y-26448D01*
X99777Y-26384D01*
X99897Y-26264D01*
X99962Y-26108D01*
X99962Y-26061D01*
X99962Y-26061D01*
X99977Y-26038D01*
X99977Y-26038D01*
X99981Y-26016D01*
X100003Y-25905D01*
X100003Y-25905D01*
X100003Y-25905D01*
X100003Y-25301D01*
X100015Y-25290D01*
X100080Y-25134D01*
X100080Y-24990D01*
X100135Y-25045D01*
X100371Y-25143D01*
X100627Y-25143D01*
X100864Y-25045D01*
X101045Y-24864D01*
X101143Y-24628D01*
X101143Y-24372D01*
X101143Y-26622D01*
X101045Y-26385D01*
X100864Y-26204D01*
X100628Y-26106D01*
X100372Y-26106D01*
X100135Y-26204D01*
X99954Y-26385D01*
X99856Y-26621D01*
X99856Y-26877D01*
X99954Y-27114D01*
X100135Y-27295D01*
X100371Y-27393D01*
X100627Y-27393D01*
X100864Y-27295D01*
X101045Y-27114D01*
X101143Y-26878D01*
X101143Y-26622D01*
X101143Y-31350D01*
X101082Y-31350D01*
X101082Y-28872D01*
X100984Y-28635D01*
X100803Y-28454D01*
X100567Y-28356D01*
X100311Y-28356D01*
X100074Y-28454D01*
X99893Y-28635D01*
X99795Y-28871D01*
X99795Y-29127D01*
X99893Y-29364D01*
X100007Y-29478D01*
X99881Y-29530D01*
X99866Y-29514D01*
X99709Y-29450D01*
X99540Y-29449D01*
X99384Y-29514D01*
X99264Y-29633D01*
X99227Y-29725D01*
X98902Y-29725D01*
X98885Y-29684D01*
X98766Y-29564D01*
X98609Y-29500D01*
X98440Y-29499D01*
X98284Y-29564D01*
X98164Y-29683D01*
X98100Y-29840D01*
X98099Y-30009D01*
X98155Y-30143D01*
X98139Y-30158D01*
X98075Y-30315D01*
X98074Y-30484D01*
X98139Y-30640D01*
X98258Y-30760D01*
X98415Y-30824D01*
X98584Y-30825D01*
X98740Y-30760D01*
X98860Y-30641D01*
X98877Y-30600D01*
X99700Y-30600D01*
X99700Y-30599D01*
X99814Y-30577D01*
X99814Y-30577D01*
X99912Y-30512D01*
X100099Y-30324D01*
X100184Y-30325D01*
X100340Y-30260D01*
X100460Y-30141D01*
X100524Y-29984D01*
X100525Y-29815D01*
X100460Y-29659D01*
X100444Y-29643D01*
X100566Y-29643D01*
X100803Y-29545D01*
X100984Y-29364D01*
X101082Y-29128D01*
X101082Y-28872D01*
X101082Y-31350D01*
X101072Y-31350D01*
X101072Y-31232D01*
X100974Y-30995D01*
X100793Y-30814D01*
X100557Y-30716D01*
X100301Y-30716D01*
X100064Y-30814D01*
X99883Y-30995D01*
X99785Y-31231D01*
X99785Y-31350D01*
X99279Y-31350D01*
X98979Y-31650D01*
X97920Y-31650D01*
X97550Y-31279D01*
X97550Y-29770D01*
X97900Y-29420D01*
X97900Y-28822D01*
X98000Y-28780D01*
X98078Y-28702D01*
X98078Y-28824D01*
X98143Y-28980D01*
X98262Y-29100D01*
X98419Y-29165D01*
X98588Y-29165D01*
X98744Y-29100D01*
X98804Y-29040D01*
X98990Y-29040D01*
X99050Y-29100D01*
X99206Y-29165D01*
X99375Y-29165D01*
X99531Y-29100D01*
X99651Y-28981D01*
X99716Y-28825D01*
X99716Y-28655D01*
X99651Y-28499D01*
X99532Y-28380D01*
X99376Y-28315D01*
X99207Y-28315D01*
X99050Y-28379D01*
X98990Y-28440D01*
X98804Y-28440D01*
X98744Y-28380D01*
X98588Y-28315D01*
X98419Y-28315D01*
X98263Y-28379D01*
X98184Y-28458D01*
X98185Y-28335D01*
X98120Y-28179D01*
X98100Y-28159D01*
X98100Y-27140D01*
X98099Y-27139D01*
X98077Y-27025D01*
X98012Y-26927D01*
X98012Y-26927D01*
X97550Y-26465D01*
X97550Y-24696D01*
X97682Y-24696D01*
X97838Y-24632D01*
X97893Y-24577D01*
X97934Y-24577D01*
X98317Y-24193D01*
X98317Y-23772D01*
X98330Y-23760D01*
X98330Y-23539D01*
X98491Y-23606D01*
X98720Y-23606D01*
X98931Y-23519D01*
X99093Y-23357D01*
X99106Y-23326D01*
X99118Y-23356D01*
X99280Y-23518D01*
X99491Y-23606D01*
X99720Y-23606D01*
X99931Y-23519D01*
X100035Y-23415D01*
X100069Y-23498D01*
X100139Y-23568D01*
X100231Y-23606D01*
X100493Y-23606D01*
X100556Y-23543D01*
X100556Y-23081D01*
X100548Y-23081D01*
X100548Y-22981D01*
X100556Y-22981D01*
X100556Y-22973D01*
X100656Y-22973D01*
X100656Y-22981D01*
X101118Y-22981D01*
X101181Y-22918D01*
X101181Y-22850D01*
X114479Y-22850D01*
X114662Y-23032D01*
X114505Y-23097D01*
X114258Y-23343D01*
X114125Y-23665D01*
X114124Y-24013D01*
X114257Y-24335D01*
X114503Y-24581D01*
X114825Y-24714D01*
X115173Y-24715D01*
X115450Y-24600D01*
X115450Y-25069D01*
X115346Y-25069D01*
X115107Y-25168D01*
X114924Y-25351D01*
X114825Y-25590D01*
X114825Y-25593D01*
X114705Y-25513D01*
X114534Y-25479D01*
X114315Y-25479D01*
X114144Y-25513D01*
X113999Y-25610D01*
X113903Y-25755D01*
X113869Y-25926D01*
X113903Y-26097D01*
X113999Y-26242D01*
X114116Y-26319D01*
X113999Y-26397D01*
X113903Y-26542D01*
X113869Y-26713D01*
X113903Y-26884D01*
X113999Y-27029D01*
X114116Y-27107D01*
X113999Y-27185D01*
X113903Y-27330D01*
X113869Y-27501D01*
X113903Y-27672D01*
X113999Y-27817D01*
X114144Y-27913D01*
X114315Y-27947D01*
X114534Y-27947D01*
X114705Y-27913D01*
X114824Y-27833D01*
X114824Y-28169D01*
X114862Y-28261D01*
X114933Y-28331D01*
X115025Y-28369D01*
X115124Y-28370D01*
X115450Y-28370D01*
X115450Y-29220D01*
X115450Y-29500D01*
X115450Y-31450D01*
X115450Y-31450D01*
G37*
G54D37*
X115450Y-31450D02*
X114862Y-31450D01*
X114895Y-31281D01*
X114861Y-31110D01*
X114765Y-30965D01*
X114648Y-30887D01*
X114765Y-30809D01*
X114861Y-30664D01*
X114895Y-30493D01*
X114861Y-30322D01*
X114765Y-30177D01*
X114648Y-30100D01*
X114765Y-30022D01*
X114861Y-29877D01*
X114895Y-29706D01*
X114861Y-29535D01*
X114765Y-29390D01*
X114648Y-29312D01*
X114765Y-29234D01*
X114861Y-29089D01*
X114895Y-28918D01*
X114861Y-28747D01*
X114765Y-28602D01*
X114620Y-28506D01*
X114449Y-28472D01*
X114230Y-28472D01*
X114059Y-28506D01*
X113914Y-28602D01*
X113818Y-28747D01*
X113784Y-28918D01*
X113818Y-29089D01*
X113914Y-29234D01*
X114031Y-29312D01*
X113914Y-29390D01*
X113818Y-29535D01*
X113784Y-29706D01*
X113818Y-29877D01*
X113914Y-30022D01*
X114031Y-30099D01*
X113914Y-30177D01*
X113818Y-30322D01*
X113784Y-30493D01*
X113818Y-30664D01*
X113914Y-30809D01*
X114031Y-30887D01*
X113914Y-30965D01*
X113904Y-30981D01*
X113645Y-30981D01*
X113645Y-28491D01*
X113645Y-25966D01*
X113645Y-23391D01*
X113562Y-23191D01*
X113409Y-23037D01*
X113208Y-22954D01*
X112991Y-22954D01*
X112791Y-23037D01*
X112637Y-23190D01*
X112554Y-23391D01*
X112554Y-23608D01*
X112637Y-23808D01*
X112790Y-23962D01*
X112991Y-24045D01*
X113208Y-24045D01*
X113408Y-23962D01*
X113562Y-23809D01*
X113645Y-23608D01*
X113645Y-23391D01*
X113645Y-25966D01*
X113562Y-25766D01*
X113409Y-25612D01*
X113208Y-25529D01*
X112991Y-25529D01*
X112791Y-25612D01*
X112637Y-25765D01*
X112554Y-25966D01*
X112554Y-26183D01*
X112637Y-26383D01*
X112790Y-26537D01*
X112991Y-26620D01*
X113208Y-26620D01*
X113408Y-26537D01*
X113562Y-26384D01*
X113645Y-26183D01*
X113645Y-25966D01*
X113645Y-28491D01*
X113562Y-28291D01*
X113409Y-28137D01*
X113208Y-28054D01*
X112991Y-28054D01*
X112791Y-28137D01*
X112637Y-28290D01*
X112554Y-28491D01*
X112554Y-28708D01*
X112637Y-28908D01*
X112790Y-29062D01*
X112991Y-29145D01*
X113208Y-29145D01*
X113408Y-29062D01*
X113562Y-28909D01*
X113645Y-28708D01*
X113645Y-28491D01*
X113645Y-30981D01*
X112785Y-30981D01*
X112292Y-30487D01*
X112194Y-30422D01*
X112080Y-30400D01*
X111470Y-30400D01*
X111235Y-30165D01*
X111280Y-30121D01*
X111344Y-29964D01*
X111345Y-29879D01*
X111503Y-29720D01*
X111515Y-29724D01*
X111684Y-29725D01*
X111840Y-29660D01*
X111960Y-29541D01*
X112024Y-29384D01*
X112025Y-29215D01*
X111960Y-29059D01*
X111841Y-28939D01*
X111684Y-28875D01*
X111576Y-28874D01*
X111645Y-28708D01*
X111645Y-28491D01*
X111645Y-25966D01*
X111645Y-23391D01*
X111562Y-23191D01*
X111409Y-23037D01*
X111208Y-22954D01*
X110991Y-22954D01*
X110791Y-23037D01*
X110637Y-23190D01*
X110554Y-23391D01*
X110554Y-23608D01*
X110637Y-23808D01*
X110790Y-23962D01*
X110991Y-24045D01*
X111208Y-24045D01*
X111408Y-23962D01*
X111562Y-23809D01*
X111645Y-23608D01*
X111645Y-23391D01*
X111645Y-25966D01*
X111562Y-25766D01*
X111409Y-25612D01*
X111208Y-25529D01*
X110991Y-25529D01*
X110791Y-25612D01*
X110637Y-25765D01*
X110554Y-25966D01*
X110554Y-26183D01*
X110637Y-26383D01*
X110790Y-26537D01*
X110991Y-26620D01*
X111208Y-26620D01*
X111408Y-26537D01*
X111562Y-26384D01*
X111645Y-26183D01*
X111645Y-25966D01*
X111645Y-28491D01*
X111562Y-28291D01*
X111409Y-28137D01*
X111208Y-28054D01*
X110991Y-28054D01*
X110791Y-28137D01*
X110637Y-28290D01*
X110554Y-28491D01*
X110554Y-28708D01*
X110637Y-28908D01*
X110790Y-29062D01*
X110991Y-29145D01*
X111203Y-29145D01*
X111185Y-29190D01*
X110920Y-29455D01*
X110835Y-29454D01*
X110679Y-29519D01*
X110559Y-29638D01*
X110538Y-29691D01*
X110500Y-29599D01*
X110381Y-29479D01*
X110224Y-29415D01*
X110055Y-29414D01*
X109899Y-29479D01*
X109779Y-29598D01*
X109715Y-29755D01*
X109714Y-29924D01*
X109779Y-30080D01*
X109848Y-30150D01*
X109365Y-30150D01*
X109365Y-27895D01*
X109300Y-27739D01*
X109220Y-27658D01*
X109220Y-26681D01*
X109280Y-26621D01*
X109344Y-26464D01*
X109345Y-26295D01*
X109280Y-26139D01*
X109161Y-26019D01*
X109004Y-25955D01*
X108835Y-25954D01*
X108679Y-26019D01*
X108559Y-26138D01*
X108495Y-26295D01*
X108494Y-26464D01*
X108559Y-26620D01*
X108620Y-26681D01*
X108620Y-27698D01*
X108579Y-27738D01*
X108515Y-27895D01*
X108514Y-28064D01*
X108579Y-28220D01*
X108698Y-28340D01*
X108855Y-28404D01*
X109024Y-28405D01*
X109180Y-28340D01*
X109300Y-28221D01*
X109364Y-28064D01*
X109365Y-27895D01*
X109365Y-30150D01*
X109050Y-30150D01*
X109050Y-29250D01*
X108600Y-29250D01*
X108500Y-29150D01*
X108268Y-29150D01*
X108268Y-27588D01*
X108191Y-27402D01*
X108083Y-27294D01*
X108190Y-27188D01*
X108267Y-27002D01*
X108268Y-26800D01*
X108191Y-26614D01*
X108083Y-26507D01*
X108190Y-26400D01*
X108267Y-26214D01*
X108268Y-26013D01*
X108191Y-25827D01*
X108083Y-25719D01*
X108190Y-25613D01*
X108267Y-25427D01*
X108268Y-25226D01*
X108191Y-25040D01*
X108083Y-24932D01*
X108190Y-24825D01*
X108267Y-24639D01*
X108268Y-24438D01*
X108191Y-24252D01*
X108083Y-24145D01*
X108190Y-24038D01*
X108267Y-23852D01*
X108268Y-23651D01*
X108191Y-23465D01*
X108049Y-23322D01*
X107863Y-23245D01*
X107661Y-23245D01*
X107475Y-23322D01*
X107333Y-23464D01*
X107269Y-23617D01*
X107207Y-23465D01*
X107064Y-23322D01*
X106878Y-23245D01*
X106677Y-23245D01*
X106491Y-23322D01*
X106349Y-23464D01*
X106272Y-23650D01*
X106271Y-23851D01*
X106348Y-24037D01*
X106456Y-24145D01*
X106349Y-24251D01*
X106272Y-24437D01*
X106271Y-24639D01*
X106348Y-24825D01*
X106456Y-24932D01*
X106349Y-25039D01*
X106272Y-25225D01*
X106271Y-25363D01*
X106147Y-25487D01*
X106082Y-25585D01*
X106060Y-25700D01*
X106060Y-27778D01*
X105999Y-27838D01*
X105935Y-27995D01*
X105934Y-28164D01*
X105999Y-28320D01*
X106118Y-28440D01*
X106275Y-28504D01*
X106444Y-28505D01*
X106600Y-28440D01*
X106720Y-28321D01*
X106772Y-28194D01*
X106878Y-28194D01*
X107064Y-28117D01*
X107206Y-27975D01*
X107270Y-27822D01*
X107332Y-27974D01*
X107475Y-28117D01*
X107661Y-28194D01*
X107862Y-28194D01*
X108048Y-28117D01*
X108190Y-27975D01*
X108267Y-27789D01*
X108268Y-27588D01*
X108268Y-29150D01*
X105979Y-29150D01*
X105529Y-29600D01*
X104725Y-29600D01*
X104725Y-25715D01*
X104660Y-25559D01*
X104541Y-25439D01*
X104384Y-25375D01*
X104215Y-25374D01*
X104059Y-25439D01*
X103954Y-25544D01*
X103954Y-24372D01*
X103856Y-24135D01*
X103676Y-23954D01*
X103439Y-23856D01*
X103183Y-23856D01*
X102946Y-23954D01*
X102765Y-24135D01*
X102667Y-24371D01*
X102667Y-24627D01*
X102765Y-24864D01*
X102946Y-25045D01*
X103182Y-25143D01*
X103438Y-25143D01*
X103675Y-25045D01*
X103856Y-24864D01*
X103954Y-24628D01*
X103954Y-24372D01*
X103954Y-25544D01*
X103939Y-25558D01*
X103875Y-25715D01*
X103875Y-25732D01*
X103482Y-26124D01*
X103439Y-26106D01*
X103183Y-26106D01*
X102946Y-26204D01*
X102765Y-26385D01*
X102667Y-26621D01*
X102667Y-26877D01*
X102765Y-27114D01*
X102946Y-27295D01*
X103182Y-27393D01*
X103438Y-27393D01*
X103675Y-27295D01*
X103856Y-27114D01*
X103954Y-26878D01*
X103954Y-26638D01*
X104367Y-26225D01*
X104384Y-26225D01*
X104540Y-26160D01*
X104660Y-26041D01*
X104724Y-25884D01*
X104725Y-25715D01*
X104725Y-29600D01*
X104029Y-29600D01*
X103893Y-29735D01*
X103893Y-28872D01*
X103795Y-28635D01*
X103614Y-28454D01*
X103378Y-28356D01*
X103122Y-28356D01*
X102885Y-28454D01*
X102704Y-28635D01*
X102606Y-28871D01*
X102606Y-29127D01*
X102704Y-29364D01*
X102885Y-29545D01*
X103121Y-29643D01*
X103377Y-29643D01*
X103614Y-29545D01*
X103795Y-29364D01*
X103893Y-29128D01*
X103893Y-28872D01*
X103893Y-29735D01*
X103849Y-29779D01*
X103764Y-29864D01*
X102850Y-30779D01*
X102850Y-30840D01*
X102694Y-30995D01*
X102596Y-31231D01*
X102596Y-31350D01*
X101181Y-31350D01*
X101181Y-23306D01*
X101181Y-23143D01*
X101118Y-23081D01*
X100656Y-23081D01*
X100656Y-23543D01*
X100718Y-23606D01*
X100980Y-23606D01*
X101072Y-23568D01*
X101143Y-23498D01*
X101181Y-23406D01*
X101181Y-23306D01*
X101181Y-31350D01*
X101143Y-31350D01*
X101143Y-26622D01*
X101143Y-24372D01*
X101045Y-24135D01*
X100864Y-23954D01*
X100628Y-23856D01*
X100372Y-23856D01*
X100135Y-23954D01*
X99954Y-24135D01*
X99856Y-24371D01*
X99856Y-24627D01*
X99878Y-24681D01*
X99740Y-24624D01*
X99571Y-24624D01*
X99415Y-24688D01*
X99295Y-24808D01*
X99230Y-24964D01*
X99230Y-25133D01*
X99295Y-25289D01*
X99307Y-25301D01*
X99307Y-25658D01*
X99296Y-25663D01*
X99177Y-25782D01*
X99112Y-25938D01*
X99112Y-26107D01*
X99176Y-26264D01*
X99296Y-26383D01*
X99452Y-26448D01*
X99621Y-26448D01*
X99777Y-26384D01*
X99897Y-26264D01*
X99962Y-26108D01*
X99962Y-26061D01*
X99962Y-26061D01*
X99977Y-26038D01*
X99977Y-26038D01*
X99981Y-26016D01*
X100003Y-25905D01*
X100003Y-25905D01*
X100003Y-25905D01*
X100003Y-25301D01*
X100015Y-25290D01*
X100080Y-25134D01*
X100080Y-24990D01*
X100135Y-25045D01*
X100371Y-25143D01*
X100627Y-25143D01*
X100864Y-25045D01*
X101045Y-24864D01*
X101143Y-24628D01*
X101143Y-24372D01*
X101143Y-26622D01*
X101045Y-26385D01*
X100864Y-26204D01*
X100628Y-26106D01*
X100372Y-26106D01*
X100135Y-26204D01*
X99954Y-26385D01*
X99856Y-26621D01*
X99856Y-26877D01*
X99954Y-27114D01*
X100135Y-27295D01*
X100371Y-27393D01*
X100627Y-27393D01*
X100864Y-27295D01*
X101045Y-27114D01*
X101143Y-26878D01*
X101143Y-26622D01*
X101143Y-31350D01*
X101082Y-31350D01*
X101082Y-28872D01*
X100984Y-28635D01*
X100803Y-28454D01*
X100567Y-28356D01*
X100311Y-28356D01*
X100074Y-28454D01*
X99893Y-28635D01*
X99795Y-28871D01*
X99795Y-29127D01*
X99893Y-29364D01*
X100007Y-29478D01*
X99881Y-29530D01*
X99866Y-29514D01*
X99709Y-29450D01*
X99540Y-29449D01*
X99384Y-29514D01*
X99264Y-29633D01*
X99227Y-29725D01*
X98902Y-29725D01*
X98885Y-29684D01*
X98766Y-29564D01*
X98609Y-29500D01*
X98440Y-29499D01*
X98284Y-29564D01*
X98164Y-29683D01*
X98100Y-29840D01*
X98099Y-30009D01*
X98155Y-30143D01*
X98139Y-30158D01*
X98075Y-30315D01*
X98074Y-30484D01*
X98139Y-30640D01*
X98258Y-30760D01*
X98415Y-30824D01*
X98584Y-30825D01*
X98740Y-30760D01*
X98860Y-30641D01*
X98877Y-30600D01*
X99700Y-30600D01*
X99700Y-30599D01*
X99814Y-30577D01*
X99814Y-30577D01*
X99912Y-30512D01*
X100099Y-30324D01*
X100184Y-30325D01*
X100340Y-30260D01*
X100460Y-30141D01*
X100524Y-29984D01*
X100525Y-29815D01*
X100460Y-29659D01*
X100444Y-29643D01*
X100566Y-29643D01*
X100803Y-29545D01*
X100984Y-29364D01*
X101082Y-29128D01*
X101082Y-28872D01*
X101082Y-31350D01*
X101072Y-31350D01*
X101072Y-31232D01*
X100974Y-30995D01*
X100793Y-30814D01*
X100557Y-30716D01*
X100301Y-30716D01*
X100064Y-30814D01*
X99883Y-30995D01*
X99785Y-31231D01*
X99785Y-31350D01*
X99279Y-31350D01*
X98979Y-31650D01*
X97920Y-31650D01*
X97550Y-31279D01*
X97550Y-29770D01*
X97900Y-29420D01*
X97900Y-28822D01*
X98000Y-28780D01*
X98078Y-28702D01*
X98078Y-28824D01*
X98143Y-28980D01*
X98262Y-29100D01*
X98419Y-29165D01*
X98588Y-29165D01*
X98744Y-29100D01*
X98804Y-29040D01*
X98990Y-29040D01*
X99050Y-29100D01*
X99206Y-29165D01*
X99375Y-29165D01*
X99531Y-29100D01*
X99651Y-28981D01*
X99716Y-28825D01*
X99716Y-28655D01*
X99651Y-28499D01*
X99532Y-28380D01*
X99376Y-28315D01*
X99207Y-28315D01*
X99050Y-28379D01*
X98990Y-28440D01*
X98804Y-28440D01*
X98744Y-28380D01*
X98588Y-28315D01*
X98419Y-28315D01*
X98263Y-28379D01*
X98184Y-28458D01*
X98185Y-28335D01*
X98120Y-28179D01*
X98100Y-28159D01*
X98100Y-27140D01*
X98099Y-27139D01*
X98077Y-27025D01*
X98012Y-26927D01*
X98012Y-26927D01*
X97550Y-26465D01*
X97550Y-24696D01*
X97682Y-24696D01*
X97838Y-24632D01*
X97893Y-24577D01*
X97934Y-24577D01*
X98317Y-24193D01*
X98317Y-23772D01*
X98330Y-23760D01*
X98330Y-23539D01*
X98491Y-23606D01*
X98720Y-23606D01*
X98931Y-23519D01*
X99093Y-23357D01*
X99106Y-23326D01*
X99118Y-23356D01*
X99280Y-23518D01*
X99491Y-23606D01*
X99720Y-23606D01*
X99931Y-23519D01*
X100035Y-23415D01*
X100069Y-23498D01*
X100139Y-23568D01*
X100231Y-23606D01*
X100493Y-23606D01*
X100556Y-23543D01*
X100556Y-23081D01*
X100548Y-23081D01*
X100548Y-22981D01*
X100556Y-22981D01*
X100556Y-22973D01*
X100656Y-22973D01*
X100656Y-22981D01*
X101118Y-22981D01*
X101181Y-22918D01*
X101181Y-22850D01*
X114479Y-22850D01*
X114662Y-23032D01*
X114505Y-23097D01*
X114258Y-23343D01*
X114125Y-23665D01*
X114124Y-24013D01*
X114257Y-24335D01*
X114503Y-24581D01*
X114825Y-24714D01*
X115173Y-24715D01*
X115450Y-24600D01*
X115450Y-25069D01*
X115346Y-25069D01*
X115107Y-25168D01*
X114924Y-25351D01*
X114825Y-25590D01*
X114825Y-25593D01*
X114705Y-25513D01*
X114534Y-25479D01*
X114315Y-25479D01*
X114144Y-25513D01*
X113999Y-25610D01*
X113903Y-25755D01*
X113869Y-25926D01*
X113903Y-26097D01*
X113999Y-26242D01*
X114116Y-26319D01*
X113999Y-26397D01*
X113903Y-26542D01*
X113869Y-26713D01*
X113903Y-26884D01*
X113999Y-27029D01*
X114116Y-27107D01*
X113999Y-27185D01*
X113903Y-27330D01*
X113869Y-27501D01*
X113903Y-27672D01*
X113999Y-27817D01*
X114144Y-27913D01*
X114315Y-27947D01*
X114534Y-27947D01*
X114705Y-27913D01*
X114824Y-27833D01*
X114824Y-28169D01*
X114862Y-28261D01*
X114933Y-28331D01*
X115025Y-28369D01*
X115124Y-28370D01*
X115450Y-28370D01*
X115450Y-29220D01*
X115450Y-29500D01*
X115450Y-31450D01*
M02*
