G04 (created by PCBNEW (2013-05-31 BZR 4019)-stable) date 6/10/2014 4:10:54 PM*
%MOIN*%
G04 Gerber Fmt 3.4, Leading zero omitted, Abs format*
%FSLAX34Y34*%
G01*
G70*
G90*
G04 APERTURE LIST*
%ADD10C,0.00590551*%
%ADD11C,0.0001*%
%ADD12R,0.125984X0.212598*%
%ADD13R,0.0358268X0.0122047*%
%ADD14R,0.0346457X0.0346457*%
%ADD15R,0.0122047X0.0358268*%
%ADD16R,0.07X0.2*%
%ADD17R,0.0287402X0.00905512*%
%ADD18R,0.00905512X0.0287402*%
%ADD19R,0.0326772X0.0326772*%
%ADD20R,0.0338583X0.0181102*%
%ADD21R,0.0181102X0.0338583*%
%ADD22R,0.114173X0.212598*%
%ADD23R,0.03X0.02*%
%ADD24R,0.0394X0.0315*%
%ADD25R,0.1063X0.0709*%
%ADD26R,0.08X0.06*%
%ADD27R,0.06X0.08*%
%ADD28R,0.025X0.045*%
%ADD29R,0.045X0.025*%
%ADD30R,0.063X0.125*%
%ADD31R,0.173228X0.188976*%
%ADD32R,0.0393701X0.0393701*%
%ADD33R,0.05X0.0240157*%
%ADD34C,0.0393701*%
G04 APERTURE END LIST*
G54D10*
G54D11*
X82000Y-47850D02*
X82000Y-22250D01*
X116250Y-47850D02*
X116250Y-47500D01*
X82000Y-47850D02*
X116250Y-47850D01*
X116250Y-22250D02*
X116250Y-47500D01*
X83250Y-22250D02*
X116250Y-22250D01*
X82000Y-22250D02*
X83250Y-22250D01*
G54D12*
X93389Y-25500D03*
X89570Y-25500D03*
X93389Y-30750D03*
X89570Y-30750D03*
G54D13*
X97974Y-25627D03*
G54D14*
X97501Y-25751D03*
X96998Y-25751D03*
X96998Y-25248D03*
X97501Y-25248D03*
G54D13*
X97974Y-25883D03*
X97978Y-25372D03*
X97974Y-25116D03*
G54D15*
X97633Y-24775D03*
X97377Y-24775D03*
X97122Y-24775D03*
X96866Y-24775D03*
X96866Y-26224D03*
X97122Y-26224D03*
X97377Y-26224D03*
X97633Y-26224D03*
G54D13*
X96525Y-25116D03*
X96525Y-25372D03*
X96525Y-25627D03*
X96525Y-25883D03*
G54D16*
X110825Y-46350D03*
X108225Y-46350D03*
G54D13*
X97974Y-30377D03*
G54D14*
X97501Y-30501D03*
G54D13*
X97974Y-30633D03*
X97978Y-30122D03*
X97974Y-29866D03*
G54D15*
X97633Y-29525D03*
X97377Y-29525D03*
X97122Y-29525D03*
X96866Y-29525D03*
X96866Y-30974D03*
X97122Y-30974D03*
X97377Y-30974D03*
X97633Y-30974D03*
G54D13*
X96525Y-29866D03*
X96525Y-30122D03*
X96525Y-30377D03*
X96525Y-30633D03*
G54D14*
X96998Y-30501D03*
X97501Y-29998D03*
X96998Y-29998D03*
G54D17*
X102854Y-38464D03*
X102854Y-38661D03*
X102856Y-38858D03*
X102854Y-39055D03*
G54D18*
X102456Y-38070D03*
X102259Y-38070D03*
X102062Y-38070D03*
X101866Y-38070D03*
G54D17*
X101472Y-38464D03*
X101472Y-38661D03*
X101472Y-38858D03*
X101472Y-39055D03*
G54D18*
X101866Y-39448D03*
X102062Y-39448D03*
X102259Y-39448D03*
X102456Y-39448D03*
G54D19*
X102413Y-39011D03*
X101909Y-39011D03*
X102413Y-38507D03*
X101909Y-38507D03*
G54D20*
X108656Y-33031D03*
X108656Y-33346D03*
X108656Y-33661D03*
X108656Y-33976D03*
X108656Y-34291D03*
X108656Y-34606D03*
X108656Y-34921D03*
X108656Y-35236D03*
X108656Y-35551D03*
X108656Y-35866D03*
X108656Y-36181D03*
X108656Y-36496D03*
X108656Y-36811D03*
G54D21*
X109050Y-37204D03*
X109365Y-37204D03*
X109680Y-37204D03*
X109995Y-37204D03*
X110310Y-37204D03*
X110625Y-37204D03*
X110940Y-37204D03*
X111255Y-37204D03*
X111570Y-37204D03*
X111885Y-37204D03*
X112200Y-37204D03*
X112514Y-37204D03*
X112829Y-37204D03*
X113144Y-37204D03*
X113459Y-37204D03*
X113774Y-37204D03*
X114089Y-37204D03*
X115349Y-32637D03*
X115034Y-32637D03*
X114719Y-32637D03*
X114404Y-32637D03*
X114089Y-32637D03*
X113774Y-32637D03*
X113459Y-32637D03*
X113144Y-32637D03*
X112829Y-32637D03*
X112514Y-32637D03*
X112200Y-32637D03*
X111885Y-32637D03*
X111570Y-32637D03*
X111255Y-32637D03*
X110940Y-32637D03*
X110625Y-32637D03*
X110310Y-32637D03*
X109995Y-32637D03*
X109680Y-32637D03*
X109365Y-32637D03*
X109050Y-32637D03*
G54D22*
X98641Y-44763D03*
X94822Y-44763D03*
G54D12*
X93389Y-36000D03*
X89570Y-36000D03*
X87369Y-39680D03*
X83550Y-39680D03*
G54D23*
X106750Y-31375D03*
X106750Y-30625D03*
X105750Y-31375D03*
X106750Y-31000D03*
X105750Y-30625D03*
G54D24*
X101563Y-40525D03*
X100697Y-40900D03*
X100697Y-40150D03*
G54D25*
X94911Y-39564D03*
X94911Y-41454D03*
G54D26*
X91411Y-39859D03*
X91411Y-41159D03*
G54D27*
X96150Y-27750D03*
X94850Y-27750D03*
X97650Y-34400D03*
X96350Y-34400D03*
X95150Y-38000D03*
X96450Y-38000D03*
X98050Y-27700D03*
X99350Y-27700D03*
G54D26*
X92911Y-39859D03*
X92911Y-41159D03*
G54D27*
X97650Y-33300D03*
X96350Y-33300D03*
G54D26*
X106750Y-33650D03*
X106750Y-32350D03*
X105911Y-44909D03*
X105911Y-43609D03*
X103411Y-44909D03*
X103411Y-43609D03*
X104661Y-44909D03*
X104661Y-43609D03*
G54D28*
X105020Y-25210D03*
X104420Y-25210D03*
X96600Y-23550D03*
X97200Y-23550D03*
X102802Y-36763D03*
X103402Y-36763D03*
G54D29*
X99911Y-39809D03*
X99911Y-39209D03*
X107500Y-31550D03*
X107500Y-30950D03*
X104500Y-31550D03*
X104500Y-30950D03*
X105688Y-34248D03*
X105688Y-33648D03*
G54D28*
X110000Y-23900D03*
X109400Y-23900D03*
X110000Y-27650D03*
X109400Y-27650D03*
X110000Y-25150D03*
X109400Y-25150D03*
G54D29*
X111409Y-30385D03*
X111409Y-30985D03*
X110621Y-30385D03*
X110621Y-30985D03*
X109834Y-30385D03*
X109834Y-30985D03*
X109046Y-30385D03*
X109046Y-30985D03*
G54D28*
X105020Y-27710D03*
X104420Y-27710D03*
X105020Y-26460D03*
X104420Y-26460D03*
X105020Y-23960D03*
X104420Y-23960D03*
X110000Y-26400D03*
X109400Y-26400D03*
X100211Y-33009D03*
X99611Y-33009D03*
G54D29*
X107300Y-35200D03*
X107300Y-34600D03*
G54D28*
X108300Y-40200D03*
X107700Y-40200D03*
X100211Y-35009D03*
X99611Y-35009D03*
G54D29*
X100200Y-38700D03*
X100200Y-38100D03*
X99500Y-38700D03*
X99500Y-38100D03*
G54D28*
X102361Y-40759D03*
X102961Y-40759D03*
X108300Y-40950D03*
X107700Y-40950D03*
X101700Y-34000D03*
X102300Y-34000D03*
G54D29*
X104911Y-39309D03*
X104911Y-38709D03*
G54D28*
X101700Y-35000D03*
X102300Y-35000D03*
X101700Y-32900D03*
X102300Y-32900D03*
X99611Y-34009D03*
X100211Y-34009D03*
X103611Y-33009D03*
X104211Y-33009D03*
X103700Y-35000D03*
X104300Y-35000D03*
G54D29*
X99100Y-24000D03*
X99100Y-24600D03*
X98900Y-30900D03*
X98900Y-31500D03*
G54D28*
X103611Y-34009D03*
X104211Y-34009D03*
X96450Y-31750D03*
X97050Y-31750D03*
G54D30*
X113155Y-40650D03*
X110645Y-40650D03*
G54D31*
X101574Y-45509D03*
G54D32*
X102039Y-46001D03*
X102039Y-45509D03*
X102039Y-45017D03*
G54D33*
X100088Y-46261D03*
X100088Y-44757D03*
X100088Y-45259D03*
X100088Y-45759D03*
G54D31*
X100748Y-43009D03*
G54D32*
X100283Y-42517D03*
X100283Y-43009D03*
X100283Y-43501D03*
G54D33*
X102234Y-42257D03*
X102234Y-43761D03*
X102234Y-43259D03*
X102234Y-42759D03*
G54D28*
X105100Y-30000D03*
X104500Y-30000D03*
G54D34*
X91400Y-28150D03*
X112700Y-35425D03*
X85450Y-40975D03*
M02*
