G04 (created by PCBNEW (2013-05-31 BZR 4019)-stable) date 6/10/2014 4:10:54 PM*
%MOIN*%
G04 Gerber Fmt 3.4, Leading zero omitted, Abs format*
%FSLAX34Y34*%
G01*
G70*
G90*
G04 APERTURE LIST*
%ADD10C,0.00590551*%
%ADD11C,0.005*%
%ADD12C,0.0025*%
%ADD13C,0.006*%
%ADD14C,0.0001*%
%ADD15C,0.004*%
%ADD16C,0.011811*%
%ADD17C,0.0075*%
%ADD18C,0.0101378*%
%ADD19C,0.01*%
%ADD20C,0.00787402*%
%ADD21C,0.012*%
%ADD22C,0.0031*%
%ADD23C,0.0098*%
%ADD24C,0.007*%
%ADD25C,0.0107*%
%ADD26C,0.008*%
%ADD27C,0.0047*%
%ADD28C,0.0039*%
%ADD29C,0.0045*%
%ADD30C,0.0748031*%
%ADD31R,0.055X0.055*%
%ADD32C,0.055*%
%ADD33R,0.085X0.085*%
%ADD34C,0.09*%
%ADD35R,0.125984X0.212598*%
%ADD36R,0.0374016X0.0137795*%
%ADD37R,0.0362205X0.0362205*%
%ADD38R,0.0137795X0.0374016*%
%ADD39R,0.065X0.065*%
%ADD40R,0.08X0.08*%
%ADD41C,0.08*%
%ADD42C,0.065*%
%ADD43C,0.06*%
%ADD44R,0.07X0.2*%
%ADD45C,0.0708661*%
%ADD46C,0.102362*%
%ADD47R,0.0295276X0.00984252*%
%ADD48R,0.00984252X0.0295276*%
%ADD49R,0.0334646X0.0334646*%
%ADD50C,0.0591*%
%ADD51R,0.0393701X0.023622*%
%ADD52R,0.023622X0.0393701*%
%ADD53O,0.0590551X0.0393701*%
%ADD54O,0.0393701X0.0590551*%
%ADD55R,0.114173X0.212598*%
%ADD56R,0.03X0.02*%
%ADD57R,0.0394X0.0315*%
%ADD58R,0.1063X0.0709*%
%ADD59R,0.08X0.06*%
%ADD60R,0.06X0.08*%
%ADD61R,0.025X0.045*%
%ADD62R,0.045X0.025*%
%ADD63R,0.063X0.125*%
%ADD64R,0.181102X0.19685*%
%ADD65R,0.0393701X0.0393701*%
%ADD66R,0.05X0.0240157*%
%ADD67O,0.0393701X0.0393701*%
%ADD68C,0.0787*%
%ADD69C,0.0511811*%
%ADD70C,0.085*%
%ADD71C,0.075*%
%ADD72C,0.0393701*%
%ADD73C,0.23622*%
%ADD74C,0.0551181*%
%ADD75C,0.035*%
G04 APERTURE END LIST*
G54D10*
G54D11*
X102399Y-22980D02*
X102399Y-22780D01*
X102465Y-22923D01*
X102532Y-22780D01*
X102532Y-22980D01*
X102665Y-22780D02*
X102703Y-22780D01*
X102722Y-22790D01*
X102741Y-22809D01*
X102751Y-22847D01*
X102751Y-22914D01*
X102741Y-22952D01*
X102722Y-22971D01*
X102703Y-22980D01*
X102665Y-22980D01*
X102646Y-22971D01*
X102627Y-22952D01*
X102618Y-22914D01*
X102618Y-22847D01*
X102627Y-22809D01*
X102646Y-22790D01*
X102665Y-22780D01*
X102837Y-22980D02*
X102837Y-22780D01*
X102951Y-22980D01*
X102951Y-22780D01*
X103084Y-22780D02*
X103122Y-22780D01*
X103141Y-22790D01*
X103160Y-22809D01*
X103170Y-22847D01*
X103170Y-22914D01*
X103160Y-22952D01*
X103141Y-22971D01*
X103122Y-22980D01*
X103084Y-22980D01*
X103065Y-22971D01*
X103046Y-22952D01*
X103037Y-22914D01*
X103037Y-22847D01*
X103046Y-22809D01*
X103065Y-22790D01*
X103084Y-22780D01*
X103408Y-22847D02*
X103560Y-22904D01*
X103408Y-22961D01*
G54D12*
X110532Y-32277D02*
X110608Y-32277D01*
X110570Y-32315D02*
X110570Y-32239D01*
X110789Y-32315D02*
X110755Y-32267D01*
X110732Y-32315D02*
X110732Y-32215D01*
X110770Y-32215D01*
X110779Y-32220D01*
X110784Y-32225D01*
X110789Y-32234D01*
X110789Y-32248D01*
X110784Y-32258D01*
X110779Y-32263D01*
X110770Y-32267D01*
X110732Y-32267D01*
X110908Y-32277D02*
X110984Y-32277D01*
X111184Y-32277D02*
X111260Y-32277D01*
X111222Y-32315D02*
X111222Y-32239D01*
X111432Y-32315D02*
X111384Y-32315D01*
X111384Y-32215D01*
X111541Y-32277D02*
X111617Y-32277D01*
G54D11*
X89012Y-45575D02*
G75*
G03X89012Y-45575I-512J0D01*
G74*
G01*
X87750Y-30250D02*
X87750Y-30175D01*
X87650Y-30250D02*
X87750Y-30250D01*
X87750Y-30250D02*
X87650Y-30250D01*
X87375Y-29875D02*
X87750Y-30250D01*
X86550Y-29175D02*
X86625Y-29175D01*
X86550Y-29250D02*
X86550Y-29175D01*
X86550Y-29175D02*
X86575Y-29175D01*
X86825Y-29450D02*
X86550Y-29175D01*
X88790Y-45575D02*
G75*
G03X88790Y-45575I-515J0D01*
G74*
G01*
X88844Y-45300D02*
G75*
G03X88844Y-45300I-469J0D01*
G74*
G01*
X89250Y-45675D02*
G75*
G03X89250Y-45675I-850J0D01*
G74*
G01*
X89455Y-45375D02*
G75*
G03X89455Y-45375I-880J0D01*
G74*
G01*
X89045Y-45400D02*
G75*
G03X89045Y-45400I-870J0D01*
G74*
G01*
X89535Y-45575D02*
G75*
G03X89535Y-45575I-1310J0D01*
G74*
G01*
X89830Y-45575D02*
G75*
G03X89830Y-45575I-1305J0D01*
G74*
G01*
X89652Y-45275D02*
G75*
G03X89652Y-45275I-1277J0D01*
G74*
G01*
G54D13*
X86953Y-28978D02*
X87253Y-28978D01*
X87039Y-29078D01*
X87253Y-29178D01*
X86953Y-29178D01*
X87253Y-29378D02*
X87253Y-29435D01*
X87239Y-29464D01*
X87210Y-29492D01*
X87153Y-29507D01*
X87053Y-29507D01*
X86996Y-29492D01*
X86967Y-29464D01*
X86953Y-29435D01*
X86953Y-29378D01*
X86967Y-29350D01*
X86996Y-29321D01*
X87053Y-29307D01*
X87153Y-29307D01*
X87210Y-29321D01*
X87239Y-29350D01*
X87253Y-29378D01*
X86953Y-29635D02*
X87253Y-29635D01*
X86953Y-29807D01*
X87253Y-29807D01*
X87253Y-30007D02*
X87253Y-30064D01*
X87239Y-30092D01*
X87210Y-30121D01*
X87153Y-30135D01*
X87053Y-30135D01*
X86996Y-30121D01*
X86967Y-30092D01*
X86953Y-30064D01*
X86953Y-30007D01*
X86967Y-29978D01*
X86996Y-29950D01*
X87053Y-29935D01*
X87153Y-29935D01*
X87210Y-29950D01*
X87239Y-29978D01*
X87253Y-30007D01*
G54D14*
X82000Y-47850D02*
X82000Y-22250D01*
G54D15*
X113725Y-31537D02*
X113725Y-31346D01*
X113821Y-30894D02*
X113702Y-30977D01*
X113821Y-31037D02*
X113571Y-31037D01*
X113571Y-30941D01*
X113583Y-30918D01*
X113595Y-30906D01*
X113618Y-30894D01*
X113654Y-30894D01*
X113678Y-30906D01*
X113690Y-30918D01*
X113702Y-30941D01*
X113702Y-31037D01*
X113725Y-30596D02*
X113725Y-30406D01*
X113821Y-30501D02*
X113630Y-30501D01*
X113725Y-29906D02*
X113725Y-29715D01*
X113821Y-29287D02*
X113821Y-29406D01*
X113571Y-29406D01*
X113725Y-29013D02*
X113725Y-28822D01*
X113821Y-28918D02*
X113630Y-28918D01*
G54D16*
X112448Y-26919D02*
X112111Y-26919D01*
X112279Y-26919D02*
X112279Y-26328D01*
X112223Y-26412D01*
X112167Y-26469D01*
X112111Y-26497D01*
X112954Y-26525D02*
X112954Y-26919D01*
X112701Y-26525D02*
X112701Y-26834D01*
X112729Y-26890D01*
X112785Y-26919D01*
X112870Y-26919D01*
X112926Y-26890D01*
X112954Y-26862D01*
X113432Y-26609D02*
X113235Y-26609D01*
X113235Y-26919D02*
X113235Y-26328D01*
X113517Y-26328D01*
G54D17*
X104642Y-40941D02*
X104542Y-40798D01*
X104471Y-40941D02*
X104471Y-40641D01*
X104585Y-40641D01*
X104614Y-40655D01*
X104628Y-40670D01*
X104642Y-40698D01*
X104642Y-40741D01*
X104628Y-40770D01*
X104614Y-40784D01*
X104585Y-40798D01*
X104471Y-40798D01*
X104757Y-40670D02*
X104771Y-40655D01*
X104800Y-40641D01*
X104871Y-40641D01*
X104900Y-40655D01*
X104914Y-40670D01*
X104928Y-40698D01*
X104928Y-40727D01*
X104914Y-40770D01*
X104742Y-40941D01*
X104928Y-40941D01*
X105057Y-40827D02*
X105285Y-40827D01*
X105600Y-40941D02*
X105500Y-40798D01*
X105428Y-40941D02*
X105428Y-40641D01*
X105542Y-40641D01*
X105571Y-40655D01*
X105585Y-40670D01*
X105600Y-40698D01*
X105600Y-40741D01*
X105585Y-40770D01*
X105571Y-40784D01*
X105542Y-40798D01*
X105428Y-40798D01*
X105700Y-40641D02*
X105885Y-40641D01*
X105785Y-40755D01*
X105828Y-40755D01*
X105857Y-40770D01*
X105871Y-40784D01*
X105885Y-40812D01*
X105885Y-40884D01*
X105871Y-40912D01*
X105857Y-40927D01*
X105828Y-40941D01*
X105742Y-40941D01*
X105714Y-40927D01*
X105700Y-40912D01*
X106014Y-40912D02*
X106028Y-40927D01*
X106014Y-40941D01*
X106000Y-40927D01*
X106014Y-40912D01*
X106014Y-40941D01*
X106014Y-40755D02*
X106028Y-40770D01*
X106014Y-40784D01*
X106000Y-40770D01*
X106014Y-40755D01*
X106014Y-40784D01*
X104457Y-41165D02*
X104471Y-41150D01*
X104500Y-41136D01*
X104571Y-41136D01*
X104600Y-41150D01*
X104614Y-41165D01*
X104628Y-41193D01*
X104628Y-41222D01*
X104614Y-41265D01*
X104442Y-41436D01*
X104628Y-41436D01*
X104757Y-41407D02*
X104771Y-41422D01*
X104757Y-41436D01*
X104742Y-41422D01*
X104757Y-41407D01*
X104757Y-41436D01*
X105057Y-41436D02*
X104885Y-41436D01*
X104971Y-41436D02*
X104971Y-41136D01*
X104942Y-41179D01*
X104914Y-41207D01*
X104885Y-41222D01*
X105142Y-41136D02*
X105242Y-41436D01*
X105342Y-41136D01*
X105628Y-41236D02*
X105742Y-41236D01*
X105671Y-41136D02*
X105671Y-41393D01*
X105685Y-41422D01*
X105714Y-41436D01*
X105742Y-41436D01*
X105885Y-41436D02*
X105857Y-41422D01*
X105842Y-41407D01*
X105828Y-41379D01*
X105828Y-41293D01*
X105842Y-41265D01*
X105857Y-41250D01*
X105885Y-41236D01*
X105928Y-41236D01*
X105957Y-41250D01*
X105971Y-41265D01*
X105985Y-41293D01*
X105985Y-41379D01*
X105971Y-41407D01*
X105957Y-41422D01*
X105928Y-41436D01*
X105885Y-41436D01*
X106299Y-41136D02*
X106399Y-41436D01*
X106499Y-41136D01*
X106700Y-41279D02*
X106600Y-41279D01*
X106600Y-41436D02*
X106600Y-41136D01*
X106742Y-41136D01*
X106957Y-41279D02*
X107000Y-41293D01*
X107014Y-41307D01*
X107028Y-41336D01*
X107028Y-41379D01*
X107014Y-41407D01*
X107000Y-41422D01*
X106971Y-41436D01*
X106857Y-41436D01*
X106857Y-41136D01*
X106957Y-41136D01*
X106985Y-41150D01*
X107000Y-41165D01*
X107014Y-41193D01*
X107014Y-41222D01*
X107000Y-41250D01*
X106985Y-41265D01*
X106957Y-41279D01*
X106857Y-41279D01*
X104471Y-41817D02*
X104700Y-41817D01*
X104585Y-41931D02*
X104585Y-41702D01*
X105214Y-41631D02*
X105071Y-41631D01*
X105057Y-41774D01*
X105071Y-41760D01*
X105100Y-41745D01*
X105171Y-41745D01*
X105200Y-41760D01*
X105214Y-41774D01*
X105228Y-41802D01*
X105228Y-41874D01*
X105214Y-41902D01*
X105200Y-41917D01*
X105171Y-41931D01*
X105100Y-41931D01*
X105071Y-41917D01*
X105057Y-41902D01*
X105514Y-41931D02*
X105342Y-41931D01*
X105428Y-41931D02*
X105428Y-41631D01*
X105400Y-41674D01*
X105371Y-41702D01*
X105342Y-41717D01*
X105699Y-41631D02*
X105728Y-41631D01*
X105757Y-41645D01*
X105771Y-41660D01*
X105785Y-41688D01*
X105799Y-41745D01*
X105799Y-41817D01*
X105785Y-41874D01*
X105771Y-41902D01*
X105757Y-41917D01*
X105728Y-41931D01*
X105699Y-41931D01*
X105671Y-41917D01*
X105657Y-41902D01*
X105642Y-41874D01*
X105628Y-41817D01*
X105628Y-41745D01*
X105642Y-41688D01*
X105657Y-41660D01*
X105671Y-41645D01*
X105699Y-41631D01*
X105928Y-41931D02*
X105928Y-41631D01*
X105957Y-41817D02*
X106042Y-41931D01*
X106042Y-41731D02*
X105928Y-41845D01*
X106171Y-41817D02*
X106399Y-41817D01*
X106685Y-41631D02*
X106542Y-41631D01*
X106528Y-41774D01*
X106542Y-41760D01*
X106571Y-41745D01*
X106642Y-41745D01*
X106671Y-41760D01*
X106685Y-41774D01*
X106699Y-41802D01*
X106699Y-41874D01*
X106685Y-41902D01*
X106671Y-41917D01*
X106642Y-41931D01*
X106571Y-41931D01*
X106542Y-41917D01*
X106528Y-41902D01*
X106885Y-41631D02*
X106914Y-41631D01*
X106942Y-41645D01*
X106957Y-41660D01*
X106971Y-41688D01*
X106985Y-41745D01*
X106985Y-41817D01*
X106971Y-41874D01*
X106957Y-41902D01*
X106942Y-41917D01*
X106914Y-41931D01*
X106885Y-41931D01*
X106857Y-41917D01*
X106842Y-41902D01*
X106828Y-41874D01*
X106814Y-41817D01*
X106814Y-41745D01*
X106828Y-41688D01*
X106842Y-41660D01*
X106857Y-41645D01*
X106885Y-41631D01*
X107114Y-41931D02*
X107114Y-41631D01*
X107142Y-41817D02*
X107228Y-41931D01*
X107228Y-41731D02*
X107114Y-41845D01*
G54D18*
X97778Y-36509D02*
X98087Y-36509D01*
X97933Y-36664D02*
X97933Y-36355D01*
X98473Y-36258D02*
X98280Y-36258D01*
X98261Y-36451D01*
X98280Y-36432D01*
X98319Y-36413D01*
X98415Y-36413D01*
X98454Y-36432D01*
X98473Y-36451D01*
X98493Y-36490D01*
X98493Y-36586D01*
X98473Y-36625D01*
X98454Y-36644D01*
X98415Y-36664D01*
X98319Y-36664D01*
X98280Y-36644D01*
X98261Y-36625D01*
X98608Y-36258D02*
X98744Y-36664D01*
X98879Y-36258D01*
G54D19*
X94370Y-35421D02*
X94503Y-35821D01*
X94637Y-35421D01*
X94770Y-35821D02*
X94770Y-35555D01*
X94770Y-35421D02*
X94751Y-35440D01*
X94770Y-35460D01*
X94789Y-35440D01*
X94770Y-35421D01*
X94770Y-35460D01*
X94960Y-35555D02*
X94960Y-35821D01*
X94960Y-35593D02*
X94980Y-35574D01*
X95018Y-35555D01*
X95075Y-35555D01*
X95113Y-35574D01*
X95132Y-35612D01*
X95132Y-35821D01*
G54D14*
X116250Y-47850D02*
X116250Y-47500D01*
X82000Y-47850D02*
X116250Y-47850D01*
X116250Y-22250D02*
X116250Y-47500D01*
X83250Y-22250D02*
X116250Y-22250D01*
X82000Y-22250D02*
X83250Y-22250D01*
G54D20*
X116141Y-45719D02*
X115668Y-45719D01*
X115668Y-45579D01*
X115691Y-45494D01*
X115736Y-45438D01*
X115781Y-45410D01*
X115871Y-45382D01*
X115938Y-45382D01*
X116028Y-45410D01*
X116073Y-45438D01*
X116118Y-45494D01*
X116141Y-45579D01*
X116141Y-45719D01*
X116096Y-44791D02*
X116118Y-44820D01*
X116141Y-44904D01*
X116141Y-44960D01*
X116118Y-45045D01*
X116073Y-45101D01*
X116028Y-45129D01*
X115938Y-45157D01*
X115871Y-45157D01*
X115781Y-45129D01*
X115736Y-45101D01*
X115691Y-45045D01*
X115668Y-44960D01*
X115668Y-44904D01*
X115691Y-44820D01*
X115713Y-44791D01*
X116141Y-44088D02*
X115826Y-44088D01*
X115668Y-44088D02*
X115691Y-44117D01*
X115713Y-44088D01*
X115691Y-44060D01*
X115668Y-44088D01*
X115713Y-44088D01*
X115826Y-43807D02*
X116141Y-43807D01*
X115871Y-43807D02*
X115848Y-43779D01*
X115826Y-43723D01*
X115826Y-43638D01*
X115848Y-43582D01*
X115893Y-43554D01*
X116141Y-43554D01*
X115668Y-42570D02*
X115668Y-42682D01*
X115691Y-42739D01*
X115713Y-42767D01*
X115781Y-42823D01*
X115871Y-42851D01*
X116051Y-42851D01*
X116096Y-42823D01*
X116118Y-42795D01*
X116141Y-42739D01*
X116141Y-42626D01*
X116118Y-42570D01*
X116096Y-42542D01*
X116051Y-42514D01*
X115938Y-42514D01*
X115893Y-42542D01*
X115871Y-42570D01*
X115848Y-42626D01*
X115848Y-42739D01*
X115871Y-42795D01*
X115893Y-42823D01*
X115938Y-42851D01*
X115961Y-42261D02*
X115961Y-41811D01*
X115713Y-41557D02*
X115691Y-41529D01*
X115668Y-41473D01*
X115668Y-41333D01*
X115691Y-41276D01*
X115713Y-41248D01*
X115758Y-41220D01*
X115803Y-41220D01*
X115871Y-41248D01*
X116141Y-41586D01*
X116141Y-41220D01*
X115871Y-40883D02*
X115848Y-40939D01*
X115826Y-40967D01*
X115781Y-40995D01*
X115758Y-40995D01*
X115713Y-40967D01*
X115691Y-40939D01*
X115668Y-40883D01*
X115668Y-40770D01*
X115691Y-40714D01*
X115713Y-40686D01*
X115758Y-40658D01*
X115781Y-40658D01*
X115826Y-40686D01*
X115848Y-40714D01*
X115871Y-40770D01*
X115871Y-40883D01*
X115893Y-40939D01*
X115916Y-40967D01*
X115961Y-40995D01*
X116051Y-40995D01*
X116096Y-40967D01*
X116118Y-40939D01*
X116141Y-40883D01*
X116141Y-40770D01*
X116118Y-40714D01*
X116096Y-40686D01*
X116051Y-40658D01*
X115961Y-40658D01*
X115916Y-40686D01*
X115893Y-40714D01*
X115871Y-40770D01*
X115668Y-40489D02*
X116141Y-40292D01*
X115668Y-40095D01*
G54D16*
X109401Y-33639D02*
X109485Y-33667D01*
X109514Y-33695D01*
X109542Y-33752D01*
X109542Y-33836D01*
X109514Y-33892D01*
X109485Y-33920D01*
X109429Y-33949D01*
X109204Y-33949D01*
X109204Y-33358D01*
X109401Y-33358D01*
X109457Y-33386D01*
X109485Y-33414D01*
X109514Y-33470D01*
X109514Y-33527D01*
X109485Y-33583D01*
X109457Y-33611D01*
X109401Y-33639D01*
X109204Y-33639D01*
X110076Y-33949D02*
X109795Y-33949D01*
X109795Y-33358D01*
X110273Y-33358D02*
X110273Y-33836D01*
X110301Y-33892D01*
X110329Y-33920D01*
X110385Y-33949D01*
X110498Y-33949D01*
X110554Y-33920D01*
X110582Y-33892D01*
X110610Y-33836D01*
X110610Y-33358D01*
X110892Y-33639D02*
X111088Y-33639D01*
X111173Y-33949D02*
X110892Y-33949D01*
X110892Y-33358D01*
X111173Y-33358D01*
X111763Y-33892D02*
X111735Y-33920D01*
X111651Y-33949D01*
X111595Y-33949D01*
X111510Y-33920D01*
X111454Y-33864D01*
X111426Y-33808D01*
X111398Y-33695D01*
X111398Y-33611D01*
X111426Y-33499D01*
X111454Y-33442D01*
X111510Y-33386D01*
X111595Y-33358D01*
X111651Y-33358D01*
X111735Y-33386D01*
X111763Y-33414D01*
X112354Y-33949D02*
X112157Y-33667D01*
X112016Y-33949D02*
X112016Y-33358D01*
X112241Y-33358D01*
X112298Y-33386D01*
X112326Y-33414D01*
X112354Y-33470D01*
X112354Y-33555D01*
X112326Y-33611D01*
X112298Y-33639D01*
X112241Y-33667D01*
X112016Y-33667D01*
X112607Y-33639D02*
X112804Y-33639D01*
X112888Y-33949D02*
X112607Y-33949D01*
X112607Y-33358D01*
X112888Y-33358D01*
X113113Y-33780D02*
X113394Y-33780D01*
X113057Y-33949D02*
X113254Y-33358D01*
X113451Y-33949D01*
X113563Y-33358D02*
X113901Y-33358D01*
X113732Y-33949D02*
X113732Y-33358D01*
X114097Y-33949D02*
X114097Y-33358D01*
X114491Y-33358D02*
X114604Y-33358D01*
X114660Y-33386D01*
X114716Y-33442D01*
X114744Y-33555D01*
X114744Y-33752D01*
X114716Y-33864D01*
X114660Y-33920D01*
X114604Y-33949D01*
X114491Y-33949D01*
X114435Y-33920D01*
X114379Y-33864D01*
X114350Y-33752D01*
X114350Y-33555D01*
X114379Y-33442D01*
X114435Y-33386D01*
X114491Y-33358D01*
X114997Y-33949D02*
X114997Y-33358D01*
X115335Y-33949D01*
X115335Y-33358D01*
G54D10*
X106940Y-38380D02*
X107140Y-38380D01*
X107940Y-38580D02*
X106940Y-38580D01*
X106940Y-38580D02*
X106940Y-39580D01*
X106940Y-39580D02*
X107940Y-39580D01*
X107075Y-38392D02*
X107075Y-37998D01*
X107465Y-38195D02*
X107268Y-38392D01*
X107268Y-38195D02*
X107465Y-37998D01*
X107465Y-38195D02*
X107268Y-38195D01*
X107759Y-38392D02*
X107759Y-37998D01*
X107759Y-37998D02*
X107759Y-38195D01*
X107759Y-38195D02*
X107562Y-38195D01*
X107562Y-38195D02*
X107562Y-38392D01*
X107562Y-38392D02*
X107759Y-38392D01*
X107759Y-38392D02*
X107759Y-38195D01*
X107759Y-38195D02*
X107562Y-37998D01*
X108278Y-38095D02*
X107983Y-38292D01*
X109715Y-38371D02*
X109636Y-38371D01*
X109518Y-38371D02*
X109440Y-38371D01*
X109440Y-38371D02*
X109518Y-38371D01*
X109243Y-38371D02*
X109243Y-38331D01*
X109400Y-38213D02*
X109085Y-38213D01*
X109243Y-38331D02*
X109243Y-38056D01*
X109676Y-38331D02*
X109597Y-38056D01*
X109597Y-38056D02*
X109479Y-38331D01*
X108586Y-38095D02*
G75*
G03X108586Y-38095I-111J0D01*
G74*
G01*
X108751Y-38331D02*
G75*
G03X108751Y-38331I-39J0D01*
G74*
G01*
X111310Y-38292D02*
X111310Y-37997D01*
X111310Y-37997D02*
X111211Y-37997D01*
X111211Y-37997D02*
X111113Y-38095D01*
X111113Y-38095D02*
X111113Y-38194D01*
X111113Y-38194D02*
X111211Y-38292D01*
X111211Y-38292D02*
X111310Y-38292D01*
X111605Y-38292D02*
X111605Y-37997D01*
X111605Y-37997D02*
X111605Y-38292D01*
X111605Y-38292D02*
X111408Y-37997D01*
X111408Y-37997D02*
X111408Y-38292D01*
X111703Y-38391D02*
X111900Y-38391D01*
X111900Y-38391D02*
X111900Y-38095D01*
X111900Y-38095D02*
X111900Y-37997D01*
X111900Y-37997D02*
X111703Y-37997D01*
X111703Y-37997D02*
X111703Y-38194D01*
X111703Y-38194D02*
X111802Y-38194D01*
X108278Y-38292D02*
X108278Y-38095D01*
X108278Y-38095D02*
X108180Y-37997D01*
X108180Y-37997D02*
X108081Y-37997D01*
X108081Y-37997D02*
X107983Y-38095D01*
X107983Y-38095D02*
X107983Y-38292D01*
X107983Y-38292D02*
X108081Y-38391D01*
X108081Y-38391D02*
X108180Y-38391D01*
X108180Y-38391D02*
X108278Y-38292D01*
X108711Y-37997D02*
X108711Y-38194D01*
X110640Y-37997D02*
X110837Y-37997D01*
X110837Y-37997D02*
X110837Y-38391D01*
X110227Y-37997D02*
X110128Y-37997D01*
X110128Y-37997D02*
X110030Y-38095D01*
X110030Y-38095D02*
X110030Y-38292D01*
X110030Y-38292D02*
X110128Y-38391D01*
X110128Y-38391D02*
X110227Y-38391D01*
X110227Y-38391D02*
X110227Y-37997D01*
X110542Y-38391D02*
X110345Y-38391D01*
X110542Y-38194D02*
X110345Y-38194D01*
X110542Y-38391D02*
X110542Y-37997D01*
X110542Y-37997D02*
X110345Y-37997D01*
X112924Y-38371D02*
X112530Y-38371D01*
X112727Y-38371D02*
X112727Y-37977D01*
X112727Y-37977D02*
X112727Y-38371D01*
X113514Y-38174D02*
X113317Y-37977D01*
X113711Y-38371D02*
X113711Y-37977D01*
X113711Y-37977D02*
X113711Y-38174D01*
X113711Y-38174D02*
X113317Y-38174D01*
X113317Y-38174D02*
X113317Y-38371D01*
X113317Y-38371D02*
X113711Y-38371D01*
X114577Y-37977D02*
X114577Y-38371D01*
X114577Y-38371D02*
X114184Y-38371D01*
X114184Y-38371D02*
X114184Y-37977D01*
X114184Y-37977D02*
X114184Y-38174D01*
X114184Y-38174D02*
X114577Y-38174D01*
X115404Y-38371D02*
X115404Y-37977D01*
X115404Y-37977D02*
X115010Y-37977D01*
X115010Y-37977D02*
X115010Y-38371D01*
G54D21*
X115940Y-39580D02*
X107940Y-39580D01*
X107940Y-38580D02*
X115940Y-38580D01*
X115940Y-38580D02*
X115940Y-39580D01*
X114940Y-38580D02*
X114940Y-39580D01*
G54D10*
X88940Y-23137D02*
X88940Y-22940D01*
X88940Y-22940D02*
X94059Y-22940D01*
X94059Y-22940D02*
X94059Y-28059D01*
X88940Y-28059D02*
X88940Y-27862D01*
X88940Y-23137D02*
X88940Y-27862D01*
X88940Y-33309D02*
X88940Y-28190D01*
X94059Y-28190D02*
X94059Y-33309D01*
X94059Y-33309D02*
X88940Y-33309D01*
X98409Y-26346D02*
G75*
G03X98409Y-26346I-292J0D01*
G74*
G01*
X97978Y-26149D02*
G75*
G03X97978Y-26149I-98J0D01*
G74*
G01*
X88300Y-30500D02*
X88300Y-30900D01*
X88300Y-29500D02*
X88300Y-29900D01*
X88100Y-29700D02*
X88500Y-29700D01*
X85392Y-43540D02*
X85195Y-43540D01*
X85392Y-42556D02*
X84407Y-42556D01*
X84407Y-42556D02*
X84407Y-43540D01*
X84407Y-43540D02*
X84604Y-43540D01*
X84309Y-45115D02*
X84309Y-45312D01*
X84112Y-45312D02*
X84112Y-45115D01*
X84309Y-45115D02*
X83915Y-45115D01*
X83915Y-45115D02*
X83915Y-45312D01*
X84309Y-44918D02*
X84309Y-44721D01*
X84309Y-44721D02*
X83915Y-44721D01*
X83915Y-44721D02*
X83915Y-44918D01*
X84112Y-42851D02*
X84112Y-43245D01*
X84112Y-43836D02*
X84112Y-44229D01*
X84309Y-44032D02*
X83915Y-44032D01*
X85392Y-42556D02*
X85392Y-45509D01*
X85392Y-45509D02*
X84407Y-45509D01*
X84407Y-45509D02*
X84407Y-42556D01*
G54D21*
X107050Y-46400D02*
X107050Y-46000D01*
X107050Y-46000D02*
X106650Y-46000D01*
X106650Y-46000D02*
X106650Y-42800D01*
X106650Y-42800D02*
X107450Y-42800D01*
X107450Y-46000D02*
X107050Y-46000D01*
X106850Y-46000D02*
X106650Y-45800D01*
X107050Y-42400D02*
X107050Y-42800D01*
G54D10*
X107725Y-45150D02*
X107525Y-45150D01*
X107525Y-45150D02*
X107525Y-47550D01*
X107525Y-47550D02*
X107725Y-47550D01*
X108725Y-47550D02*
X107725Y-47550D01*
X107725Y-47550D02*
X107725Y-45150D01*
X107725Y-45150D02*
X108725Y-45150D01*
X110225Y-45150D02*
X111325Y-45150D01*
X111325Y-45150D02*
X111325Y-47550D01*
X111325Y-47550D02*
X110225Y-47550D01*
X109229Y-46763D02*
X109229Y-45936D01*
X109879Y-46743D02*
X109879Y-45936D01*
X109879Y-45936D02*
X109249Y-46350D01*
X109249Y-46350D02*
X109879Y-46743D01*
X98260Y-31037D02*
G75*
G03X98260Y-31037I-222J0D01*
G74*
G01*
X98148Y-31037D02*
G75*
G03X98148Y-31037I-111J0D01*
G74*
G01*
X115543Y-41378D02*
X115543Y-44921D01*
X115543Y-44921D02*
X108456Y-44921D01*
X108456Y-44921D02*
X108456Y-41378D01*
X108456Y-41378D02*
X115543Y-41378D01*
X103060Y-39625D02*
G75*
G03X103060Y-39625I-111J0D01*
G74*
G01*
X103047Y-39350D02*
G75*
G03X103047Y-39350I-98J0D01*
G74*
G01*
X113517Y-27556D02*
X113517Y-29722D01*
X110682Y-29722D02*
X110682Y-27556D01*
X110682Y-27556D02*
X113517Y-27556D01*
X113517Y-29722D02*
X110682Y-29722D01*
X113517Y-22299D02*
X113517Y-24661D01*
X110682Y-24661D02*
X110682Y-22299D01*
X110682Y-22299D02*
X113517Y-22299D01*
X113517Y-24661D02*
X110682Y-24661D01*
X115491Y-33188D02*
G75*
G03X115491Y-33188I-141J0D01*
G74*
G01*
X114247Y-37244D02*
X114247Y-34094D01*
X114247Y-34094D02*
X115703Y-34094D01*
X108617Y-32598D02*
X115703Y-32598D01*
X115703Y-32598D02*
X115703Y-37244D01*
X115703Y-37244D02*
X108617Y-37244D01*
X108617Y-37244D02*
X108617Y-32598D01*
X86457Y-30787D02*
X86261Y-30885D01*
X86261Y-30688D02*
X86654Y-30688D01*
X86654Y-30688D02*
X86654Y-30885D01*
X86654Y-30885D02*
X86457Y-30885D01*
X86457Y-30885D02*
X86457Y-30688D01*
X86457Y-31082D02*
X86457Y-31476D01*
X86654Y-30295D02*
X86261Y-30295D01*
X86261Y-30295D02*
X86457Y-30295D01*
X86457Y-30295D02*
X86457Y-30098D01*
X86457Y-30098D02*
X86457Y-30492D01*
X86457Y-29409D02*
X86457Y-29606D01*
X86457Y-29507D02*
X86457Y-29704D01*
X86556Y-28818D02*
X86261Y-28818D01*
X86261Y-28818D02*
X86654Y-28818D01*
X86654Y-28818D02*
X86457Y-28818D01*
X86457Y-28818D02*
X86457Y-28622D01*
X86457Y-28622D02*
X86457Y-29015D01*
X84765Y-28425D02*
X84962Y-28425D01*
X84962Y-28425D02*
X84962Y-31574D01*
X84962Y-31574D02*
X84765Y-31574D01*
X85356Y-31574D02*
X86143Y-31574D01*
X86143Y-31574D02*
X86143Y-28425D01*
X86143Y-28425D02*
X85356Y-28425D01*
X85356Y-31574D02*
X84962Y-31574D01*
X84962Y-31574D02*
X84962Y-28425D01*
X84962Y-28425D02*
X85356Y-28425D01*
G54D21*
X112300Y-45200D02*
X113300Y-45200D01*
X113300Y-45200D02*
X113300Y-47200D01*
X113300Y-47200D02*
X112300Y-47200D01*
X112300Y-47200D02*
X112300Y-45200D01*
X90500Y-40800D02*
X89500Y-40800D01*
X89500Y-40800D02*
X89500Y-38800D01*
X89500Y-38800D02*
X90500Y-38800D01*
X90500Y-38800D02*
X90500Y-40800D01*
G54D10*
X87800Y-44009D02*
X87800Y-43812D01*
X87800Y-43812D02*
X90949Y-43812D01*
X90949Y-43812D02*
X90949Y-44009D01*
X90949Y-43418D02*
X90949Y-42631D01*
X90949Y-42631D02*
X87800Y-42631D01*
X87800Y-42631D02*
X87800Y-43418D01*
X90949Y-43418D02*
X90949Y-43812D01*
X90949Y-43812D02*
X87800Y-43812D01*
X87800Y-43812D02*
X87800Y-43418D01*
X95115Y-36992D02*
X95115Y-37287D01*
X95115Y-37287D02*
X97084Y-37287D01*
X97084Y-37287D02*
X97084Y-36992D01*
G54D21*
X94600Y-37000D02*
X94600Y-36000D01*
X94600Y-36000D02*
X97600Y-36000D01*
X97600Y-36000D02*
X97600Y-37000D01*
X97600Y-37000D02*
X94600Y-37000D01*
G54D10*
X99311Y-42204D02*
X99311Y-47322D01*
X99311Y-47322D02*
X94192Y-47322D01*
X94192Y-47322D02*
X94192Y-42204D01*
X94192Y-42204D02*
X99311Y-42204D01*
X94059Y-33440D02*
X94059Y-38559D01*
X94059Y-38559D02*
X88940Y-38559D01*
X88940Y-38559D02*
X88940Y-33440D01*
X88940Y-33440D02*
X94059Y-33440D01*
X88039Y-42239D02*
X88039Y-37317D01*
X88039Y-37317D02*
X88039Y-37120D01*
X88039Y-37120D02*
X82920Y-37120D01*
X82920Y-37120D02*
X82920Y-42239D01*
X82920Y-42239D02*
X88039Y-42239D01*
G54D11*
X105900Y-30400D02*
X106600Y-30400D01*
X106600Y-30400D02*
X106600Y-31600D01*
X106600Y-31600D02*
X105900Y-31600D01*
X105900Y-31600D02*
X105900Y-30400D01*
G54D22*
X101054Y-40062D02*
G75*
G03X101054Y-40062I-62J0D01*
G74*
G01*
X101330Y-41025D02*
X100930Y-41025D01*
X101330Y-40000D02*
X100930Y-40000D01*
X100930Y-41025D02*
X100930Y-40000D01*
X101330Y-40000D02*
X101330Y-41025D01*
G54D10*
X95541Y-39210D02*
X94281Y-39210D01*
X95541Y-41887D02*
X94281Y-41887D01*
X95541Y-39131D02*
X94281Y-39131D01*
X94279Y-40980D02*
X94279Y-41880D01*
X95543Y-41880D02*
X95543Y-40980D01*
X95541Y-40037D02*
X95541Y-39131D01*
X94281Y-39131D02*
X94281Y-40037D01*
G54D11*
X91861Y-39509D02*
X90961Y-39509D01*
X90961Y-39509D02*
X90961Y-40159D01*
X91861Y-40859D02*
X91861Y-41509D01*
X91861Y-41509D02*
X90961Y-41509D01*
X90961Y-41509D02*
X90961Y-40859D01*
X91861Y-40159D02*
X91861Y-39509D01*
X96500Y-28200D02*
X96500Y-27300D01*
X96500Y-27300D02*
X95850Y-27300D01*
X95150Y-28200D02*
X94500Y-28200D01*
X94500Y-28200D02*
X94500Y-27300D01*
X94500Y-27300D02*
X95150Y-27300D01*
X95850Y-28200D02*
X96500Y-28200D01*
X98000Y-34850D02*
X98000Y-33950D01*
X98000Y-33950D02*
X97350Y-33950D01*
X96650Y-34850D02*
X96000Y-34850D01*
X96000Y-34850D02*
X96000Y-33950D01*
X96000Y-33950D02*
X96650Y-33950D01*
X97350Y-34850D02*
X98000Y-34850D01*
X94800Y-37550D02*
X94800Y-38450D01*
X94800Y-38450D02*
X95450Y-38450D01*
X96150Y-37550D02*
X96800Y-37550D01*
X96800Y-37550D02*
X96800Y-38450D01*
X96800Y-38450D02*
X96150Y-38450D01*
X95450Y-37550D02*
X94800Y-37550D01*
X97700Y-27250D02*
X97700Y-28150D01*
X97700Y-28150D02*
X98350Y-28150D01*
X99050Y-27250D02*
X99700Y-27250D01*
X99700Y-27250D02*
X99700Y-28150D01*
X99700Y-28150D02*
X99050Y-28150D01*
X98350Y-27250D02*
X97700Y-27250D01*
X93361Y-39509D02*
X92461Y-39509D01*
X92461Y-39509D02*
X92461Y-40159D01*
X93361Y-40859D02*
X93361Y-41509D01*
X93361Y-41509D02*
X92461Y-41509D01*
X92461Y-41509D02*
X92461Y-40859D01*
X93361Y-40159D02*
X93361Y-39509D01*
X98000Y-33750D02*
X98000Y-32850D01*
X98000Y-32850D02*
X97350Y-32850D01*
X96650Y-33750D02*
X96000Y-33750D01*
X96000Y-33750D02*
X96000Y-32850D01*
X96000Y-32850D02*
X96650Y-32850D01*
X97350Y-33750D02*
X98000Y-33750D01*
X106300Y-34000D02*
X107200Y-34000D01*
X107200Y-34000D02*
X107200Y-33350D01*
X106300Y-32650D02*
X106300Y-32000D01*
X106300Y-32000D02*
X107200Y-32000D01*
X107200Y-32000D02*
X107200Y-32650D01*
X106300Y-33350D02*
X106300Y-34000D01*
X105461Y-45259D02*
X106361Y-45259D01*
X106361Y-45259D02*
X106361Y-44609D01*
X105461Y-43909D02*
X105461Y-43259D01*
X105461Y-43259D02*
X106361Y-43259D01*
X106361Y-43259D02*
X106361Y-43909D01*
X105461Y-44609D02*
X105461Y-45259D01*
X102961Y-45259D02*
X103861Y-45259D01*
X103861Y-45259D02*
X103861Y-44609D01*
X102961Y-43909D02*
X102961Y-43259D01*
X102961Y-43259D02*
X103861Y-43259D01*
X103861Y-43259D02*
X103861Y-43909D01*
X102961Y-44609D02*
X102961Y-45259D01*
X104211Y-45259D02*
X105111Y-45259D01*
X105111Y-45259D02*
X105111Y-44609D01*
X104211Y-43909D02*
X104211Y-43259D01*
X104211Y-43259D02*
X105111Y-43259D01*
X105111Y-43259D02*
X105111Y-43909D01*
X104211Y-44609D02*
X104211Y-45259D01*
X105170Y-25460D02*
X104270Y-25460D01*
X104270Y-25460D02*
X104270Y-24960D01*
X104270Y-24960D02*
X105170Y-24960D01*
X105170Y-24960D02*
X105170Y-25460D01*
X96450Y-23300D02*
X97350Y-23300D01*
X97350Y-23300D02*
X97350Y-23800D01*
X97350Y-23800D02*
X96450Y-23800D01*
X96450Y-23800D02*
X96450Y-23300D01*
X102652Y-36513D02*
X103552Y-36513D01*
X103552Y-36513D02*
X103552Y-37013D01*
X103552Y-37013D02*
X102652Y-37013D01*
X102652Y-37013D02*
X102652Y-36513D01*
X99661Y-39959D02*
X99661Y-39059D01*
X99661Y-39059D02*
X100161Y-39059D01*
X100161Y-39059D02*
X100161Y-39959D01*
X100161Y-39959D02*
X99661Y-39959D01*
X107250Y-31700D02*
X107250Y-30800D01*
X107250Y-30800D02*
X107750Y-30800D01*
X107750Y-30800D02*
X107750Y-31700D01*
X107750Y-31700D02*
X107250Y-31700D01*
X104250Y-31700D02*
X104250Y-30800D01*
X104250Y-30800D02*
X104750Y-30800D01*
X104750Y-30800D02*
X104750Y-31700D01*
X104750Y-31700D02*
X104250Y-31700D01*
X105438Y-34398D02*
X105438Y-33498D01*
X105438Y-33498D02*
X105938Y-33498D01*
X105938Y-33498D02*
X105938Y-34398D01*
X105938Y-34398D02*
X105438Y-34398D01*
X110150Y-24150D02*
X109250Y-24150D01*
X109250Y-24150D02*
X109250Y-23650D01*
X109250Y-23650D02*
X110150Y-23650D01*
X110150Y-23650D02*
X110150Y-24150D01*
X110150Y-27900D02*
X109250Y-27900D01*
X109250Y-27900D02*
X109250Y-27400D01*
X109250Y-27400D02*
X110150Y-27400D01*
X110150Y-27400D02*
X110150Y-27900D01*
X110150Y-25400D02*
X109250Y-25400D01*
X109250Y-25400D02*
X109250Y-24900D01*
X109250Y-24900D02*
X110150Y-24900D01*
X110150Y-24900D02*
X110150Y-25400D01*
X111659Y-30235D02*
X111659Y-31135D01*
X111659Y-31135D02*
X111159Y-31135D01*
X111159Y-31135D02*
X111159Y-30235D01*
X111159Y-30235D02*
X111659Y-30235D01*
X110871Y-30235D02*
X110871Y-31135D01*
X110871Y-31135D02*
X110371Y-31135D01*
X110371Y-31135D02*
X110371Y-30235D01*
X110371Y-30235D02*
X110871Y-30235D01*
X110084Y-30235D02*
X110084Y-31135D01*
X110084Y-31135D02*
X109584Y-31135D01*
X109584Y-31135D02*
X109584Y-30235D01*
X109584Y-30235D02*
X110084Y-30235D01*
X109296Y-30235D02*
X109296Y-31135D01*
X109296Y-31135D02*
X108796Y-31135D01*
X108796Y-31135D02*
X108796Y-30235D01*
X108796Y-30235D02*
X109296Y-30235D01*
X105170Y-27960D02*
X104270Y-27960D01*
X104270Y-27960D02*
X104270Y-27460D01*
X104270Y-27460D02*
X105170Y-27460D01*
X105170Y-27460D02*
X105170Y-27960D01*
X105170Y-26710D02*
X104270Y-26710D01*
X104270Y-26710D02*
X104270Y-26210D01*
X104270Y-26210D02*
X105170Y-26210D01*
X105170Y-26210D02*
X105170Y-26710D01*
X105170Y-24210D02*
X104270Y-24210D01*
X104270Y-24210D02*
X104270Y-23710D01*
X104270Y-23710D02*
X105170Y-23710D01*
X105170Y-23710D02*
X105170Y-24210D01*
X110150Y-26650D02*
X109250Y-26650D01*
X109250Y-26650D02*
X109250Y-26150D01*
X109250Y-26150D02*
X110150Y-26150D01*
X110150Y-26150D02*
X110150Y-26650D01*
X100361Y-33259D02*
X99461Y-33259D01*
X99461Y-33259D02*
X99461Y-32759D01*
X99461Y-32759D02*
X100361Y-32759D01*
X100361Y-32759D02*
X100361Y-33259D01*
X107050Y-35350D02*
X107050Y-34450D01*
X107050Y-34450D02*
X107550Y-34450D01*
X107550Y-34450D02*
X107550Y-35350D01*
X107550Y-35350D02*
X107050Y-35350D01*
X108450Y-40450D02*
X107550Y-40450D01*
X107550Y-40450D02*
X107550Y-39950D01*
X107550Y-39950D02*
X108450Y-39950D01*
X108450Y-39950D02*
X108450Y-40450D01*
X100361Y-35259D02*
X99461Y-35259D01*
X99461Y-35259D02*
X99461Y-34759D01*
X99461Y-34759D02*
X100361Y-34759D01*
X100361Y-34759D02*
X100361Y-35259D01*
X99950Y-38850D02*
X99950Y-37950D01*
X99950Y-37950D02*
X100450Y-37950D01*
X100450Y-37950D02*
X100450Y-38850D01*
X100450Y-38850D02*
X99950Y-38850D01*
X99250Y-38850D02*
X99250Y-37950D01*
X99250Y-37950D02*
X99750Y-37950D01*
X99750Y-37950D02*
X99750Y-38850D01*
X99750Y-38850D02*
X99250Y-38850D01*
X102211Y-40509D02*
X103111Y-40509D01*
X103111Y-40509D02*
X103111Y-41009D01*
X103111Y-41009D02*
X102211Y-41009D01*
X102211Y-41009D02*
X102211Y-40509D01*
X108450Y-41200D02*
X107550Y-41200D01*
X107550Y-41200D02*
X107550Y-40700D01*
X107550Y-40700D02*
X108450Y-40700D01*
X108450Y-40700D02*
X108450Y-41200D01*
X101550Y-33750D02*
X102450Y-33750D01*
X102450Y-33750D02*
X102450Y-34250D01*
X102450Y-34250D02*
X101550Y-34250D01*
X101550Y-34250D02*
X101550Y-33750D01*
X104661Y-39459D02*
X104661Y-38559D01*
X104661Y-38559D02*
X105161Y-38559D01*
X105161Y-38559D02*
X105161Y-39459D01*
X105161Y-39459D02*
X104661Y-39459D01*
X101550Y-34750D02*
X102450Y-34750D01*
X102450Y-34750D02*
X102450Y-35250D01*
X102450Y-35250D02*
X101550Y-35250D01*
X101550Y-35250D02*
X101550Y-34750D01*
X101550Y-32650D02*
X102450Y-32650D01*
X102450Y-32650D02*
X102450Y-33150D01*
X102450Y-33150D02*
X101550Y-33150D01*
X101550Y-33150D02*
X101550Y-32650D01*
X99461Y-33759D02*
X100361Y-33759D01*
X100361Y-33759D02*
X100361Y-34259D01*
X100361Y-34259D02*
X99461Y-34259D01*
X99461Y-34259D02*
X99461Y-33759D01*
X103461Y-32759D02*
X104361Y-32759D01*
X104361Y-32759D02*
X104361Y-33259D01*
X104361Y-33259D02*
X103461Y-33259D01*
X103461Y-33259D02*
X103461Y-32759D01*
X103550Y-34750D02*
X104450Y-34750D01*
X104450Y-34750D02*
X104450Y-35250D01*
X104450Y-35250D02*
X103550Y-35250D01*
X103550Y-35250D02*
X103550Y-34750D01*
X99350Y-23850D02*
X99350Y-24750D01*
X99350Y-24750D02*
X98850Y-24750D01*
X98850Y-24750D02*
X98850Y-23850D01*
X98850Y-23850D02*
X99350Y-23850D01*
X99150Y-30750D02*
X99150Y-31650D01*
X99150Y-31650D02*
X98650Y-31650D01*
X98650Y-31650D02*
X98650Y-30750D01*
X98650Y-30750D02*
X99150Y-30750D01*
X103461Y-33759D02*
X104361Y-33759D01*
X104361Y-33759D02*
X104361Y-34259D01*
X104361Y-34259D02*
X103461Y-34259D01*
X103461Y-34259D02*
X103461Y-33759D01*
X96300Y-31500D02*
X97200Y-31500D01*
X97200Y-31500D02*
X97200Y-32000D01*
X97200Y-32000D02*
X96300Y-32000D01*
X96300Y-32000D02*
X96300Y-31500D01*
X112950Y-40050D02*
X112950Y-41250D01*
X110850Y-40050D02*
X110850Y-41250D01*
X110650Y-40050D02*
X110650Y-41250D01*
X110650Y-41250D02*
X113150Y-41250D01*
X113150Y-41250D02*
X113150Y-40050D01*
X113150Y-40050D02*
X110650Y-40050D01*
G54D21*
X93150Y-42350D02*
X93150Y-42750D01*
X93150Y-42750D02*
X93550Y-42750D01*
X93550Y-42750D02*
X93550Y-45950D01*
X93550Y-45950D02*
X92750Y-45950D01*
X92750Y-45950D02*
X92750Y-42750D01*
X92750Y-42750D02*
X93150Y-42750D01*
X93350Y-42750D02*
X93550Y-42950D01*
X93150Y-46350D02*
X93150Y-45950D01*
X106000Y-40250D02*
X106000Y-39850D01*
X106000Y-39850D02*
X105600Y-39850D01*
X105600Y-39850D02*
X105600Y-36650D01*
X105600Y-36650D02*
X106400Y-36650D01*
X106400Y-36650D02*
X106400Y-39850D01*
X106400Y-39850D02*
X106000Y-39850D01*
X105800Y-39850D02*
X105600Y-39650D01*
X106000Y-36250D02*
X106000Y-36650D01*
X91950Y-46350D02*
X91950Y-45950D01*
X91950Y-45950D02*
X91550Y-45950D01*
X91550Y-45950D02*
X91550Y-42750D01*
X91550Y-42750D02*
X92350Y-42750D01*
X92350Y-42750D02*
X92350Y-45950D01*
X92350Y-45950D02*
X91950Y-45950D01*
X91750Y-45950D02*
X91550Y-45750D01*
X91950Y-42350D02*
X91950Y-42750D01*
G54D10*
X114031Y-27894D02*
X114031Y-25532D01*
X114031Y-25532D02*
X115212Y-25532D01*
X115212Y-25532D02*
X115212Y-27894D01*
X115212Y-27894D02*
X115212Y-25532D01*
X115212Y-25532D02*
X115409Y-25532D01*
X115409Y-27894D02*
X115212Y-27894D01*
X114031Y-27894D02*
X114818Y-27894D01*
X115212Y-27894D02*
X114818Y-27894D01*
G54D23*
X88530Y-31650D02*
X88530Y-36850D01*
X86930Y-36850D02*
X86930Y-31650D01*
X88530Y-31650D02*
X86930Y-31650D01*
X86930Y-36850D02*
X88530Y-36850D01*
X88530Y-23650D02*
X88530Y-28850D01*
X86930Y-28850D02*
X86930Y-23650D01*
X88530Y-23650D02*
X86930Y-23650D01*
X86930Y-28850D02*
X88530Y-28850D01*
G54D10*
X102996Y-25883D02*
X103862Y-25883D01*
X103862Y-25883D02*
X103862Y-27616D01*
X103862Y-27616D02*
X102996Y-27616D01*
X100000Y-27630D02*
X100000Y-25870D01*
X100000Y-25870D02*
X103000Y-25870D01*
X103000Y-27630D02*
X100000Y-27630D01*
X102996Y-23633D02*
X103862Y-23633D01*
X103862Y-23633D02*
X103862Y-25366D01*
X103862Y-25366D02*
X102996Y-25366D01*
X100000Y-25380D02*
X100000Y-23620D01*
X100000Y-23620D02*
X103000Y-23620D01*
X103000Y-25380D02*
X100000Y-25380D01*
X100743Y-32226D02*
X99877Y-32226D01*
X99877Y-32226D02*
X99877Y-30493D01*
X99877Y-30493D02*
X100743Y-30493D01*
X103740Y-30480D02*
X103740Y-32240D01*
X103740Y-32240D02*
X100740Y-32240D01*
X100740Y-30480D02*
X103740Y-30480D01*
X100753Y-29866D02*
X99887Y-29866D01*
X99887Y-29866D02*
X99887Y-28133D01*
X99887Y-28133D02*
X100753Y-28133D01*
X103750Y-28120D02*
X103750Y-29880D01*
X103750Y-29880D02*
X100750Y-29880D01*
X100750Y-28120D02*
X103750Y-28120D01*
X83603Y-36366D02*
X82737Y-36366D01*
X82737Y-36366D02*
X82737Y-34633D01*
X82737Y-34633D02*
X83603Y-34633D01*
X86600Y-34620D02*
X86600Y-36380D01*
X86600Y-36380D02*
X83600Y-36380D01*
X83600Y-34620D02*
X86600Y-34620D01*
X85746Y-32458D02*
X86612Y-32458D01*
X86612Y-32458D02*
X86612Y-34191D01*
X86612Y-34191D02*
X85746Y-34191D01*
X82750Y-34205D02*
X82750Y-32445D01*
X82750Y-32445D02*
X85750Y-32445D01*
X85750Y-34205D02*
X82750Y-34205D01*
X85696Y-24133D02*
X86562Y-24133D01*
X86562Y-24133D02*
X86562Y-25866D01*
X86562Y-25866D02*
X85696Y-25866D01*
X82700Y-25880D02*
X82700Y-24120D01*
X82700Y-24120D02*
X85700Y-24120D01*
X85700Y-25880D02*
X82700Y-25880D01*
X83503Y-27866D02*
X82637Y-27866D01*
X82637Y-27866D02*
X82637Y-26133D01*
X82637Y-26133D02*
X83503Y-26133D01*
X86500Y-26120D02*
X86500Y-27880D01*
X86500Y-27880D02*
X83500Y-27880D01*
X83500Y-26120D02*
X86500Y-26120D01*
X110682Y-27492D02*
X110682Y-24657D01*
X110682Y-24657D02*
X113517Y-24657D01*
X113517Y-24657D02*
X113517Y-27492D01*
X113517Y-27492D02*
X110682Y-27492D01*
G54D11*
X105250Y-30250D02*
X104350Y-30250D01*
X104350Y-30250D02*
X104350Y-29750D01*
X104350Y-29750D02*
X105250Y-29750D01*
X105250Y-29750D02*
X105250Y-30250D01*
G54D21*
X83600Y-28150D02*
X83600Y-28150D01*
X82600Y-28150D02*
X83600Y-28150D01*
X83600Y-28150D02*
X83600Y-28150D01*
X83600Y-28150D02*
X83600Y-32150D01*
X83600Y-32150D02*
X82600Y-32150D01*
X82600Y-32150D02*
X82600Y-28150D01*
X82600Y-29150D02*
X83600Y-29150D01*
X111350Y-45200D02*
X112350Y-45200D01*
X112350Y-45200D02*
X112350Y-47200D01*
X112350Y-47200D02*
X111350Y-47200D01*
X111350Y-47200D02*
X111350Y-45200D01*
G54D10*
X115324Y-31674D02*
X115127Y-31674D01*
X115127Y-31674D02*
X115127Y-28525D01*
X115127Y-28525D02*
X115324Y-28525D01*
X114733Y-28525D02*
X113946Y-28525D01*
X113946Y-28525D02*
X113946Y-31674D01*
X113946Y-31674D02*
X114733Y-31674D01*
X114733Y-28525D02*
X115127Y-28525D01*
X115127Y-28525D02*
X115127Y-31674D01*
X115127Y-31674D02*
X114733Y-31674D01*
X94151Y-34471D02*
X94151Y-33448D01*
X95569Y-32975D02*
X95648Y-33054D01*
X95648Y-33054D02*
X95648Y-34865D01*
X95648Y-34865D02*
X95569Y-34944D01*
X95569Y-34944D02*
X94624Y-34944D01*
X94624Y-34944D02*
X94151Y-34471D01*
X94151Y-33448D02*
X94624Y-32975D01*
X94624Y-32975D02*
X95569Y-32975D01*
X91434Y-26131D02*
X91246Y-26131D01*
X91246Y-25738D01*
X91528Y-25738D02*
X91771Y-25738D01*
X91640Y-25888D01*
X91696Y-25888D01*
X91734Y-25906D01*
X91753Y-25925D01*
X91771Y-25963D01*
X91771Y-26056D01*
X91753Y-26094D01*
X91734Y-26113D01*
X91696Y-26131D01*
X91584Y-26131D01*
X91546Y-26113D01*
X91528Y-26094D01*
X90546Y-24765D02*
X90790Y-24765D01*
X90659Y-24915D01*
X90715Y-24915D01*
X90753Y-24934D01*
X90771Y-24953D01*
X90790Y-24990D01*
X90790Y-25084D01*
X90771Y-25121D01*
X90753Y-25140D01*
X90715Y-25159D01*
X90603Y-25159D01*
X90565Y-25140D01*
X90546Y-25121D01*
X90921Y-24765D02*
X91165Y-24765D01*
X91034Y-24915D01*
X91090Y-24915D01*
X91128Y-24934D01*
X91146Y-24953D01*
X91165Y-24990D01*
X91165Y-25084D01*
X91146Y-25121D01*
X91128Y-25140D01*
X91090Y-25159D01*
X90978Y-25159D01*
X90940Y-25140D01*
X90921Y-25121D01*
X91503Y-24896D02*
X91503Y-25159D01*
X91334Y-24896D02*
X91334Y-25103D01*
X91353Y-25140D01*
X91390Y-25159D01*
X91446Y-25159D01*
X91484Y-25140D01*
X91503Y-25121D01*
X91690Y-25159D02*
X91690Y-24765D01*
X91690Y-24953D02*
X91915Y-24953D01*
X91915Y-25159D02*
X91915Y-24765D01*
X91434Y-31909D02*
X91246Y-31909D01*
X91246Y-31515D01*
X91546Y-31553D02*
X91565Y-31534D01*
X91603Y-31515D01*
X91696Y-31515D01*
X91734Y-31534D01*
X91753Y-31553D01*
X91771Y-31590D01*
X91771Y-31628D01*
X91753Y-31684D01*
X91528Y-31909D01*
X91771Y-31909D01*
X90796Y-30515D02*
X91040Y-30515D01*
X90909Y-30665D01*
X90965Y-30665D01*
X91003Y-30684D01*
X91021Y-30703D01*
X91040Y-30740D01*
X91040Y-30834D01*
X91021Y-30871D01*
X91003Y-30890D01*
X90965Y-30909D01*
X90853Y-30909D01*
X90815Y-30890D01*
X90796Y-30871D01*
X91171Y-30515D02*
X91415Y-30515D01*
X91284Y-30665D01*
X91340Y-30665D01*
X91378Y-30684D01*
X91396Y-30703D01*
X91415Y-30740D01*
X91415Y-30834D01*
X91396Y-30871D01*
X91378Y-30890D01*
X91340Y-30909D01*
X91228Y-30909D01*
X91190Y-30890D01*
X91171Y-30871D01*
X91753Y-30646D02*
X91753Y-30909D01*
X91584Y-30646D02*
X91584Y-30853D01*
X91603Y-30890D01*
X91640Y-30909D01*
X91696Y-30909D01*
X91734Y-30890D01*
X91753Y-30871D01*
X91940Y-30909D02*
X91940Y-30515D01*
X91940Y-30703D02*
X92165Y-30703D01*
X92165Y-30909D02*
X92165Y-30515D01*
X94916Y-24824D02*
X94916Y-25143D01*
X94935Y-25180D01*
X94954Y-25199D01*
X94991Y-25218D01*
X95066Y-25218D01*
X95104Y-25199D01*
X95122Y-25180D01*
X95141Y-25143D01*
X95141Y-24824D01*
X95516Y-24824D02*
X95329Y-24824D01*
X95310Y-25012D01*
X95329Y-24993D01*
X95366Y-24974D01*
X95460Y-24974D01*
X95497Y-24993D01*
X95516Y-25012D01*
X95535Y-25049D01*
X95535Y-25143D01*
X95516Y-25180D01*
X95497Y-25199D01*
X95460Y-25218D01*
X95366Y-25218D01*
X95329Y-25199D01*
X95310Y-25180D01*
X94550Y-26495D02*
X94550Y-26259D01*
X94629Y-26428D01*
X94708Y-26259D01*
X94708Y-26495D01*
X94865Y-26259D02*
X94910Y-26259D01*
X94933Y-26270D01*
X94955Y-26293D01*
X94966Y-26338D01*
X94966Y-26416D01*
X94955Y-26461D01*
X94933Y-26484D01*
X94910Y-26495D01*
X94865Y-26495D01*
X94843Y-26484D01*
X94820Y-26461D01*
X94809Y-26416D01*
X94809Y-26338D01*
X94820Y-26293D01*
X94843Y-26270D01*
X94865Y-26259D01*
X95068Y-26495D02*
X95068Y-26259D01*
X95203Y-26495D01*
X95203Y-26259D01*
X95360Y-26259D02*
X95405Y-26259D01*
X95428Y-26270D01*
X95450Y-26293D01*
X95461Y-26338D01*
X95461Y-26416D01*
X95450Y-26461D01*
X95428Y-26484D01*
X95405Y-26495D01*
X95360Y-26495D01*
X95338Y-26484D01*
X95315Y-26461D01*
X95304Y-26416D01*
X95304Y-26338D01*
X95315Y-26293D01*
X95338Y-26270D01*
X95360Y-26259D01*
X95911Y-26248D02*
X95709Y-26551D01*
X96283Y-26495D02*
X96170Y-26495D01*
X96170Y-26259D01*
G54D17*
X108557Y-30499D02*
X108571Y-30457D01*
X108571Y-30385D01*
X108557Y-30357D01*
X108542Y-30342D01*
X108514Y-30328D01*
X108485Y-30328D01*
X108457Y-30342D01*
X108442Y-30357D01*
X108428Y-30385D01*
X108414Y-30442D01*
X108400Y-30471D01*
X108385Y-30485D01*
X108357Y-30499D01*
X108328Y-30499D01*
X108300Y-30485D01*
X108285Y-30471D01*
X108271Y-30442D01*
X108271Y-30371D01*
X108285Y-30328D01*
X108271Y-30228D02*
X108571Y-30157D01*
X108357Y-30099D01*
X108571Y-30042D01*
X108271Y-29971D01*
X108271Y-29885D02*
X108271Y-29700D01*
X108385Y-29800D01*
X108385Y-29757D01*
X108400Y-29728D01*
X108414Y-29714D01*
X108442Y-29700D01*
X108514Y-29700D01*
X108542Y-29714D01*
X108557Y-29728D01*
X108571Y-29757D01*
X108571Y-29842D01*
X108557Y-29871D01*
X108542Y-29885D01*
G54D19*
X106022Y-29128D02*
X106079Y-29157D01*
X106098Y-29185D01*
X106117Y-29242D01*
X106117Y-29328D01*
X106098Y-29385D01*
X106079Y-29414D01*
X106041Y-29442D01*
X105889Y-29442D01*
X105889Y-28842D01*
X106022Y-28842D01*
X106060Y-28871D01*
X106079Y-28900D01*
X106098Y-28957D01*
X106098Y-29014D01*
X106079Y-29071D01*
X106060Y-29100D01*
X106022Y-29128D01*
X105889Y-29128D01*
X106232Y-28842D02*
X106460Y-28842D01*
X106346Y-29442D02*
X106346Y-28842D01*
X106879Y-29414D02*
X106936Y-29442D01*
X107032Y-29442D01*
X107070Y-29414D01*
X107089Y-29385D01*
X107108Y-29328D01*
X107108Y-29271D01*
X107089Y-29214D01*
X107070Y-29185D01*
X107032Y-29157D01*
X106955Y-29128D01*
X106917Y-29100D01*
X106898Y-29071D01*
X106879Y-29014D01*
X106879Y-28957D01*
X106898Y-28900D01*
X106917Y-28871D01*
X106955Y-28842D01*
X107051Y-28842D01*
X107108Y-28871D01*
X107241Y-28842D02*
X107336Y-29442D01*
X107413Y-29014D01*
X107489Y-29442D01*
X107584Y-28842D01*
X107736Y-29442D02*
X107736Y-28842D01*
X107870Y-28842D02*
X108098Y-28842D01*
X107984Y-29442D02*
X107984Y-28842D01*
X108460Y-29385D02*
X108441Y-29414D01*
X108384Y-29442D01*
X108346Y-29442D01*
X108289Y-29414D01*
X108251Y-29357D01*
X108232Y-29300D01*
X108213Y-29185D01*
X108213Y-29100D01*
X108232Y-28985D01*
X108251Y-28928D01*
X108289Y-28871D01*
X108346Y-28842D01*
X108384Y-28842D01*
X108441Y-28871D01*
X108460Y-28900D01*
X108632Y-29442D02*
X108632Y-28842D01*
X108632Y-29128D02*
X108860Y-29128D01*
X108860Y-29442D02*
X108860Y-28842D01*
G54D24*
X101446Y-22999D02*
X101446Y-23360D01*
X101426Y-23432D01*
X101386Y-23480D01*
X101325Y-23504D01*
X101285Y-23504D01*
X101648Y-23504D02*
X101648Y-22999D01*
X101810Y-22999D01*
X101850Y-23023D01*
X101870Y-23047D01*
X101890Y-23095D01*
X101890Y-23167D01*
X101870Y-23215D01*
X101850Y-23239D01*
X101810Y-23263D01*
X101648Y-23263D01*
X102294Y-23504D02*
X102052Y-23504D01*
X102173Y-23504D02*
X102173Y-22999D01*
X102133Y-23071D01*
X102092Y-23119D01*
X102052Y-23143D01*
G54D11*
X101882Y-22527D02*
X101730Y-22584D01*
X101882Y-22641D01*
X102120Y-22651D02*
X102149Y-22660D01*
X102197Y-22660D01*
X102216Y-22651D01*
X102225Y-22641D01*
X102235Y-22622D01*
X102235Y-22603D01*
X102225Y-22584D01*
X102216Y-22575D01*
X102197Y-22565D01*
X102159Y-22556D01*
X102140Y-22546D01*
X102130Y-22537D01*
X102120Y-22518D01*
X102120Y-22499D01*
X102130Y-22480D01*
X102140Y-22470D01*
X102159Y-22460D01*
X102206Y-22460D01*
X102235Y-22470D01*
X102292Y-22460D02*
X102406Y-22460D01*
X102349Y-22660D02*
X102349Y-22460D01*
X102473Y-22556D02*
X102540Y-22556D01*
X102568Y-22660D02*
X102473Y-22660D01*
X102473Y-22460D01*
X102568Y-22460D01*
X102768Y-22660D02*
X102701Y-22565D01*
X102654Y-22660D02*
X102654Y-22460D01*
X102730Y-22460D01*
X102749Y-22470D01*
X102759Y-22480D01*
X102768Y-22499D01*
X102768Y-22527D01*
X102759Y-22546D01*
X102749Y-22556D01*
X102730Y-22565D01*
X102654Y-22565D01*
X102854Y-22556D02*
X102920Y-22556D01*
X102949Y-22660D02*
X102854Y-22660D01*
X102854Y-22460D01*
X102949Y-22460D01*
X103073Y-22460D02*
X103111Y-22460D01*
X103130Y-22470D01*
X103149Y-22489D01*
X103159Y-22527D01*
X103159Y-22594D01*
X103149Y-22632D01*
X103130Y-22651D01*
X103111Y-22660D01*
X103073Y-22660D01*
X103054Y-22651D01*
X103035Y-22632D01*
X103025Y-22594D01*
X103025Y-22527D01*
X103035Y-22489D01*
X103054Y-22470D01*
X103073Y-22460D01*
G54D25*
X85734Y-43326D02*
X85734Y-42643D01*
X85978Y-43326D02*
X85795Y-42936D01*
X85978Y-42643D02*
X85734Y-43033D01*
X86386Y-43326D02*
X86141Y-43326D01*
X86264Y-43326D02*
X86264Y-42643D01*
X86223Y-42741D01*
X86182Y-42806D01*
X86141Y-42838D01*
G54D21*
G54D26*
X107272Y-44508D02*
X107010Y-44641D01*
X107272Y-44793D02*
X106722Y-44725D01*
X106722Y-44534D01*
X106748Y-44490D01*
X106775Y-44469D01*
X106827Y-44452D01*
X106905Y-44462D01*
X106958Y-44492D01*
X106984Y-44519D01*
X107010Y-44570D01*
X107010Y-44761D01*
X106775Y-44255D02*
X106748Y-44228D01*
X106722Y-44177D01*
X106722Y-44058D01*
X106748Y-44013D01*
X106775Y-43993D01*
X106827Y-43976D01*
X106879Y-43982D01*
X106958Y-44016D01*
X107272Y-44341D01*
X107272Y-44031D01*
G54D11*
X106896Y-47286D02*
X106896Y-47010D01*
X106962Y-47010D01*
X107001Y-47023D01*
X107027Y-47050D01*
X107040Y-47076D01*
X107054Y-47129D01*
X107054Y-47168D01*
X107040Y-47221D01*
X107027Y-47247D01*
X107001Y-47273D01*
X106962Y-47286D01*
X106896Y-47286D01*
X107159Y-47037D02*
X107172Y-47023D01*
X107198Y-47010D01*
X107264Y-47010D01*
X107290Y-47023D01*
X107303Y-47037D01*
X107316Y-47063D01*
X107316Y-47089D01*
X107303Y-47129D01*
X107146Y-47286D01*
X107316Y-47286D01*
G54D10*
X95600Y-29265D02*
X95600Y-29584D01*
X95618Y-29621D01*
X95637Y-29640D01*
X95675Y-29659D01*
X95750Y-29659D01*
X95787Y-29640D01*
X95806Y-29621D01*
X95825Y-29584D01*
X95825Y-29265D01*
X96181Y-29265D02*
X96106Y-29265D01*
X96068Y-29284D01*
X96049Y-29303D01*
X96012Y-29359D01*
X95993Y-29434D01*
X95993Y-29584D01*
X96012Y-29621D01*
X96031Y-29640D01*
X96068Y-29659D01*
X96143Y-29659D01*
X96181Y-29640D01*
X96199Y-29621D01*
X96218Y-29584D01*
X96218Y-29490D01*
X96199Y-29453D01*
X96181Y-29434D01*
X96143Y-29415D01*
X96068Y-29415D01*
X96031Y-29434D01*
X96012Y-29453D01*
X95993Y-29490D01*
X95321Y-30359D02*
X95190Y-30171D01*
X95096Y-30359D02*
X95096Y-29965D01*
X95246Y-29965D01*
X95284Y-29984D01*
X95303Y-30003D01*
X95321Y-30040D01*
X95321Y-30096D01*
X95303Y-30134D01*
X95284Y-30153D01*
X95246Y-30171D01*
X95096Y-30171D01*
X109668Y-41753D02*
X109537Y-41753D01*
X109537Y-41959D02*
X109537Y-41565D01*
X109725Y-41565D01*
X110081Y-41959D02*
X109856Y-41959D01*
X109968Y-41959D02*
X109968Y-41565D01*
X109931Y-41621D01*
X109893Y-41659D01*
X109856Y-41678D01*
X111162Y-41621D02*
X111162Y-41884D01*
X111068Y-41471D02*
X110975Y-41753D01*
X111218Y-41753D01*
X111350Y-41771D02*
X111537Y-41771D01*
X111312Y-41884D02*
X111443Y-41490D01*
X111575Y-41884D01*
X111950Y-41621D02*
X112099Y-41621D01*
X112006Y-41884D02*
X112006Y-41546D01*
X112025Y-41509D01*
X112062Y-41490D01*
X112099Y-41490D01*
X112399Y-41621D02*
X112399Y-41884D01*
X112231Y-41621D02*
X112231Y-41828D01*
X112249Y-41865D01*
X112287Y-41884D01*
X112343Y-41884D01*
X112381Y-41865D01*
X112399Y-41846D01*
X112568Y-41865D02*
X112606Y-41884D01*
X112681Y-41884D01*
X112718Y-41865D01*
X112737Y-41828D01*
X112737Y-41809D01*
X112718Y-41771D01*
X112681Y-41753D01*
X112624Y-41753D01*
X112587Y-41734D01*
X112568Y-41696D01*
X112568Y-41678D01*
X112587Y-41640D01*
X112624Y-41621D01*
X112681Y-41621D01*
X112718Y-41640D01*
X113056Y-41865D02*
X113018Y-41884D01*
X112943Y-41884D01*
X112906Y-41865D01*
X112887Y-41828D01*
X112887Y-41678D01*
X112906Y-41640D01*
X112943Y-41621D01*
X113018Y-41621D01*
X113056Y-41640D01*
X113074Y-41678D01*
X113074Y-41715D01*
X112887Y-41753D01*
X103350Y-39415D02*
X103350Y-39734D01*
X103368Y-39771D01*
X103387Y-39790D01*
X103425Y-39809D01*
X103500Y-39809D01*
X103537Y-39790D01*
X103556Y-39771D01*
X103575Y-39734D01*
X103575Y-39415D01*
X103968Y-39809D02*
X103743Y-39809D01*
X103856Y-39809D02*
X103856Y-39415D01*
X103818Y-39471D01*
X103781Y-39509D01*
X103743Y-39528D01*
X102909Y-37803D02*
X102965Y-37821D01*
X102984Y-37840D01*
X103003Y-37878D01*
X103003Y-37934D01*
X102984Y-37971D01*
X102965Y-37990D01*
X102928Y-38009D01*
X102778Y-38009D01*
X102778Y-37615D01*
X102909Y-37615D01*
X102947Y-37634D01*
X102965Y-37653D01*
X102984Y-37690D01*
X102984Y-37728D01*
X102965Y-37765D01*
X102947Y-37784D01*
X102909Y-37803D01*
X102778Y-37803D01*
X103434Y-38046D02*
X103396Y-38028D01*
X103359Y-37990D01*
X103303Y-37934D01*
X103265Y-37915D01*
X103228Y-37915D01*
X103246Y-38009D02*
X103209Y-37990D01*
X103171Y-37953D01*
X103153Y-37878D01*
X103153Y-37746D01*
X103171Y-37671D01*
X103209Y-37634D01*
X103246Y-37615D01*
X103321Y-37615D01*
X103359Y-37634D01*
X103396Y-37671D01*
X103415Y-37746D01*
X103415Y-37878D01*
X103396Y-37953D01*
X103359Y-37990D01*
X103321Y-38009D01*
X103246Y-38009D01*
X103565Y-37653D02*
X103584Y-37634D01*
X103621Y-37615D01*
X103715Y-37615D01*
X103753Y-37634D01*
X103771Y-37653D01*
X103790Y-37690D01*
X103790Y-37728D01*
X103771Y-37784D01*
X103546Y-38009D01*
X103790Y-38009D01*
X104128Y-37746D02*
X104128Y-38009D01*
X104034Y-37596D02*
X103940Y-37878D01*
X104184Y-37878D01*
X104503Y-37615D02*
X104428Y-37615D01*
X104390Y-37634D01*
X104371Y-37653D01*
X104334Y-37709D01*
X104315Y-37784D01*
X104315Y-37934D01*
X104334Y-37971D01*
X104353Y-37990D01*
X104390Y-38009D01*
X104465Y-38009D01*
X104503Y-37990D01*
X104521Y-37971D01*
X104540Y-37934D01*
X104540Y-37840D01*
X104521Y-37803D01*
X104503Y-37784D01*
X104465Y-37765D01*
X104390Y-37765D01*
X104353Y-37784D01*
X104334Y-37803D01*
X104315Y-37840D01*
X104878Y-37746D02*
X104878Y-38009D01*
X104784Y-37596D02*
X104690Y-37878D01*
X104934Y-37878D01*
X105159Y-37615D02*
X105196Y-37615D01*
X105234Y-37634D01*
X105252Y-37653D01*
X105271Y-37690D01*
X105290Y-37765D01*
X105290Y-37859D01*
X105271Y-37934D01*
X105252Y-37971D01*
X105234Y-37990D01*
X105196Y-38009D01*
X105159Y-38009D01*
X105121Y-37990D01*
X105102Y-37971D01*
X105084Y-37934D01*
X105065Y-37859D01*
X105065Y-37765D01*
X105084Y-37690D01*
X105102Y-37653D01*
X105121Y-37634D01*
X105159Y-37615D01*
G54D26*
X112151Y-28172D02*
X112132Y-28191D01*
X112075Y-28210D01*
X112037Y-28210D01*
X111980Y-28191D01*
X111941Y-28153D01*
X111922Y-28115D01*
X111903Y-28039D01*
X111903Y-27982D01*
X111922Y-27905D01*
X111941Y-27867D01*
X111980Y-27829D01*
X112037Y-27810D01*
X112075Y-27810D01*
X112132Y-27829D01*
X112151Y-27848D01*
X112284Y-27810D02*
X112551Y-27810D01*
X112380Y-28210D01*
X112033Y-23523D02*
X112014Y-23542D01*
X111957Y-23561D01*
X111919Y-23561D01*
X111861Y-23542D01*
X111823Y-23504D01*
X111804Y-23466D01*
X111785Y-23390D01*
X111785Y-23333D01*
X111804Y-23257D01*
X111823Y-23219D01*
X111861Y-23180D01*
X111919Y-23161D01*
X111957Y-23161D01*
X112014Y-23180D01*
X112033Y-23200D01*
X112261Y-23333D02*
X112223Y-23314D01*
X112204Y-23295D01*
X112185Y-23257D01*
X112185Y-23238D01*
X112204Y-23200D01*
X112223Y-23180D01*
X112261Y-23161D01*
X112338Y-23161D01*
X112376Y-23180D01*
X112395Y-23200D01*
X112414Y-23238D01*
X112414Y-23257D01*
X112395Y-23295D01*
X112376Y-23314D01*
X112338Y-23333D01*
X112261Y-23333D01*
X112223Y-23352D01*
X112204Y-23371D01*
X112185Y-23409D01*
X112185Y-23485D01*
X112204Y-23523D01*
X112223Y-23542D01*
X112261Y-23561D01*
X112338Y-23561D01*
X112376Y-23542D01*
X112395Y-23523D01*
X112414Y-23485D01*
X112414Y-23409D01*
X112395Y-23371D01*
X112376Y-23352D01*
X112338Y-23333D01*
G54D10*
X107665Y-37849D02*
X107984Y-37849D01*
X108021Y-37831D01*
X108040Y-37812D01*
X108059Y-37774D01*
X108059Y-37699D01*
X108040Y-37662D01*
X108021Y-37643D01*
X107984Y-37624D01*
X107665Y-37624D01*
X107703Y-37456D02*
X107684Y-37437D01*
X107665Y-37400D01*
X107665Y-37306D01*
X107684Y-37268D01*
X107703Y-37250D01*
X107740Y-37231D01*
X107778Y-37231D01*
X107834Y-37250D01*
X108059Y-37475D01*
X108059Y-37231D01*
X107253Y-37731D02*
X107271Y-37674D01*
X107290Y-37656D01*
X107328Y-37637D01*
X107384Y-37637D01*
X107421Y-37656D01*
X107440Y-37674D01*
X107459Y-37712D01*
X107459Y-37862D01*
X107065Y-37862D01*
X107065Y-37731D01*
X107084Y-37693D01*
X107103Y-37674D01*
X107140Y-37656D01*
X107178Y-37656D01*
X107215Y-37674D01*
X107234Y-37693D01*
X107253Y-37731D01*
X107253Y-37862D01*
X107421Y-37243D02*
X107440Y-37262D01*
X107459Y-37318D01*
X107459Y-37356D01*
X107440Y-37412D01*
X107403Y-37449D01*
X107365Y-37468D01*
X107290Y-37487D01*
X107234Y-37487D01*
X107159Y-37468D01*
X107121Y-37449D01*
X107084Y-37412D01*
X107065Y-37356D01*
X107065Y-37318D01*
X107084Y-37262D01*
X107103Y-37243D01*
X107459Y-36868D02*
X107459Y-37093D01*
X107459Y-36981D02*
X107065Y-36981D01*
X107121Y-37018D01*
X107159Y-37056D01*
X107178Y-37093D01*
X107103Y-36718D02*
X107084Y-36700D01*
X107065Y-36662D01*
X107065Y-36568D01*
X107084Y-36531D01*
X107103Y-36512D01*
X107140Y-36493D01*
X107178Y-36493D01*
X107234Y-36512D01*
X107459Y-36737D01*
X107459Y-36493D01*
X107065Y-36362D02*
X107065Y-36100D01*
X107459Y-36268D01*
G54D25*
X115075Y-45715D02*
X114394Y-45715D01*
X114394Y-45552D01*
X114427Y-45512D01*
X114459Y-45491D01*
X114524Y-45471D01*
X114621Y-45471D01*
X114686Y-45491D01*
X114718Y-45512D01*
X114751Y-45552D01*
X114751Y-45715D01*
X115075Y-45063D02*
X115075Y-45308D01*
X115075Y-45186D02*
X114394Y-45186D01*
X114491Y-45226D01*
X114556Y-45267D01*
X114589Y-45308D01*
G54D19*
X113496Y-47101D02*
X113467Y-47139D01*
X113467Y-47196D01*
X113496Y-47253D01*
X113553Y-47291D01*
X113610Y-47310D01*
X113725Y-47329D01*
X113810Y-47329D01*
X113925Y-47310D01*
X113982Y-47291D01*
X114039Y-47253D01*
X114067Y-47196D01*
X114067Y-47158D01*
X114039Y-47101D01*
X114010Y-47082D01*
X113810Y-47082D01*
X113810Y-47158D01*
X114067Y-46910D02*
X113467Y-46910D01*
X114067Y-46682D01*
X113467Y-46682D01*
X114067Y-46491D02*
X113467Y-46491D01*
X113467Y-46396D01*
X113496Y-46339D01*
X113553Y-46301D01*
X113610Y-46282D01*
X113725Y-46263D01*
X113810Y-46263D01*
X113925Y-46282D01*
X113982Y-46301D01*
X114039Y-46339D01*
X114067Y-46396D01*
X114067Y-46491D01*
X113467Y-45844D02*
X114067Y-45710D01*
X113467Y-45577D01*
X113839Y-45444D02*
X113839Y-45139D01*
X114067Y-45291D02*
X113610Y-45291D01*
G54D25*
X89429Y-41643D02*
X89490Y-41675D01*
X89592Y-41675D01*
X89633Y-41643D01*
X89653Y-41610D01*
X89673Y-41545D01*
X89673Y-41481D01*
X89653Y-41416D01*
X89633Y-41383D01*
X89592Y-41351D01*
X89510Y-41318D01*
X89470Y-41286D01*
X89449Y-41254D01*
X89429Y-41189D01*
X89429Y-41124D01*
X89449Y-41059D01*
X89470Y-41027D01*
X89510Y-40994D01*
X89612Y-40994D01*
X89673Y-41027D01*
X89816Y-40994D02*
X89918Y-41675D01*
X90000Y-41189D01*
X90081Y-41675D01*
X90183Y-40994D01*
X90326Y-41059D02*
X90346Y-41027D01*
X90387Y-40994D01*
X90489Y-40994D01*
X90529Y-41027D01*
X90550Y-41059D01*
X90570Y-41124D01*
X90570Y-41189D01*
X90550Y-41286D01*
X90305Y-41675D01*
X90570Y-41675D01*
G54D19*
X88842Y-41752D02*
X88242Y-41752D01*
X88242Y-41600D01*
X88271Y-41561D01*
X88300Y-41542D01*
X88357Y-41523D01*
X88442Y-41523D01*
X88500Y-41542D01*
X88528Y-41561D01*
X88557Y-41600D01*
X88557Y-41752D01*
X88242Y-41276D02*
X88242Y-41200D01*
X88271Y-41161D01*
X88328Y-41123D01*
X88442Y-41104D01*
X88642Y-41104D01*
X88757Y-41123D01*
X88814Y-41161D01*
X88842Y-41200D01*
X88842Y-41276D01*
X88814Y-41314D01*
X88757Y-41352D01*
X88642Y-41371D01*
X88442Y-41371D01*
X88328Y-41352D01*
X88271Y-41314D01*
X88242Y-41276D01*
X88242Y-40971D02*
X88842Y-40876D01*
X88414Y-40800D01*
X88842Y-40723D01*
X88242Y-40628D01*
X88528Y-40476D02*
X88528Y-40342D01*
X88842Y-40285D02*
X88842Y-40476D01*
X88242Y-40476D01*
X88242Y-40285D01*
X88842Y-39885D02*
X88557Y-40019D01*
X88842Y-40114D02*
X88242Y-40114D01*
X88242Y-39961D01*
X88271Y-39923D01*
X88300Y-39904D01*
X88357Y-39885D01*
X88442Y-39885D01*
X88500Y-39904D01*
X88528Y-39923D01*
X88557Y-39961D01*
X88557Y-40114D01*
X88814Y-39428D02*
X88842Y-39371D01*
X88842Y-39276D01*
X88814Y-39238D01*
X88785Y-39219D01*
X88728Y-39200D01*
X88671Y-39200D01*
X88614Y-39219D01*
X88585Y-39238D01*
X88557Y-39276D01*
X88528Y-39352D01*
X88500Y-39390D01*
X88471Y-39409D01*
X88414Y-39428D01*
X88357Y-39428D01*
X88300Y-39409D01*
X88271Y-39390D01*
X88242Y-39352D01*
X88242Y-39257D01*
X88271Y-39200D01*
X88242Y-39066D02*
X88842Y-38971D01*
X88414Y-38895D01*
X88842Y-38819D01*
X88242Y-38723D01*
X88842Y-38571D02*
X88242Y-38571D01*
X88242Y-38438D02*
X88242Y-38209D01*
X88842Y-38323D02*
X88242Y-38323D01*
X88785Y-37847D02*
X88814Y-37866D01*
X88842Y-37923D01*
X88842Y-37961D01*
X88814Y-38019D01*
X88757Y-38057D01*
X88700Y-38076D01*
X88585Y-38095D01*
X88500Y-38095D01*
X88385Y-38076D01*
X88328Y-38057D01*
X88271Y-38019D01*
X88242Y-37961D01*
X88242Y-37923D01*
X88271Y-37866D01*
X88300Y-37847D01*
X88842Y-37676D02*
X88242Y-37676D01*
X88528Y-37676D02*
X88528Y-37447D01*
X88842Y-37447D02*
X88242Y-37447D01*
G54D10*
X87030Y-43530D02*
X87030Y-43136D01*
X87180Y-43136D01*
X87217Y-43155D01*
X87236Y-43173D01*
X87255Y-43211D01*
X87255Y-43267D01*
X87236Y-43305D01*
X87217Y-43323D01*
X87180Y-43342D01*
X87030Y-43342D01*
X87592Y-43267D02*
X87592Y-43530D01*
X87498Y-43117D02*
X87405Y-43398D01*
X87648Y-43398D01*
X87845Y-42055D02*
X87816Y-42036D01*
X87773Y-42036D01*
X87729Y-42055D01*
X87700Y-42092D01*
X87686Y-42130D01*
X87672Y-42205D01*
X87672Y-42261D01*
X87686Y-42336D01*
X87700Y-42373D01*
X87729Y-42411D01*
X87773Y-42430D01*
X87802Y-42430D01*
X87845Y-42411D01*
X87860Y-42392D01*
X87860Y-42261D01*
X87802Y-42261D01*
X87990Y-42430D02*
X87990Y-42036D01*
X88163Y-42430D01*
X88163Y-42036D01*
X88308Y-42430D02*
X88308Y-42036D01*
X88380Y-42036D01*
X88424Y-42055D01*
X88452Y-42092D01*
X88467Y-42130D01*
X88481Y-42205D01*
X88481Y-42261D01*
X88467Y-42336D01*
X88452Y-42373D01*
X88424Y-42411D01*
X88380Y-42430D01*
X88308Y-42430D01*
X88800Y-42036D02*
X88901Y-42430D01*
X89002Y-42036D01*
X89103Y-42280D02*
X89335Y-42280D01*
X89219Y-42430D02*
X89219Y-42130D01*
X89855Y-42036D02*
X89711Y-42036D01*
X89696Y-42223D01*
X89711Y-42205D01*
X89740Y-42186D01*
X89812Y-42186D01*
X89841Y-42205D01*
X89855Y-42223D01*
X89870Y-42261D01*
X89870Y-42355D01*
X89855Y-42392D01*
X89841Y-42411D01*
X89812Y-42430D01*
X89740Y-42430D01*
X89711Y-42411D01*
X89696Y-42392D01*
X89956Y-42036D02*
X90058Y-42430D01*
X90159Y-42036D01*
X90492Y-42430D02*
X90492Y-42036D01*
X90607Y-42036D01*
X90636Y-42055D01*
X90651Y-42073D01*
X90665Y-42111D01*
X90665Y-42167D01*
X90651Y-42205D01*
X90636Y-42223D01*
X90607Y-42242D01*
X90492Y-42242D01*
X90954Y-42055D02*
X90925Y-42036D01*
X90882Y-42036D01*
X90839Y-42055D01*
X90810Y-42092D01*
X90795Y-42130D01*
X90781Y-42205D01*
X90781Y-42261D01*
X90795Y-42336D01*
X90810Y-42373D01*
X90839Y-42411D01*
X90882Y-42430D01*
X90911Y-42430D01*
X90954Y-42411D01*
X90969Y-42392D01*
X90969Y-42261D01*
X90911Y-42261D01*
G54D19*
X96575Y-35421D02*
X96575Y-35745D01*
X96594Y-35783D01*
X96613Y-35802D01*
X96651Y-35821D01*
X96727Y-35821D01*
X96765Y-35802D01*
X96784Y-35783D01*
X96803Y-35745D01*
X96803Y-35421D01*
X97165Y-35555D02*
X97165Y-35821D01*
X97070Y-35402D02*
X96975Y-35688D01*
X97222Y-35688D01*
G54D10*
X96859Y-42059D02*
X96671Y-42059D01*
X96671Y-41665D01*
X97196Y-42059D02*
X96971Y-42059D01*
X97084Y-42059D02*
X97084Y-41665D01*
X97046Y-41721D01*
X97009Y-41759D01*
X96971Y-41778D01*
X96135Y-44529D02*
X95910Y-44529D01*
X96022Y-44529D02*
X96022Y-44135D01*
X95985Y-44191D01*
X95947Y-44229D01*
X95910Y-44248D01*
X96491Y-44135D02*
X96303Y-44135D01*
X96285Y-44323D01*
X96303Y-44304D01*
X96341Y-44285D01*
X96435Y-44285D01*
X96472Y-44304D01*
X96491Y-44323D01*
X96510Y-44360D01*
X96510Y-44454D01*
X96491Y-44491D01*
X96472Y-44510D01*
X96435Y-44529D01*
X96341Y-44529D01*
X96303Y-44510D01*
X96285Y-44491D01*
X96847Y-44266D02*
X96847Y-44529D01*
X96678Y-44266D02*
X96678Y-44473D01*
X96697Y-44510D01*
X96735Y-44529D01*
X96791Y-44529D01*
X96828Y-44510D01*
X96847Y-44491D01*
X97035Y-44529D02*
X97035Y-44135D01*
X97035Y-44323D02*
X97260Y-44323D01*
X97260Y-44529D02*
X97260Y-44135D01*
X91434Y-36631D02*
X91246Y-36631D01*
X91246Y-36238D01*
X91753Y-36238D02*
X91565Y-36238D01*
X91546Y-36425D01*
X91565Y-36406D01*
X91603Y-36388D01*
X91696Y-36388D01*
X91734Y-36406D01*
X91753Y-36425D01*
X91771Y-36463D01*
X91771Y-36556D01*
X91753Y-36594D01*
X91734Y-36613D01*
X91696Y-36631D01*
X91603Y-36631D01*
X91565Y-36613D01*
X91546Y-36594D01*
X90639Y-35371D02*
X90883Y-35371D01*
X90751Y-35521D01*
X90808Y-35521D01*
X90845Y-35540D01*
X90864Y-35559D01*
X90883Y-35596D01*
X90883Y-35690D01*
X90864Y-35728D01*
X90845Y-35746D01*
X90808Y-35765D01*
X90695Y-35765D01*
X90658Y-35746D01*
X90639Y-35728D01*
X91014Y-35371D02*
X91258Y-35371D01*
X91126Y-35521D01*
X91183Y-35521D01*
X91220Y-35540D01*
X91239Y-35559D01*
X91258Y-35596D01*
X91258Y-35690D01*
X91239Y-35728D01*
X91220Y-35746D01*
X91183Y-35765D01*
X91070Y-35765D01*
X91033Y-35746D01*
X91014Y-35728D01*
X91595Y-35503D02*
X91595Y-35765D01*
X91426Y-35503D02*
X91426Y-35709D01*
X91445Y-35746D01*
X91483Y-35765D01*
X91539Y-35765D01*
X91576Y-35746D01*
X91595Y-35728D01*
X91783Y-35765D02*
X91783Y-35371D01*
X91783Y-35559D02*
X92008Y-35559D01*
X92008Y-35765D02*
X92008Y-35371D01*
X85359Y-38459D02*
X85171Y-38459D01*
X85171Y-38065D01*
X85659Y-38196D02*
X85659Y-38459D01*
X85565Y-38046D02*
X85471Y-38328D01*
X85715Y-38328D01*
X84619Y-39051D02*
X84863Y-39051D01*
X84731Y-39201D01*
X84788Y-39201D01*
X84825Y-39220D01*
X84844Y-39239D01*
X84863Y-39276D01*
X84863Y-39370D01*
X84844Y-39408D01*
X84825Y-39426D01*
X84788Y-39445D01*
X84675Y-39445D01*
X84638Y-39426D01*
X84619Y-39408D01*
X84994Y-39051D02*
X85238Y-39051D01*
X85106Y-39201D01*
X85163Y-39201D01*
X85200Y-39220D01*
X85219Y-39239D01*
X85238Y-39276D01*
X85238Y-39370D01*
X85219Y-39408D01*
X85200Y-39426D01*
X85163Y-39445D01*
X85050Y-39445D01*
X85013Y-39426D01*
X84994Y-39408D01*
X85575Y-39183D02*
X85575Y-39445D01*
X85406Y-39183D02*
X85406Y-39389D01*
X85425Y-39426D01*
X85463Y-39445D01*
X85519Y-39445D01*
X85556Y-39426D01*
X85575Y-39408D01*
X85763Y-39445D02*
X85763Y-39051D01*
X85763Y-39239D02*
X85988Y-39239D01*
X85988Y-39445D02*
X85988Y-39051D01*
G54D11*
X105659Y-30051D02*
X105659Y-30253D01*
X105671Y-30277D01*
X105683Y-30289D01*
X105707Y-30301D01*
X105754Y-30301D01*
X105778Y-30289D01*
X105790Y-30277D01*
X105802Y-30253D01*
X105802Y-30051D01*
X105897Y-30051D02*
X106052Y-30051D01*
X105969Y-30146D01*
X106004Y-30146D01*
X106028Y-30158D01*
X106040Y-30170D01*
X106052Y-30194D01*
X106052Y-30253D01*
X106040Y-30277D01*
X106028Y-30289D01*
X106004Y-30301D01*
X105933Y-30301D01*
X105909Y-30289D01*
X105897Y-30277D01*
X104399Y-31851D02*
X104542Y-31851D01*
X104471Y-32101D02*
X104471Y-31851D01*
X104745Y-32101D02*
X104626Y-32101D01*
X104626Y-31851D01*
X104792Y-31851D02*
X104876Y-32101D01*
X104959Y-31851D01*
X105019Y-31851D02*
X105185Y-31851D01*
X105078Y-32101D01*
X105328Y-31851D02*
X105352Y-31851D01*
X105376Y-31863D01*
X105388Y-31875D01*
X105400Y-31898D01*
X105411Y-31946D01*
X105411Y-32005D01*
X105400Y-32053D01*
X105388Y-32077D01*
X105376Y-32089D01*
X105352Y-32101D01*
X105328Y-32101D01*
X105304Y-32089D01*
X105292Y-32077D01*
X105280Y-32053D01*
X105269Y-32005D01*
X105269Y-31946D01*
X105280Y-31898D01*
X105292Y-31875D01*
X105304Y-31863D01*
X105328Y-31851D01*
X105507Y-31875D02*
X105519Y-31863D01*
X105542Y-31851D01*
X105602Y-31851D01*
X105626Y-31863D01*
X105638Y-31875D01*
X105650Y-31898D01*
X105650Y-31922D01*
X105638Y-31958D01*
X105495Y-32101D01*
X105650Y-32101D01*
X105864Y-31934D02*
X105864Y-32101D01*
X105804Y-31839D02*
X105745Y-32017D01*
X105900Y-32017D01*
X106114Y-31851D02*
X105995Y-31851D01*
X105983Y-31970D01*
X105995Y-31958D01*
X106019Y-31946D01*
X106078Y-31946D01*
X106102Y-31958D01*
X106114Y-31970D01*
X106126Y-31994D01*
X106126Y-32053D01*
X106114Y-32077D01*
X106102Y-32089D01*
X106078Y-32101D01*
X106019Y-32101D01*
X105995Y-32089D01*
X105983Y-32077D01*
G54D27*
X99978Y-40621D02*
X99978Y-40321D01*
X100050Y-40321D01*
X100092Y-40335D01*
X100121Y-40364D01*
X100135Y-40392D01*
X100150Y-40450D01*
X100150Y-40492D01*
X100135Y-40550D01*
X100121Y-40578D01*
X100092Y-40607D01*
X100050Y-40621D01*
X99978Y-40621D01*
X100435Y-40621D02*
X100264Y-40621D01*
X100350Y-40621D02*
X100350Y-40321D01*
X100321Y-40364D01*
X100292Y-40392D01*
X100264Y-40407D01*
G54D28*
X100891Y-39801D02*
X100920Y-39810D01*
X100929Y-39820D01*
X100938Y-39839D01*
X100938Y-39867D01*
X100929Y-39885D01*
X100920Y-39895D01*
X100901Y-39904D01*
X100826Y-39904D01*
X100826Y-39707D01*
X100891Y-39707D01*
X100910Y-39717D01*
X100920Y-39726D01*
X100929Y-39745D01*
X100929Y-39764D01*
X100920Y-39782D01*
X100910Y-39792D01*
X100891Y-39801D01*
X100826Y-39801D01*
X101013Y-39848D02*
X101107Y-39848D01*
X100995Y-39904D02*
X101060Y-39707D01*
X101126Y-39904D01*
X101164Y-39707D02*
X101276Y-39707D01*
X101220Y-39904D02*
X101220Y-39707D01*
X101436Y-39707D02*
X101342Y-39707D01*
X101332Y-39801D01*
X101342Y-39792D01*
X101361Y-39782D01*
X101407Y-39782D01*
X101426Y-39792D01*
X101436Y-39801D01*
X101445Y-39820D01*
X101445Y-39867D01*
X101436Y-39885D01*
X101426Y-39895D01*
X101407Y-39904D01*
X101361Y-39904D01*
X101342Y-39895D01*
X101332Y-39885D01*
X101614Y-39773D02*
X101614Y-39904D01*
X101567Y-39698D02*
X101520Y-39839D01*
X101642Y-39839D01*
G54D11*
X95859Y-41076D02*
X95767Y-40944D01*
X95701Y-41076D02*
X95701Y-40800D01*
X95806Y-40800D01*
X95833Y-40813D01*
X95846Y-40826D01*
X95859Y-40852D01*
X95859Y-40892D01*
X95846Y-40918D01*
X95833Y-40931D01*
X95806Y-40944D01*
X95701Y-40944D01*
X96096Y-40800D02*
X96043Y-40800D01*
X96017Y-40813D01*
X96004Y-40826D01*
X95977Y-40865D01*
X95964Y-40918D01*
X95964Y-41023D01*
X95977Y-41049D01*
X95990Y-41063D01*
X96017Y-41076D01*
X96069Y-41076D01*
X96096Y-41063D01*
X96109Y-41049D01*
X96122Y-41023D01*
X96122Y-40957D01*
X96109Y-40931D01*
X96096Y-40918D01*
X96069Y-40905D01*
X96017Y-40905D01*
X95990Y-40918D01*
X95977Y-40931D01*
X95964Y-40957D01*
X95637Y-39485D02*
X95650Y-39498D01*
X95637Y-39511D01*
X95624Y-39498D01*
X95637Y-39485D01*
X95637Y-39511D01*
X95821Y-39235D02*
X95847Y-39235D01*
X95873Y-39248D01*
X95886Y-39262D01*
X95900Y-39288D01*
X95913Y-39340D01*
X95913Y-39406D01*
X95900Y-39459D01*
X95886Y-39485D01*
X95873Y-39498D01*
X95847Y-39511D01*
X95821Y-39511D01*
X95794Y-39498D01*
X95781Y-39485D01*
X95768Y-39459D01*
X95755Y-39406D01*
X95755Y-39340D01*
X95768Y-39288D01*
X95781Y-39262D01*
X95794Y-39248D01*
X95821Y-39235D01*
X96176Y-39511D02*
X96018Y-39511D01*
X96097Y-39511D02*
X96097Y-39235D01*
X96070Y-39275D01*
X96044Y-39301D01*
X96018Y-39314D01*
X91715Y-39367D02*
X91700Y-39382D01*
X91657Y-39396D01*
X91629Y-39396D01*
X91586Y-39382D01*
X91557Y-39353D01*
X91543Y-39325D01*
X91529Y-39267D01*
X91529Y-39225D01*
X91543Y-39167D01*
X91557Y-39139D01*
X91586Y-39110D01*
X91629Y-39096D01*
X91657Y-39096D01*
X91700Y-39110D01*
X91715Y-39125D01*
X91972Y-39196D02*
X91972Y-39396D01*
X91900Y-39082D02*
X91829Y-39296D01*
X92015Y-39296D01*
X92096Y-41011D02*
X92296Y-41011D01*
X91982Y-41083D02*
X92196Y-41154D01*
X92196Y-40969D01*
X92268Y-40854D02*
X92282Y-40840D01*
X92296Y-40854D01*
X92282Y-40869D01*
X92268Y-40854D01*
X92296Y-40854D01*
X91996Y-40740D02*
X91996Y-40540D01*
X92296Y-40669D01*
X92096Y-40297D02*
X92296Y-40297D01*
X92096Y-40426D02*
X92253Y-40426D01*
X92282Y-40411D01*
X92296Y-40383D01*
X92296Y-40340D01*
X92282Y-40311D01*
X92268Y-40297D01*
X92139Y-40054D02*
X92139Y-40154D01*
X92296Y-40154D02*
X91996Y-40154D01*
X91996Y-40011D01*
X95604Y-27100D02*
X95590Y-27115D01*
X95547Y-27129D01*
X95518Y-27129D01*
X95475Y-27115D01*
X95447Y-27086D01*
X95432Y-27057D01*
X95418Y-27000D01*
X95418Y-26957D01*
X95432Y-26900D01*
X95447Y-26872D01*
X95475Y-26843D01*
X95518Y-26829D01*
X95547Y-26829D01*
X95590Y-26843D01*
X95604Y-26857D01*
X95704Y-26829D02*
X95890Y-26829D01*
X95790Y-26943D01*
X95832Y-26943D01*
X95861Y-26957D01*
X95875Y-26972D01*
X95890Y-27000D01*
X95890Y-27072D01*
X95875Y-27100D01*
X95861Y-27115D01*
X95832Y-27129D01*
X95747Y-27129D01*
X95718Y-27115D01*
X95704Y-27100D01*
X96147Y-26929D02*
X96147Y-27129D01*
X96075Y-26815D02*
X96004Y-27029D01*
X96190Y-27029D01*
X95702Y-28067D02*
X95702Y-28238D01*
X95702Y-28153D02*
X95402Y-28153D01*
X95444Y-28181D01*
X95473Y-28210D01*
X95487Y-28238D01*
X95402Y-27881D02*
X95402Y-27853D01*
X95416Y-27824D01*
X95430Y-27810D01*
X95459Y-27796D01*
X95516Y-27781D01*
X95587Y-27781D01*
X95644Y-27796D01*
X95673Y-27810D01*
X95687Y-27824D01*
X95702Y-27853D01*
X95702Y-27881D01*
X95687Y-27910D01*
X95673Y-27924D01*
X95644Y-27938D01*
X95587Y-27953D01*
X95516Y-27953D01*
X95459Y-27938D01*
X95430Y-27924D01*
X95416Y-27910D01*
X95402Y-27881D01*
X95502Y-27524D02*
X95702Y-27524D01*
X95502Y-27653D02*
X95659Y-27653D01*
X95687Y-27638D01*
X95702Y-27610D01*
X95702Y-27567D01*
X95687Y-27538D01*
X95673Y-27524D01*
X95544Y-27281D02*
X95544Y-27381D01*
X95702Y-27381D02*
X95402Y-27381D01*
X95402Y-27238D01*
X98452Y-34612D02*
X98467Y-34627D01*
X98481Y-34670D01*
X98481Y-34698D01*
X98467Y-34741D01*
X98438Y-34770D01*
X98410Y-34784D01*
X98352Y-34798D01*
X98310Y-34798D01*
X98252Y-34784D01*
X98224Y-34770D01*
X98195Y-34741D01*
X98181Y-34698D01*
X98181Y-34670D01*
X98195Y-34627D01*
X98210Y-34612D01*
X98210Y-34498D02*
X98195Y-34484D01*
X98181Y-34455D01*
X98181Y-34384D01*
X98195Y-34355D01*
X98210Y-34341D01*
X98238Y-34327D01*
X98267Y-34327D01*
X98310Y-34341D01*
X98481Y-34512D01*
X98481Y-34327D01*
X98181Y-34227D02*
X98181Y-34027D01*
X98481Y-34155D01*
X95032Y-38792D02*
X95017Y-38807D01*
X94975Y-38821D01*
X94946Y-38821D01*
X94903Y-38807D01*
X94875Y-38778D01*
X94860Y-38750D01*
X94846Y-38692D01*
X94846Y-38650D01*
X94860Y-38592D01*
X94875Y-38564D01*
X94903Y-38535D01*
X94946Y-38521D01*
X94975Y-38521D01*
X95017Y-38535D01*
X95032Y-38550D01*
X95146Y-38550D02*
X95160Y-38535D01*
X95189Y-38521D01*
X95260Y-38521D01*
X95289Y-38535D01*
X95303Y-38550D01*
X95317Y-38578D01*
X95317Y-38607D01*
X95303Y-38650D01*
X95132Y-38821D01*
X95317Y-38821D01*
X95432Y-38550D02*
X95446Y-38535D01*
X95475Y-38521D01*
X95546Y-38521D01*
X95575Y-38535D01*
X95589Y-38550D01*
X95603Y-38578D01*
X95603Y-38607D01*
X95589Y-38650D01*
X95417Y-38821D01*
X95603Y-38821D01*
X96353Y-38896D02*
X96182Y-38896D01*
X96267Y-38896D02*
X96267Y-38596D01*
X96239Y-38639D01*
X96210Y-38667D01*
X96182Y-38682D01*
X96539Y-38596D02*
X96567Y-38596D01*
X96596Y-38610D01*
X96610Y-38625D01*
X96625Y-38653D01*
X96639Y-38710D01*
X96639Y-38782D01*
X96625Y-38839D01*
X96610Y-38867D01*
X96596Y-38882D01*
X96567Y-38896D01*
X96539Y-38896D01*
X96510Y-38882D01*
X96496Y-38867D01*
X96482Y-38839D01*
X96467Y-38782D01*
X96467Y-38710D01*
X96482Y-38653D01*
X96496Y-38625D01*
X96510Y-38610D01*
X96539Y-38596D01*
X96896Y-38696D02*
X96896Y-38896D01*
X96767Y-38696D02*
X96767Y-38853D01*
X96782Y-38882D01*
X96810Y-38896D01*
X96853Y-38896D01*
X96882Y-38882D01*
X96896Y-38867D01*
X97139Y-38739D02*
X97039Y-38739D01*
X97039Y-38896D02*
X97039Y-38596D01*
X97182Y-38596D01*
X98498Y-27081D02*
X98483Y-27095D01*
X98440Y-27109D01*
X98412Y-27109D01*
X98369Y-27095D01*
X98340Y-27066D01*
X98326Y-27038D01*
X98312Y-26981D01*
X98312Y-26938D01*
X98326Y-26881D01*
X98340Y-26852D01*
X98369Y-26823D01*
X98412Y-26809D01*
X98440Y-26809D01*
X98483Y-26823D01*
X98498Y-26838D01*
X98612Y-26838D02*
X98626Y-26823D01*
X98655Y-26809D01*
X98726Y-26809D01*
X98755Y-26823D01*
X98769Y-26838D01*
X98783Y-26866D01*
X98783Y-26895D01*
X98769Y-26938D01*
X98598Y-27109D01*
X98783Y-27109D01*
X98883Y-26809D02*
X99069Y-26809D01*
X98969Y-26923D01*
X99012Y-26923D01*
X99040Y-26938D01*
X99055Y-26952D01*
X99069Y-26981D01*
X99069Y-27052D01*
X99055Y-27081D01*
X99040Y-27095D01*
X99012Y-27109D01*
X98926Y-27109D01*
X98898Y-27095D01*
X98883Y-27081D01*
X98812Y-28106D02*
X98812Y-28278D01*
X98812Y-28192D02*
X98512Y-28192D01*
X98555Y-28221D01*
X98583Y-28249D01*
X98598Y-28278D01*
X98512Y-27921D02*
X98512Y-27892D01*
X98526Y-27864D01*
X98540Y-27849D01*
X98569Y-27835D01*
X98626Y-27821D01*
X98698Y-27821D01*
X98755Y-27835D01*
X98783Y-27849D01*
X98798Y-27864D01*
X98812Y-27892D01*
X98812Y-27921D01*
X98798Y-27949D01*
X98783Y-27964D01*
X98755Y-27978D01*
X98698Y-27992D01*
X98626Y-27992D01*
X98569Y-27978D01*
X98540Y-27964D01*
X98526Y-27949D01*
X98512Y-27921D01*
X98612Y-27564D02*
X98812Y-27564D01*
X98612Y-27692D02*
X98769Y-27692D01*
X98798Y-27678D01*
X98812Y-27649D01*
X98812Y-27606D01*
X98798Y-27578D01*
X98783Y-27564D01*
X98655Y-27321D02*
X98655Y-27421D01*
X98812Y-27421D02*
X98512Y-27421D01*
X98512Y-27278D01*
X92820Y-39347D02*
X92805Y-39362D01*
X92762Y-39376D01*
X92734Y-39376D01*
X92691Y-39362D01*
X92662Y-39333D01*
X92648Y-39305D01*
X92634Y-39247D01*
X92634Y-39205D01*
X92648Y-39147D01*
X92662Y-39119D01*
X92691Y-39090D01*
X92734Y-39076D01*
X92762Y-39076D01*
X92805Y-39090D01*
X92820Y-39105D01*
X92920Y-39076D02*
X93105Y-39076D01*
X93005Y-39190D01*
X93048Y-39190D01*
X93077Y-39205D01*
X93091Y-39219D01*
X93105Y-39247D01*
X93105Y-39319D01*
X93091Y-39347D01*
X93077Y-39362D01*
X93048Y-39376D01*
X92962Y-39376D01*
X92934Y-39362D01*
X92920Y-39347D01*
X98412Y-33462D02*
X98427Y-33477D01*
X98441Y-33520D01*
X98441Y-33548D01*
X98427Y-33591D01*
X98398Y-33620D01*
X98370Y-33634D01*
X98312Y-33648D01*
X98270Y-33648D01*
X98212Y-33634D01*
X98184Y-33620D01*
X98155Y-33591D01*
X98141Y-33548D01*
X98141Y-33520D01*
X98155Y-33477D01*
X98170Y-33462D01*
X98170Y-33348D02*
X98155Y-33334D01*
X98141Y-33305D01*
X98141Y-33234D01*
X98155Y-33205D01*
X98170Y-33191D01*
X98198Y-33177D01*
X98227Y-33177D01*
X98270Y-33191D01*
X98441Y-33362D01*
X98441Y-33177D01*
X98241Y-32920D02*
X98441Y-32920D01*
X98127Y-32991D02*
X98341Y-33062D01*
X98341Y-32877D01*
X97171Y-34156D02*
X97171Y-34327D01*
X97171Y-34242D02*
X96871Y-34242D01*
X96914Y-34270D01*
X96942Y-34299D01*
X96957Y-34327D01*
X96871Y-33970D02*
X96871Y-33942D01*
X96885Y-33913D01*
X96900Y-33899D01*
X96928Y-33885D01*
X96985Y-33870D01*
X97057Y-33870D01*
X97114Y-33885D01*
X97142Y-33899D01*
X97157Y-33913D01*
X97171Y-33942D01*
X97171Y-33970D01*
X97157Y-33999D01*
X97142Y-34013D01*
X97114Y-34027D01*
X97057Y-34042D01*
X96985Y-34042D01*
X96928Y-34027D01*
X96900Y-34013D01*
X96885Y-33999D01*
X96871Y-33970D01*
X96971Y-33613D02*
X97171Y-33613D01*
X96971Y-33742D02*
X97128Y-33742D01*
X97157Y-33727D01*
X97171Y-33699D01*
X97171Y-33656D01*
X97157Y-33627D01*
X97142Y-33613D01*
X97014Y-33370D02*
X97014Y-33470D01*
X97171Y-33470D02*
X96871Y-33470D01*
X96871Y-33327D01*
X105807Y-33092D02*
X105792Y-33107D01*
X105750Y-33121D01*
X105721Y-33121D01*
X105678Y-33107D01*
X105650Y-33078D01*
X105635Y-33050D01*
X105621Y-32992D01*
X105621Y-32950D01*
X105635Y-32892D01*
X105650Y-32864D01*
X105678Y-32835D01*
X105721Y-32821D01*
X105750Y-32821D01*
X105792Y-32835D01*
X105807Y-32850D01*
X106092Y-33121D02*
X105921Y-33121D01*
X106007Y-33121D02*
X106007Y-32821D01*
X105978Y-32864D01*
X105950Y-32892D01*
X105921Y-32907D01*
X106235Y-33121D02*
X106292Y-33121D01*
X106321Y-33107D01*
X106335Y-33092D01*
X106364Y-33050D01*
X106378Y-32992D01*
X106378Y-32878D01*
X106364Y-32850D01*
X106350Y-32835D01*
X106321Y-32821D01*
X106264Y-32821D01*
X106235Y-32835D01*
X106221Y-32850D01*
X106207Y-32878D01*
X106207Y-32950D01*
X106221Y-32978D01*
X106235Y-32992D01*
X106264Y-33007D01*
X106321Y-33007D01*
X106350Y-32992D01*
X106364Y-32978D01*
X106378Y-32950D01*
X106878Y-32921D02*
X106878Y-33121D01*
X106807Y-32807D02*
X106735Y-33021D01*
X106921Y-33021D01*
X107035Y-33092D02*
X107050Y-33107D01*
X107035Y-33121D01*
X107021Y-33107D01*
X107035Y-33092D01*
X107035Y-33121D01*
X107150Y-32821D02*
X107350Y-32821D01*
X107221Y-33121D01*
X107592Y-32921D02*
X107592Y-33121D01*
X107464Y-32921D02*
X107464Y-33078D01*
X107478Y-33107D01*
X107507Y-33121D01*
X107550Y-33121D01*
X107578Y-33107D01*
X107592Y-33092D01*
X107835Y-32964D02*
X107735Y-32964D01*
X107735Y-33121D02*
X107735Y-32821D01*
X107878Y-32821D01*
X105757Y-45721D02*
X105657Y-45578D01*
X105585Y-45721D02*
X105585Y-45421D01*
X105700Y-45421D01*
X105728Y-45435D01*
X105742Y-45450D01*
X105757Y-45478D01*
X105757Y-45521D01*
X105742Y-45550D01*
X105728Y-45564D01*
X105700Y-45578D01*
X105585Y-45578D01*
X106042Y-45721D02*
X105871Y-45721D01*
X105957Y-45721D02*
X105957Y-45421D01*
X105928Y-45464D01*
X105900Y-45492D01*
X105871Y-45507D01*
X106214Y-45550D02*
X106185Y-45535D01*
X106171Y-45521D01*
X106157Y-45492D01*
X106157Y-45478D01*
X106171Y-45450D01*
X106185Y-45435D01*
X106214Y-45421D01*
X106271Y-45421D01*
X106300Y-45435D01*
X106314Y-45450D01*
X106328Y-45478D01*
X106328Y-45492D01*
X106314Y-45521D01*
X106300Y-45535D01*
X106271Y-45550D01*
X106214Y-45550D01*
X106185Y-45564D01*
X106171Y-45578D01*
X106157Y-45607D01*
X106157Y-45664D01*
X106171Y-45692D01*
X106185Y-45707D01*
X106214Y-45721D01*
X106271Y-45721D01*
X106300Y-45707D01*
X106314Y-45692D01*
X106328Y-45664D01*
X106328Y-45607D01*
X106314Y-45578D01*
X106300Y-45564D01*
X106271Y-45550D01*
X105854Y-44381D02*
X105682Y-44381D01*
X105768Y-44381D02*
X105768Y-44081D01*
X105739Y-44124D01*
X105711Y-44152D01*
X105682Y-44166D01*
X106039Y-44081D02*
X106068Y-44081D01*
X106097Y-44095D01*
X106111Y-44109D01*
X106125Y-44138D01*
X106139Y-44195D01*
X106139Y-44266D01*
X106125Y-44324D01*
X106111Y-44352D01*
X106097Y-44366D01*
X106068Y-44381D01*
X106039Y-44381D01*
X106011Y-44366D01*
X105997Y-44352D01*
X105982Y-44324D01*
X105968Y-44266D01*
X105968Y-44195D01*
X105982Y-44138D01*
X105997Y-44109D01*
X106011Y-44095D01*
X106039Y-44081D01*
X103207Y-45667D02*
X103192Y-45682D01*
X103150Y-45696D01*
X103121Y-45696D01*
X103078Y-45682D01*
X103050Y-45653D01*
X103035Y-45625D01*
X103021Y-45567D01*
X103021Y-45525D01*
X103035Y-45467D01*
X103050Y-45439D01*
X103078Y-45410D01*
X103121Y-45396D01*
X103150Y-45396D01*
X103192Y-45410D01*
X103207Y-45425D01*
X103492Y-45696D02*
X103321Y-45696D01*
X103407Y-45696D02*
X103407Y-45396D01*
X103378Y-45439D01*
X103350Y-45467D01*
X103321Y-45482D01*
X103607Y-45425D02*
X103621Y-45410D01*
X103650Y-45396D01*
X103721Y-45396D01*
X103750Y-45410D01*
X103764Y-45425D01*
X103778Y-45453D01*
X103778Y-45482D01*
X103764Y-45525D01*
X103592Y-45696D01*
X103778Y-45696D01*
X103089Y-44381D02*
X102918Y-44381D01*
X103004Y-44381D02*
X103004Y-44081D01*
X102975Y-44124D01*
X102947Y-44152D01*
X102918Y-44166D01*
X103275Y-44081D02*
X103304Y-44081D01*
X103332Y-44095D01*
X103347Y-44109D01*
X103361Y-44138D01*
X103375Y-44195D01*
X103375Y-44266D01*
X103361Y-44324D01*
X103347Y-44352D01*
X103332Y-44366D01*
X103304Y-44381D01*
X103275Y-44381D01*
X103247Y-44366D01*
X103232Y-44352D01*
X103218Y-44324D01*
X103204Y-44266D01*
X103204Y-44195D01*
X103218Y-44138D01*
X103232Y-44109D01*
X103247Y-44095D01*
X103275Y-44081D01*
X103632Y-44181D02*
X103632Y-44381D01*
X103504Y-44181D02*
X103504Y-44338D01*
X103518Y-44366D01*
X103547Y-44381D01*
X103589Y-44381D01*
X103618Y-44366D01*
X103632Y-44352D01*
X103875Y-44224D02*
X103775Y-44224D01*
X103775Y-44381D02*
X103775Y-44081D01*
X103918Y-44081D01*
X104482Y-45692D02*
X104467Y-45707D01*
X104425Y-45721D01*
X104396Y-45721D01*
X104353Y-45707D01*
X104325Y-45678D01*
X104310Y-45650D01*
X104296Y-45592D01*
X104296Y-45550D01*
X104310Y-45492D01*
X104325Y-45464D01*
X104353Y-45435D01*
X104396Y-45421D01*
X104425Y-45421D01*
X104467Y-45435D01*
X104482Y-45450D01*
X104767Y-45721D02*
X104596Y-45721D01*
X104682Y-45721D02*
X104682Y-45421D01*
X104653Y-45464D01*
X104625Y-45492D01*
X104596Y-45507D01*
X105053Y-45721D02*
X104882Y-45721D01*
X104967Y-45721D02*
X104967Y-45421D01*
X104939Y-45464D01*
X104910Y-45492D01*
X104882Y-45507D01*
X104328Y-44416D02*
X104157Y-44416D01*
X104242Y-44416D02*
X104242Y-44116D01*
X104214Y-44159D01*
X104185Y-44187D01*
X104157Y-44202D01*
X104514Y-44116D02*
X104542Y-44116D01*
X104571Y-44130D01*
X104585Y-44145D01*
X104600Y-44173D01*
X104614Y-44230D01*
X104614Y-44302D01*
X104600Y-44359D01*
X104585Y-44387D01*
X104571Y-44402D01*
X104542Y-44416D01*
X104514Y-44416D01*
X104485Y-44402D01*
X104471Y-44387D01*
X104457Y-44359D01*
X104442Y-44302D01*
X104442Y-44230D01*
X104457Y-44173D01*
X104471Y-44145D01*
X104485Y-44130D01*
X104514Y-44116D01*
X104871Y-44216D02*
X104871Y-44416D01*
X104742Y-44216D02*
X104742Y-44373D01*
X104757Y-44402D01*
X104785Y-44416D01*
X104828Y-44416D01*
X104857Y-44402D01*
X104871Y-44387D01*
X105114Y-44259D02*
X105014Y-44259D01*
X105014Y-44416D02*
X105014Y-44116D01*
X105157Y-44116D01*
G54D29*
X105384Y-24980D02*
X105324Y-24885D01*
X105281Y-24980D02*
X105281Y-24780D01*
X105350Y-24780D01*
X105367Y-24790D01*
X105375Y-24800D01*
X105384Y-24819D01*
X105384Y-24847D01*
X105375Y-24866D01*
X105367Y-24876D01*
X105350Y-24885D01*
X105281Y-24885D01*
X105452Y-24800D02*
X105461Y-24790D01*
X105478Y-24780D01*
X105521Y-24780D01*
X105538Y-24790D01*
X105547Y-24800D01*
X105555Y-24819D01*
X105555Y-24838D01*
X105547Y-24866D01*
X105444Y-24980D01*
X105555Y-24980D01*
X105727Y-24980D02*
X105624Y-24980D01*
X105675Y-24980D02*
X105675Y-24780D01*
X105658Y-24809D01*
X105641Y-24828D01*
X105624Y-24838D01*
X104592Y-24680D02*
X104490Y-24680D01*
X104541Y-24680D02*
X104541Y-24480D01*
X104524Y-24509D01*
X104507Y-24528D01*
X104490Y-24538D01*
X104704Y-24480D02*
X104721Y-24480D01*
X104738Y-24490D01*
X104747Y-24500D01*
X104755Y-24519D01*
X104764Y-24557D01*
X104764Y-24604D01*
X104755Y-24642D01*
X104747Y-24661D01*
X104738Y-24671D01*
X104721Y-24680D01*
X104704Y-24680D01*
X104687Y-24671D01*
X104678Y-24661D01*
X104670Y-24642D01*
X104661Y-24604D01*
X104661Y-24557D01*
X104670Y-24519D01*
X104678Y-24500D01*
X104687Y-24490D01*
X104704Y-24480D01*
X104841Y-24680D02*
X104841Y-24480D01*
X104858Y-24604D02*
X104910Y-24680D01*
X104910Y-24547D02*
X104841Y-24623D01*
X96204Y-24071D02*
X96195Y-24081D01*
X96170Y-24090D01*
X96152Y-24090D01*
X96127Y-24081D01*
X96110Y-24062D01*
X96101Y-24043D01*
X96092Y-24005D01*
X96092Y-23976D01*
X96101Y-23938D01*
X96110Y-23919D01*
X96127Y-23900D01*
X96152Y-23890D01*
X96170Y-23890D01*
X96195Y-23900D01*
X96204Y-23910D01*
X96272Y-23910D02*
X96281Y-23900D01*
X96298Y-23890D01*
X96341Y-23890D01*
X96358Y-23900D01*
X96367Y-23910D01*
X96375Y-23929D01*
X96375Y-23948D01*
X96367Y-23976D01*
X96264Y-24090D01*
X96375Y-24090D01*
X96461Y-24090D02*
X96495Y-24090D01*
X96512Y-24081D01*
X96521Y-24071D01*
X96538Y-24043D01*
X96547Y-24005D01*
X96547Y-23929D01*
X96538Y-23910D01*
X96530Y-23900D01*
X96512Y-23890D01*
X96478Y-23890D01*
X96461Y-23900D01*
X96452Y-23910D01*
X96444Y-23929D01*
X96444Y-23976D01*
X96452Y-23995D01*
X96461Y-24005D01*
X96478Y-24014D01*
X96512Y-24014D01*
X96530Y-24005D01*
X96538Y-23995D01*
X96547Y-23976D01*
X97049Y-23174D02*
X97057Y-23184D01*
X97049Y-23193D01*
X97040Y-23184D01*
X97049Y-23174D01*
X97049Y-23193D01*
X97229Y-23193D02*
X97126Y-23193D01*
X97177Y-23193D02*
X97177Y-22993D01*
X97160Y-23022D01*
X97143Y-23041D01*
X97126Y-23050D01*
X97383Y-23060D02*
X97383Y-23193D01*
X97306Y-23060D02*
X97306Y-23164D01*
X97314Y-23184D01*
X97331Y-23193D01*
X97357Y-23193D01*
X97374Y-23184D01*
X97383Y-23174D01*
X97529Y-23088D02*
X97469Y-23088D01*
X97469Y-23193D02*
X97469Y-22993D01*
X97554Y-22993D01*
X102996Y-37270D02*
X102988Y-37280D01*
X102962Y-37289D01*
X102945Y-37289D01*
X102919Y-37280D01*
X102902Y-37261D01*
X102893Y-37242D01*
X102885Y-37204D01*
X102885Y-37175D01*
X102893Y-37137D01*
X102902Y-37118D01*
X102919Y-37099D01*
X102945Y-37089D01*
X102962Y-37089D01*
X102988Y-37099D01*
X102996Y-37108D01*
X103168Y-37289D02*
X103065Y-37289D01*
X103116Y-37289D02*
X103116Y-37089D01*
X103099Y-37118D01*
X103082Y-37137D01*
X103065Y-37146D01*
X103322Y-37089D02*
X103288Y-37089D01*
X103270Y-37099D01*
X103262Y-37108D01*
X103245Y-37137D01*
X103236Y-37175D01*
X103236Y-37251D01*
X103245Y-37270D01*
X103253Y-37280D01*
X103270Y-37289D01*
X103305Y-37289D01*
X103322Y-37280D01*
X103330Y-37270D01*
X103339Y-37251D01*
X103339Y-37204D01*
X103330Y-37184D01*
X103322Y-37175D01*
X103305Y-37165D01*
X103270Y-37165D01*
X103253Y-37175D01*
X103245Y-37184D01*
X103236Y-37204D01*
X102207Y-36803D02*
X102104Y-36803D01*
X102156Y-36803D02*
X102156Y-36603D01*
X102139Y-36631D01*
X102122Y-36651D01*
X102104Y-36660D01*
X102362Y-36670D02*
X102362Y-36803D01*
X102284Y-36670D02*
X102284Y-36774D01*
X102293Y-36793D01*
X102310Y-36803D01*
X102336Y-36803D01*
X102353Y-36793D01*
X102362Y-36784D01*
X102507Y-36698D02*
X102447Y-36698D01*
X102447Y-36803D02*
X102447Y-36603D01*
X102533Y-36603D01*
X99175Y-39983D02*
X99167Y-39992D01*
X99141Y-40002D01*
X99124Y-40002D01*
X99098Y-39992D01*
X99081Y-39973D01*
X99072Y-39954D01*
X99064Y-39916D01*
X99064Y-39887D01*
X99072Y-39849D01*
X99081Y-39830D01*
X99098Y-39811D01*
X99124Y-39802D01*
X99141Y-39802D01*
X99167Y-39811D01*
X99175Y-39821D01*
X99347Y-40002D02*
X99244Y-40002D01*
X99295Y-40002D02*
X99295Y-39802D01*
X99278Y-39830D01*
X99261Y-39849D01*
X99244Y-39859D01*
X99501Y-39868D02*
X99501Y-40002D01*
X99458Y-39792D02*
X99415Y-39935D01*
X99527Y-39935D01*
X100367Y-39455D02*
X100265Y-39455D01*
X100316Y-39455D02*
X100316Y-39255D01*
X100299Y-39284D01*
X100282Y-39303D01*
X100265Y-39313D01*
X100522Y-39322D02*
X100522Y-39455D01*
X100445Y-39322D02*
X100445Y-39427D01*
X100453Y-39446D01*
X100470Y-39455D01*
X100496Y-39455D01*
X100513Y-39446D01*
X100522Y-39436D01*
X100667Y-39351D02*
X100607Y-39351D01*
X100607Y-39455D02*
X100607Y-39255D01*
X100693Y-39255D01*
X108061Y-31315D02*
X108071Y-31324D01*
X108080Y-31350D01*
X108080Y-31367D01*
X108071Y-31392D01*
X108052Y-31410D01*
X108033Y-31418D01*
X107995Y-31427D01*
X107966Y-31427D01*
X107928Y-31418D01*
X107909Y-31410D01*
X107890Y-31392D01*
X107880Y-31367D01*
X107880Y-31350D01*
X107890Y-31324D01*
X107900Y-31315D01*
X108080Y-31144D02*
X108080Y-31247D01*
X108080Y-31195D02*
X107880Y-31195D01*
X107909Y-31212D01*
X107928Y-31230D01*
X107938Y-31247D01*
X107966Y-31041D02*
X107957Y-31058D01*
X107947Y-31067D01*
X107928Y-31075D01*
X107919Y-31075D01*
X107900Y-31067D01*
X107890Y-31058D01*
X107880Y-31041D01*
X107880Y-31007D01*
X107890Y-30990D01*
X107900Y-30981D01*
X107919Y-30972D01*
X107928Y-30972D01*
X107947Y-30981D01*
X107957Y-30990D01*
X107966Y-31007D01*
X107966Y-31041D01*
X107976Y-31058D01*
X107985Y-31067D01*
X108004Y-31075D01*
X108042Y-31075D01*
X108061Y-31067D01*
X108071Y-31058D01*
X108080Y-31041D01*
X108080Y-31007D01*
X108071Y-30990D01*
X108061Y-30981D01*
X108042Y-30972D01*
X108004Y-30972D01*
X107985Y-30981D01*
X107976Y-30990D01*
X107966Y-31007D01*
X108012Y-31704D02*
X107910Y-31704D01*
X107961Y-31704D02*
X107961Y-31504D01*
X107944Y-31533D01*
X107927Y-31552D01*
X107910Y-31562D01*
X108167Y-31571D02*
X108167Y-31704D01*
X108090Y-31571D02*
X108090Y-31676D01*
X108098Y-31695D01*
X108115Y-31704D01*
X108141Y-31704D01*
X108158Y-31695D01*
X108167Y-31685D01*
X108312Y-31600D02*
X108252Y-31600D01*
X108252Y-31704D02*
X108252Y-31504D01*
X108338Y-31504D01*
X104061Y-31315D02*
X104071Y-31324D01*
X104080Y-31350D01*
X104080Y-31367D01*
X104071Y-31392D01*
X104052Y-31410D01*
X104033Y-31418D01*
X103995Y-31427D01*
X103966Y-31427D01*
X103928Y-31418D01*
X103909Y-31410D01*
X103890Y-31392D01*
X103880Y-31367D01*
X103880Y-31350D01*
X103890Y-31324D01*
X103900Y-31315D01*
X103900Y-31247D02*
X103890Y-31238D01*
X103880Y-31221D01*
X103880Y-31178D01*
X103890Y-31161D01*
X103900Y-31152D01*
X103919Y-31144D01*
X103938Y-31144D01*
X103966Y-31152D01*
X104080Y-31255D01*
X104080Y-31144D01*
X104080Y-30972D02*
X104080Y-31075D01*
X104080Y-31024D02*
X103880Y-31024D01*
X103909Y-31041D01*
X103928Y-31058D01*
X103938Y-31075D01*
X104392Y-31330D02*
X104290Y-31330D01*
X104341Y-31330D02*
X104341Y-31130D01*
X104324Y-31159D01*
X104307Y-31178D01*
X104290Y-31188D01*
X104547Y-31197D02*
X104547Y-31330D01*
X104470Y-31197D02*
X104470Y-31302D01*
X104478Y-31321D01*
X104495Y-31330D01*
X104521Y-31330D01*
X104538Y-31321D01*
X104547Y-31311D01*
X104692Y-31226D02*
X104632Y-31226D01*
X104632Y-31330D02*
X104632Y-31130D01*
X104718Y-31130D01*
X105294Y-33984D02*
X105199Y-34044D01*
X105294Y-34087D02*
X105094Y-34087D01*
X105094Y-34018D01*
X105104Y-34001D01*
X105113Y-33993D01*
X105133Y-33984D01*
X105161Y-33984D01*
X105180Y-33993D01*
X105190Y-34001D01*
X105199Y-34018D01*
X105199Y-34087D01*
X105113Y-33915D02*
X105104Y-33907D01*
X105094Y-33890D01*
X105094Y-33847D01*
X105104Y-33830D01*
X105113Y-33821D01*
X105133Y-33813D01*
X105152Y-33813D01*
X105180Y-33821D01*
X105294Y-33924D01*
X105294Y-33813D01*
X105094Y-33753D02*
X105094Y-33633D01*
X105294Y-33710D01*
X106156Y-34403D02*
X106053Y-34403D01*
X106105Y-34403D02*
X106105Y-34203D01*
X106088Y-34232D01*
X106070Y-34251D01*
X106053Y-34260D01*
X106268Y-34203D02*
X106285Y-34203D01*
X106302Y-34213D01*
X106310Y-34222D01*
X106319Y-34241D01*
X106328Y-34279D01*
X106328Y-34327D01*
X106319Y-34365D01*
X106310Y-34384D01*
X106302Y-34394D01*
X106285Y-34403D01*
X106268Y-34403D01*
X106250Y-34394D01*
X106242Y-34384D01*
X106233Y-34365D01*
X106225Y-34327D01*
X106225Y-34279D01*
X106233Y-34241D01*
X106242Y-34222D01*
X106250Y-34213D01*
X106268Y-34203D01*
X106405Y-34403D02*
X106405Y-34203D01*
X106422Y-34327D02*
X106473Y-34403D01*
X106473Y-34270D02*
X106405Y-34346D01*
X110384Y-24080D02*
X110324Y-23985D01*
X110281Y-24080D02*
X110281Y-23880D01*
X110350Y-23880D01*
X110367Y-23890D01*
X110375Y-23900D01*
X110384Y-23919D01*
X110384Y-23947D01*
X110375Y-23966D01*
X110367Y-23976D01*
X110350Y-23985D01*
X110281Y-23985D01*
X110555Y-24080D02*
X110452Y-24080D01*
X110504Y-24080D02*
X110504Y-23880D01*
X110487Y-23909D01*
X110470Y-23928D01*
X110452Y-23938D01*
X110615Y-23880D02*
X110727Y-23880D01*
X110667Y-23957D01*
X110692Y-23957D01*
X110710Y-23966D01*
X110718Y-23976D01*
X110727Y-23995D01*
X110727Y-24042D01*
X110718Y-24061D01*
X110710Y-24071D01*
X110692Y-24080D01*
X110641Y-24080D01*
X110624Y-24071D01*
X110615Y-24061D01*
X109592Y-24680D02*
X109490Y-24680D01*
X109541Y-24680D02*
X109541Y-24480D01*
X109524Y-24509D01*
X109507Y-24528D01*
X109490Y-24538D01*
X109704Y-24480D02*
X109721Y-24480D01*
X109738Y-24490D01*
X109747Y-24500D01*
X109755Y-24519D01*
X109764Y-24557D01*
X109764Y-24604D01*
X109755Y-24642D01*
X109747Y-24661D01*
X109738Y-24671D01*
X109721Y-24680D01*
X109704Y-24680D01*
X109687Y-24671D01*
X109678Y-24661D01*
X109670Y-24642D01*
X109661Y-24604D01*
X109661Y-24557D01*
X109670Y-24519D01*
X109678Y-24500D01*
X109687Y-24490D01*
X109704Y-24480D01*
X109841Y-24680D02*
X109841Y-24480D01*
X109858Y-24604D02*
X109910Y-24680D01*
X109910Y-24547D02*
X109841Y-24623D01*
X110370Y-27680D02*
X110310Y-27585D01*
X110267Y-27680D02*
X110267Y-27480D01*
X110335Y-27480D01*
X110352Y-27490D01*
X110361Y-27500D01*
X110370Y-27519D01*
X110370Y-27547D01*
X110361Y-27566D01*
X110352Y-27576D01*
X110335Y-27585D01*
X110267Y-27585D01*
X110455Y-27680D02*
X110490Y-27680D01*
X110507Y-27671D01*
X110515Y-27661D01*
X110532Y-27633D01*
X110541Y-27595D01*
X110541Y-27519D01*
X110532Y-27500D01*
X110524Y-27490D01*
X110507Y-27480D01*
X110472Y-27480D01*
X110455Y-27490D01*
X110447Y-27500D01*
X110438Y-27519D01*
X110438Y-27566D01*
X110447Y-27585D01*
X110455Y-27595D01*
X110472Y-27604D01*
X110507Y-27604D01*
X110524Y-27595D01*
X110532Y-27585D01*
X110541Y-27566D01*
X110370Y-25280D02*
X110310Y-25185D01*
X110267Y-25280D02*
X110267Y-25080D01*
X110335Y-25080D01*
X110352Y-25090D01*
X110361Y-25100D01*
X110370Y-25119D01*
X110370Y-25147D01*
X110361Y-25166D01*
X110352Y-25176D01*
X110335Y-25185D01*
X110267Y-25185D01*
X110430Y-25080D02*
X110550Y-25080D01*
X110472Y-25280D01*
X111434Y-30130D02*
X111374Y-30035D01*
X111331Y-30130D02*
X111331Y-29930D01*
X111400Y-29930D01*
X111417Y-29940D01*
X111425Y-29950D01*
X111434Y-29969D01*
X111434Y-29997D01*
X111425Y-30016D01*
X111417Y-30026D01*
X111400Y-30035D01*
X111331Y-30035D01*
X111605Y-30130D02*
X111502Y-30130D01*
X111554Y-30130D02*
X111554Y-29930D01*
X111537Y-29959D01*
X111520Y-29978D01*
X111502Y-29988D01*
X111760Y-29997D02*
X111760Y-30130D01*
X111717Y-29921D02*
X111674Y-30064D01*
X111785Y-30064D01*
X110384Y-30130D02*
X110324Y-30035D01*
X110281Y-30130D02*
X110281Y-29930D01*
X110350Y-29930D01*
X110367Y-29940D01*
X110375Y-29950D01*
X110384Y-29969D01*
X110384Y-29997D01*
X110375Y-30016D01*
X110367Y-30026D01*
X110350Y-30035D01*
X110281Y-30035D01*
X110555Y-30130D02*
X110452Y-30130D01*
X110504Y-30130D02*
X110504Y-29930D01*
X110487Y-29959D01*
X110470Y-29978D01*
X110452Y-29988D01*
X110624Y-29950D02*
X110632Y-29940D01*
X110650Y-29930D01*
X110692Y-29930D01*
X110710Y-29940D01*
X110718Y-29950D01*
X110727Y-29969D01*
X110727Y-29988D01*
X110718Y-30016D01*
X110615Y-30130D01*
X110727Y-30130D01*
X109584Y-30080D02*
X109524Y-29985D01*
X109481Y-30080D02*
X109481Y-29880D01*
X109550Y-29880D01*
X109567Y-29890D01*
X109575Y-29900D01*
X109584Y-29919D01*
X109584Y-29947D01*
X109575Y-29966D01*
X109567Y-29976D01*
X109550Y-29985D01*
X109481Y-29985D01*
X109755Y-30080D02*
X109652Y-30080D01*
X109704Y-30080D02*
X109704Y-29880D01*
X109687Y-29909D01*
X109670Y-29928D01*
X109652Y-29938D01*
X109867Y-29880D02*
X109884Y-29880D01*
X109901Y-29890D01*
X109910Y-29900D01*
X109918Y-29919D01*
X109927Y-29957D01*
X109927Y-30004D01*
X109918Y-30042D01*
X109910Y-30061D01*
X109901Y-30071D01*
X109884Y-30080D01*
X109867Y-30080D01*
X109850Y-30071D01*
X109841Y-30061D01*
X109832Y-30042D01*
X109824Y-30004D01*
X109824Y-29957D01*
X109832Y-29919D01*
X109841Y-29900D01*
X109850Y-29890D01*
X109867Y-29880D01*
X110170Y-31280D02*
X110084Y-31280D01*
X110075Y-31376D01*
X110084Y-31366D01*
X110101Y-31357D01*
X110144Y-31357D01*
X110161Y-31366D01*
X110170Y-31376D01*
X110178Y-31395D01*
X110178Y-31442D01*
X110170Y-31461D01*
X110161Y-31471D01*
X110144Y-31480D01*
X110101Y-31480D01*
X110084Y-31471D01*
X110075Y-31461D01*
X110255Y-31480D02*
X110255Y-31280D01*
X110272Y-31404D02*
X110324Y-31480D01*
X110324Y-31347D02*
X110255Y-31423D01*
X108870Y-30080D02*
X108810Y-29985D01*
X108767Y-30080D02*
X108767Y-29880D01*
X108835Y-29880D01*
X108852Y-29890D01*
X108861Y-29900D01*
X108870Y-29919D01*
X108870Y-29947D01*
X108861Y-29966D01*
X108852Y-29976D01*
X108835Y-29985D01*
X108767Y-29985D01*
X108972Y-29966D02*
X108955Y-29957D01*
X108947Y-29947D01*
X108938Y-29928D01*
X108938Y-29919D01*
X108947Y-29900D01*
X108955Y-29890D01*
X108972Y-29880D01*
X109007Y-29880D01*
X109024Y-29890D01*
X109032Y-29900D01*
X109041Y-29919D01*
X109041Y-29928D01*
X109032Y-29947D01*
X109024Y-29957D01*
X109007Y-29966D01*
X108972Y-29966D01*
X108955Y-29976D01*
X108947Y-29985D01*
X108938Y-30004D01*
X108938Y-30042D01*
X108947Y-30061D01*
X108955Y-30071D01*
X108972Y-30080D01*
X109007Y-30080D01*
X109024Y-30071D01*
X109032Y-30061D01*
X109041Y-30042D01*
X109041Y-30004D01*
X109032Y-29985D01*
X109024Y-29976D01*
X109007Y-29966D01*
X105384Y-27680D02*
X105324Y-27585D01*
X105281Y-27680D02*
X105281Y-27480D01*
X105350Y-27480D01*
X105367Y-27490D01*
X105375Y-27500D01*
X105384Y-27519D01*
X105384Y-27547D01*
X105375Y-27566D01*
X105367Y-27576D01*
X105350Y-27585D01*
X105281Y-27585D01*
X105555Y-27680D02*
X105452Y-27680D01*
X105504Y-27680D02*
X105504Y-27480D01*
X105487Y-27509D01*
X105470Y-27528D01*
X105452Y-27538D01*
X105641Y-27680D02*
X105675Y-27680D01*
X105692Y-27671D01*
X105701Y-27661D01*
X105718Y-27633D01*
X105727Y-27595D01*
X105727Y-27519D01*
X105718Y-27500D01*
X105710Y-27490D01*
X105692Y-27480D01*
X105658Y-27480D01*
X105641Y-27490D01*
X105632Y-27500D01*
X105624Y-27519D01*
X105624Y-27566D01*
X105632Y-27585D01*
X105641Y-27595D01*
X105658Y-27604D01*
X105692Y-27604D01*
X105710Y-27595D01*
X105718Y-27585D01*
X105727Y-27566D01*
X105384Y-26980D02*
X105324Y-26885D01*
X105281Y-26980D02*
X105281Y-26780D01*
X105350Y-26780D01*
X105367Y-26790D01*
X105375Y-26800D01*
X105384Y-26819D01*
X105384Y-26847D01*
X105375Y-26866D01*
X105367Y-26876D01*
X105350Y-26885D01*
X105281Y-26885D01*
X105452Y-26800D02*
X105461Y-26790D01*
X105478Y-26780D01*
X105521Y-26780D01*
X105538Y-26790D01*
X105547Y-26800D01*
X105555Y-26819D01*
X105555Y-26838D01*
X105547Y-26866D01*
X105444Y-26980D01*
X105555Y-26980D01*
X105667Y-26780D02*
X105684Y-26780D01*
X105701Y-26790D01*
X105710Y-26800D01*
X105718Y-26819D01*
X105727Y-26857D01*
X105727Y-26904D01*
X105718Y-26942D01*
X105710Y-26961D01*
X105701Y-26971D01*
X105684Y-26980D01*
X105667Y-26980D01*
X105650Y-26971D01*
X105641Y-26961D01*
X105632Y-26942D01*
X105624Y-26904D01*
X105624Y-26857D01*
X105632Y-26819D01*
X105641Y-26800D01*
X105650Y-26790D01*
X105667Y-26780D01*
X104627Y-27185D02*
X104525Y-27185D01*
X104576Y-27185D02*
X104576Y-26985D01*
X104559Y-27014D01*
X104542Y-27033D01*
X104525Y-27043D01*
X104739Y-26985D02*
X104756Y-26985D01*
X104773Y-26995D01*
X104782Y-27005D01*
X104790Y-27024D01*
X104799Y-27062D01*
X104799Y-27109D01*
X104790Y-27147D01*
X104782Y-27166D01*
X104773Y-27176D01*
X104756Y-27185D01*
X104739Y-27185D01*
X104722Y-27176D01*
X104713Y-27166D01*
X104705Y-27147D01*
X104696Y-27109D01*
X104696Y-27062D01*
X104705Y-27024D01*
X104713Y-27005D01*
X104722Y-26995D01*
X104739Y-26985D01*
X104876Y-27185D02*
X104876Y-26985D01*
X104893Y-27109D02*
X104945Y-27185D01*
X104945Y-27052D02*
X104876Y-27128D01*
X105384Y-24080D02*
X105324Y-23985D01*
X105281Y-24080D02*
X105281Y-23880D01*
X105350Y-23880D01*
X105367Y-23890D01*
X105375Y-23900D01*
X105384Y-23919D01*
X105384Y-23947D01*
X105375Y-23966D01*
X105367Y-23976D01*
X105350Y-23985D01*
X105281Y-23985D01*
X105452Y-23900D02*
X105461Y-23890D01*
X105478Y-23880D01*
X105521Y-23880D01*
X105538Y-23890D01*
X105547Y-23900D01*
X105555Y-23919D01*
X105555Y-23938D01*
X105547Y-23966D01*
X105444Y-24080D01*
X105555Y-24080D01*
X105624Y-23900D02*
X105632Y-23890D01*
X105650Y-23880D01*
X105692Y-23880D01*
X105710Y-23890D01*
X105718Y-23900D01*
X105727Y-23919D01*
X105727Y-23938D01*
X105718Y-23966D01*
X105615Y-24080D01*
X105727Y-24080D01*
X110384Y-26580D02*
X110324Y-26485D01*
X110281Y-26580D02*
X110281Y-26380D01*
X110350Y-26380D01*
X110367Y-26390D01*
X110375Y-26400D01*
X110384Y-26419D01*
X110384Y-26447D01*
X110375Y-26466D01*
X110367Y-26476D01*
X110350Y-26485D01*
X110281Y-26485D01*
X110555Y-26580D02*
X110452Y-26580D01*
X110504Y-26580D02*
X110504Y-26380D01*
X110487Y-26409D01*
X110470Y-26428D01*
X110452Y-26438D01*
X110727Y-26580D02*
X110624Y-26580D01*
X110675Y-26580D02*
X110675Y-26380D01*
X110658Y-26409D01*
X110641Y-26428D01*
X110624Y-26438D01*
X109592Y-27080D02*
X109490Y-27080D01*
X109541Y-27080D02*
X109541Y-26880D01*
X109524Y-26909D01*
X109507Y-26928D01*
X109490Y-26938D01*
X109704Y-26880D02*
X109721Y-26880D01*
X109738Y-26890D01*
X109747Y-26900D01*
X109755Y-26919D01*
X109764Y-26957D01*
X109764Y-27004D01*
X109755Y-27042D01*
X109747Y-27061D01*
X109738Y-27071D01*
X109721Y-27080D01*
X109704Y-27080D01*
X109687Y-27071D01*
X109678Y-27061D01*
X109670Y-27042D01*
X109661Y-27004D01*
X109661Y-26957D01*
X109670Y-26919D01*
X109678Y-26900D01*
X109687Y-26890D01*
X109704Y-26880D01*
X109841Y-27080D02*
X109841Y-26880D01*
X109858Y-27004D02*
X109910Y-27080D01*
X109910Y-26947D02*
X109841Y-27023D01*
X99484Y-33580D02*
X99424Y-33485D01*
X99381Y-33580D02*
X99381Y-33380D01*
X99450Y-33380D01*
X99467Y-33390D01*
X99475Y-33400D01*
X99484Y-33419D01*
X99484Y-33447D01*
X99475Y-33466D01*
X99467Y-33476D01*
X99450Y-33485D01*
X99381Y-33485D01*
X99552Y-33400D02*
X99561Y-33390D01*
X99578Y-33380D01*
X99621Y-33380D01*
X99638Y-33390D01*
X99647Y-33400D01*
X99655Y-33419D01*
X99655Y-33438D01*
X99647Y-33466D01*
X99544Y-33580D01*
X99655Y-33580D01*
X99818Y-33380D02*
X99732Y-33380D01*
X99724Y-33476D01*
X99732Y-33466D01*
X99750Y-33457D01*
X99792Y-33457D01*
X99810Y-33466D01*
X99818Y-33476D01*
X99827Y-33495D01*
X99827Y-33542D01*
X99818Y-33561D01*
X99810Y-33571D01*
X99792Y-33580D01*
X99750Y-33580D01*
X99732Y-33571D01*
X99724Y-33561D01*
X99170Y-32880D02*
X99084Y-32880D01*
X99075Y-32976D01*
X99084Y-32966D01*
X99101Y-32957D01*
X99144Y-32957D01*
X99161Y-32966D01*
X99170Y-32976D01*
X99178Y-32995D01*
X99178Y-33042D01*
X99170Y-33061D01*
X99161Y-33071D01*
X99144Y-33080D01*
X99101Y-33080D01*
X99084Y-33071D01*
X99075Y-33061D01*
X99255Y-33080D02*
X99255Y-32880D01*
X99272Y-33004D02*
X99324Y-33080D01*
X99324Y-32947D02*
X99255Y-33023D01*
X106861Y-34815D02*
X106871Y-34824D01*
X106880Y-34850D01*
X106880Y-34867D01*
X106871Y-34892D01*
X106852Y-34910D01*
X106833Y-34918D01*
X106795Y-34927D01*
X106766Y-34927D01*
X106728Y-34918D01*
X106709Y-34910D01*
X106690Y-34892D01*
X106680Y-34867D01*
X106680Y-34850D01*
X106690Y-34824D01*
X106700Y-34815D01*
X106880Y-34644D02*
X106880Y-34747D01*
X106880Y-34695D02*
X106680Y-34695D01*
X106709Y-34712D01*
X106728Y-34730D01*
X106738Y-34747D01*
X106680Y-34584D02*
X106680Y-34464D01*
X106880Y-34541D01*
X107238Y-35866D02*
X107135Y-35866D01*
X107186Y-35866D02*
X107186Y-35666D01*
X107169Y-35695D01*
X107152Y-35714D01*
X107135Y-35723D01*
X107392Y-35733D02*
X107392Y-35866D01*
X107315Y-35733D02*
X107315Y-35838D01*
X107323Y-35857D01*
X107340Y-35866D01*
X107366Y-35866D01*
X107383Y-35857D01*
X107392Y-35847D01*
X107538Y-35762D02*
X107478Y-35762D01*
X107478Y-35866D02*
X107478Y-35666D01*
X107563Y-35666D01*
X108886Y-40205D02*
X108896Y-40213D01*
X108905Y-40239D01*
X108905Y-40256D01*
X108896Y-40282D01*
X108877Y-40299D01*
X108858Y-40307D01*
X108820Y-40316D01*
X108791Y-40316D01*
X108753Y-40307D01*
X108734Y-40299D01*
X108715Y-40282D01*
X108705Y-40256D01*
X108705Y-40239D01*
X108715Y-40213D01*
X108725Y-40205D01*
X108905Y-40033D02*
X108905Y-40136D01*
X108905Y-40085D02*
X108705Y-40085D01*
X108734Y-40102D01*
X108753Y-40119D01*
X108763Y-40136D01*
X108742Y-40680D02*
X108640Y-40680D01*
X108691Y-40680D02*
X108691Y-40480D01*
X108674Y-40509D01*
X108657Y-40528D01*
X108640Y-40538D01*
X108897Y-40547D02*
X108897Y-40680D01*
X108820Y-40547D02*
X108820Y-40652D01*
X108828Y-40671D01*
X108845Y-40680D01*
X108871Y-40680D01*
X108888Y-40671D01*
X108897Y-40661D01*
X109042Y-40576D02*
X108982Y-40576D01*
X108982Y-40680D02*
X108982Y-40480D01*
X109068Y-40480D01*
X99784Y-35580D02*
X99724Y-35485D01*
X99681Y-35580D02*
X99681Y-35380D01*
X99750Y-35380D01*
X99767Y-35390D01*
X99775Y-35400D01*
X99784Y-35419D01*
X99784Y-35447D01*
X99775Y-35466D01*
X99767Y-35476D01*
X99750Y-35485D01*
X99681Y-35485D01*
X99852Y-35400D02*
X99861Y-35390D01*
X99878Y-35380D01*
X99921Y-35380D01*
X99938Y-35390D01*
X99947Y-35400D01*
X99955Y-35419D01*
X99955Y-35438D01*
X99947Y-35466D01*
X99844Y-35580D01*
X99955Y-35580D01*
X100015Y-35380D02*
X100127Y-35380D01*
X100067Y-35457D01*
X100092Y-35457D01*
X100110Y-35466D01*
X100118Y-35476D01*
X100127Y-35495D01*
X100127Y-35542D01*
X100118Y-35561D01*
X100110Y-35571D01*
X100092Y-35580D01*
X100041Y-35580D01*
X100024Y-35571D01*
X100015Y-35561D01*
X99034Y-34880D02*
X98948Y-34880D01*
X98940Y-34976D01*
X98948Y-34966D01*
X98965Y-34957D01*
X99008Y-34957D01*
X99025Y-34966D01*
X99034Y-34976D01*
X99042Y-34995D01*
X99042Y-35042D01*
X99034Y-35061D01*
X99025Y-35071D01*
X99008Y-35080D01*
X98965Y-35080D01*
X98948Y-35071D01*
X98940Y-35061D01*
X99154Y-34880D02*
X99171Y-34880D01*
X99188Y-34890D01*
X99197Y-34900D01*
X99205Y-34919D01*
X99214Y-34957D01*
X99214Y-35004D01*
X99205Y-35042D01*
X99197Y-35061D01*
X99188Y-35071D01*
X99171Y-35080D01*
X99154Y-35080D01*
X99137Y-35071D01*
X99128Y-35061D01*
X99120Y-35042D01*
X99111Y-35004D01*
X99111Y-34957D01*
X99120Y-34919D01*
X99128Y-34900D01*
X99137Y-34890D01*
X99154Y-34880D01*
X99291Y-35080D02*
X99291Y-34880D01*
X99308Y-35004D02*
X99360Y-35080D01*
X99360Y-34947D02*
X99291Y-35023D01*
X100084Y-38476D02*
X100075Y-38486D01*
X100050Y-38495D01*
X100032Y-38495D01*
X100007Y-38486D01*
X99990Y-38467D01*
X99981Y-38448D01*
X99972Y-38410D01*
X99972Y-38381D01*
X99981Y-38343D01*
X99990Y-38324D01*
X100007Y-38305D01*
X100032Y-38295D01*
X100050Y-38295D01*
X100075Y-38305D01*
X100084Y-38315D01*
X100255Y-38495D02*
X100152Y-38495D01*
X100204Y-38495D02*
X100204Y-38295D01*
X100187Y-38324D01*
X100170Y-38343D01*
X100152Y-38353D01*
X100315Y-38295D02*
X100427Y-38295D01*
X100367Y-38372D01*
X100392Y-38372D01*
X100410Y-38381D01*
X100418Y-38391D01*
X100427Y-38410D01*
X100427Y-38457D01*
X100418Y-38476D01*
X100410Y-38486D01*
X100392Y-38495D01*
X100341Y-38495D01*
X100324Y-38486D01*
X100315Y-38476D01*
X99591Y-37699D02*
X99600Y-37709D01*
X99591Y-37718D01*
X99583Y-37709D01*
X99591Y-37699D01*
X99591Y-37718D01*
X99771Y-37718D02*
X99669Y-37718D01*
X99720Y-37718D02*
X99720Y-37518D01*
X99703Y-37547D01*
X99686Y-37566D01*
X99669Y-37575D01*
X99926Y-37585D02*
X99926Y-37718D01*
X99849Y-37585D02*
X99849Y-37690D01*
X99857Y-37709D01*
X99874Y-37718D01*
X99900Y-37718D01*
X99917Y-37709D01*
X99926Y-37699D01*
X100071Y-37613D02*
X100011Y-37613D01*
X100011Y-37718D02*
X100011Y-37518D01*
X100097Y-37518D01*
X99485Y-38471D02*
X99476Y-38481D01*
X99450Y-38490D01*
X99433Y-38490D01*
X99407Y-38481D01*
X99390Y-38462D01*
X99382Y-38443D01*
X99373Y-38405D01*
X99373Y-38376D01*
X99382Y-38338D01*
X99390Y-38319D01*
X99407Y-38300D01*
X99433Y-38290D01*
X99450Y-38290D01*
X99476Y-38300D01*
X99485Y-38310D01*
X99570Y-38490D02*
X99605Y-38490D01*
X99622Y-38481D01*
X99630Y-38471D01*
X99647Y-38443D01*
X99656Y-38405D01*
X99656Y-38329D01*
X99647Y-38310D01*
X99639Y-38300D01*
X99622Y-38290D01*
X99587Y-38290D01*
X99570Y-38300D01*
X99562Y-38310D01*
X99553Y-38329D01*
X99553Y-38376D01*
X99562Y-38395D01*
X99570Y-38405D01*
X99587Y-38414D01*
X99622Y-38414D01*
X99639Y-38405D01*
X99647Y-38395D01*
X99656Y-38376D01*
X98589Y-38250D02*
X98598Y-38260D01*
X98589Y-38269D01*
X98581Y-38260D01*
X98589Y-38250D01*
X98589Y-38269D01*
X98769Y-38269D02*
X98666Y-38269D01*
X98718Y-38269D02*
X98718Y-38069D01*
X98701Y-38098D01*
X98683Y-38117D01*
X98666Y-38127D01*
X98923Y-38136D02*
X98923Y-38269D01*
X98846Y-38136D02*
X98846Y-38241D01*
X98855Y-38260D01*
X98872Y-38269D01*
X98898Y-38269D01*
X98915Y-38260D01*
X98923Y-38250D01*
X99069Y-38165D02*
X99009Y-38165D01*
X99009Y-38269D02*
X99009Y-38069D01*
X99095Y-38069D01*
X103409Y-40811D02*
X103400Y-40821D01*
X103375Y-40830D01*
X103357Y-40830D01*
X103332Y-40821D01*
X103315Y-40802D01*
X103306Y-40783D01*
X103297Y-40745D01*
X103297Y-40716D01*
X103306Y-40678D01*
X103315Y-40659D01*
X103332Y-40640D01*
X103357Y-40630D01*
X103375Y-40630D01*
X103400Y-40640D01*
X103409Y-40650D01*
X103580Y-40830D02*
X103477Y-40830D01*
X103529Y-40830D02*
X103529Y-40630D01*
X103512Y-40659D01*
X103495Y-40678D01*
X103477Y-40688D01*
X103692Y-40630D02*
X103709Y-40630D01*
X103726Y-40640D01*
X103735Y-40650D01*
X103743Y-40669D01*
X103752Y-40707D01*
X103752Y-40754D01*
X103743Y-40792D01*
X103735Y-40811D01*
X103726Y-40821D01*
X103709Y-40830D01*
X103692Y-40830D01*
X103675Y-40821D01*
X103666Y-40811D01*
X103657Y-40792D01*
X103649Y-40754D01*
X103649Y-40707D01*
X103657Y-40669D01*
X103666Y-40650D01*
X103675Y-40640D01*
X103692Y-40630D01*
X102280Y-41311D02*
X102289Y-41321D01*
X102280Y-41330D01*
X102272Y-41321D01*
X102280Y-41311D01*
X102280Y-41330D01*
X102460Y-41330D02*
X102357Y-41330D01*
X102409Y-41330D02*
X102409Y-41130D01*
X102392Y-41159D01*
X102375Y-41178D01*
X102357Y-41188D01*
X102615Y-41197D02*
X102615Y-41330D01*
X102537Y-41197D02*
X102537Y-41302D01*
X102546Y-41321D01*
X102563Y-41330D01*
X102589Y-41330D01*
X102606Y-41321D01*
X102615Y-41311D01*
X102760Y-41226D02*
X102700Y-41226D01*
X102700Y-41330D02*
X102700Y-41130D01*
X102786Y-41130D01*
X108861Y-41005D02*
X108871Y-41013D01*
X108880Y-41039D01*
X108880Y-41056D01*
X108871Y-41082D01*
X108852Y-41099D01*
X108833Y-41107D01*
X108795Y-41116D01*
X108766Y-41116D01*
X108728Y-41107D01*
X108709Y-41099D01*
X108690Y-41082D01*
X108680Y-41056D01*
X108680Y-41039D01*
X108690Y-41013D01*
X108700Y-41005D01*
X108700Y-40936D02*
X108690Y-40927D01*
X108680Y-40910D01*
X108680Y-40867D01*
X108690Y-40850D01*
X108700Y-40842D01*
X108719Y-40833D01*
X108738Y-40833D01*
X108766Y-40842D01*
X108880Y-40945D01*
X108880Y-40833D01*
X101970Y-34580D02*
X101910Y-34485D01*
X101867Y-34580D02*
X101867Y-34380D01*
X101935Y-34380D01*
X101952Y-34390D01*
X101961Y-34400D01*
X101970Y-34419D01*
X101970Y-34447D01*
X101961Y-34466D01*
X101952Y-34476D01*
X101935Y-34485D01*
X101867Y-34485D01*
X102124Y-34447D02*
X102124Y-34580D01*
X102081Y-34371D02*
X102038Y-34514D01*
X102150Y-34514D01*
X100898Y-34155D02*
X100812Y-34155D01*
X100804Y-34251D01*
X100812Y-34241D01*
X100830Y-34232D01*
X100872Y-34232D01*
X100890Y-34241D01*
X100898Y-34251D01*
X100907Y-34270D01*
X100907Y-34317D01*
X100898Y-34336D01*
X100890Y-34346D01*
X100872Y-34355D01*
X100830Y-34355D01*
X100812Y-34346D01*
X100804Y-34336D01*
X101078Y-34355D02*
X100975Y-34355D01*
X101027Y-34355D02*
X101027Y-34155D01*
X101010Y-34184D01*
X100992Y-34203D01*
X100975Y-34213D01*
X101190Y-34155D02*
X101207Y-34155D01*
X101224Y-34165D01*
X101232Y-34175D01*
X101241Y-34194D01*
X101250Y-34232D01*
X101250Y-34279D01*
X101241Y-34317D01*
X101232Y-34336D01*
X101224Y-34346D01*
X101207Y-34355D01*
X101190Y-34355D01*
X101172Y-34346D01*
X101164Y-34336D01*
X101155Y-34317D01*
X101147Y-34279D01*
X101147Y-34232D01*
X101155Y-34194D01*
X101164Y-34175D01*
X101172Y-34165D01*
X101190Y-34155D01*
X101327Y-34355D02*
X101327Y-34155D01*
X101344Y-34279D02*
X101395Y-34355D01*
X101395Y-34222D02*
X101327Y-34298D01*
X104769Y-39736D02*
X104760Y-39746D01*
X104735Y-39755D01*
X104717Y-39755D01*
X104692Y-39746D01*
X104675Y-39727D01*
X104666Y-39708D01*
X104657Y-39670D01*
X104657Y-39641D01*
X104666Y-39603D01*
X104675Y-39584D01*
X104692Y-39565D01*
X104717Y-39555D01*
X104735Y-39555D01*
X104760Y-39565D01*
X104769Y-39575D01*
X104940Y-39755D02*
X104837Y-39755D01*
X104889Y-39755D02*
X104889Y-39555D01*
X104872Y-39584D01*
X104855Y-39603D01*
X104837Y-39613D01*
X105103Y-39555D02*
X105017Y-39555D01*
X105009Y-39651D01*
X105017Y-39641D01*
X105035Y-39632D01*
X105077Y-39632D01*
X105095Y-39641D01*
X105103Y-39651D01*
X105112Y-39670D01*
X105112Y-39717D01*
X105103Y-39736D01*
X105095Y-39746D01*
X105077Y-39755D01*
X105035Y-39755D01*
X105017Y-39746D01*
X105009Y-39736D01*
X104242Y-39130D02*
X104140Y-39130D01*
X104191Y-39130D02*
X104191Y-38930D01*
X104174Y-38959D01*
X104157Y-38978D01*
X104140Y-38988D01*
X104397Y-38997D02*
X104397Y-39130D01*
X104320Y-38997D02*
X104320Y-39102D01*
X104328Y-39121D01*
X104345Y-39130D01*
X104371Y-39130D01*
X104388Y-39121D01*
X104397Y-39111D01*
X104542Y-39026D02*
X104482Y-39026D01*
X104482Y-39130D02*
X104482Y-38930D01*
X104568Y-38930D01*
X101970Y-35580D02*
X101910Y-35485D01*
X101867Y-35580D02*
X101867Y-35380D01*
X101935Y-35380D01*
X101952Y-35390D01*
X101961Y-35400D01*
X101970Y-35419D01*
X101970Y-35447D01*
X101961Y-35466D01*
X101952Y-35476D01*
X101935Y-35485D01*
X101867Y-35485D01*
X102132Y-35380D02*
X102047Y-35380D01*
X102038Y-35476D01*
X102047Y-35466D01*
X102064Y-35457D01*
X102107Y-35457D01*
X102124Y-35466D01*
X102132Y-35476D01*
X102141Y-35495D01*
X102141Y-35542D01*
X102132Y-35561D01*
X102124Y-35571D01*
X102107Y-35580D01*
X102064Y-35580D01*
X102047Y-35571D01*
X102038Y-35561D01*
X101084Y-34880D02*
X100998Y-34880D01*
X100990Y-34976D01*
X100998Y-34966D01*
X101015Y-34957D01*
X101058Y-34957D01*
X101075Y-34966D01*
X101084Y-34976D01*
X101092Y-34995D01*
X101092Y-35042D01*
X101084Y-35061D01*
X101075Y-35071D01*
X101058Y-35080D01*
X101015Y-35080D01*
X100998Y-35071D01*
X100990Y-35061D01*
X101204Y-34880D02*
X101221Y-34880D01*
X101238Y-34890D01*
X101247Y-34900D01*
X101255Y-34919D01*
X101264Y-34957D01*
X101264Y-35004D01*
X101255Y-35042D01*
X101247Y-35061D01*
X101238Y-35071D01*
X101221Y-35080D01*
X101204Y-35080D01*
X101187Y-35071D01*
X101178Y-35061D01*
X101170Y-35042D01*
X101161Y-35004D01*
X101161Y-34957D01*
X101170Y-34919D01*
X101178Y-34900D01*
X101187Y-34890D01*
X101204Y-34880D01*
X101341Y-35080D02*
X101341Y-34880D01*
X101358Y-35004D02*
X101410Y-35080D01*
X101410Y-34947D02*
X101341Y-35023D01*
X101970Y-33461D02*
X101961Y-33471D01*
X101935Y-33480D01*
X101918Y-33480D01*
X101892Y-33471D01*
X101875Y-33452D01*
X101867Y-33433D01*
X101858Y-33395D01*
X101858Y-33366D01*
X101867Y-33328D01*
X101875Y-33309D01*
X101892Y-33290D01*
X101918Y-33280D01*
X101935Y-33280D01*
X101961Y-33290D01*
X101970Y-33300D01*
X102132Y-33280D02*
X102047Y-33280D01*
X102038Y-33376D01*
X102047Y-33366D01*
X102064Y-33357D01*
X102107Y-33357D01*
X102124Y-33366D01*
X102132Y-33376D01*
X102141Y-33395D01*
X102141Y-33442D01*
X102132Y-33461D01*
X102124Y-33471D01*
X102107Y-33480D01*
X102064Y-33480D01*
X102047Y-33471D01*
X102038Y-33461D01*
X100854Y-32700D02*
X100862Y-32690D01*
X100880Y-32680D01*
X100922Y-32680D01*
X100940Y-32690D01*
X100948Y-32700D01*
X100957Y-32719D01*
X100957Y-32738D01*
X100948Y-32766D01*
X100845Y-32880D01*
X100957Y-32880D01*
X101025Y-32700D02*
X101034Y-32690D01*
X101051Y-32680D01*
X101094Y-32680D01*
X101111Y-32690D01*
X101120Y-32700D01*
X101128Y-32719D01*
X101128Y-32738D01*
X101120Y-32766D01*
X101017Y-32880D01*
X101128Y-32880D01*
X101205Y-32747D02*
X101205Y-32947D01*
X101205Y-32757D02*
X101222Y-32747D01*
X101257Y-32747D01*
X101274Y-32757D01*
X101282Y-32766D01*
X101291Y-32785D01*
X101291Y-32842D01*
X101282Y-32861D01*
X101274Y-32871D01*
X101257Y-32880D01*
X101222Y-32880D01*
X101205Y-32871D01*
X101428Y-32776D02*
X101368Y-32776D01*
X101368Y-32880D02*
X101368Y-32680D01*
X101454Y-32680D01*
X99784Y-34580D02*
X99724Y-34485D01*
X99681Y-34580D02*
X99681Y-34380D01*
X99750Y-34380D01*
X99767Y-34390D01*
X99775Y-34400D01*
X99784Y-34419D01*
X99784Y-34447D01*
X99775Y-34466D01*
X99767Y-34476D01*
X99750Y-34485D01*
X99681Y-34485D01*
X99852Y-34400D02*
X99861Y-34390D01*
X99878Y-34380D01*
X99921Y-34380D01*
X99938Y-34390D01*
X99947Y-34400D01*
X99955Y-34419D01*
X99955Y-34438D01*
X99947Y-34466D01*
X99844Y-34580D01*
X99955Y-34580D01*
X100110Y-34447D02*
X100110Y-34580D01*
X100067Y-34371D02*
X100024Y-34514D01*
X100135Y-34514D01*
X99042Y-34080D02*
X98940Y-34080D01*
X98991Y-34080D02*
X98991Y-33880D01*
X98974Y-33909D01*
X98957Y-33928D01*
X98940Y-33938D01*
X99154Y-33880D02*
X99171Y-33880D01*
X99188Y-33890D01*
X99197Y-33900D01*
X99205Y-33919D01*
X99214Y-33957D01*
X99214Y-34004D01*
X99205Y-34042D01*
X99197Y-34061D01*
X99188Y-34071D01*
X99171Y-34080D01*
X99154Y-34080D01*
X99137Y-34071D01*
X99128Y-34061D01*
X99120Y-34042D01*
X99111Y-34004D01*
X99111Y-33957D01*
X99120Y-33919D01*
X99128Y-33900D01*
X99137Y-33890D01*
X99154Y-33880D01*
X99291Y-34080D02*
X99291Y-33880D01*
X99308Y-34004D02*
X99360Y-34080D01*
X99360Y-33947D02*
X99291Y-34023D01*
X103784Y-33580D02*
X103724Y-33485D01*
X103681Y-33580D02*
X103681Y-33380D01*
X103750Y-33380D01*
X103767Y-33390D01*
X103775Y-33400D01*
X103784Y-33419D01*
X103784Y-33447D01*
X103775Y-33466D01*
X103767Y-33476D01*
X103750Y-33485D01*
X103681Y-33485D01*
X103955Y-33580D02*
X103852Y-33580D01*
X103904Y-33580D02*
X103904Y-33380D01*
X103887Y-33409D01*
X103870Y-33428D01*
X103852Y-33438D01*
X104110Y-33380D02*
X104075Y-33380D01*
X104058Y-33390D01*
X104050Y-33400D01*
X104032Y-33428D01*
X104024Y-33466D01*
X104024Y-33542D01*
X104032Y-33561D01*
X104041Y-33571D01*
X104058Y-33580D01*
X104092Y-33580D01*
X104110Y-33571D01*
X104118Y-33561D01*
X104127Y-33542D01*
X104127Y-33495D01*
X104118Y-33476D01*
X104110Y-33466D01*
X104092Y-33457D01*
X104058Y-33457D01*
X104041Y-33466D01*
X104032Y-33476D01*
X104024Y-33495D01*
X103034Y-32880D02*
X102948Y-32880D01*
X102940Y-32976D01*
X102948Y-32966D01*
X102965Y-32957D01*
X103008Y-32957D01*
X103025Y-32966D01*
X103034Y-32976D01*
X103042Y-32995D01*
X103042Y-33042D01*
X103034Y-33061D01*
X103025Y-33071D01*
X103008Y-33080D01*
X102965Y-33080D01*
X102948Y-33071D01*
X102940Y-33061D01*
X103154Y-32880D02*
X103171Y-32880D01*
X103188Y-32890D01*
X103197Y-32900D01*
X103205Y-32919D01*
X103214Y-32957D01*
X103214Y-33004D01*
X103205Y-33042D01*
X103197Y-33061D01*
X103188Y-33071D01*
X103171Y-33080D01*
X103154Y-33080D01*
X103137Y-33071D01*
X103128Y-33061D01*
X103120Y-33042D01*
X103111Y-33004D01*
X103111Y-32957D01*
X103120Y-32919D01*
X103128Y-32900D01*
X103137Y-32890D01*
X103154Y-32880D01*
X103291Y-33080D02*
X103291Y-32880D01*
X103308Y-33004D02*
X103360Y-33080D01*
X103360Y-32947D02*
X103291Y-33023D01*
X103713Y-35582D02*
X103653Y-35487D01*
X103610Y-35582D02*
X103610Y-35382D01*
X103678Y-35382D01*
X103695Y-35392D01*
X103704Y-35401D01*
X103713Y-35421D01*
X103713Y-35449D01*
X103704Y-35468D01*
X103695Y-35478D01*
X103678Y-35487D01*
X103610Y-35487D01*
X103884Y-35582D02*
X103781Y-35582D01*
X103833Y-35582D02*
X103833Y-35382D01*
X103815Y-35411D01*
X103798Y-35430D01*
X103781Y-35440D01*
X104047Y-35382D02*
X103961Y-35382D01*
X103953Y-35478D01*
X103961Y-35468D01*
X103978Y-35459D01*
X104021Y-35459D01*
X104038Y-35468D01*
X104047Y-35478D01*
X104055Y-35497D01*
X104055Y-35544D01*
X104047Y-35563D01*
X104038Y-35573D01*
X104021Y-35582D01*
X103978Y-35582D01*
X103961Y-35573D01*
X103953Y-35563D01*
X103114Y-34900D02*
X103028Y-34900D01*
X103020Y-34996D01*
X103028Y-34986D01*
X103045Y-34977D01*
X103088Y-34977D01*
X103105Y-34986D01*
X103114Y-34996D01*
X103122Y-35015D01*
X103122Y-35062D01*
X103114Y-35081D01*
X103105Y-35091D01*
X103088Y-35100D01*
X103045Y-35100D01*
X103028Y-35091D01*
X103020Y-35081D01*
X103234Y-34900D02*
X103251Y-34900D01*
X103268Y-34910D01*
X103277Y-34920D01*
X103285Y-34939D01*
X103294Y-34977D01*
X103294Y-35024D01*
X103285Y-35062D01*
X103277Y-35081D01*
X103268Y-35091D01*
X103251Y-35100D01*
X103234Y-35100D01*
X103217Y-35091D01*
X103208Y-35081D01*
X103200Y-35062D01*
X103191Y-35024D01*
X103191Y-34977D01*
X103200Y-34939D01*
X103208Y-34920D01*
X103217Y-34910D01*
X103234Y-34900D01*
X103371Y-35100D02*
X103371Y-34900D01*
X103388Y-35024D02*
X103440Y-35100D01*
X103440Y-34967D02*
X103371Y-35043D01*
X98417Y-23939D02*
X98409Y-23949D01*
X98383Y-23958D01*
X98366Y-23958D01*
X98340Y-23949D01*
X98323Y-23930D01*
X98314Y-23911D01*
X98306Y-23873D01*
X98306Y-23844D01*
X98314Y-23806D01*
X98323Y-23787D01*
X98340Y-23768D01*
X98366Y-23758D01*
X98383Y-23758D01*
X98409Y-23768D01*
X98417Y-23777D01*
X98486Y-23777D02*
X98494Y-23768D01*
X98512Y-23758D01*
X98554Y-23758D01*
X98572Y-23768D01*
X98580Y-23777D01*
X98589Y-23797D01*
X98589Y-23816D01*
X98580Y-23844D01*
X98477Y-23958D01*
X98589Y-23958D01*
X98752Y-23758D02*
X98666Y-23758D01*
X98657Y-23854D01*
X98666Y-23844D01*
X98683Y-23835D01*
X98726Y-23835D01*
X98743Y-23844D01*
X98752Y-23854D01*
X98760Y-23873D01*
X98760Y-23920D01*
X98752Y-23939D01*
X98743Y-23949D01*
X98726Y-23958D01*
X98683Y-23958D01*
X98666Y-23949D01*
X98657Y-23939D01*
X99455Y-24361D02*
X99464Y-24371D01*
X99455Y-24380D01*
X99447Y-24371D01*
X99455Y-24361D01*
X99455Y-24380D01*
X99635Y-24380D02*
X99532Y-24380D01*
X99584Y-24380D02*
X99584Y-24180D01*
X99567Y-24209D01*
X99550Y-24228D01*
X99532Y-24238D01*
X99790Y-24247D02*
X99790Y-24380D01*
X99712Y-24247D02*
X99712Y-24352D01*
X99721Y-24371D01*
X99738Y-24380D01*
X99764Y-24380D01*
X99781Y-24371D01*
X99790Y-24361D01*
X99935Y-24276D02*
X99875Y-24276D01*
X99875Y-24380D02*
X99875Y-24180D01*
X99961Y-24180D01*
X98348Y-31941D02*
X98340Y-31951D01*
X98314Y-31960D01*
X98297Y-31960D01*
X98271Y-31951D01*
X98254Y-31932D01*
X98245Y-31913D01*
X98237Y-31875D01*
X98237Y-31846D01*
X98245Y-31808D01*
X98254Y-31789D01*
X98271Y-31770D01*
X98297Y-31760D01*
X98314Y-31760D01*
X98340Y-31770D01*
X98348Y-31779D01*
X98417Y-31779D02*
X98425Y-31770D01*
X98443Y-31760D01*
X98485Y-31760D01*
X98503Y-31770D01*
X98511Y-31779D01*
X98520Y-31798D01*
X98520Y-31818D01*
X98511Y-31846D01*
X98408Y-31960D01*
X98520Y-31960D01*
X98674Y-31760D02*
X98640Y-31760D01*
X98623Y-31770D01*
X98614Y-31779D01*
X98597Y-31808D01*
X98588Y-31846D01*
X98588Y-31922D01*
X98597Y-31941D01*
X98605Y-31951D01*
X98623Y-31960D01*
X98657Y-31960D01*
X98674Y-31951D01*
X98683Y-31941D01*
X98691Y-31922D01*
X98691Y-31875D01*
X98683Y-31856D01*
X98674Y-31846D01*
X98657Y-31837D01*
X98623Y-31837D01*
X98605Y-31846D01*
X98597Y-31856D01*
X98588Y-31875D01*
X98945Y-31941D02*
X98954Y-31951D01*
X98945Y-31960D01*
X98937Y-31951D01*
X98945Y-31941D01*
X98945Y-31960D01*
X99125Y-31960D02*
X99022Y-31960D01*
X99074Y-31960D02*
X99074Y-31760D01*
X99057Y-31789D01*
X99040Y-31808D01*
X99022Y-31818D01*
X99280Y-31827D02*
X99280Y-31960D01*
X99202Y-31827D02*
X99202Y-31932D01*
X99211Y-31951D01*
X99228Y-31960D01*
X99254Y-31960D01*
X99271Y-31951D01*
X99280Y-31941D01*
X99425Y-31856D02*
X99365Y-31856D01*
X99365Y-31960D02*
X99365Y-31760D01*
X99451Y-31760D01*
X103784Y-34580D02*
X103724Y-34485D01*
X103681Y-34580D02*
X103681Y-34380D01*
X103750Y-34380D01*
X103767Y-34390D01*
X103775Y-34400D01*
X103784Y-34419D01*
X103784Y-34447D01*
X103775Y-34466D01*
X103767Y-34476D01*
X103750Y-34485D01*
X103681Y-34485D01*
X103955Y-34580D02*
X103852Y-34580D01*
X103904Y-34580D02*
X103904Y-34380D01*
X103887Y-34409D01*
X103870Y-34428D01*
X103852Y-34438D01*
X104015Y-34380D02*
X104135Y-34380D01*
X104058Y-34580D01*
X102984Y-33880D02*
X102898Y-33880D01*
X102890Y-33976D01*
X102898Y-33966D01*
X102915Y-33957D01*
X102958Y-33957D01*
X102975Y-33966D01*
X102984Y-33976D01*
X102992Y-33995D01*
X102992Y-34042D01*
X102984Y-34061D01*
X102975Y-34071D01*
X102958Y-34080D01*
X102915Y-34080D01*
X102898Y-34071D01*
X102890Y-34061D01*
X103104Y-33880D02*
X103121Y-33880D01*
X103138Y-33890D01*
X103147Y-33900D01*
X103155Y-33919D01*
X103164Y-33957D01*
X103164Y-34004D01*
X103155Y-34042D01*
X103147Y-34061D01*
X103138Y-34071D01*
X103121Y-34080D01*
X103104Y-34080D01*
X103087Y-34071D01*
X103078Y-34061D01*
X103070Y-34042D01*
X103061Y-34004D01*
X103061Y-33957D01*
X103070Y-33919D01*
X103078Y-33900D01*
X103087Y-33890D01*
X103104Y-33880D01*
X103241Y-34080D02*
X103241Y-33880D01*
X103258Y-34004D02*
X103310Y-34080D01*
X103310Y-33947D02*
X103241Y-34023D01*
X95814Y-31826D02*
X95805Y-31836D01*
X95780Y-31845D01*
X95762Y-31845D01*
X95737Y-31836D01*
X95720Y-31817D01*
X95711Y-31798D01*
X95702Y-31760D01*
X95702Y-31731D01*
X95711Y-31693D01*
X95720Y-31674D01*
X95737Y-31655D01*
X95762Y-31645D01*
X95780Y-31645D01*
X95805Y-31655D01*
X95814Y-31665D01*
X95882Y-31665D02*
X95891Y-31655D01*
X95908Y-31645D01*
X95951Y-31645D01*
X95968Y-31655D01*
X95977Y-31665D01*
X95985Y-31684D01*
X95985Y-31703D01*
X95977Y-31731D01*
X95874Y-31845D01*
X95985Y-31845D01*
X96088Y-31731D02*
X96071Y-31722D01*
X96062Y-31712D01*
X96054Y-31693D01*
X96054Y-31684D01*
X96062Y-31665D01*
X96071Y-31655D01*
X96088Y-31645D01*
X96122Y-31645D01*
X96140Y-31655D01*
X96148Y-31665D01*
X96157Y-31684D01*
X96157Y-31693D01*
X96148Y-31712D01*
X96140Y-31722D01*
X96122Y-31731D01*
X96088Y-31731D01*
X96071Y-31741D01*
X96062Y-31750D01*
X96054Y-31769D01*
X96054Y-31807D01*
X96062Y-31826D01*
X96071Y-31836D01*
X96088Y-31845D01*
X96122Y-31845D01*
X96140Y-31836D01*
X96148Y-31826D01*
X96157Y-31807D01*
X96157Y-31769D01*
X96148Y-31750D01*
X96140Y-31741D01*
X96122Y-31731D01*
X96495Y-32256D02*
X96504Y-32266D01*
X96495Y-32275D01*
X96487Y-32266D01*
X96495Y-32256D01*
X96495Y-32275D01*
X96675Y-32275D02*
X96572Y-32275D01*
X96624Y-32275D02*
X96624Y-32075D01*
X96607Y-32104D01*
X96590Y-32123D01*
X96572Y-32133D01*
X96830Y-32142D02*
X96830Y-32275D01*
X96752Y-32142D02*
X96752Y-32247D01*
X96761Y-32266D01*
X96778Y-32275D01*
X96804Y-32275D01*
X96821Y-32266D01*
X96830Y-32256D01*
X96975Y-32171D02*
X96915Y-32171D01*
X96915Y-32275D02*
X96915Y-32075D01*
X97001Y-32075D01*
G54D27*
X113817Y-40404D02*
X113751Y-40310D01*
X113704Y-40404D02*
X113704Y-40207D01*
X113779Y-40207D01*
X113798Y-40217D01*
X113807Y-40226D01*
X113817Y-40245D01*
X113817Y-40273D01*
X113807Y-40292D01*
X113798Y-40301D01*
X113779Y-40310D01*
X113704Y-40310D01*
X114004Y-40404D02*
X113892Y-40404D01*
X113948Y-40404D02*
X113948Y-40207D01*
X113929Y-40235D01*
X113910Y-40254D01*
X113892Y-40264D01*
X113649Y-40751D02*
X113659Y-40742D01*
X113677Y-40732D01*
X113724Y-40732D01*
X113743Y-40742D01*
X113752Y-40751D01*
X113762Y-40770D01*
X113762Y-40789D01*
X113752Y-40817D01*
X113640Y-40929D01*
X113762Y-40929D01*
X114034Y-40732D02*
X114071Y-40732D01*
X114090Y-40742D01*
X114109Y-40760D01*
X114118Y-40798D01*
X114118Y-40864D01*
X114109Y-40901D01*
X114090Y-40920D01*
X114071Y-40929D01*
X114034Y-40929D01*
X114015Y-40920D01*
X113996Y-40901D01*
X113987Y-40864D01*
X113987Y-40798D01*
X113996Y-40760D01*
X114015Y-40742D01*
X114034Y-40732D01*
X114203Y-40929D02*
X114203Y-40732D01*
X114203Y-40826D02*
X114315Y-40826D01*
X114315Y-40929D02*
X114315Y-40732D01*
X114409Y-40929D02*
X114409Y-40732D01*
X114475Y-40873D01*
X114540Y-40732D01*
X114540Y-40929D01*
G54D26*
X93457Y-44626D02*
X93195Y-44760D01*
X93457Y-44911D02*
X92907Y-44843D01*
X92907Y-44652D01*
X92933Y-44608D01*
X92960Y-44587D01*
X93012Y-44570D01*
X93090Y-44580D01*
X93143Y-44610D01*
X93169Y-44637D01*
X93195Y-44688D01*
X93195Y-44879D01*
X92960Y-44373D02*
X92933Y-44346D01*
X92907Y-44295D01*
X92907Y-44176D01*
X92933Y-44132D01*
X92960Y-44111D01*
X93012Y-44094D01*
X93064Y-44100D01*
X93143Y-44134D01*
X93457Y-44459D01*
X93457Y-44149D01*
X92907Y-43652D02*
X92907Y-43747D01*
X92933Y-43798D01*
X92960Y-43825D01*
X93038Y-43883D01*
X93143Y-43920D01*
X93352Y-43946D01*
X93405Y-43929D01*
X93431Y-43908D01*
X93457Y-43864D01*
X93457Y-43768D01*
X93431Y-43718D01*
X93405Y-43691D01*
X93352Y-43660D01*
X93221Y-43644D01*
X93169Y-43661D01*
X93143Y-43682D01*
X93117Y-43726D01*
X93117Y-43821D01*
X93143Y-43872D01*
X93169Y-43899D01*
X93221Y-43930D01*
X106222Y-38358D02*
X105960Y-38491D01*
X106222Y-38643D02*
X105672Y-38575D01*
X105672Y-38384D01*
X105698Y-38340D01*
X105725Y-38319D01*
X105777Y-38302D01*
X105855Y-38312D01*
X105908Y-38342D01*
X105934Y-38369D01*
X105960Y-38420D01*
X105960Y-38611D01*
X105672Y-38122D02*
X105672Y-37813D01*
X105882Y-38005D01*
X105882Y-37934D01*
X105908Y-37890D01*
X105934Y-37869D01*
X105986Y-37852D01*
X106117Y-37868D01*
X106170Y-37899D01*
X106196Y-37926D01*
X106222Y-37977D01*
X106222Y-38119D01*
X106196Y-38164D01*
X106170Y-38184D01*
X92222Y-44046D02*
X91960Y-44180D01*
X92222Y-44331D02*
X91672Y-44263D01*
X91672Y-44072D01*
X91698Y-44028D01*
X91725Y-44007D01*
X91777Y-43990D01*
X91855Y-44000D01*
X91908Y-44030D01*
X91934Y-44057D01*
X91960Y-44108D01*
X91960Y-44299D01*
X91725Y-43793D02*
X91698Y-43766D01*
X91672Y-43715D01*
X91672Y-43596D01*
X91698Y-43552D01*
X91725Y-43531D01*
X91777Y-43514D01*
X91829Y-43520D01*
X91908Y-43554D01*
X92222Y-43879D01*
X92222Y-43569D01*
X91908Y-43244D02*
X91882Y-43289D01*
X91855Y-43309D01*
X91803Y-43327D01*
X91777Y-43323D01*
X91725Y-43293D01*
X91698Y-43266D01*
X91672Y-43215D01*
X91672Y-43120D01*
X91698Y-43075D01*
X91725Y-43055D01*
X91777Y-43038D01*
X91803Y-43041D01*
X91855Y-43071D01*
X91882Y-43098D01*
X91908Y-43149D01*
X91908Y-43244D01*
X91934Y-43295D01*
X91960Y-43322D01*
X92013Y-43353D01*
X92117Y-43366D01*
X92170Y-43349D01*
X92196Y-43328D01*
X92222Y-43284D01*
X92222Y-43188D01*
X92196Y-43138D01*
X92170Y-43111D01*
X92117Y-43080D01*
X92013Y-43067D01*
X91960Y-43084D01*
X91934Y-43105D01*
X91908Y-43149D01*
G54D10*
X100962Y-47296D02*
X100925Y-47278D01*
X100887Y-47240D01*
X100831Y-47184D01*
X100793Y-47165D01*
X100756Y-47165D01*
X100775Y-47259D02*
X100737Y-47240D01*
X100700Y-47203D01*
X100681Y-47128D01*
X100681Y-46996D01*
X100700Y-46921D01*
X100737Y-46884D01*
X100775Y-46865D01*
X100850Y-46865D01*
X100887Y-46884D01*
X100925Y-46921D01*
X100943Y-46996D01*
X100943Y-47128D01*
X100925Y-47203D01*
X100887Y-47240D01*
X100850Y-47259D01*
X100775Y-47259D01*
X101074Y-46865D02*
X101318Y-46865D01*
X101187Y-47015D01*
X101243Y-47015D01*
X101281Y-47034D01*
X101299Y-47053D01*
X101318Y-47090D01*
X101318Y-47184D01*
X101299Y-47221D01*
X101281Y-47240D01*
X101243Y-47259D01*
X101131Y-47259D01*
X101093Y-47240D01*
X101074Y-47221D01*
X100139Y-44357D02*
X100182Y-44371D01*
X100253Y-44371D01*
X100282Y-44357D01*
X100296Y-44342D01*
X100310Y-44314D01*
X100310Y-44285D01*
X100296Y-44257D01*
X100282Y-44242D01*
X100253Y-44228D01*
X100196Y-44214D01*
X100167Y-44200D01*
X100153Y-44185D01*
X100139Y-44157D01*
X100139Y-44128D01*
X100153Y-44100D01*
X100167Y-44085D01*
X100196Y-44071D01*
X100267Y-44071D01*
X100310Y-44085D01*
X100439Y-44371D02*
X100439Y-44171D01*
X100439Y-44071D02*
X100425Y-44085D01*
X100439Y-44100D01*
X100453Y-44085D01*
X100439Y-44071D01*
X100439Y-44100D01*
X100753Y-44371D02*
X100653Y-44228D01*
X100582Y-44371D02*
X100582Y-44071D01*
X100696Y-44071D01*
X100725Y-44085D01*
X100739Y-44100D01*
X100753Y-44128D01*
X100753Y-44171D01*
X100739Y-44200D01*
X100725Y-44214D01*
X100696Y-44228D01*
X100582Y-44228D01*
X101010Y-44171D02*
X101010Y-44371D01*
X100939Y-44057D02*
X100867Y-44271D01*
X101053Y-44271D01*
X101153Y-44100D02*
X101167Y-44085D01*
X101196Y-44071D01*
X101267Y-44071D01*
X101296Y-44085D01*
X101310Y-44100D01*
X101325Y-44128D01*
X101325Y-44157D01*
X101310Y-44200D01*
X101139Y-44371D01*
X101325Y-44371D01*
X101582Y-44071D02*
X101525Y-44071D01*
X101496Y-44085D01*
X101482Y-44100D01*
X101453Y-44142D01*
X101439Y-44200D01*
X101439Y-44314D01*
X101453Y-44342D01*
X101467Y-44357D01*
X101496Y-44371D01*
X101553Y-44371D01*
X101582Y-44357D01*
X101596Y-44342D01*
X101610Y-44314D01*
X101610Y-44242D01*
X101596Y-44214D01*
X101582Y-44200D01*
X101553Y-44185D01*
X101496Y-44185D01*
X101467Y-44200D01*
X101453Y-44214D01*
X101439Y-44242D01*
X101739Y-44371D02*
X101739Y-44071D01*
X101810Y-44071D01*
X101853Y-44085D01*
X101882Y-44114D01*
X101896Y-44142D01*
X101910Y-44200D01*
X101910Y-44242D01*
X101896Y-44300D01*
X101882Y-44328D01*
X101853Y-44357D01*
X101810Y-44371D01*
X101739Y-44371D01*
X102039Y-44371D02*
X102039Y-44071D01*
X102153Y-44071D01*
X102182Y-44085D01*
X102196Y-44100D01*
X102210Y-44128D01*
X102210Y-44171D01*
X102196Y-44200D01*
X102182Y-44214D01*
X102153Y-44228D01*
X102039Y-44228D01*
X101064Y-41929D02*
X101027Y-41910D01*
X100989Y-41872D01*
X100933Y-41816D01*
X100896Y-41797D01*
X100858Y-41797D01*
X100877Y-41891D02*
X100839Y-41872D01*
X100802Y-41835D01*
X100783Y-41760D01*
X100783Y-41629D01*
X100802Y-41554D01*
X100839Y-41516D01*
X100877Y-41497D01*
X100952Y-41497D01*
X100989Y-41516D01*
X101027Y-41554D01*
X101046Y-41629D01*
X101046Y-41760D01*
X101027Y-41835D01*
X100989Y-41872D01*
X100952Y-41891D01*
X100877Y-41891D01*
X101196Y-41535D02*
X101214Y-41516D01*
X101252Y-41497D01*
X101346Y-41497D01*
X101383Y-41516D01*
X101402Y-41535D01*
X101421Y-41572D01*
X101421Y-41610D01*
X101402Y-41666D01*
X101177Y-41891D01*
X101421Y-41891D01*
X94431Y-23885D02*
X94431Y-24166D01*
X94413Y-24223D01*
X94375Y-24260D01*
X94319Y-24279D01*
X94281Y-24279D01*
X94619Y-24279D02*
X94619Y-23885D01*
X94769Y-23885D01*
X94806Y-23904D01*
X94825Y-23923D01*
X94844Y-23960D01*
X94844Y-24016D01*
X94825Y-24054D01*
X94806Y-24073D01*
X94769Y-24091D01*
X94619Y-24091D01*
X94994Y-23923D02*
X95013Y-23904D01*
X95050Y-23885D01*
X95144Y-23885D01*
X95181Y-23904D01*
X95200Y-23923D01*
X95219Y-23960D01*
X95219Y-23998D01*
X95200Y-24054D01*
X94975Y-24279D01*
X95219Y-24279D01*
G54D11*
X92780Y-22571D02*
X92808Y-22580D01*
X92856Y-22580D01*
X92875Y-22571D01*
X92884Y-22561D01*
X92894Y-22542D01*
X92894Y-22523D01*
X92884Y-22504D01*
X92875Y-22495D01*
X92856Y-22485D01*
X92818Y-22476D01*
X92799Y-22466D01*
X92789Y-22457D01*
X92780Y-22438D01*
X92780Y-22419D01*
X92789Y-22400D01*
X92799Y-22390D01*
X92818Y-22380D01*
X92865Y-22380D01*
X92894Y-22390D01*
X92970Y-22571D02*
X92999Y-22580D01*
X93046Y-22580D01*
X93065Y-22571D01*
X93075Y-22561D01*
X93084Y-22542D01*
X93084Y-22523D01*
X93075Y-22504D01*
X93065Y-22495D01*
X93046Y-22485D01*
X93008Y-22476D01*
X92989Y-22466D01*
X92980Y-22457D01*
X92970Y-22438D01*
X92970Y-22419D01*
X92980Y-22400D01*
X92989Y-22390D01*
X93008Y-22380D01*
X93056Y-22380D01*
X93084Y-22390D01*
X93170Y-22580D02*
X93170Y-22380D01*
X93237Y-22523D01*
X93303Y-22380D01*
X93303Y-22580D01*
X93694Y-22371D02*
X93522Y-22628D01*
X94018Y-22580D02*
X93903Y-22580D01*
X93960Y-22580D02*
X93960Y-22380D01*
X93941Y-22409D01*
X93922Y-22428D01*
X93903Y-22438D01*
X94103Y-22561D02*
X94113Y-22571D01*
X94103Y-22580D01*
X94094Y-22571D01*
X94103Y-22561D01*
X94103Y-22580D01*
X94294Y-22380D02*
X94199Y-22380D01*
X94189Y-22476D01*
X94199Y-22466D01*
X94218Y-22457D01*
X94265Y-22457D01*
X94284Y-22466D01*
X94294Y-22476D01*
X94303Y-22495D01*
X94303Y-22542D01*
X94294Y-22561D01*
X94284Y-22571D01*
X94265Y-22580D01*
X94218Y-22580D01*
X94199Y-22571D01*
X94189Y-22561D01*
X94389Y-22580D02*
X94389Y-22380D01*
X94456Y-22523D01*
X94522Y-22380D01*
X94522Y-22580D01*
X94618Y-22580D02*
X94618Y-22380D01*
X94618Y-22476D02*
X94732Y-22476D01*
X94732Y-22580D02*
X94732Y-22380D01*
X94808Y-22447D02*
X94913Y-22447D01*
X94808Y-22580D01*
X94913Y-22580D01*
X94989Y-22476D02*
X95141Y-22476D01*
X95141Y-22533D02*
X94989Y-22533D01*
X95237Y-22580D02*
X95237Y-22380D01*
X95351Y-22580D01*
X95351Y-22380D01*
X95560Y-22561D02*
X95551Y-22571D01*
X95522Y-22580D01*
X95503Y-22580D01*
X95475Y-22571D01*
X95456Y-22552D01*
X95446Y-22533D01*
X95437Y-22495D01*
X95437Y-22466D01*
X95446Y-22428D01*
X95456Y-22409D01*
X95475Y-22390D01*
X95503Y-22380D01*
X95522Y-22380D01*
X95551Y-22390D01*
X95560Y-22400D01*
X95941Y-22371D02*
X95770Y-22628D01*
X96265Y-22580D02*
X96151Y-22580D01*
X96208Y-22580D02*
X96208Y-22380D01*
X96189Y-22409D01*
X96170Y-22428D01*
X96151Y-22438D01*
X96351Y-22561D02*
X96360Y-22571D01*
X96351Y-22580D01*
X96341Y-22571D01*
X96351Y-22561D01*
X96351Y-22580D01*
X96551Y-22580D02*
X96437Y-22580D01*
X96494Y-22580D02*
X96494Y-22380D01*
X96475Y-22409D01*
X96456Y-22428D01*
X96437Y-22438D01*
X96637Y-22580D02*
X96637Y-22380D01*
X96703Y-22523D01*
X96770Y-22380D01*
X96770Y-22580D01*
G54D10*
X114215Y-25251D02*
X114496Y-25251D01*
X114553Y-25269D01*
X114590Y-25307D01*
X114609Y-25363D01*
X114609Y-25401D01*
X114609Y-24857D02*
X114609Y-25082D01*
X114609Y-24970D02*
X114215Y-24970D01*
X114271Y-25007D01*
X114309Y-25045D01*
X114328Y-25082D01*
G54D11*
X113674Y-27780D02*
X113660Y-27806D01*
X113660Y-27846D01*
X113674Y-27885D01*
X113700Y-27911D01*
X113726Y-27924D01*
X113779Y-27937D01*
X113818Y-27937D01*
X113870Y-27924D01*
X113897Y-27911D01*
X113923Y-27885D01*
X113936Y-27846D01*
X113936Y-27819D01*
X113923Y-27780D01*
X113910Y-27767D01*
X113818Y-27767D01*
X113818Y-27819D01*
X113936Y-27649D02*
X113660Y-27649D01*
X113936Y-27491D01*
X113660Y-27491D01*
X113936Y-27360D02*
X113660Y-27360D01*
X113660Y-27294D01*
X113674Y-27255D01*
X113700Y-27229D01*
X113726Y-27216D01*
X113779Y-27203D01*
X113818Y-27203D01*
X113870Y-27216D01*
X113897Y-27229D01*
X113923Y-27255D01*
X113936Y-27294D01*
X113936Y-27360D01*
X113936Y-26717D02*
X113805Y-26809D01*
X113936Y-26874D02*
X113660Y-26874D01*
X113660Y-26770D01*
X113674Y-26743D01*
X113687Y-26730D01*
X113713Y-26717D01*
X113752Y-26717D01*
X113779Y-26730D01*
X113792Y-26743D01*
X113805Y-26770D01*
X113805Y-26874D01*
X113831Y-26599D02*
X113831Y-26389D01*
X113936Y-26494D02*
X113726Y-26494D01*
X113936Y-25916D02*
X113936Y-26048D01*
X113660Y-26048D01*
X113831Y-25825D02*
X113831Y-25615D01*
X113936Y-25720D02*
X113726Y-25720D01*
G54D21*
X87585Y-34585D02*
X87614Y-34614D01*
X87642Y-34700D01*
X87642Y-34757D01*
X87614Y-34842D01*
X87557Y-34900D01*
X87500Y-34928D01*
X87385Y-34957D01*
X87300Y-34957D01*
X87185Y-34928D01*
X87128Y-34900D01*
X87071Y-34842D01*
X87042Y-34757D01*
X87042Y-34700D01*
X87071Y-34614D01*
X87100Y-34585D01*
X87242Y-34071D02*
X87642Y-34071D01*
X87014Y-34214D02*
X87442Y-34357D01*
X87442Y-33985D01*
X87642Y-33442D02*
X87642Y-33785D01*
X87642Y-33614D02*
X87042Y-33614D01*
X87128Y-33671D01*
X87185Y-33728D01*
X87214Y-33785D01*
X88335Y-35400D02*
X88364Y-35371D01*
X88392Y-35400D01*
X88364Y-35428D01*
X88335Y-35400D01*
X88392Y-35400D01*
X87992Y-34857D02*
X88392Y-34857D01*
X87764Y-35000D02*
X88192Y-35142D01*
X88192Y-34771D01*
X87792Y-34600D02*
X87792Y-34200D01*
X88392Y-34457D01*
X87992Y-33714D02*
X88392Y-33714D01*
X87992Y-33971D02*
X88307Y-33971D01*
X88364Y-33942D01*
X88392Y-33885D01*
X88392Y-33799D01*
X88364Y-33742D01*
X88335Y-33714D01*
X88078Y-33228D02*
X88078Y-33428D01*
X88392Y-33428D02*
X87792Y-33428D01*
X87792Y-33142D01*
X87585Y-26660D02*
X87614Y-26689D01*
X87642Y-26775D01*
X87642Y-26832D01*
X87614Y-26917D01*
X87557Y-26975D01*
X87500Y-27003D01*
X87385Y-27032D01*
X87300Y-27032D01*
X87185Y-27003D01*
X87128Y-26975D01*
X87071Y-26917D01*
X87042Y-26832D01*
X87042Y-26775D01*
X87071Y-26689D01*
X87100Y-26660D01*
X87242Y-26146D02*
X87642Y-26146D01*
X87014Y-26289D02*
X87442Y-26432D01*
X87442Y-26060D01*
X87042Y-25717D02*
X87042Y-25660D01*
X87071Y-25603D01*
X87100Y-25575D01*
X87157Y-25546D01*
X87271Y-25517D01*
X87414Y-25517D01*
X87528Y-25546D01*
X87585Y-25575D01*
X87614Y-25603D01*
X87642Y-25660D01*
X87642Y-25717D01*
X87614Y-25775D01*
X87585Y-25803D01*
X87528Y-25832D01*
X87414Y-25860D01*
X87271Y-25860D01*
X87157Y-25832D01*
X87100Y-25803D01*
X87071Y-25775D01*
X87042Y-25717D01*
X88360Y-27700D02*
X88389Y-27671D01*
X88417Y-27700D01*
X88389Y-27728D01*
X88360Y-27700D01*
X88417Y-27700D01*
X88017Y-27157D02*
X88417Y-27157D01*
X87789Y-27300D02*
X88217Y-27442D01*
X88217Y-27071D01*
X87817Y-26900D02*
X87817Y-26500D01*
X88417Y-26757D01*
X88017Y-26014D02*
X88417Y-26014D01*
X88017Y-26271D02*
X88332Y-26271D01*
X88389Y-26242D01*
X88417Y-26185D01*
X88417Y-26099D01*
X88389Y-26042D01*
X88360Y-26014D01*
X88103Y-25528D02*
X88103Y-25728D01*
X88417Y-25728D02*
X87817Y-25728D01*
X87817Y-25442D01*
G54D10*
X105640Y-26324D02*
X105659Y-26268D01*
X105659Y-26174D01*
X105640Y-26137D01*
X105621Y-26118D01*
X105584Y-26099D01*
X105546Y-26099D01*
X105509Y-26118D01*
X105490Y-26137D01*
X105471Y-26174D01*
X105453Y-26249D01*
X105434Y-26287D01*
X105415Y-26306D01*
X105378Y-26324D01*
X105340Y-26324D01*
X105303Y-26306D01*
X105284Y-26287D01*
X105265Y-26249D01*
X105265Y-26156D01*
X105284Y-26099D01*
X105265Y-25968D02*
X105659Y-25874D01*
X105378Y-25799D01*
X105659Y-25725D01*
X105265Y-25631D01*
X105659Y-25275D02*
X105659Y-25500D01*
X105659Y-25387D02*
X105265Y-25387D01*
X105321Y-25425D01*
X105359Y-25462D01*
X105378Y-25500D01*
X109162Y-28187D02*
X109177Y-28142D01*
X109177Y-28067D01*
X109162Y-28037D01*
X109147Y-28022D01*
X109117Y-28007D01*
X109087Y-28007D01*
X109057Y-28022D01*
X109042Y-28037D01*
X109027Y-28067D01*
X109012Y-28127D01*
X108997Y-28157D01*
X108982Y-28172D01*
X108952Y-28187D01*
X108922Y-28187D01*
X108892Y-28172D01*
X108877Y-28157D01*
X108862Y-28127D01*
X108862Y-28052D01*
X108877Y-28007D01*
X108862Y-27917D02*
X108862Y-27737D01*
X109177Y-27827D02*
X108862Y-27827D01*
X109012Y-27632D02*
X109012Y-27527D01*
X109177Y-27482D02*
X109177Y-27632D01*
X108862Y-27632D01*
X108862Y-27482D01*
X109177Y-27167D02*
X109027Y-27272D01*
X109177Y-27347D02*
X108862Y-27347D01*
X108862Y-27227D01*
X108877Y-27197D01*
X108892Y-27182D01*
X108922Y-27167D01*
X108967Y-27167D01*
X108997Y-27182D01*
X109012Y-27197D01*
X109027Y-27227D01*
X109027Y-27347D01*
X109012Y-27032D02*
X109012Y-26927D01*
X109177Y-26882D02*
X109177Y-27032D01*
X108862Y-27032D01*
X108862Y-26882D01*
X108862Y-26687D02*
X108862Y-26627D01*
X108877Y-26597D01*
X108907Y-26567D01*
X108967Y-26552D01*
X109072Y-26552D01*
X109132Y-26567D01*
X109162Y-26597D01*
X109177Y-26627D01*
X109177Y-26687D01*
X109162Y-26717D01*
X109132Y-26747D01*
X109072Y-26762D01*
X108967Y-26762D01*
X108907Y-26747D01*
X108877Y-26717D01*
X108862Y-26687D01*
X108967Y-25937D02*
X109057Y-26177D01*
X109147Y-25937D01*
X108967Y-25307D02*
X109057Y-25067D01*
X109147Y-25307D01*
X109177Y-24677D02*
X108862Y-24677D01*
X109087Y-24572D01*
X108862Y-24467D01*
X109177Y-24467D01*
X108862Y-24257D02*
X108862Y-24197D01*
X108877Y-24167D01*
X108907Y-24137D01*
X108967Y-24122D01*
X109072Y-24122D01*
X109132Y-24137D01*
X109162Y-24167D01*
X109177Y-24197D01*
X109177Y-24257D01*
X109162Y-24287D01*
X109132Y-24317D01*
X109072Y-24332D01*
X108967Y-24332D01*
X108907Y-24317D01*
X108877Y-24287D01*
X108862Y-24257D01*
X109177Y-23987D02*
X108862Y-23987D01*
X109177Y-23807D01*
X108862Y-23807D01*
X108862Y-23597D02*
X108862Y-23537D01*
X108877Y-23507D01*
X108907Y-23477D01*
X108967Y-23462D01*
X109072Y-23462D01*
X109132Y-23477D01*
X109162Y-23507D01*
X109177Y-23537D01*
X109177Y-23597D01*
X109162Y-23627D01*
X109132Y-23657D01*
X109072Y-23672D01*
X108967Y-23672D01*
X108907Y-23657D01*
X108877Y-23627D01*
X108862Y-23597D01*
G54D21*
X101507Y-26935D02*
X101479Y-26964D01*
X101393Y-26992D01*
X101336Y-26992D01*
X101250Y-26964D01*
X101193Y-26907D01*
X101165Y-26850D01*
X101136Y-26735D01*
X101136Y-26650D01*
X101165Y-26535D01*
X101193Y-26478D01*
X101250Y-26421D01*
X101336Y-26392D01*
X101393Y-26392D01*
X101479Y-26421D01*
X101507Y-26450D01*
X101707Y-26392D02*
X102079Y-26392D01*
X101879Y-26621D01*
X101965Y-26621D01*
X102022Y-26650D01*
X102050Y-26678D01*
X102079Y-26735D01*
X102079Y-26878D01*
X102050Y-26935D01*
X102022Y-26964D01*
X101965Y-26992D01*
X101793Y-26992D01*
X101736Y-26964D01*
X101707Y-26935D01*
X102450Y-26392D02*
X102507Y-26392D01*
X102565Y-26421D01*
X102593Y-26450D01*
X102622Y-26507D01*
X102650Y-26621D01*
X102650Y-26764D01*
X102622Y-26878D01*
X102593Y-26935D01*
X102565Y-26964D01*
X102507Y-26992D01*
X102450Y-26992D01*
X102393Y-26964D01*
X102365Y-26935D01*
X102336Y-26878D01*
X102307Y-26764D01*
X102307Y-26621D01*
X102336Y-26507D01*
X102365Y-26450D01*
X102393Y-26421D01*
X102450Y-26392D01*
X101507Y-24685D02*
X101479Y-24714D01*
X101393Y-24742D01*
X101336Y-24742D01*
X101250Y-24714D01*
X101193Y-24657D01*
X101165Y-24600D01*
X101136Y-24485D01*
X101136Y-24400D01*
X101165Y-24285D01*
X101193Y-24228D01*
X101250Y-24171D01*
X101336Y-24142D01*
X101393Y-24142D01*
X101479Y-24171D01*
X101507Y-24200D01*
X101707Y-24142D02*
X102079Y-24142D01*
X101879Y-24371D01*
X101965Y-24371D01*
X102022Y-24400D01*
X102050Y-24428D01*
X102079Y-24485D01*
X102079Y-24628D01*
X102050Y-24685D01*
X102022Y-24714D01*
X101965Y-24742D01*
X101793Y-24742D01*
X101736Y-24714D01*
X101707Y-24685D01*
X102307Y-24200D02*
X102336Y-24171D01*
X102393Y-24142D01*
X102536Y-24142D01*
X102593Y-24171D01*
X102622Y-24200D01*
X102650Y-24257D01*
X102650Y-24314D01*
X102622Y-24400D01*
X102279Y-24742D01*
X102650Y-24742D01*
G54D17*
X101375Y-25742D02*
X101389Y-25757D01*
X101375Y-25771D01*
X101360Y-25757D01*
X101375Y-25742D01*
X101375Y-25771D01*
X101675Y-25771D02*
X101503Y-25771D01*
X101589Y-25771D02*
X101589Y-25471D01*
X101560Y-25514D01*
X101532Y-25542D01*
X101503Y-25557D01*
X101946Y-25471D02*
X101803Y-25471D01*
X101789Y-25614D01*
X101803Y-25600D01*
X101832Y-25585D01*
X101903Y-25585D01*
X101932Y-25600D01*
X101946Y-25614D01*
X101960Y-25642D01*
X101960Y-25714D01*
X101946Y-25742D01*
X101932Y-25757D01*
X101903Y-25771D01*
X101832Y-25771D01*
X101803Y-25757D01*
X101789Y-25742D01*
X102217Y-25571D02*
X102217Y-25771D01*
X102089Y-25571D02*
X102089Y-25728D01*
X102103Y-25757D01*
X102132Y-25771D01*
X102175Y-25771D01*
X102203Y-25757D01*
X102217Y-25742D01*
X102460Y-25614D02*
X102360Y-25614D01*
X102360Y-25771D02*
X102360Y-25471D01*
X102503Y-25471D01*
G54D21*
X101460Y-31545D02*
X101432Y-31574D01*
X101346Y-31602D01*
X101289Y-31602D01*
X101203Y-31574D01*
X101146Y-31517D01*
X101117Y-31460D01*
X101089Y-31345D01*
X101089Y-31260D01*
X101117Y-31145D01*
X101146Y-31088D01*
X101203Y-31031D01*
X101289Y-31002D01*
X101346Y-31002D01*
X101432Y-31031D01*
X101460Y-31060D01*
X101660Y-31002D02*
X102032Y-31002D01*
X101832Y-31231D01*
X101917Y-31231D01*
X101974Y-31260D01*
X102003Y-31288D01*
X102032Y-31345D01*
X102032Y-31488D01*
X102003Y-31545D01*
X101974Y-31574D01*
X101917Y-31602D01*
X101746Y-31602D01*
X101689Y-31574D01*
X101660Y-31545D01*
X102232Y-31002D02*
X102603Y-31002D01*
X102403Y-31231D01*
X102489Y-31231D01*
X102546Y-31260D01*
X102574Y-31288D01*
X102603Y-31345D01*
X102603Y-31488D01*
X102574Y-31545D01*
X102546Y-31574D01*
X102489Y-31602D01*
X102317Y-31602D01*
X102260Y-31574D01*
X102232Y-31545D01*
G54D17*
X101275Y-30292D02*
X101289Y-30307D01*
X101275Y-30321D01*
X101260Y-30307D01*
X101275Y-30292D01*
X101275Y-30321D01*
X101575Y-30321D02*
X101403Y-30321D01*
X101489Y-30321D02*
X101489Y-30021D01*
X101460Y-30064D01*
X101432Y-30092D01*
X101403Y-30107D01*
X101846Y-30021D02*
X101703Y-30021D01*
X101689Y-30164D01*
X101703Y-30150D01*
X101732Y-30135D01*
X101803Y-30135D01*
X101832Y-30150D01*
X101846Y-30164D01*
X101860Y-30192D01*
X101860Y-30264D01*
X101846Y-30292D01*
X101832Y-30307D01*
X101803Y-30321D01*
X101732Y-30321D01*
X101703Y-30307D01*
X101689Y-30292D01*
X102117Y-30121D02*
X102117Y-30321D01*
X101989Y-30121D02*
X101989Y-30278D01*
X102003Y-30307D01*
X102032Y-30321D01*
X102075Y-30321D01*
X102103Y-30307D01*
X102117Y-30292D01*
X102360Y-30164D02*
X102260Y-30164D01*
X102260Y-30321D02*
X102260Y-30021D01*
X102403Y-30021D01*
G54D21*
X101470Y-29185D02*
X101442Y-29214D01*
X101356Y-29242D01*
X101299Y-29242D01*
X101213Y-29214D01*
X101156Y-29157D01*
X101127Y-29100D01*
X101099Y-28985D01*
X101099Y-28900D01*
X101127Y-28785D01*
X101156Y-28728D01*
X101213Y-28671D01*
X101299Y-28642D01*
X101356Y-28642D01*
X101442Y-28671D01*
X101470Y-28700D01*
X101670Y-28642D02*
X102042Y-28642D01*
X101842Y-28871D01*
X101927Y-28871D01*
X101984Y-28900D01*
X102013Y-28928D01*
X102042Y-28985D01*
X102042Y-29128D01*
X102013Y-29185D01*
X101984Y-29214D01*
X101927Y-29242D01*
X101756Y-29242D01*
X101699Y-29214D01*
X101670Y-29185D01*
X102613Y-29242D02*
X102270Y-29242D01*
X102442Y-29242D02*
X102442Y-28642D01*
X102384Y-28728D01*
X102327Y-28785D01*
X102270Y-28814D01*
X84320Y-35685D02*
X84292Y-35714D01*
X84206Y-35742D01*
X84149Y-35742D01*
X84063Y-35714D01*
X84006Y-35657D01*
X83977Y-35600D01*
X83949Y-35485D01*
X83949Y-35400D01*
X83977Y-35285D01*
X84006Y-35228D01*
X84063Y-35171D01*
X84149Y-35142D01*
X84206Y-35142D01*
X84292Y-35171D01*
X84320Y-35200D01*
X84520Y-35142D02*
X84892Y-35142D01*
X84692Y-35371D01*
X84777Y-35371D01*
X84834Y-35400D01*
X84863Y-35428D01*
X84892Y-35485D01*
X84892Y-35628D01*
X84863Y-35685D01*
X84834Y-35714D01*
X84777Y-35742D01*
X84606Y-35742D01*
X84549Y-35714D01*
X84520Y-35685D01*
X85234Y-35400D02*
X85177Y-35371D01*
X85149Y-35342D01*
X85120Y-35285D01*
X85120Y-35257D01*
X85149Y-35200D01*
X85177Y-35171D01*
X85234Y-35142D01*
X85349Y-35142D01*
X85406Y-35171D01*
X85434Y-35200D01*
X85463Y-35257D01*
X85463Y-35285D01*
X85434Y-35342D01*
X85406Y-35371D01*
X85349Y-35400D01*
X85234Y-35400D01*
X85177Y-35428D01*
X85149Y-35457D01*
X85120Y-35514D01*
X85120Y-35628D01*
X85149Y-35685D01*
X85177Y-35714D01*
X85234Y-35742D01*
X85349Y-35742D01*
X85406Y-35714D01*
X85434Y-35685D01*
X85463Y-35628D01*
X85463Y-35514D01*
X85434Y-35457D01*
X85406Y-35428D01*
X85349Y-35400D01*
X84289Y-33110D02*
X84260Y-33139D01*
X84175Y-33167D01*
X84117Y-33167D01*
X84032Y-33139D01*
X83975Y-33082D01*
X83946Y-33025D01*
X83917Y-32910D01*
X83917Y-32825D01*
X83946Y-32710D01*
X83975Y-32653D01*
X84032Y-32596D01*
X84117Y-32567D01*
X84175Y-32567D01*
X84260Y-32596D01*
X84289Y-32625D01*
X84489Y-32567D02*
X84860Y-32567D01*
X84660Y-32796D01*
X84746Y-32796D01*
X84803Y-32825D01*
X84832Y-32853D01*
X84860Y-32910D01*
X84860Y-33053D01*
X84832Y-33110D01*
X84803Y-33139D01*
X84746Y-33167D01*
X84575Y-33167D01*
X84517Y-33139D01*
X84489Y-33110D01*
X85146Y-33167D02*
X85260Y-33167D01*
X85317Y-33139D01*
X85346Y-33110D01*
X85403Y-33025D01*
X85432Y-32910D01*
X85432Y-32682D01*
X85403Y-32625D01*
X85375Y-32596D01*
X85317Y-32567D01*
X85203Y-32567D01*
X85146Y-32596D01*
X85117Y-32625D01*
X85089Y-32682D01*
X85089Y-32825D01*
X85117Y-32882D01*
X85146Y-32910D01*
X85203Y-32939D01*
X85317Y-32939D01*
X85375Y-32910D01*
X85403Y-32882D01*
X85432Y-32825D01*
G54D17*
X84057Y-34042D02*
X84071Y-34057D01*
X84057Y-34071D01*
X84042Y-34057D01*
X84057Y-34042D01*
X84057Y-34071D01*
X84257Y-33771D02*
X84285Y-33771D01*
X84314Y-33785D01*
X84328Y-33800D01*
X84342Y-33828D01*
X84357Y-33885D01*
X84357Y-33957D01*
X84342Y-34014D01*
X84328Y-34042D01*
X84314Y-34057D01*
X84285Y-34071D01*
X84257Y-34071D01*
X84228Y-34057D01*
X84214Y-34042D01*
X84200Y-34014D01*
X84185Y-33957D01*
X84185Y-33885D01*
X84200Y-33828D01*
X84214Y-33800D01*
X84228Y-33785D01*
X84257Y-33771D01*
X84457Y-33771D02*
X84642Y-33771D01*
X84542Y-33885D01*
X84585Y-33885D01*
X84614Y-33900D01*
X84628Y-33914D01*
X84642Y-33942D01*
X84642Y-34014D01*
X84628Y-34042D01*
X84614Y-34057D01*
X84585Y-34071D01*
X84500Y-34071D01*
X84471Y-34057D01*
X84457Y-34042D01*
X84742Y-33771D02*
X84928Y-33771D01*
X84828Y-33885D01*
X84871Y-33885D01*
X84900Y-33900D01*
X84914Y-33914D01*
X84928Y-33942D01*
X84928Y-34014D01*
X84914Y-34042D01*
X84900Y-34057D01*
X84871Y-34071D01*
X84785Y-34071D01*
X84757Y-34057D01*
X84742Y-34042D01*
X85185Y-33871D02*
X85185Y-34071D01*
X85057Y-33871D02*
X85057Y-34028D01*
X85071Y-34057D01*
X85100Y-34071D01*
X85142Y-34071D01*
X85171Y-34057D01*
X85185Y-34042D01*
X85428Y-33914D02*
X85328Y-33914D01*
X85328Y-34071D02*
X85328Y-33771D01*
X85471Y-33771D01*
G54D21*
X84207Y-25185D02*
X84179Y-25214D01*
X84093Y-25242D01*
X84036Y-25242D01*
X83950Y-25214D01*
X83893Y-25157D01*
X83865Y-25100D01*
X83836Y-24985D01*
X83836Y-24900D01*
X83865Y-24785D01*
X83893Y-24728D01*
X83950Y-24671D01*
X84036Y-24642D01*
X84093Y-24642D01*
X84179Y-24671D01*
X84207Y-24700D01*
X84407Y-24642D02*
X84779Y-24642D01*
X84579Y-24871D01*
X84665Y-24871D01*
X84722Y-24900D01*
X84750Y-24928D01*
X84779Y-24985D01*
X84779Y-25128D01*
X84750Y-25185D01*
X84722Y-25214D01*
X84665Y-25242D01*
X84493Y-25242D01*
X84436Y-25214D01*
X84407Y-25185D01*
X84979Y-24642D02*
X85379Y-24642D01*
X85122Y-25242D01*
G54D17*
X83982Y-25717D02*
X83996Y-25732D01*
X83982Y-25746D01*
X83967Y-25732D01*
X83982Y-25717D01*
X83982Y-25746D01*
X84182Y-25446D02*
X84210Y-25446D01*
X84239Y-25460D01*
X84253Y-25475D01*
X84267Y-25503D01*
X84282Y-25560D01*
X84282Y-25632D01*
X84267Y-25689D01*
X84253Y-25717D01*
X84239Y-25732D01*
X84210Y-25746D01*
X84182Y-25746D01*
X84153Y-25732D01*
X84139Y-25717D01*
X84125Y-25689D01*
X84110Y-25632D01*
X84110Y-25560D01*
X84125Y-25503D01*
X84139Y-25475D01*
X84153Y-25460D01*
X84182Y-25446D01*
X84382Y-25446D02*
X84567Y-25446D01*
X84467Y-25560D01*
X84510Y-25560D01*
X84539Y-25575D01*
X84553Y-25589D01*
X84567Y-25617D01*
X84567Y-25689D01*
X84553Y-25717D01*
X84539Y-25732D01*
X84510Y-25746D01*
X84425Y-25746D01*
X84396Y-25732D01*
X84382Y-25717D01*
X84667Y-25446D02*
X84853Y-25446D01*
X84753Y-25560D01*
X84796Y-25560D01*
X84825Y-25575D01*
X84839Y-25589D01*
X84853Y-25617D01*
X84853Y-25689D01*
X84839Y-25717D01*
X84825Y-25732D01*
X84796Y-25746D01*
X84710Y-25746D01*
X84682Y-25732D01*
X84667Y-25717D01*
X85110Y-25546D02*
X85110Y-25746D01*
X84982Y-25546D02*
X84982Y-25703D01*
X84996Y-25732D01*
X85025Y-25746D01*
X85067Y-25746D01*
X85096Y-25732D01*
X85110Y-25717D01*
X85353Y-25589D02*
X85253Y-25589D01*
X85253Y-25746D02*
X85253Y-25446D01*
X85396Y-25446D01*
G54D21*
X84220Y-27185D02*
X84192Y-27214D01*
X84106Y-27242D01*
X84049Y-27242D01*
X83963Y-27214D01*
X83906Y-27157D01*
X83877Y-27100D01*
X83849Y-26985D01*
X83849Y-26900D01*
X83877Y-26785D01*
X83906Y-26728D01*
X83963Y-26671D01*
X84049Y-26642D01*
X84106Y-26642D01*
X84192Y-26671D01*
X84220Y-26700D01*
X84420Y-26642D02*
X84792Y-26642D01*
X84592Y-26871D01*
X84677Y-26871D01*
X84734Y-26900D01*
X84763Y-26928D01*
X84792Y-26985D01*
X84792Y-27128D01*
X84763Y-27185D01*
X84734Y-27214D01*
X84677Y-27242D01*
X84506Y-27242D01*
X84449Y-27214D01*
X84420Y-27185D01*
X85306Y-26642D02*
X85192Y-26642D01*
X85134Y-26671D01*
X85106Y-26700D01*
X85049Y-26785D01*
X85020Y-26900D01*
X85020Y-27128D01*
X85049Y-27185D01*
X85077Y-27214D01*
X85134Y-27242D01*
X85249Y-27242D01*
X85306Y-27214D01*
X85334Y-27185D01*
X85363Y-27128D01*
X85363Y-26985D01*
X85334Y-26928D01*
X85306Y-26900D01*
X85249Y-26871D01*
X85134Y-26871D01*
X85077Y-26900D01*
X85049Y-26928D01*
X85020Y-26985D01*
G54D26*
X112151Y-25647D02*
X112132Y-25666D01*
X112075Y-25685D01*
X112037Y-25685D01*
X111980Y-25666D01*
X111941Y-25628D01*
X111922Y-25590D01*
X111903Y-25514D01*
X111903Y-25457D01*
X111922Y-25380D01*
X111941Y-25342D01*
X111980Y-25304D01*
X112037Y-25285D01*
X112075Y-25285D01*
X112132Y-25304D01*
X112151Y-25323D01*
X112494Y-25285D02*
X112418Y-25285D01*
X112380Y-25304D01*
X112360Y-25323D01*
X112322Y-25380D01*
X112303Y-25457D01*
X112303Y-25609D01*
X112322Y-25647D01*
X112341Y-25666D01*
X112380Y-25685D01*
X112456Y-25685D01*
X112494Y-25666D01*
X112513Y-25647D01*
X112532Y-25609D01*
X112532Y-25514D01*
X112513Y-25476D01*
X112494Y-25457D01*
X112456Y-25438D01*
X112380Y-25438D01*
X112341Y-25457D01*
X112322Y-25476D01*
X112303Y-25514D01*
G54D29*
X104584Y-29580D02*
X104524Y-29485D01*
X104481Y-29580D02*
X104481Y-29380D01*
X104550Y-29380D01*
X104567Y-29390D01*
X104575Y-29400D01*
X104584Y-29419D01*
X104584Y-29447D01*
X104575Y-29466D01*
X104567Y-29476D01*
X104550Y-29485D01*
X104481Y-29485D01*
X104644Y-29380D02*
X104755Y-29380D01*
X104695Y-29457D01*
X104721Y-29457D01*
X104738Y-29466D01*
X104747Y-29476D01*
X104755Y-29495D01*
X104755Y-29542D01*
X104747Y-29561D01*
X104738Y-29571D01*
X104721Y-29580D01*
X104670Y-29580D01*
X104652Y-29571D01*
X104644Y-29561D01*
X104867Y-29380D02*
X104884Y-29380D01*
X104901Y-29390D01*
X104910Y-29400D01*
X104918Y-29419D01*
X104927Y-29457D01*
X104927Y-29504D01*
X104918Y-29542D01*
X104910Y-29561D01*
X104901Y-29571D01*
X104884Y-29580D01*
X104867Y-29580D01*
X104850Y-29571D01*
X104841Y-29561D01*
X104832Y-29542D01*
X104824Y-29504D01*
X104824Y-29457D01*
X104832Y-29419D01*
X104841Y-29400D01*
X104850Y-29390D01*
X104867Y-29380D01*
X103909Y-29980D02*
X103823Y-29980D01*
X103815Y-30076D01*
X103823Y-30066D01*
X103840Y-30057D01*
X103883Y-30057D01*
X103900Y-30066D01*
X103909Y-30076D01*
X103917Y-30095D01*
X103917Y-30142D01*
X103909Y-30161D01*
X103900Y-30171D01*
X103883Y-30180D01*
X103840Y-30180D01*
X103823Y-30171D01*
X103815Y-30161D01*
X104029Y-29980D02*
X104046Y-29980D01*
X104063Y-29990D01*
X104072Y-30000D01*
X104080Y-30019D01*
X104089Y-30057D01*
X104089Y-30104D01*
X104080Y-30142D01*
X104072Y-30161D01*
X104063Y-30171D01*
X104046Y-30180D01*
X104029Y-30180D01*
X104012Y-30171D01*
X104003Y-30161D01*
X103995Y-30142D01*
X103986Y-30104D01*
X103986Y-30057D01*
X103995Y-30019D01*
X104003Y-30000D01*
X104012Y-29990D01*
X104029Y-29980D01*
X104166Y-30180D02*
X104166Y-29980D01*
X104183Y-30104D02*
X104235Y-30180D01*
X104235Y-30047D02*
X104166Y-30123D01*
G54D10*
X111631Y-35321D02*
X111781Y-35321D01*
X111687Y-35584D02*
X111687Y-35246D01*
X111706Y-35209D01*
X111743Y-35190D01*
X111781Y-35190D01*
X111912Y-35584D02*
X111912Y-35321D01*
X111912Y-35190D02*
X111893Y-35209D01*
X111912Y-35228D01*
X111931Y-35209D01*
X111912Y-35190D01*
X111912Y-35228D01*
X112268Y-35584D02*
X112268Y-35190D01*
X112268Y-35565D02*
X112231Y-35584D01*
X112156Y-35584D01*
X112118Y-35565D01*
X112100Y-35546D01*
X112081Y-35509D01*
X112081Y-35396D01*
X112100Y-35359D01*
X112118Y-35340D01*
X112156Y-35321D01*
X112231Y-35321D01*
X112268Y-35340D01*
X112625Y-35321D02*
X112625Y-35584D01*
X112456Y-35321D02*
X112456Y-35528D01*
X112475Y-35565D01*
X112512Y-35584D01*
X112568Y-35584D01*
X112606Y-35565D01*
X112625Y-35546D01*
X112981Y-35565D02*
X112943Y-35584D01*
X112868Y-35584D01*
X112831Y-35565D01*
X112812Y-35546D01*
X112793Y-35509D01*
X112793Y-35396D01*
X112812Y-35359D01*
X112831Y-35340D01*
X112868Y-35321D01*
X112943Y-35321D01*
X112981Y-35340D01*
X113149Y-35584D02*
X113149Y-35321D01*
X113149Y-35190D02*
X113131Y-35209D01*
X113149Y-35228D01*
X113168Y-35209D01*
X113149Y-35190D01*
X113149Y-35228D01*
X113506Y-35584D02*
X113506Y-35378D01*
X113487Y-35340D01*
X113449Y-35321D01*
X113374Y-35321D01*
X113337Y-35340D01*
X113506Y-35565D02*
X113468Y-35584D01*
X113374Y-35584D01*
X113337Y-35565D01*
X113318Y-35528D01*
X113318Y-35490D01*
X113337Y-35453D01*
X113374Y-35434D01*
X113468Y-35434D01*
X113506Y-35415D01*
X113749Y-35584D02*
X113712Y-35565D01*
X113693Y-35528D01*
X113693Y-35190D01*
X111940Y-35190D02*
X112071Y-35584D01*
X112203Y-35190D01*
X112315Y-35471D02*
X112503Y-35471D01*
X112278Y-35584D02*
X112409Y-35190D01*
X112540Y-35584D01*
X112859Y-35584D02*
X112671Y-35584D01*
X112671Y-35190D01*
X113046Y-35190D02*
X113046Y-35284D01*
X112953Y-35246D02*
X113046Y-35284D01*
X113140Y-35246D01*
X112990Y-35359D02*
X113046Y-35284D01*
X113103Y-35359D01*
X113346Y-35190D02*
X113346Y-35284D01*
X113253Y-35246D02*
X113346Y-35284D01*
X113440Y-35246D01*
X113290Y-35359D02*
X113346Y-35284D01*
X113403Y-35359D01*
X84381Y-40871D02*
X84531Y-40871D01*
X84437Y-41134D02*
X84437Y-40796D01*
X84456Y-40759D01*
X84493Y-40740D01*
X84531Y-40740D01*
X84662Y-41134D02*
X84662Y-40871D01*
X84662Y-40740D02*
X84643Y-40759D01*
X84662Y-40778D01*
X84681Y-40759D01*
X84662Y-40740D01*
X84662Y-40778D01*
X85018Y-41134D02*
X85018Y-40740D01*
X85018Y-41115D02*
X84981Y-41134D01*
X84906Y-41134D01*
X84868Y-41115D01*
X84850Y-41096D01*
X84831Y-41059D01*
X84831Y-40946D01*
X84850Y-40909D01*
X84868Y-40890D01*
X84906Y-40871D01*
X84981Y-40871D01*
X85018Y-40890D01*
X85375Y-40871D02*
X85375Y-41134D01*
X85206Y-40871D02*
X85206Y-41078D01*
X85225Y-41115D01*
X85262Y-41134D01*
X85318Y-41134D01*
X85356Y-41115D01*
X85375Y-41096D01*
X85731Y-41115D02*
X85693Y-41134D01*
X85618Y-41134D01*
X85581Y-41115D01*
X85562Y-41096D01*
X85543Y-41059D01*
X85543Y-40946D01*
X85562Y-40909D01*
X85581Y-40890D01*
X85618Y-40871D01*
X85693Y-40871D01*
X85731Y-40890D01*
X85899Y-41134D02*
X85899Y-40871D01*
X85899Y-40740D02*
X85881Y-40759D01*
X85899Y-40778D01*
X85918Y-40759D01*
X85899Y-40740D01*
X85899Y-40778D01*
X86256Y-41134D02*
X86256Y-40928D01*
X86237Y-40890D01*
X86199Y-40871D01*
X86124Y-40871D01*
X86087Y-40890D01*
X86256Y-41115D02*
X86218Y-41134D01*
X86124Y-41134D01*
X86087Y-41115D01*
X86068Y-41078D01*
X86068Y-41040D01*
X86087Y-41003D01*
X86124Y-40984D01*
X86218Y-40984D01*
X86256Y-40965D01*
X86499Y-41134D02*
X86462Y-41115D01*
X86443Y-41078D01*
X86443Y-40740D01*
X84690Y-40740D02*
X84821Y-41134D01*
X84953Y-40740D01*
X85065Y-41021D02*
X85253Y-41021D01*
X85028Y-41134D02*
X85159Y-40740D01*
X85290Y-41134D01*
X85609Y-41134D02*
X85421Y-41134D01*
X85421Y-40740D01*
X85796Y-40740D02*
X85796Y-40834D01*
X85703Y-40796D02*
X85796Y-40834D01*
X85890Y-40796D01*
X85740Y-40909D02*
X85796Y-40834D01*
X85853Y-40909D01*
X86096Y-40740D02*
X86096Y-40834D01*
X86003Y-40796D02*
X86096Y-40834D01*
X86190Y-40796D01*
X86040Y-40909D02*
X86096Y-40834D01*
X86153Y-40909D01*
X113509Y-30590D02*
X113115Y-30590D01*
X113115Y-30440D01*
X113134Y-30403D01*
X113153Y-30384D01*
X113190Y-30365D01*
X113246Y-30365D01*
X113284Y-30384D01*
X113303Y-30403D01*
X113321Y-30440D01*
X113321Y-30590D01*
X113115Y-30009D02*
X113115Y-30196D01*
X113303Y-30215D01*
X113284Y-30196D01*
X113265Y-30159D01*
X113265Y-30065D01*
X113284Y-30028D01*
X113303Y-30009D01*
X113340Y-29990D01*
X113434Y-29990D01*
X113471Y-30009D01*
X113490Y-30028D01*
X113509Y-30065D01*
X113509Y-30159D01*
X113490Y-30196D01*
X113471Y-30215D01*
X94810Y-32338D02*
X94849Y-32351D01*
X94915Y-32351D01*
X94941Y-32338D01*
X94954Y-32325D01*
X94967Y-32299D01*
X94967Y-32272D01*
X94954Y-32246D01*
X94941Y-32233D01*
X94915Y-32220D01*
X94862Y-32207D01*
X94836Y-32194D01*
X94823Y-32180D01*
X94810Y-32154D01*
X94810Y-32128D01*
X94823Y-32102D01*
X94836Y-32089D01*
X94862Y-32075D01*
X94928Y-32075D01*
X94967Y-32089D01*
X95229Y-32351D02*
X95072Y-32351D01*
X95151Y-32351D02*
X95151Y-32075D01*
X95124Y-32115D01*
X95098Y-32141D01*
X95072Y-32154D01*
X94847Y-32695D02*
X94847Y-32459D01*
X94926Y-32628D01*
X95005Y-32459D01*
X95005Y-32695D01*
X95252Y-32673D02*
X95241Y-32684D01*
X95207Y-32695D01*
X95185Y-32695D01*
X95151Y-32684D01*
X95128Y-32661D01*
X95117Y-32639D01*
X95106Y-32594D01*
X95106Y-32560D01*
X95117Y-32515D01*
X95128Y-32493D01*
X95151Y-32470D01*
X95185Y-32459D01*
X95207Y-32459D01*
X95241Y-32470D01*
X95252Y-32481D01*
X95353Y-32695D02*
X95353Y-32459D01*
X95443Y-32459D01*
X95466Y-32470D01*
X95477Y-32481D01*
X95488Y-32504D01*
X95488Y-32538D01*
X95477Y-32560D01*
X95466Y-32571D01*
X95443Y-32583D01*
X95353Y-32583D01*
X95713Y-32695D02*
X95578Y-32695D01*
X95646Y-32695D02*
X95646Y-32459D01*
X95623Y-32493D01*
X95601Y-32515D01*
X95578Y-32526D01*
X95792Y-32459D02*
X95938Y-32459D01*
X95859Y-32549D01*
X95893Y-32549D01*
X95916Y-32560D01*
X95927Y-32571D01*
X95938Y-32594D01*
X95938Y-32650D01*
X95927Y-32673D01*
X95916Y-32684D01*
X95893Y-32695D01*
X95826Y-32695D01*
X95803Y-32684D01*
X95792Y-32673D01*
X96084Y-32459D02*
X96107Y-32459D01*
X96129Y-32470D01*
X96141Y-32481D01*
X96152Y-32504D01*
X96163Y-32549D01*
X96163Y-32605D01*
X96152Y-32650D01*
X96141Y-32673D01*
X96129Y-32684D01*
X96107Y-32695D01*
X96084Y-32695D01*
X96062Y-32684D01*
X96051Y-32673D01*
X96039Y-32650D01*
X96028Y-32605D01*
X96028Y-32549D01*
X96039Y-32504D01*
X96051Y-32481D01*
X96062Y-32470D01*
X96084Y-32459D01*
%LPC*%
G54D30*
X84980Y-22990D02*
X88530Y-22990D01*
X82641Y-46598D02*
X84403Y-46598D01*
X82655Y-47154D02*
X84423Y-47154D01*
X94760Y-23260D02*
X95260Y-23260D01*
G54D31*
X115440Y-39080D03*
G54D32*
X114440Y-39080D03*
X113440Y-39080D03*
X112440Y-39080D03*
X111440Y-39080D03*
X110440Y-39080D03*
X109440Y-39080D03*
X108440Y-39080D03*
X107412Y-39080D03*
G54D33*
X83275Y-43000D03*
G54D34*
X83275Y-44000D03*
X83275Y-45000D03*
G54D35*
X93389Y-25500D03*
X89570Y-25500D03*
X93389Y-30750D03*
X89570Y-30750D03*
G54D36*
X97974Y-25627D03*
G54D37*
X97501Y-25751D03*
X96998Y-25751D03*
X96998Y-25248D03*
X97501Y-25248D03*
G54D36*
X97974Y-25883D03*
X97978Y-25372D03*
X97974Y-25116D03*
G54D38*
X97633Y-24775D03*
X97377Y-24775D03*
X97122Y-24775D03*
X96866Y-24775D03*
X96866Y-26224D03*
X97122Y-26224D03*
X97377Y-26224D03*
X97633Y-26224D03*
G54D36*
X96525Y-25116D03*
X96525Y-25372D03*
X96525Y-25627D03*
X96525Y-25883D03*
G54D39*
X106750Y-29900D03*
G54D32*
X107750Y-29900D03*
G54D31*
X87700Y-29700D03*
G54D32*
X87700Y-30700D03*
G54D40*
X115475Y-27720D03*
G54D41*
X115475Y-26720D03*
X115475Y-25720D03*
G54D39*
X100606Y-23031D03*
G54D42*
X99606Y-23031D03*
X98606Y-23031D03*
G54D39*
X84900Y-43048D03*
G54D42*
X84900Y-44032D03*
X84900Y-45017D03*
G54D43*
X107050Y-46400D03*
X107050Y-42400D03*
G54D44*
X110825Y-46350D03*
X108225Y-46350D03*
G54D36*
X97974Y-30377D03*
G54D37*
X97501Y-30501D03*
G54D36*
X97974Y-30633D03*
X97978Y-30122D03*
X97974Y-29866D03*
G54D38*
X97633Y-29525D03*
X97377Y-29525D03*
X97122Y-29525D03*
X96866Y-29525D03*
X96866Y-30974D03*
X97122Y-30974D03*
X97377Y-30974D03*
X97633Y-30974D03*
G54D36*
X96525Y-29866D03*
X96525Y-30122D03*
X96525Y-30377D03*
X96525Y-30633D03*
G54D37*
X96998Y-30501D03*
X97501Y-29998D03*
X96998Y-29998D03*
G54D45*
X114952Y-43150D03*
X109047Y-43150D03*
G54D46*
X112000Y-43150D03*
G54D47*
X102854Y-38464D03*
X102854Y-38661D03*
X102856Y-38858D03*
X102854Y-39055D03*
G54D48*
X102456Y-38070D03*
X102259Y-38070D03*
X102062Y-38070D03*
X101866Y-38070D03*
G54D47*
X101472Y-38464D03*
X101472Y-38661D03*
X101472Y-38858D03*
X101472Y-39055D03*
G54D48*
X101866Y-39448D03*
X102062Y-39448D03*
X102259Y-39448D03*
X102456Y-39448D03*
G54D49*
X102413Y-39011D03*
X101909Y-39011D03*
X102413Y-38507D03*
X101909Y-38507D03*
G54D50*
X113100Y-28600D03*
X111100Y-28600D03*
X113100Y-23500D03*
X111100Y-23500D03*
G54D51*
X108656Y-33031D03*
X108656Y-33346D03*
X108656Y-33661D03*
X108656Y-33976D03*
X108656Y-34291D03*
X108656Y-34606D03*
X108656Y-34921D03*
X108656Y-35236D03*
X108656Y-35551D03*
X108656Y-35866D03*
X108656Y-36181D03*
X108656Y-36496D03*
X108656Y-36811D03*
G54D52*
X109050Y-37204D03*
X109365Y-37204D03*
X109680Y-37204D03*
X109995Y-37204D03*
X110310Y-37204D03*
X110625Y-37204D03*
X110940Y-37204D03*
X111255Y-37204D03*
X111570Y-37204D03*
X111885Y-37204D03*
X112200Y-37204D03*
X112514Y-37204D03*
X112829Y-37204D03*
X113144Y-37204D03*
X113459Y-37204D03*
X113774Y-37204D03*
X114089Y-37204D03*
X115349Y-32637D03*
X115034Y-32637D03*
X114719Y-32637D03*
X114404Y-32637D03*
X114089Y-32637D03*
X113774Y-32637D03*
X113459Y-32637D03*
X113144Y-32637D03*
X112829Y-32637D03*
X112514Y-32637D03*
X112200Y-32637D03*
X111885Y-32637D03*
X111570Y-32637D03*
X111255Y-32637D03*
X110940Y-32637D03*
X110625Y-32637D03*
X110310Y-32637D03*
X109995Y-32637D03*
X109680Y-32637D03*
X109365Y-32637D03*
X109050Y-32637D03*
G54D53*
X85750Y-29606D03*
X85750Y-30393D03*
X85750Y-31181D03*
X85750Y-28818D03*
G54D42*
X112800Y-45700D03*
G54D39*
X112800Y-46700D03*
X90000Y-40300D03*
G54D42*
X90000Y-39300D03*
G54D54*
X88981Y-43025D03*
X89768Y-43025D03*
X90556Y-43025D03*
X88193Y-43025D03*
G54D42*
X95100Y-36500D03*
G54D39*
X96100Y-36500D03*
G54D42*
X97100Y-36500D03*
G54D55*
X98641Y-44763D03*
X94822Y-44763D03*
G54D35*
X93389Y-36000D03*
X89570Y-36000D03*
X87369Y-39680D03*
X83550Y-39680D03*
G54D56*
X106750Y-31375D03*
X106750Y-30625D03*
X105750Y-31375D03*
X106750Y-31000D03*
X105750Y-30625D03*
G54D57*
X101563Y-40525D03*
X100697Y-40900D03*
X100697Y-40150D03*
G54D58*
X94911Y-39564D03*
X94911Y-41454D03*
G54D59*
X91411Y-39859D03*
X91411Y-41159D03*
G54D60*
X96150Y-27750D03*
X94850Y-27750D03*
X97650Y-34400D03*
X96350Y-34400D03*
X95150Y-38000D03*
X96450Y-38000D03*
X98050Y-27700D03*
X99350Y-27700D03*
G54D59*
X92911Y-39859D03*
X92911Y-41159D03*
G54D60*
X97650Y-33300D03*
X96350Y-33300D03*
G54D59*
X106750Y-33650D03*
X106750Y-32350D03*
X105911Y-44909D03*
X105911Y-43609D03*
X103411Y-44909D03*
X103411Y-43609D03*
X104661Y-44909D03*
X104661Y-43609D03*
G54D61*
X105020Y-25210D03*
X104420Y-25210D03*
X96600Y-23550D03*
X97200Y-23550D03*
X102802Y-36763D03*
X103402Y-36763D03*
G54D62*
X99911Y-39809D03*
X99911Y-39209D03*
X107500Y-31550D03*
X107500Y-30950D03*
X104500Y-31550D03*
X104500Y-30950D03*
X105688Y-34248D03*
X105688Y-33648D03*
G54D61*
X110000Y-23900D03*
X109400Y-23900D03*
X110000Y-27650D03*
X109400Y-27650D03*
X110000Y-25150D03*
X109400Y-25150D03*
G54D62*
X111409Y-30385D03*
X111409Y-30985D03*
X110621Y-30385D03*
X110621Y-30985D03*
X109834Y-30385D03*
X109834Y-30985D03*
X109046Y-30385D03*
X109046Y-30985D03*
G54D61*
X105020Y-27710D03*
X104420Y-27710D03*
X105020Y-26460D03*
X104420Y-26460D03*
X105020Y-23960D03*
X104420Y-23960D03*
X110000Y-26400D03*
X109400Y-26400D03*
X100211Y-33009D03*
X99611Y-33009D03*
G54D62*
X107300Y-35200D03*
X107300Y-34600D03*
G54D61*
X108300Y-40200D03*
X107700Y-40200D03*
X100211Y-35009D03*
X99611Y-35009D03*
G54D62*
X100200Y-38700D03*
X100200Y-38100D03*
X99500Y-38700D03*
X99500Y-38100D03*
G54D61*
X102361Y-40759D03*
X102961Y-40759D03*
X108300Y-40950D03*
X107700Y-40950D03*
X101700Y-34000D03*
X102300Y-34000D03*
G54D62*
X104911Y-39309D03*
X104911Y-38709D03*
G54D61*
X101700Y-35000D03*
X102300Y-35000D03*
X101700Y-32900D03*
X102300Y-32900D03*
X99611Y-34009D03*
X100211Y-34009D03*
X103611Y-33009D03*
X104211Y-33009D03*
X103700Y-35000D03*
X104300Y-35000D03*
G54D62*
X99100Y-24000D03*
X99100Y-24600D03*
X98900Y-30900D03*
X98900Y-31500D03*
G54D61*
X103611Y-34009D03*
X104211Y-34009D03*
X96450Y-31750D03*
X97050Y-31750D03*
G54D63*
X113155Y-40650D03*
X110645Y-40650D03*
G54D43*
X93150Y-42350D03*
X93150Y-46350D03*
X106000Y-40250D03*
X106000Y-36250D03*
X91950Y-46350D03*
X91950Y-42350D03*
G54D64*
X101574Y-45509D03*
G54D65*
X102039Y-46001D03*
X102039Y-45509D03*
X102039Y-45017D03*
G54D66*
X100088Y-46261D03*
X100088Y-44757D03*
X100088Y-45259D03*
X100088Y-45759D03*
G54D64*
X100748Y-43009D03*
G54D65*
X100283Y-42517D03*
X100283Y-43009D03*
X100283Y-43501D03*
G54D66*
X102234Y-42257D03*
X102234Y-43761D03*
X102234Y-43259D03*
X102234Y-42759D03*
G54D67*
X95492Y-23250D03*
G54D53*
X114425Y-26713D03*
X114425Y-25926D03*
X114425Y-27501D03*
G54D68*
X87750Y-36250D03*
X87750Y-32250D03*
X87750Y-28250D03*
X87750Y-24250D03*
G54D69*
X106777Y-23751D03*
X106777Y-24538D03*
X106777Y-25326D03*
X106777Y-26113D03*
X106777Y-26901D03*
X106777Y-27688D03*
X107762Y-27688D03*
X107762Y-26901D03*
X107762Y-26113D03*
X107762Y-25326D03*
X107762Y-24538D03*
X107762Y-23751D03*
G54D68*
X100500Y-26750D03*
X103311Y-26750D03*
X100500Y-24500D03*
X103311Y-24500D03*
X103240Y-31360D03*
X100428Y-31360D03*
X103250Y-29000D03*
X100438Y-29000D03*
X86100Y-35500D03*
X83288Y-35500D03*
X83250Y-33325D03*
X86061Y-33325D03*
X83200Y-25000D03*
X86011Y-25000D03*
X86000Y-27000D03*
X83188Y-27000D03*
G54D50*
X113100Y-26075D03*
X111100Y-26075D03*
G54D61*
X105100Y-30000D03*
X104500Y-30000D03*
G54D33*
X83100Y-28650D03*
G54D70*
X83100Y-29650D03*
X83100Y-30650D03*
X83100Y-31650D03*
G54D71*
X111850Y-45700D03*
G54D40*
X111850Y-46700D03*
G54D72*
X91400Y-28150D03*
G54D73*
X91400Y-28150D03*
G54D72*
X112700Y-35425D03*
G54D73*
X112700Y-35425D03*
G54D72*
X85450Y-40975D03*
G54D73*
X85450Y-40975D03*
G54D53*
X114340Y-30493D03*
X114340Y-29706D03*
X114340Y-28918D03*
X114340Y-31281D03*
G54D74*
X95150Y-34460D03*
X94650Y-33960D03*
X95150Y-33460D03*
G54D75*
X96660Y-35120D03*
X96020Y-35120D03*
X95700Y-33900D03*
X110950Y-44700D03*
X110450Y-44800D03*
X111400Y-44800D03*
X110200Y-45150D03*
X107275Y-39850D03*
X107300Y-40300D03*
X107275Y-40725D03*
X107275Y-41250D03*
X100600Y-33500D03*
X100800Y-33900D03*
X97100Y-38000D03*
X97100Y-37400D03*
X95900Y-38400D03*
X95900Y-37500D03*
X100900Y-39080D03*
X107700Y-33550D03*
X107700Y-34000D03*
X97598Y-24271D03*
X97425Y-23950D03*
X97795Y-23877D03*
X97450Y-29100D03*
X97400Y-32100D03*
X96950Y-31450D03*
X107250Y-30450D03*
X107700Y-30450D03*
X106120Y-32360D03*
X106260Y-31240D03*
X106260Y-30640D03*
X94635Y-28565D03*
X94125Y-28060D03*
X99400Y-39560D03*
X99420Y-39120D03*
X102760Y-42760D03*
X102738Y-43761D03*
X102760Y-43280D03*
X103200Y-43020D03*
X103800Y-43020D03*
X104400Y-43020D03*
X104980Y-43020D03*
X92560Y-41820D03*
X91280Y-41860D03*
X93240Y-40580D03*
X92680Y-40580D03*
X91700Y-40580D03*
X91140Y-40580D03*
X95180Y-27020D03*
X94720Y-27000D03*
X115200Y-32020D03*
X114620Y-32020D03*
X112480Y-31920D03*
X111960Y-31920D03*
X108120Y-32560D03*
X108600Y-32060D03*
X107500Y-32120D03*
X107520Y-32620D03*
X95700Y-33500D03*
X95700Y-33100D03*
X96880Y-26900D03*
X104220Y-30500D03*
X104720Y-30500D03*
X114150Y-32000D03*
X96535Y-45452D03*
X97527Y-46267D03*
X99559Y-41157D03*
X102956Y-41397D03*
X104350Y-39425D03*
X104362Y-38748D03*
X97975Y-23100D03*
X99400Y-26800D03*
X103913Y-37094D03*
X103913Y-36547D03*
X105307Y-38381D03*
X97942Y-31397D03*
X98356Y-31269D03*
X101100Y-37900D03*
X100600Y-37700D03*
X99960Y-27480D03*
X99960Y-27920D03*
X102800Y-35440D03*
X97700Y-26600D03*
X99000Y-25050D03*
X98550Y-25050D03*
X98525Y-29450D03*
X98000Y-29450D03*
X98100Y-26300D03*
X105350Y-38875D03*
X102800Y-35000D03*
X104300Y-35600D03*
X99500Y-31100D03*
X99291Y-28740D03*
X98503Y-28740D03*
X109437Y-35901D03*
X107905Y-35897D03*
X111600Y-29300D03*
X110920Y-29880D03*
X99625Y-29875D03*
X98525Y-29925D03*
X100100Y-29900D03*
X98500Y-30400D03*
X105019Y-34318D03*
X102870Y-34299D03*
X94900Y-25600D03*
X95800Y-25500D03*
X94500Y-32650D03*
X95900Y-30100D03*
X94050Y-32300D03*
X95650Y-30800D03*
X97380Y-27180D03*
X97380Y-28660D03*
X96000Y-40000D03*
X93800Y-40800D03*
X100600Y-36980D03*
X101500Y-36100D03*
X90535Y-45854D03*
X103874Y-38303D03*
X105267Y-39763D03*
X109550Y-47150D03*
X94250Y-25500D03*
X95925Y-25025D03*
X104300Y-25800D03*
X106360Y-28080D03*
X110140Y-29840D03*
X107905Y-36385D03*
X109842Y-35468D03*
X94980Y-24600D03*
X92420Y-33240D03*
X93500Y-34320D03*
X96760Y-24400D03*
X97760Y-28420D03*
X99655Y-25049D03*
X99537Y-26023D03*
X108920Y-26380D03*
X108940Y-27980D03*
X100420Y-41320D03*
X101875Y-40910D03*
X102283Y-40167D03*
X100187Y-40935D03*
X99517Y-44055D03*
X99517Y-45462D03*
X97881Y-38661D03*
X98881Y-39740D03*
X91800Y-45600D03*
X93900Y-38800D03*
X93900Y-40300D03*
X92000Y-44700D03*
X95085Y-29005D03*
X95500Y-28600D03*
X96800Y-27700D03*
X105500Y-32520D03*
X105480Y-31560D03*
G54D10*
G36*
X102525Y-39125D02*
X102075Y-39125D01*
X101800Y-39125D01*
X101800Y-38400D01*
X102525Y-38400D01*
X102525Y-39125D01*
X102525Y-39125D01*
G37*
G54D19*
X102525Y-39125D02*
X102075Y-39125D01*
X101800Y-39125D01*
X101800Y-38400D01*
X102525Y-38400D01*
X102525Y-39125D01*
G54D10*
G36*
X97625Y-30625D02*
X97175Y-30625D01*
X96875Y-30625D01*
X96875Y-29875D01*
X97625Y-29875D01*
X97625Y-30625D01*
X97625Y-30625D01*
G37*
G54D19*
X97625Y-30625D02*
X97175Y-30625D01*
X96875Y-30625D01*
X96875Y-29875D01*
X97625Y-29875D01*
X97625Y-30625D01*
G54D10*
G36*
X97625Y-25875D02*
X96875Y-25875D01*
X96875Y-25125D01*
X97625Y-25125D01*
X97625Y-25875D01*
X97625Y-25875D01*
G37*
G54D19*
X97625Y-25875D02*
X96875Y-25875D01*
X96875Y-25125D01*
X97625Y-25125D01*
X97625Y-25875D01*
M02*
